<svg width="22" height="22" viewBox="0 0 22 22" fill="none" xmlns="http://www.w3.org/2000/svg">
<path d="M19.5844 2.43555H13.1708V5.10785C13.1708 5.39135 13.0582 5.66323 12.8577 5.86369C12.6573 6.06416 12.3854 6.17677 12.1019 6.17677C11.8184 6.17677 11.5465 6.06416 11.3461 5.86369C11.1456 5.66323 11.033 5.39135 11.033 5.10785V2.43555H2.48159C1.9146 2.43555 1.37083 2.66078 0.96991 3.06171C0.568986 3.46263 0.34375 4.0064 0.34375 4.57339V7.78016C0.34375 8.06365 0.456368 8.33554 0.65683 8.536C0.857292 8.73646 1.12918 8.84908 1.41267 8.84908C1.97966 8.84908 2.52343 9.07432 2.92436 9.47524C3.32528 9.87616 3.55052 10.4199 3.55052 10.9869C3.55052 11.5539 3.32528 12.0977 2.92436 12.4986C2.52343 12.8995 1.97966 13.1248 1.41267 13.1248C1.12918 13.1248 0.857292 13.2374 0.65683 13.4378C0.456368 13.6383 0.34375 13.9102 0.34375 14.1937V17.4005C0.34375 17.9674 0.568986 18.5112 0.96991 18.9121C1.37083 19.3131 1.9146 19.5383 2.48159 19.5383H11.033V16.866C11.033 16.5825 11.1456 16.3106 11.3461 16.1102C11.5465 15.9097 11.8184 15.7971 12.1019 15.7971C12.3854 15.7971 12.6573 15.9097 12.8577 16.1102C13.0582 16.3106 13.1708 16.5825 13.1708 16.866V19.5383H19.5844C20.1513 19.5383 20.6951 19.3131 21.096 18.9121C21.497 18.5112 21.7222 17.9674 21.7222 17.4005V4.57339C21.7222 4.0064 21.497 3.46263 21.096 3.06171C20.6951 2.66078 20.1513 2.43555 19.5844 2.43555ZM13.1708 12.9431C13.1708 13.2265 13.0582 13.4984 12.8577 13.6989C12.6573 13.8994 12.3854 14.012 12.1019 14.012C11.8184 14.012 11.5465 13.8994 11.3461 13.6989C11.1456 13.4984 11.033 13.2265 11.033 12.9431V9.0308C11.033 8.7473 11.1456 8.47542 11.3461 8.27495C11.5465 8.07449 11.8184 7.96187 12.1019 7.96187C12.3854 7.96187 12.6573 8.07449 12.8577 8.27495C13.0582 8.47542 13.1708 8.7473 13.1708 9.0308V12.9431Z" fill="#5D6F93"/>
</svg>
