<svg width="19" height="22" viewBox="0 0 19 22" fill="none" xmlns="http://www.w3.org/2000/svg">
<path d="M10.5273 13.749H8.69401C8.4509 13.749 8.21774 13.8456 8.04583 14.0175C7.87392 14.1894 7.77734 14.4226 7.77734 14.6657V21.0824H11.444V14.6657C11.444 14.4226 11.3474 14.1894 11.1755 14.0175C11.0036 13.8456 10.7705 13.749 10.5273 13.749Z" fill="#5D6F93"/>
<path d="M16.7306 4.73908L12.1472 1.68658C11.395 1.18601 10.5116 0.918945 9.60807 0.918945C8.70452 0.918945 7.82113 1.18601 7.06891 1.68658L2.48557 4.73908C1.85719 5.15723 1.34181 5.72411 0.9852 6.38935C0.628591 7.0546 0.441796 7.79761 0.441406 8.55241V16.4999C0.441406 17.1018 0.559958 17.6978 0.790292 18.2539C1.02063 18.81 1.35823 19.3152 1.78383 19.7408C2.64338 20.6004 3.80916 21.0832 5.02474 21.0832H5.94141V14.6666C5.94141 13.9372 6.23114 13.2378 6.74686 12.722C7.26259 12.2063 7.96206 11.9166 8.69141 11.9166H10.5247C11.2541 11.9166 11.9536 12.2063 12.4693 12.722C12.985 13.2378 13.2747 13.9372 13.2747 14.6666V21.0832H14.1914C14.7933 21.0832 15.3893 20.9647 15.9454 20.7344C16.5014 20.504 17.0067 20.1664 17.4323 19.7408C17.8579 19.3152 18.1955 18.81 18.4259 18.2539C18.6562 17.6978 18.7747 17.1018 18.7747 16.4999V8.55241C18.7743 7.79761 18.5876 7.0546 18.2309 6.38935C17.8743 5.72411 17.359 5.15723 16.7306 4.73908Z" fill="#5D6F93"/>
</svg>
