<svg width="23" height="22" viewBox="0 0 23 22" fill="none" xmlns="http://www.w3.org/2000/svg">
<path d="M2.79297 11.613V20.0028C2.79297 21.106 3.66205 22.0003 4.73413 22.0003H10.2994C10.4424 22.0003 10.5583 21.8811 10.5583 21.734V13.3442C10.5583 12.9761 10.8477 12.6783 11.2053 12.6783C11.563 12.6783 11.8524 12.9761 11.8524 13.3442V21.734C11.8524 21.8811 11.9683 22.0003 12.1113 22.0003H17.6753C18.7474 22.0003 19.6165 21.106 19.6165 20.0027V11.613C19.6165 11.4659 19.5006 11.3467 19.3576 11.3467H3.05181C2.90886 11.3466 2.79297 11.4659 2.79297 11.613Z" fill="#5D6F93"/>
<path d="M21.5522 4.68714H19.1193C19.4296 4.20791 19.611 3.62204 19.611 3.0095C19.611 1.77075 18.925 0.70499 17.8119 0.239429C16.6992 -0.240459 15.4699 0.0131256 14.6285 0.891586L11.1992 4.42051L7.76993 0.891586C6.92855 0.0131256 5.69922 -0.240459 4.58646 0.239429C3.47339 0.70499 2.78744 1.77075 2.78744 3.0095C2.78744 3.62204 2.96881 4.20791 3.27905 4.68714H0.846285C0.483887 4.68714 0.199219 4.97972 0.199219 5.353V9.34815C0.199219 9.72138 0.483887 10.014 0.846285 10.014H10.5651V6.68473C10.5651 6.3115 10.8369 6.03187 11.1992 6.01887H11.2122C11.5746 6.01887 11.8592 6.3115 11.8592 6.68473V10.014H21.5522C21.9146 10.014 22.1992 9.72138 22.1992 9.34815V5.353C22.1992 4.97972 21.9146 4.68714 21.5522 4.68714ZM5.71215 4.68714C4.80633 4.68714 4.08157 3.94128 4.08157 3.0095C4.08157 2.1837 4.59909 1.67777 5.09104 1.46451C5.27207 1.38452 5.49228 1.33119 5.72513 1.33119C6.10046 1.33119 6.51438 1.46451 6.8638 1.82408L9.63339 4.68714H5.71215ZM16.6863 4.68714H12.7651L15.5347 1.82408C16.104 1.2512 16.8288 1.26487 17.3074 1.46451C17.7993 1.67777 18.3169 2.1837 18.3169 3.0095C18.3169 3.94128 17.5921 4.68714 16.6863 4.68714Z" fill="#5D6F93"/>
</svg>
