<svg width="23" height="22" viewBox="0 0 23 22" fill="none" xmlns="http://www.w3.org/2000/svg">
<path d="M4.61766 9.41097C4.6249 9.47642 4.63225 9.5426 4.63968 9.60943L4.75485 10.646C4.83569 11.3739 4.9058 12.0052 5.02812 12.509C5.15971 13.051 5.37664 13.5615 5.829 13.9664C6.28138 14.3713 6.81277 14.5306 7.36595 14.6014C7.88016 14.6674 8.51533 14.6673 9.24777 14.6673H14.1551C14.6572 14.6673 15.1004 14.6673 15.4705 14.6297C15.8715 14.589 16.2611 14.4988 16.6358 14.2732C17.0104 14.0477 17.2725 13.7455 17.4961 13.4102C17.7025 13.1007 17.9098 12.709 18.1447 12.2654L20.4267 7.95488C21.2364 6.42545 20.1277 4.58397 18.3971 4.58397H9.13774C8.23684 4.58392 7.46611 4.58387 6.85605 4.66912C6.54729 4.71226 6.24474 4.78133 5.96096 4.89909L5.82909 3.71234C5.71028 2.64299 4.80641 1.83398 3.73047 1.83398H3.27214C2.76588 1.83398 2.35547 2.24439 2.35547 2.75065C2.35547 3.25691 2.76588 3.66732 3.27214 3.66732H3.73047C3.87223 3.66732 3.99132 3.77391 4.00697 3.9148L4.61766 9.41097Z" fill="#F6911E"/>
<path fill-rule="evenodd" clip-rule="evenodd" d="M13.3594 17.8757C13.3594 16.61 14.3854 15.584 15.651 15.584C16.9167 15.584 17.9427 16.61 17.9427 17.8757C17.9427 19.1413 16.9167 20.1673 15.651 20.1673C14.3854 20.1673 13.3594 19.1413 13.3594 17.8757Z" fill="#F6911E"/>
<path fill-rule="evenodd" clip-rule="evenodd" d="M5.10938 17.8757C5.10938 16.61 6.13539 15.584 7.40104 15.584C8.66669 15.584 9.69271 16.61 9.69271 17.8757C9.69271 19.1413 8.66669 20.1673 7.40104 20.1673C6.13539 20.1673 5.10938 19.1413 5.10938 17.8757Z" fill="#F6911E"/>
</svg>
