<svg width="50" height="10" viewBox="0 0 50 10" fill="none" xmlns="http://www.w3.org/2000/svg">
<path d="M4.40332 0.274414C5.19905 0.274414 5.89565 0.405159 6.48926 0.670898L6.70898 0.776367C7.20588 1.03459 7.59689 1.3826 7.87891 1.82129C8.20132 2.32294 8.36126 2.91631 8.36133 3.59668C8.36133 4.29502 8.18757 4.90156 7.83887 5.41211C7.519 5.89154 7.06595 6.25304 6.48438 6.50098L8.49805 9.37793L8.6084 9.53516H6.55176L6.52246 9.49219L4.70215 6.88477C4.6245 6.89024 4.52445 6.89453 4.40332 6.89453H2.45801V9.53516H0.576172V0.274414H4.40332ZM2.45801 5.30957H4.32617C5.04729 5.30957 5.57779 5.15648 5.93262 4.86621C6.28522 4.56923 6.46484 4.15031 6.46484 3.59668C6.46474 3.04277 6.28472 2.62894 5.93262 2.34082C5.57779 2.05061 5.04723 1.89746 4.32617 1.89746H2.45801V5.30957Z" fill="white" stroke="#FDFAFA" stroke-width="0.2"/>
<path d="M14.5049 0.145508C15.4433 0.145508 16.2937 0.351281 17.0518 0.765625H17.0508C17.8083 1.17093 18.4048 1.73553 18.8369 2.45898C19.2699 3.18331 19.4854 3.9999 19.4854 4.90527C19.4853 5.81041 19.2697 6.62642 18.8369 7.35059C18.4049 8.07385 17.809 8.64369 17.0518 9.05762H17.0508C16.2928 9.46306 15.443 9.66504 14.5049 9.66504C13.5666 9.665 12.7178 9.463 11.96 9.05762H11.959C11.2013 8.64367 10.6062 8.07388 10.1738 7.35059H10.1729C9.74065 6.61814 9.52543 5.80216 9.52539 4.90527C9.52539 4.00827 9.74125 3.19584 10.1738 2.47168C10.6061 1.74012 11.2013 1.17093 11.959 0.765625C12.717 0.351333 13.5662 0.14555 14.5049 0.145508ZM14.5049 1.82031C13.9167 1.82036 13.3906 1.95499 12.9238 2.22168L12.9229 2.22266C12.5145 2.44866 12.1822 2.7569 11.9268 3.14941L11.8223 3.32324C11.5556 3.79012 11.4209 4.3171 11.4209 4.90527C11.4209 5.49288 11.5547 6.0235 11.8213 6.49902C12.0882 6.96621 12.4549 7.33339 12.9219 7.60059H12.9229C13.3898 7.85901 13.9162 7.98922 14.5049 7.98926C15.0935 7.98926 15.6208 7.85916 16.0879 7.60059C16.555 7.33338 16.9212 6.96631 17.1885 6.49902C17.4552 6.02343 17.5898 5.49298 17.5898 4.90527C17.5898 4.39075 17.4865 3.92343 17.2822 3.50195L17.1885 3.32324C16.9211 2.84728 16.5544 2.48095 16.0879 2.22266L16.0859 2.22168C15.6191 1.95502 15.0927 1.82031 14.5049 1.82031Z" fill="white" stroke="#FDFAFA" stroke-width="0.2"/>
<path d="M25.5469 0.274414C26.6274 0.274451 27.4751 0.487123 28.0771 0.926758C28.6824 1.36038 28.9862 1.96515 28.9863 2.72949C28.9863 3.19422 28.8784 3.61024 28.6611 3.97266C28.4811 4.27242 28.2437 4.51452 27.9521 4.70215C28.3775 4.8763 28.7249 5.13848 28.9912 5.49023C29.3005 5.89053 29.4521 6.38821 29.4521 6.97559C29.4521 7.79097 29.1358 8.43037 28.5039 8.88184V8.88281C27.8759 9.32235 26.9715 9.53512 25.8057 9.53516H21.2012V0.274414H25.5469ZM23.084 8.01465H25.7021C26.3455 8.0146 26.8107 7.90679 27.1123 7.70508C27.4068 7.50811 27.5566 7.21427 27.5566 6.80762C27.5566 6.4009 27.4067 6.10717 27.1123 5.91016C26.8107 5.70842 26.3456 5.59966 25.7021 5.59961H23.084V8.01465ZM23.084 4.09277H25.3652C25.9422 4.09277 26.368 3.99016 26.6553 3.79883C26.9454 3.60284 27.0908 3.32445 27.0908 2.9502C27.0908 2.56637 26.9453 2.2884 26.6572 2.10156L26.6543 2.10059L26.7109 2.01758L26.6543 2.09961C26.3674 1.90041 25.9418 1.79395 25.3652 1.79395H23.084V4.09277Z" fill="white" stroke="#FDFAFA" stroke-width="0.2"/>
<path d="M32.9814 0.274414V5.42188C32.9814 6.29832 33.1714 6.93751 33.5332 7.35645C33.8927 7.7725 34.4373 7.98918 35.1855 7.98926C35.9293 7.98926 36.4706 7.77317 36.8281 7.35742C37.1881 6.93849 37.377 6.2987 37.377 5.42188V0.274414H39.2344V5.4873C39.2343 6.81648 38.8791 7.85427 38.1562 8.58594C37.4424 9.30878 36.443 9.66406 35.1729 9.66406C33.9025 9.66402 32.8992 9.3092 32.1768 8.58691V8.58594C31.4543 7.85427 31.0997 6.81648 31.0996 5.4873V0.274414H32.9814Z" fill="white" stroke="#FDFAFA" stroke-width="0.2"/>
<path d="M42.5254 0.274414L42.5557 0.31543L44.791 3.4248L47.001 0.316406L47.0312 0.274414H49.1035L48.9893 0.432617L45.8594 4.74805L49.2217 9.37598L49.3369 9.53516H47.1475L47.1182 9.49316L44.7402 6.16309L42.3877 9.49316L42.3584 9.53516H40.1943L40.3096 9.37598L43.6328 4.81348L40.4902 0.432617L40.377 0.274414H42.5254Z" fill="white" stroke="#FDFAFA" stroke-width="0.2"/>
</svg>
