<svg width="30" height="28" viewBox="0 0 30 28" fill="none" xmlns="http://www.w3.org/2000/svg">
<path d="M27.4127 27.9385C27.7596 27.9385 28.0408 27.6573 28.0408 27.3105V26.5599C28.0408 26.3409 27.9273 26.1362 27.7361 26.0292C25.1316 24.5712 22.024 24.4218 18.1967 24.0282C18.1317 24.0216 18.0746 24.0726 18.0747 24.1379L18.0718 25.6353C18.0712 25.9534 17.9028 26.2472 17.6296 26.4068C17.482 26.4929 17.5429 26.7196 17.7138 26.7222C21.1916 26.775 23.4415 27.0406 26.1294 27.9075C26.1924 27.9279 26.2586 27.9385 26.3249 27.9385H27.4127Z" fill="#FFB800"/>
<path d="M22.4545 23.2697C21.9728 23.2183 21.7128 22.6678 21.9883 22.2693L23.6206 19.9084C23.6931 19.8034 23.732 19.6788 23.732 19.5512V10.6227C23.732 9.94665 24.6535 9.74781 24.9323 10.3637L29.0328 19.4229C29.1238 19.6241 29.1026 19.8582 28.9768 20.0397L26.4769 23.6466C26.3251 23.8657 26.0517 23.9651 25.7937 23.898C25.3057 23.771 24.4996 23.5698 23.9009 23.4633C23.4692 23.3865 22.9267 23.3201 22.4545 23.2697Z" fill="#FFB800"/>
<path d="M1.7648 27.9385C1.41792 27.9385 1.13672 27.6573 1.13672 27.3105V26.5599C1.13672 26.3409 1.25022 26.1362 1.44139 26.0292C4.04588 24.5712 7.15345 24.4218 10.9808 24.0282C11.0458 24.0216 11.1029 24.0726 11.1028 24.1379L11.1056 25.6353C11.1063 25.9534 11.2747 26.2472 11.5479 26.4068C11.6955 26.4929 11.6345 26.7196 11.4637 26.7222C7.98591 26.775 5.73601 27.0406 3.04807 27.9075C2.98505 27.9279 2.91883 27.9385 2.85261 27.9385H1.7648Z" fill="#FFB800"/>
<path d="M6.72502 23.2697C7.20675 23.2183 7.46674 22.6678 7.19123 22.2693L5.55899 19.9084C5.48642 19.8034 5.44755 19.6788 5.44755 19.5512V10.6227C5.44755 9.94665 4.52603 9.74781 4.24727 10.3637L0.146763 19.4229C0.0557217 19.6241 0.0769743 19.8582 0.202739 20.0397L2.70258 23.6466C2.85443 23.8657 3.12781 23.9652 3.38579 23.898C3.87384 23.771 4.67995 23.5698 5.27863 23.4633C5.71032 23.3865 6.25285 23.3201 6.72502 23.2697Z" fill="#FFB800"/>
<path d="M20.223 19.9959C20.3319 19.8383 20.363 19.6396 20.3073 19.4562L15.2066 2.66486C15.0265 2.07212 14.188 2.07038 14.0054 2.66237L8.82812 19.455C8.77139 19.639 8.8022 19.8389 8.91169 19.9973L10.7968 22.7239C10.8784 22.842 11.0635 22.7844 11.0638 22.6409C11.0644 22.3228 11.2328 22.029 11.506 21.8694L12.7923 21.1182L14.0814 20.3721C14.2309 20.2855 14.4013 20.2462 14.5679 20.2542C14.7345 20.2462 14.9028 20.2855 15.0524 20.3721L16.3415 21.1182L17.6277 21.8694C17.9009 22.029 18.0694 22.3228 18.07 22.6409C18.0703 22.7844 18.2554 22.842 18.337 22.7239L20.223 19.9959Z" fill="#FFB800"/>
<path fill-rule="evenodd" clip-rule="evenodd" d="M14.9454 26.985C14.737 27.1048 14.4805 27.1048 14.2721 26.985L13.2907 26.4209L12.3116 25.8531C12.1035 25.7324 11.9753 25.5104 11.9749 25.2699L11.9727 24.138L11.9749 23.0061C11.9753 22.7657 12.1035 22.5436 12.3116 22.4229L13.2907 21.8551L14.2721 21.291C14.4805 21.1712 14.737 21.1712 14.9454 21.291L15.9268 21.8551L16.906 22.4229C17.114 22.5436 17.2422 22.7657 17.2426 23.0061L17.2449 24.138L17.2426 25.2699C17.2422 25.5104 17.114 25.7324 16.906 25.8531L15.9268 26.4209L14.9454 26.985ZM15.7066 23.7526C15.7066 23.4057 15.4254 23.1245 15.0785 23.1245H14.2233C13.8764 23.1245 13.5952 23.4057 13.5952 23.7526V24.6079C13.5952 24.9548 13.8764 25.236 14.2233 25.236H15.0785C15.4254 25.236 15.7066 24.9548 15.7066 24.6079V23.7526Z" fill="#FFB800"/>
</svg>
