<svg width="102" height="28" viewBox="0 0 102 28" fill="none" xmlns="http://www.w3.org/2000/svg">
<g clip-path="url(#clip0_625_11036)">
<path d="M39.4033 3.27441C40.199 3.27441 40.8956 3.40516 41.4893 3.6709L41.709 3.77637C42.2059 4.03459 42.5969 4.3826 42.8789 4.82129C43.2013 5.32294 43.3613 5.91631 43.3613 6.59668C43.3613 7.29502 43.1876 7.90156 42.8389 8.41211C42.519 8.89154 42.066 9.25304 41.4844 9.50098L43.498 12.3779L43.6084 12.5352H41.5518L41.5225 12.4922L39.7021 9.88477C39.6245 9.89024 39.5244 9.89453 39.4033 9.89453H37.458V12.5352H35.5762V3.27441H39.4033ZM37.458 8.30957H39.3262C40.0473 8.30957 40.5778 8.15648 40.9326 7.86621C41.2852 7.56923 41.4648 7.15031 41.4648 6.59668C41.4647 6.04277 41.2847 5.62894 40.9326 5.34082C40.5778 5.05061 40.0472 4.89746 39.3262 4.89746H37.458V8.30957Z" fill="white" stroke="#FDFAFA" stroke-width="0.2"/>
<path d="M49.5049 3.14551C50.4433 3.14551 51.2937 3.35128 52.0518 3.76562H52.0508C52.8083 4.17093 53.4048 4.73553 53.8369 5.45898C54.2699 6.18331 54.4854 6.9999 54.4854 7.90527C54.4853 8.81041 54.2697 9.62642 53.8369 10.3506C53.4049 11.0738 52.809 11.6437 52.0518 12.0576H52.0508C51.2928 12.4631 50.443 12.665 49.5049 12.665C48.5666 12.665 47.7178 12.463 46.96 12.0576H46.959C46.2013 11.6437 45.6062 11.0739 45.1738 10.3506H45.1729C44.7406 9.61814 44.5254 8.80216 44.5254 7.90527C44.5254 7.00827 44.7413 6.19584 45.1738 5.47168C45.6061 4.74012 46.2013 4.17093 46.959 3.76562C47.717 3.35133 48.5662 3.14555 49.5049 3.14551ZM49.5049 4.82031C48.9167 4.82036 48.3906 4.95499 47.9238 5.22168L47.9229 5.22266C47.5145 5.44866 47.1822 5.7569 46.9268 6.14941L46.8223 6.32324C46.5556 6.79012 46.4209 7.3171 46.4209 7.90527C46.4209 8.49288 46.5547 9.0235 46.8213 9.49902C47.0882 9.96621 47.4549 10.3334 47.9219 10.6006H47.9229C48.3898 10.859 48.9162 10.9892 49.5049 10.9893C50.0935 10.9893 50.6208 10.8592 51.0879 10.6006C51.555 10.3334 51.9212 9.96631 52.1885 9.49902C52.4552 9.02343 52.5898 8.49298 52.5898 7.90527C52.5898 7.39075 52.4865 6.92343 52.2822 6.50195L52.1885 6.32324C51.9211 5.84728 51.5544 5.48095 51.0879 5.22266L51.0859 5.22168C50.6191 4.95502 50.0927 4.82031 49.5049 4.82031Z" fill="white" stroke="#FDFAFA" stroke-width="0.2"/>
<path d="M60.5469 3.27441C61.6274 3.27445 62.4751 3.48712 63.0771 3.92676C63.6824 4.36038 63.9862 4.96515 63.9863 5.72949C63.9863 6.19422 63.8784 6.61024 63.6611 6.97266C63.4811 7.27242 63.2437 7.51452 62.9521 7.70215C63.3775 7.8763 63.7249 8.13848 63.9912 8.49023C64.3005 8.89053 64.4521 9.38821 64.4521 9.97559C64.4521 10.791 64.1358 11.4304 63.5039 11.8818V11.8828C62.8759 12.3223 61.9715 12.5351 60.8057 12.5352H56.2012V3.27441H60.5469ZM58.084 11.0146H60.7021C61.3455 11.0146 61.8107 10.9068 62.1123 10.7051C62.4068 10.5081 62.5566 10.2143 62.5566 9.80762C62.5566 9.4009 62.4067 9.10717 62.1123 8.91016C61.8107 8.70842 61.3456 8.59966 60.7021 8.59961H58.084V11.0146ZM58.084 7.09277H60.3652C60.9422 7.09277 61.368 6.99016 61.6553 6.79883C61.9454 6.60284 62.0908 6.32445 62.0908 5.9502C62.0908 5.56637 61.9453 5.2884 61.6572 5.10156L61.6543 5.10059L61.7109 5.01758L61.6543 5.09961C61.3674 4.90041 60.9418 4.79395 60.3652 4.79395H58.084V7.09277Z" fill="white" stroke="#FDFAFA" stroke-width="0.2"/>
<path d="M67.9814 3.27441V8.42188C67.9814 9.29832 68.1714 9.93751 68.5332 10.3564C68.8927 10.7725 69.4373 10.9892 70.1855 10.9893C70.9293 10.9893 71.4706 10.7732 71.8281 10.3574C72.1881 9.93849 72.377 9.2987 72.377 8.42188V3.27441H74.2344V8.4873C74.2343 9.81648 73.8791 10.8543 73.1562 11.5859C72.4424 12.3088 71.443 12.6641 70.1729 12.6641C68.9025 12.664 67.8992 12.3092 67.1768 11.5869V11.5859C66.4543 10.8543 66.0997 9.81648 66.0996 8.4873V3.27441H67.9814Z" fill="white" stroke="#FDFAFA" stroke-width="0.2"/>
<path d="M77.5254 3.27441L77.5557 3.31543L79.791 6.4248L82.001 3.31641L82.0312 3.27441H84.1035L83.9893 3.43262L80.8594 7.74805L84.2217 12.376L84.3369 12.5352H82.1475L82.1182 12.4932L79.7402 9.16309L77.3877 12.4932L77.3584 12.5352H75.1943L75.3096 12.376L78.6328 7.81348L75.4902 3.43262L75.377 3.27441H77.5254Z" fill="white" stroke="#FDFAFA" stroke-width="0.2"/>
<path d="M37.458 16.9121V21.4102L41.7656 16.9424L41.7949 16.9121H43.958L43.7998 17.0801L40.0527 21.0684L44.0381 26.0098L44.1689 26.1729H41.9463L41.916 26.1367L38.7891 22.4287L37.458 23.7959V26.1729H35.5762V16.9121H37.458Z" fill="white" stroke="#FDFAFA" stroke-width="0.2"/>
<path d="M47.0166 16.9121V26.1729H45.1348V16.9121H47.0166Z" fill="white" stroke="#FDFAFA" stroke-width="0.2"/>
<path d="M50.9287 16.9121L50.959 16.9482L55.7773 22.8652V16.9121H57.6475V26.1729H56.1152L56.085 26.1357L51.2656 20.2178V26.1729H49.3965V16.9121H50.9287Z" fill="white" stroke="#FDFAFA" stroke-width="0.2"/>
<path d="M64.3633 16.7822C65.1336 16.7823 65.8369 16.9085 66.4717 17.1641C67.1067 17.4199 67.6417 17.7964 68.0752 18.292L68.1377 18.3633L68.0703 18.4287L67.0088 19.4648L66.9375 19.5332L66.8682 19.4639C66.1966 18.7922 65.389 18.457 64.4404 18.457C63.8944 18.457 63.4027 18.5575 62.9639 18.7559L62.7793 18.8467C62.3037 19.1055 61.9289 19.4681 61.6533 19.9355L61.6523 19.9346C61.3861 20.4009 61.2529 20.9362 61.2529 21.542C61.253 22.1296 61.3862 22.6556 61.6523 23.1221H61.6533C61.9291 23.5899 62.3048 23.9571 62.7812 24.2246H62.7803C63.2645 24.4917 63.813 24.626 64.4277 24.626C65.0984 24.626 65.685 24.4823 66.1914 24.2002V21.3379H67.9834V25.0977L67.9463 25.1279C67.4699 25.5072 66.9148 25.7972 66.2832 25.999C65.6518 26.2007 65.0032 26.3018 64.3369 26.3018C63.3989 26.3018 62.5499 26.0997 61.792 25.6943H61.791C61.0337 25.2804 60.438 24.7106 60.0059 23.9873C59.573 23.2631 59.3575 22.4473 59.3574 21.542C59.3574 20.6366 59.5728 19.8201 60.0059 19.0957C60.438 18.3724 61.0336 17.8076 61.791 17.4023L62.083 17.2568C62.7739 16.9399 63.5345 16.7822 64.3633 16.7822Z" fill="white" stroke="#FDFAFA" stroke-width="0.2"/>
<path d="M74.1953 16.9121C75.1742 16.9121 76.0481 17.1041 76.8145 17.4912C77.5814 17.8702 78.1791 18.4141 78.6035 19.1211H78.6045C79.0293 19.8203 79.2402 20.6287 79.2402 21.542C79.2402 22.3412 79.0787 23.0631 78.7539 23.7051L78.6045 23.9756C78.1801 24.6742 77.5829 25.2178 76.8164 25.6055H76.8154C76.0488 25.9843 75.1746 26.1729 74.1953 26.1729H70.1348V16.9121H74.1953ZM72.0166 24.5488H74.1172C74.7691 24.5488 75.336 24.4257 75.8203 24.1836C76.3128 23.933 76.6866 23.5844 76.9434 23.1367V23.1357C77.2097 22.6783 77.3438 22.148 77.3438 21.542C77.3437 20.936 77.2102 20.4102 76.9443 19.9619L76.9424 19.96C76.6856 19.504 76.3127 19.1557 75.8213 18.9141L75.8193 18.9131C75.3353 18.6627 74.7686 18.5352 74.1172 18.5352H72.0166V24.5488Z" fill="white" stroke="#FDFAFA" stroke-width="0.2"/>
<path d="M85.29 16.7822C86.2284 16.7822 87.0779 16.9881 87.8359 17.4023H87.835C88.5927 17.8077 89.1896 18.3722 89.6221 19.0957C90.0547 19.82 90.2695 20.6366 90.2695 21.542C90.2695 22.4471 90.0545 23.2632 89.6221 23.9873C89.1897 24.7106 88.5932 25.2804 87.8359 25.6943H87.835C87.0771 26.0997 86.228 26.3018 85.29 26.3018C84.3521 26.3018 83.503 26.0997 82.7451 25.6943H82.7441C81.9868 25.2804 81.3904 24.7106 80.958 23.9873C80.5257 23.2548 80.3106 22.4389 80.3105 21.542C80.3105 20.645 80.5254 19.8326 80.958 19.1084C81.3903 18.3766 81.9865 17.8077 82.7441 17.4023L83.0322 17.2568C83.7156 16.9397 84.4688 16.7822 85.29 16.7822ZM85.29 18.457C84.7019 18.457 84.1758 18.5918 83.709 18.8584L83.707 18.8594C83.2408 19.1177 82.8748 19.484 82.6074 19.96H82.6064C82.3398 20.4268 82.2061 20.9538 82.2061 21.542C82.2061 22.1297 82.3398 22.6602 82.6064 23.1357C82.8737 23.603 83.2402 23.9701 83.707 24.2373L83.8857 24.3281C84.3075 24.5262 84.7749 24.626 85.29 24.626C85.8789 24.626 86.4059 24.4959 86.873 24.2373C87.3398 23.9701 87.7064 23.603 87.9736 23.1357C88.2403 22.6602 88.374 22.1296 88.374 21.542C88.374 20.9538 88.2403 20.4268 87.9736 19.96H87.9727C87.7053 19.484 87.3393 19.1177 86.873 18.8594L86.8711 18.8584C86.4043 18.5918 85.8782 18.457 85.29 18.457Z" fill="white" stroke="#FDFAFA" stroke-width="0.2"/>
<path d="M93.5273 16.9121L93.5566 16.96L97.0684 22.8213L100.518 16.9609L100.546 16.9121H102.089V17.0117L102.102 26.0723V26.1729H100.31V26.0732L100.296 20.4277L97.5049 25.0889L97.4756 25.1367H96.6123L96.583 25.0889L93.791 20.501V26.1729H91.9863V16.9121H93.5273Z" fill="white" stroke="#FDFAFA" stroke-width="0.2"/>
<path d="M27.4127 25.9385C27.7596 25.9385 28.0408 25.6573 28.0408 25.3105V24.5599C28.0408 24.3409 27.9273 24.1362 27.7361 24.0292C25.1316 22.5712 22.024 22.4218 18.1967 22.0282C18.1317 22.0216 18.0746 22.0726 18.0747 22.1379L18.0718 23.6353C18.0712 23.9534 17.9028 24.2472 17.6296 24.4068C17.482 24.4929 17.5429 24.7196 17.7138 24.7222C21.1916 24.775 23.4415 25.0406 26.1294 25.9075C26.1924 25.9279 26.2586 25.9385 26.3249 25.9385H27.4127Z" fill="#FFB800"/>
<path d="M22.4545 21.2697C21.9728 21.2183 21.7128 20.6678 21.9883 20.2693L23.6206 17.9084C23.6931 17.8034 23.732 17.6788 23.732 17.5512V8.62266C23.732 7.94665 24.6535 7.74781 24.9323 8.36367L29.0328 17.4229C29.1238 17.6241 29.1026 17.8582 28.9768 18.0397L26.4769 21.6466C26.3251 21.8657 26.0517 21.9651 25.7937 21.898C25.3057 21.771 24.4996 21.5698 23.9009 21.4633C23.4692 21.3865 22.9267 21.3201 22.4545 21.2697Z" fill="#FFB800"/>
<path d="M1.7648 25.9385C1.41792 25.9385 1.13672 25.6573 1.13672 25.3105V24.5599C1.13672 24.3409 1.25022 24.1362 1.44139 24.0292C4.04588 22.5712 7.15345 22.4218 10.9808 22.0282C11.0458 22.0216 11.1029 22.0726 11.1028 22.1379L11.1056 23.6353C11.1063 23.9534 11.2747 24.2472 11.5479 24.4068C11.6955 24.4929 11.6345 24.7196 11.4637 24.7222C7.98591 24.775 5.73601 25.0406 3.04807 25.9075C2.98505 25.9279 2.91883 25.9385 2.85261 25.9385H1.7648Z" fill="#FFB800"/>
<path d="M6.72502 21.2697C7.20675 21.2183 7.46674 20.6678 7.19123 20.2693L5.55899 17.9084C5.48642 17.8034 5.44755 17.6788 5.44755 17.5512V8.62266C5.44755 7.94665 4.52603 7.74781 4.24727 8.36367L0.146763 17.4229C0.0557217 17.6241 0.0769743 17.8582 0.202739 18.0397L2.70258 21.6466C2.85443 21.8657 3.12781 21.9652 3.38579 21.898C3.87384 21.771 4.67995 21.5698 5.27863 21.4633C5.71032 21.3865 6.25285 21.3201 6.72502 21.2697Z" fill="#FFB800"/>
<path d="M20.223 17.9959C20.3319 17.8383 20.363 17.6396 20.3073 17.4562L15.2066 0.664865C15.0265 0.0721192 14.188 0.0703797 14.0054 0.662373L8.82812 17.455C8.77139 17.639 8.8022 17.8389 8.91169 17.9973L10.7968 20.7239C10.8784 20.842 11.0635 20.7844 11.0638 20.6409C11.0644 20.3228 11.2328 20.029 11.506 19.8694L12.7923 19.1182L14.0814 18.3721C14.2309 18.2855 14.4013 18.2462 14.5679 18.2542C14.7345 18.2462 14.9028 18.2855 15.0524 18.3721L16.3415 19.1182L17.6277 19.8694C17.9009 20.029 18.0694 20.3228 18.07 20.6409C18.0703 20.7844 18.2554 20.842 18.337 20.7239L20.223 17.9959Z" fill="#FFB800"/>
<path fill-rule="evenodd" clip-rule="evenodd" d="M14.9454 24.985C14.737 25.1048 14.4805 25.1048 14.2721 24.985L13.2907 24.4209L12.3116 23.8531C12.1035 23.7324 11.9753 23.5104 11.9749 23.2699L11.9727 22.138L11.9749 21.0061C11.9753 20.7657 12.1035 20.5436 12.3116 20.4229L13.2907 19.8551L14.2721 19.291C14.4805 19.1712 14.737 19.1712 14.9454 19.291L15.9268 19.8551L16.906 20.4229C17.114 20.5436 17.2422 20.7657 17.2426 21.0061L17.2449 22.138L17.2426 23.2699C17.2422 23.5104 17.114 23.7324 16.906 23.8531L15.9268 24.4209L14.9454 24.985ZM15.7066 21.7526C15.7066 21.4057 15.4254 21.1245 15.0785 21.1245H14.2233C13.8764 21.1245 13.5952 21.4057 13.5952 21.7526V22.6079C13.5952 22.9548 13.8764 23.236 14.2233 23.236H15.0785C15.4254 23.236 15.7066 22.9548 15.7066 22.6079V21.7526Z" fill="#FFB800"/>
</g>
<defs>
<clipPath id="clip0_625_11036">
<rect width="102" height="27.2586" fill="white"/>
</clipPath>
</defs>
</svg>
