<svg width="18" height="18" viewBox="0 0 18 18" fill="none" xmlns="http://www.w3.org/2000/svg">
<path d="M16.1815 2.95898H1.56702C1.38245 2.95898 1.20544 3.03231 1.07493 3.16282C0.944415 3.29333 0.871094 3.47034 0.871094 3.65491C0.871094 3.83949 0.944415 4.0165 1.07493 4.14701C1.20544 4.27752 1.38245 4.35084 1.56702 4.35084H16.1815C16.3661 4.35084 16.5431 4.27752 16.6736 4.14701C16.8041 4.0165 16.8775 3.83949 16.8775 3.65491C16.8775 3.47034 16.8041 3.29333 16.6736 3.16282C16.5431 3.03231 16.3661 2.95898 16.1815 2.95898ZM16.1815 8.52642H1.56702C1.38245 8.52642 1.20544 8.59974 1.07493 8.73025C0.944415 8.86076 0.871094 9.03778 0.871094 9.22235C0.871094 9.40692 0.944415 9.58393 1.07493 9.71444C1.20544 9.84496 1.38245 9.91828 1.56702 9.91828H16.1815C16.3661 9.91828 16.5431 9.84496 16.6736 9.71444C16.8041 9.58393 16.8775 9.40692 16.8775 9.22235C16.8775 9.03778 16.8041 8.86076 16.6736 8.73025C16.5431 8.59974 16.3661 8.52642 16.1815 8.52642ZM9.22224 14.0939H1.56702C1.38245 14.0939 1.20544 14.1672 1.07493 14.2977C0.944415 14.4282 0.871094 14.6052 0.871094 14.7898C0.871094 14.9744 0.944415 15.1514 1.07493 15.2819C1.20544 15.4124 1.38245 15.4857 1.56702 15.4857H9.22224C9.40682 15.4857 9.58383 15.4124 9.71434 15.2819C9.84485 15.1514 9.91817 14.9744 9.91817 14.7898C9.91817 14.6052 9.84485 14.4282 9.71434 14.2977C9.58383 14.1672 9.40682 14.0939 9.22224 14.0939Z" fill="#798CB4"/>
</svg>
