<svg width="10" height="10" viewBox="0 0 10 10" fill="none" xmlns="http://www.w3.org/2000/svg">
<path d="M4.19531 -0.0878906C5.17422 -0.0878906 6.04807 0.104068 6.81445 0.491211C7.5814 0.870225 8.17906 1.41413 8.60352 2.12109H8.60449C9.02934 2.82034 9.2402 3.62867 9.24023 4.54199C9.24023 5.34119 9.07866 6.06312 8.75391 6.70508L8.60449 6.97559C8.18005 7.67416 7.58294 8.21782 6.81641 8.60547H6.81543C6.04881 8.98432 5.17461 9.17285 4.19531 9.17285H0.134766V-0.0878906H4.19531ZM2.0166 7.54883H4.11719C4.76906 7.54883 5.33599 7.42573 5.82031 7.18359C6.31279 6.93301 6.68655 6.58442 6.94336 6.13672V6.13574C7.20967 5.67834 7.34375 5.14804 7.34375 4.54199C7.34372 3.93599 7.21021 3.41021 6.94434 2.96191L6.94238 2.95996C6.68556 2.50402 6.3127 2.15574 5.82129 1.91406L5.81934 1.91309C5.3353 1.66275 4.76857 1.53516 4.11719 1.53516H2.0166V7.54883Z" fill="white" stroke="#FDFAFA" stroke-width="0.2"/>
</svg>
