<svg width="9" height="11" viewBox="0 0 9 11" fill="none" xmlns="http://www.w3.org/2000/svg">
<path d="M5.36328 0.782227C6.13361 0.782262 6.83694 0.908465 7.47168 1.16406C8.10672 1.41992 8.64171 1.79642 9.0752 2.29199L9.1377 2.36328L9.07031 2.42871L8.00879 3.46484L7.9375 3.5332L7.86816 3.46387C7.19664 2.79225 6.38897 2.45703 5.44043 2.45703C4.89442 2.45704 4.40271 2.55749 3.96387 2.75586L3.7793 2.84668C3.30367 3.10548 2.9289 3.46811 2.65332 3.93555L2.65234 3.93457C2.38613 4.40089 2.25293 4.93623 2.25293 5.54199C2.25296 6.12957 2.38622 6.65559 2.65234 7.12207H2.65332C2.92912 7.58989 3.30484 7.95711 3.78125 8.22461H3.78027C4.26453 8.49169 4.81301 8.62598 5.42773 8.62598C6.09839 8.62596 6.68499 8.48226 7.19141 8.2002V5.33789H8.9834V9.09766L8.94629 9.12793C8.4699 9.50724 7.91484 9.79721 7.2832 9.99902C6.65184 10.2007 6.0032 10.3018 5.33691 10.3018C4.39894 10.3018 3.54988 10.0997 2.79199 9.69434H2.79102C2.03372 9.2804 1.43796 8.71064 1.00586 7.9873C0.572972 7.26306 0.357457 6.44726 0.357422 5.54199C0.357422 4.63657 0.572848 3.82006 1.00586 3.0957C1.43796 2.37242 2.03363 1.8076 2.79102 1.40234L3.08301 1.25684C3.77386 0.939881 4.53455 0.782227 5.36328 0.782227Z" fill="white" stroke="#FDFAFA" stroke-width="0.2"/>
</svg>
