<svg width="11" height="11" viewBox="0 0 11 11" fill="none" xmlns="http://www.w3.org/2000/svg">
<path d="M5.29004 0.782227C6.22839 0.782231 7.07789 0.988085 7.83594 1.40234H7.83496C8.59268 1.80766 9.18955 2.37217 9.62207 3.0957C10.0547 3.82002 10.2695 4.63661 10.2695 5.54199C10.2695 6.44714 10.0545 7.26315 9.62207 7.9873C9.18967 8.71061 8.59324 9.2804 7.83594 9.69434H7.83496C7.07707 10.0997 6.22802 10.3018 5.29004 10.3018C4.35207 10.3018 3.503 10.0997 2.74512 9.69434H2.74414C1.98684 9.2804 1.39041 8.71061 0.958008 7.9873C0.525736 7.25481 0.310582 6.43891 0.310547 5.54199C0.310547 4.64502 0.525418 3.83258 0.958008 3.1084C1.39032 2.3766 1.98655 1.80771 2.74414 1.40234L3.03223 1.25684C3.71559 0.939718 4.46882 0.782227 5.29004 0.782227ZM5.29004 2.45703C4.70188 2.45703 4.17581 2.59178 3.70898 2.8584L3.70703 2.85938C3.2408 3.11769 2.87483 3.48401 2.60742 3.95996H2.60645C2.33975 4.42684 2.20605 4.95382 2.20605 5.54199C2.20609 6.12966 2.3398 6.66018 2.60645 7.13574C2.87368 7.60304 3.24021 7.9701 3.70703 8.2373L3.88574 8.32812C4.30745 8.52617 4.77489 8.62598 5.29004 8.62598C5.87892 8.62597 6.40593 8.49587 6.87305 8.2373C7.33985 7.9701 7.7064 7.60303 7.97363 7.13574C8.24027 6.66019 8.37399 6.12965 8.37402 5.54199C8.37402 4.95382 8.24032 4.42684 7.97363 3.95996H7.97266C7.70525 3.48401 7.33926 3.1177 6.87305 2.85938L6.87109 2.8584C6.40427 2.59177 5.87821 2.45704 5.29004 2.45703Z" fill="white" stroke="#FDFAFA" stroke-width="0.2"/>
</svg>
