<svg width="152" height="77" viewBox="0 0 152 77" fill="none" xmlns="http://www.w3.org/2000/svg">
<g clip-path="url(#clip0_1_56826)">
<path d="M131.436 21.7851V40.4436H124.773V27.3551H118.358V40.4436H111.695V21.7838H131.436V21.7851Z" fill="black"/>
<path fill-rule="evenodd" clip-rule="evenodd" d="M98.0106 41.1105C103.975 41.1105 108.404 37.4536 108.404 31.9097C108.404 26.5439 105.136 23.06 99.6749 23.06C97.1545 23.06 95.0749 23.9472 93.5084 25.478C93.8824 22.314 96.558 20.0041 99.5038 20.0041C100.184 20.0041 105.302 19.9933 105.302 19.9933L108.196 14.4545C108.196 14.4545 101.77 14.6008 98.7833 14.6008C91.9579 14.7197 87.3477 20.9238 87.3477 28.4589C87.3477 37.2374 91.8441 41.1105 98.0106 41.1105ZM98.0468 27.966C100.261 27.966 101.797 29.4211 101.797 31.9091C101.797 34.1484 100.432 35.9934 98.0468 35.9985C95.7649 35.9985 94.2296 34.2889 94.2296 31.9472C94.2296 29.4586 95.7649 27.966 98.0468 27.966Z" fill="black"/>
<path d="M81.9267 34.197C81.9267 34.197 80.3532 35.1039 78.0033 35.2756C75.3016 35.3557 72.8944 33.6494 72.8944 30.6176C72.8944 27.6603 75.0186 25.9654 77.9352 25.9654C79.7236 25.9654 82.0895 27.205 82.0895 27.205C82.0895 27.205 83.8206 24.0282 84.7174 22.4395C83.0753 21.1949 80.8881 20.5125 78.3442 20.5125C71.9239 20.5125 66.9512 24.6986 66.9512 30.5801C66.9512 36.5367 71.625 40.6255 78.3442 40.5021C80.2222 40.4321 82.8132 39.7726 84.3924 38.7582L81.9267 34.197Z" fill="black"/>
<path d="M0 16.6122L9.24211 33.1318V43.2083L0.0108117 59.6956L0 16.6122Z" fill="#5B57A2"/>
<path d="M35.4863 27.1207L44.1465 21.8128L61.8701 21.7963L35.4863 37.9591V27.1207Z" fill="#D90751"/>
<path d="M35.4374 16.5148L35.4864 38.3862L26.2227 32.6942V0.000183105L35.4374 16.5148Z" fill="#FAB718"/>
<path d="M61.8702 21.796L44.1459 21.8125L35.4374 16.5148L26.2227 0.000183105L61.8702 21.796Z" fill="#ED6F26"/>
<path d="M35.4864 59.7871V49.1757L26.2227 43.5917L26.2277 76.3182L35.4864 59.7871Z" fill="#63B22F"/>
<path d="M44.1245 54.5276L9.24147 33.1318L0 16.6122L61.8322 54.5059L44.1245 54.5276Z" fill="#1487C9"/>
<path d="M26.2285 76.3182L35.4859 59.7871L44.1244 54.5275L61.8321 54.5059L26.2285 76.3182Z" fill="#017F36"/>
<path d="M0.0117188 59.6952L26.2988 43.5921L17.4612 38.1697L9.24301 43.208L0.0117188 59.6952Z" fill="#984995"/>
<path d="M72.8951 53.0007C72.6916 53.2602 72.4238 53.4561 72.1026 53.5883C71.7731 53.7225 71.4205 53.7908 71.0647 53.7893C70.7109 53.7941 70.3591 53.7351 70.0262 53.6151C69.7272 53.5065 69.4539 53.3371 69.2236 53.1177C68.9961 52.8979 68.8176 52.6327 68.6995 52.3393C68.5717 52.0179 68.508 51.6746 68.5119 51.3287C68.5119 50.9853 68.571 50.6673 68.6938 50.3658C68.8114 50.0637 68.9825 49.8049 69.1968 49.5874C69.4112 49.3654 69.6681 49.1963 69.9568 49.064C70.2513 48.9368 70.5725 48.8681 70.9254 48.8681C71.3058 48.8681 71.6587 48.9158 71.9799 49.0105C72.3011 49.1059 72.5739 49.2649 72.7984 49.4875L72.4079 50.149C72.2191 49.9778 71.9966 49.8478 71.7548 49.7674C71.5248 49.6933 71.2847 49.6559 71.0431 49.6567C70.8294 49.6567 70.6259 49.6987 70.4281 49.7782C70.2332 49.8567 70.0551 49.9717 69.9034 50.1172C69.7484 50.2667 69.6262 50.4469 69.5447 50.6463C69.4538 50.8524 69.4112 51.08 69.4112 51.3338C69.4112 51.5933 69.4589 51.826 69.5498 52.027C69.6414 52.2337 69.7641 52.4086 69.9193 52.5562C70.0745 52.705 70.2564 52.8156 70.465 52.89C70.6742 52.9695 70.8936 53.0064 71.129 53.0064C71.4177 53.0064 71.6804 52.9479 71.9049 52.8366C72.1273 52.7292 72.3272 52.5802 72.4938 52.3978L72.8951 53.0007ZM73.9972 53.678V48.9686H74.8431V52.4773L77.5937 48.9686H78.4396V53.6787H77.5937V50.1699L74.8431 53.6787L73.9972 53.678ZM84.0426 53.0007C83.8345 53.2624 83.5615 53.465 83.2508 53.5883C82.921 53.7224 82.5682 53.7907 82.2122 53.7893C81.8586 53.7941 81.507 53.735 81.1743 53.6151C80.8751 53.5065 80.6016 53.3371 80.3711 53.1177C80.1436 52.8979 79.9651 52.6327 79.847 52.3393C79.7192 52.0179 79.6555 51.6746 79.6594 51.3287C79.6594 50.9853 79.7185 50.6673 79.8413 50.3658C79.9596 50.0637 80.1307 49.8049 80.3444 49.5874C80.5587 49.3654 80.8156 49.1963 81.1044 49.064C81.4093 48.9297 81.7397 48.8628 82.073 48.8681C82.4533 48.8681 82.8062 48.9158 83.1274 49.0105C83.4486 49.1059 83.7214 49.2649 83.9466 49.4875L83.5554 50.149C83.3669 49.9777 83.1446 49.8477 82.9029 49.7674C82.673 49.6933 82.4328 49.656 82.1913 49.6567C81.7661 49.6581 81.3578 49.8229 81.0509 50.1172C80.8973 50.2678 80.7753 50.4477 80.6922 50.6463C80.6013 50.8524 80.5587 51.08 80.5587 51.3338C80.5587 51.5933 80.607 51.826 80.698 52.027C80.7889 52.2337 80.9117 52.4086 81.0668 52.5562C81.222 52.705 81.4045 52.8156 81.6131 52.89C81.8217 52.9638 82.0412 53.0064 82.2765 53.0064C82.5658 53.0064 82.8228 52.9479 83.0524 52.8366C83.2748 52.7292 83.4747 52.5802 83.6413 52.3978L84.0426 53.0007ZM84.4763 48.9686H88.8163V49.8049H87.0718V53.678H86.2259V49.8049H84.4814V48.9686H84.4763Z" fill="black"/>
<path fill-rule="evenodd" clip-rule="evenodd" d="M92.7666 53.6315C93.0878 53.531 93.3606 53.3771 93.596 53.1659L93.339 52.5096C93.1838 52.6476 92.9752 52.764 92.724 52.8594C92.4722 52.9548 92.1885 53.0018 91.8782 53.0018C91.4126 53.0018 91.0272 52.8804 90.7219 52.6317C90.4173 52.3824 90.2513 52.0339 90.2138 51.5887H93.8745C93.912 51.4246 93.9279 51.2395 93.9279 51.0227C93.9279 50.6996 93.8688 50.4089 93.7511 50.1444C93.6416 49.8875 93.4816 49.6552 93.2805 49.4613C93.0767 49.2693 92.8364 49.1201 92.5739 49.0225C92.2992 48.9159 92.0069 48.8619 91.7122 48.8635C91.316 48.8635 90.9681 48.9322 90.6634 49.0594C90.3754 49.1806 90.1149 49.3588 89.8977 49.5834C89.6868 49.8068 89.5248 50.0717 89.422 50.3612C89.3089 50.6695 89.2527 50.9958 89.256 51.3241C89.256 51.6949 89.3202 52.0332 89.4379 52.3353C89.5524 52.628 89.7275 52.893 89.9518 53.1131C90.1712 53.3294 90.4383 53.4941 90.7544 53.6105C91.0928 53.7305 91.4498 53.7895 91.8088 53.7847C92.134 53.7827 92.457 53.7306 92.7666 53.6315ZM90.6259 50.0064C90.8879 49.7685 91.2358 49.6521 91.6746 49.6521C92.0868 49.6521 92.4187 49.7634 92.6598 49.986C92.9008 50.208 93.0287 50.5151 93.0503 50.9063H90.1604C90.2013 50.56 90.3668 50.2397 90.6259 50.0064Z" fill="black"/>
<path d="M95.0781 48.9691H95.8489L97.6793 51.3031L99.413 48.9691H100.162V53.6792H99.3169V50.2448L97.6685 52.4301H97.636L95.924 50.2442V53.6785H95.0781V48.9691Z" fill="black"/>
<path fill-rule="evenodd" clip-rule="evenodd" d="M102.462 48.9849C102.206 49.0519 101.96 49.1569 101.735 49.2965L101.959 49.9643C102.152 49.8689 102.345 49.7894 102.537 49.7207C102.73 49.6514 102.976 49.6196 103.271 49.6196C103.506 49.6196 103.694 49.6571 103.838 49.7309C103.982 49.7996 104.089 49.9058 104.164 50.033C104.239 50.1602 104.288 50.3185 104.314 50.5036C104.341 50.6887 104.352 50.8896 104.352 51.1071C104.179 50.9865 103.982 50.9051 103.774 50.8686C103.573 50.8287 103.369 50.8074 103.164 50.805C102.912 50.805 102.677 50.8426 102.452 50.9055C102.227 50.9691 102.034 51.0645 101.879 51.1917C101.721 51.3187 101.593 51.4795 101.505 51.6623C101.41 51.8625 101.363 52.0815 101.365 52.3028C101.365 52.7632 101.5 53.1232 101.767 53.3776C102.034 53.6314 102.387 53.7579 102.826 53.7579C103.222 53.7579 103.538 53.6892 103.779 53.5519C104.02 53.4138 104.213 53.2555 104.352 53.0755V53.6841H105.144V50.7949C105.144 50.1805 105.01 49.7048 104.737 49.3709C104.47 49.0376 103.993 48.8685 103.319 48.8685C103.019 48.8685 102.735 48.9105 102.462 48.9849ZM103.876 52.8008C103.683 52.9381 103.432 53.0011 103.121 53.0011C102.848 53.0011 102.634 52.9324 102.485 52.8001C102.335 52.6628 102.26 52.4828 102.26 52.2602C102.26 52.1285 102.286 52.0172 102.345 51.9167C102.405 51.8163 102.485 51.7368 102.576 51.6732C102.675 51.6067 102.786 51.5582 102.902 51.5301C103.025 51.4983 103.148 51.4824 103.276 51.4824C103.694 51.4824 104.052 51.5829 104.347 51.7946V52.3925C104.208 52.548 104.05 52.6856 103.876 52.8008ZM112.61 47.3122C112.781 47.2334 112.942 47.1011 113.092 46.9052L112.631 46.2438C112.513 46.4028 112.38 46.5134 112.23 46.5719C112.071 46.6341 111.906 46.6801 111.738 46.7093L111.577 46.7379C111.438 46.7621 111.289 46.7888 111.128 46.8155C110.87 46.8633 110.618 46.9414 110.378 47.0483C109.998 47.2124 109.694 47.4343 109.463 47.7148C109.233 47.9953 109.051 48.3126 108.928 48.6624C108.803 49.0168 108.719 49.3842 108.677 49.7576C108.633 50.1392 108.612 50.5036 108.612 50.8527C108.612 51.303 108.671 51.71 108.789 52.0751C108.907 52.4408 109.072 52.7473 109.292 52.996C109.511 53.2504 109.774 53.4412 110.084 53.5786C110.394 53.7159 110.742 53.7846 111.133 53.7846C111.491 53.7846 111.823 53.7159 112.123 53.5887C112.412 53.4665 112.674 53.2887 112.894 53.0653C113.107 52.8478 113.279 52.5883 113.397 52.2977C113.52 52.0064 113.579 51.6942 113.579 51.366C113.579 51.0117 113.525 50.6893 113.424 50.4031C113.33 50.1303 113.18 49.8799 112.985 49.6679C112.789 49.4595 112.549 49.2966 112.283 49.1909C111.99 49.0755 111.678 49.0181 111.363 49.0217C111.159 49.0217 110.962 49.0485 110.769 49.1012C110.582 49.1541 110.402 49.2306 110.233 49.3289C110.07 49.4224 109.921 49.5379 109.79 49.6724C109.661 49.8053 109.554 49.9535 109.479 50.1226H109.458C109.474 49.9058 109.501 49.6838 109.549 49.4561C109.597 49.2284 109.666 49.0109 109.758 48.8049C109.849 48.5988 109.966 48.4131 110.111 48.2439C110.266 48.0732 110.455 47.9378 110.667 47.8471C110.9 47.7361 111.147 47.6562 111.401 47.6092L111.568 47.5787C111.736 47.5482 111.895 47.5189 112.048 47.4871C112.251 47.4451 112.438 47.3911 112.61 47.3122ZM109.634 51.8372C109.552 51.5701 109.512 51.2914 109.517 51.0117C109.553 50.8512 109.618 50.6988 109.709 50.5621C109.8 50.419 109.918 50.2924 110.057 50.1805C110.372 49.9343 110.76 49.802 111.159 49.8053C111.657 49.8053 112.032 49.9586 112.294 50.2606C112.557 50.5672 112.685 50.9481 112.685 51.4086C112.685 51.6363 112.642 51.843 112.568 52.0331C112.495 52.2207 112.386 52.3918 112.246 52.5364C112.106 52.6809 111.939 52.7959 111.754 52.8745C111.561 52.9591 111.352 53.0017 111.117 53.0017C110.882 53.0017 110.667 52.954 110.469 52.8586C110.273 52.7652 110.099 52.6297 109.961 52.4618C109.816 52.2747 109.705 52.0632 109.634 51.8372ZM120.065 48.969H119.219V53.6791H120.065V48.969ZM114.799 48.969H115.644V50.3821H116.426C116.795 50.3821 117.094 50.4298 117.336 50.5195C117.577 50.6098 117.769 50.7313 117.914 50.8795C118.058 51.0276 118.16 51.2025 118.219 51.3978C118.277 51.5937 118.31 51.7946 118.31 52.0064C118.31 52.2182 118.277 52.4198 118.208 52.6208C118.144 52.8217 118.031 52.996 117.881 53.155C117.732 53.314 117.528 53.4412 117.271 53.5366C117.014 53.6314 116.704 53.6841 116.329 53.6841H114.793V48.969H114.799ZM115.644 51.1701V52.8955H116.26C116.683 52.8955 116.983 52.8217 117.154 52.6729C117.325 52.5247 117.411 52.3136 117.411 52.0331C117.411 51.7469 117.32 51.5307 117.149 51.3819C116.972 51.2337 116.677 51.1593 116.271 51.1593H115.644V51.1701Z" fill="black"/>
<path d="M125.659 53.0007C125.455 53.2602 125.187 53.4561 124.866 53.5884C124.537 53.7224 124.184 53.7907 123.828 53.7893C123.475 53.7941 123.123 53.7351 122.79 53.6151C122.491 53.5066 122.217 53.3373 121.987 53.1177C121.76 52.8978 121.581 52.6326 121.463 52.3393C121.335 52.0177 121.272 51.6745 121.276 51.3287C121.276 50.9853 121.334 50.6673 121.457 50.3658C121.575 50.0637 121.746 49.8049 121.961 49.5874C122.175 49.3654 122.431 49.1963 122.721 49.064C123.025 48.9296 123.356 48.8628 123.689 48.8681C124.069 48.8681 124.422 48.9158 124.744 49.0106C125.065 49.1059 125.338 49.2649 125.562 49.4875L125.172 50.149C124.983 49.9778 124.76 49.8478 124.518 49.7674C124.289 49.6933 124.048 49.6559 123.807 49.6567C123.593 49.6567 123.39 49.6987 123.191 49.7782C122.996 49.8567 122.819 49.9718 122.667 50.1172C122.513 50.2677 122.391 50.4476 122.308 50.6463C122.217 50.8524 122.175 51.08 122.175 51.3338C122.175 51.5933 122.223 51.8261 122.313 52.027C122.404 52.2337 122.528 52.4086 122.683 52.5562C122.838 52.705 123.02 52.8156 123.229 52.89C123.438 52.9638 123.657 53.0064 123.893 53.0064C124.181 53.0064 124.438 52.9479 124.669 52.8366C124.891 52.7292 125.091 52.5802 125.257 52.3978L125.659 53.0007ZM126.092 48.9686H130.432V49.8049H128.687V53.678H127.842V49.8049H126.098V48.9686H126.092Z" fill="black"/>
<path fill-rule="evenodd" clip-rule="evenodd" d="M132.199 48.9694H131.354V55.7744H132.199V53.462C132.37 53.5733 132.574 53.6528 132.809 53.7056C133.045 53.7584 133.291 53.7844 133.543 53.7844C133.917 53.7844 134.254 53.7157 134.56 53.5892C134.852 53.4639 135.118 53.2824 135.341 53.055C135.56 52.8266 135.726 52.5621 135.844 52.2498C135.961 51.9382 136.02 51.6043 136.02 51.25C136.02 50.9003 135.967 50.5778 135.865 50.2865C135.769 50.0099 135.62 49.7547 135.426 49.5354C135.236 49.3215 135 49.1533 134.736 49.0432C134.447 48.919 134.135 48.8577 133.821 48.8632C133.489 48.8632 133.179 48.9268 132.884 49.054C132.59 49.1812 132.36 49.3338 132.199 49.5246V48.9694ZM132.788 49.8426C133.029 49.7154 133.291 49.6518 133.575 49.6518C133.821 49.6518 134.041 49.6887 134.239 49.7682C134.432 49.8477 134.592 49.959 134.726 50.1072C134.86 50.2554 134.961 50.4252 135.026 50.6255C135.095 50.8265 135.127 51.044 135.127 51.2818C135.127 51.5362 135.084 51.7633 135.01 51.9751C134.94 52.1759 134.828 52.3598 134.683 52.515C134.537 52.6684 134.36 52.7891 134.164 52.8693C133.945 52.9608 133.71 53.0058 133.473 53.0015C133.244 53.0015 133.029 52.9755 132.826 52.9227C132.603 52.8621 132.392 52.7654 132.2 52.6365V50.3024C132.349 50.1231 132.548 49.9698 132.788 49.8426ZM142.507 48.9688H141.661V53.6789H142.507V48.9688ZM137.235 48.9688H138.081V50.3819H138.862C139.231 50.3819 139.531 50.4296 139.772 50.5193C140.013 50.6096 140.206 50.7311 140.35 50.8793C140.495 51.0274 140.596 51.2023 140.655 51.3976C140.714 51.5935 140.746 51.7944 140.746 52.0062C140.746 52.218 140.714 52.4196 140.645 52.6206C140.58 52.8216 140.468 52.9958 140.318 53.1548C140.168 53.3138 139.965 53.441 139.708 53.5364C139.451 53.6312 139.14 53.6839 138.766 53.6839H137.23V48.9688H137.235ZM138.087 51.1699V52.8953H138.702C139.125 52.8953 139.425 52.8216 139.596 52.6727C139.767 52.5246 139.853 52.3134 139.853 52.0329C139.853 51.7467 139.762 51.5305 139.591 51.3817C139.414 51.2335 139.12 51.1591 138.713 51.1591H138.087V51.1699Z" fill="black"/>
<path d="M146.563 51.2395L148.372 53.6792H147.334L145.937 51.7737L144.518 53.6792H143.534L145.332 51.2815L143.641 48.9691H144.679L145.969 50.7473L147.28 48.9691H148.265L146.563 51.2395ZM72.2694 59.5003H69.674V63.4269H68.8281V58.7174H73.1147V63.4269H72.2694V59.5003ZM77.9151 59.5531H76.2456L76.1915 60.3468C76.133 61.019 76.0529 61.559 75.9403 61.9711C75.8278 62.3845 75.6885 62.7018 75.5282 62.9238C75.3679 63.1464 75.1803 63.2997 74.966 63.3741C74.7449 63.4542 74.5111 63.4937 74.276 63.4905L74.2117 62.6751C74.3027 62.6802 74.4095 62.6592 74.5272 62.6064C74.6455 62.5537 74.7631 62.4373 74.8751 62.263C74.9876 62.0824 75.0894 61.8286 75.1803 61.5005C75.2713 61.1672 75.3304 60.7335 75.3622 60.1878L75.4481 58.7219H78.7609V63.432H77.9151V59.5531Z" fill="black"/>
<path fill-rule="evenodd" clip-rule="evenodd" d="M81.0405 58.7277C80.7671 58.8014 80.5209 58.907 80.3123 59.0393L80.5375 59.7064C80.7302 59.611 80.9229 59.5315 81.115 59.4628C81.3077 59.3942 81.5544 59.3624 81.8482 59.3624C82.0842 59.3624 82.2712 59.3993 82.4155 59.473C82.5605 59.5423 82.6674 59.6479 82.7424 59.7751C82.8168 59.9023 82.8652 60.0613 82.8919 60.2457C82.9186 60.4315 82.9294 60.6324 82.9294 60.8493C82.7563 60.7289 82.559 60.6477 82.3513 60.6114C82.1504 60.5715 81.9462 60.5502 81.7414 60.5478C81.4902 60.5478 81.2542 60.5847 81.0297 60.6483C80.8046 60.7119 80.6119 60.8073 80.4567 60.9345C80.2983 61.0615 80.1703 61.2223 80.0821 61.4051C79.9881 61.6054 79.9407 61.8244 79.9435 62.0456C79.9435 62.5054 80.077 62.866 80.3448 63.1198C80.6119 63.3735 80.9655 63.5007 81.4043 63.5007C81.8005 63.5007 82.116 63.432 82.357 63.294C82.5974 63.1566 82.7901 62.9976 82.9294 62.8177V63.4263H83.7219V60.537C83.7219 59.9233 83.5877 59.4469 83.3148 59.1137C83.0471 58.7798 82.5707 58.6113 81.8966 58.6113C81.6073 58.6115 81.3195 58.6511 81.0405 58.7277ZM82.4588 62.5423C82.2667 62.6803 82.0149 62.7439 81.7045 62.7439C81.426 62.7439 81.2174 62.6752 81.0679 62.5423C80.9178 62.4049 80.8428 62.2249 80.8428 62.003C80.8428 61.8707 80.8695 61.7594 80.9286 61.6589C80.9871 61.5584 81.0679 61.4789 81.1588 61.4153C81.2498 61.3517 81.3617 61.304 81.4851 61.2722C81.6075 61.2406 81.7333 61.2248 81.8597 61.2252C82.2769 61.2252 82.6356 61.3256 82.93 61.5368V62.1346C82.7911 62.2901 82.6327 62.4271 82.4588 62.5423Z" fill="black"/>
<path d="M84.5508 58.7169H88.8914V59.5525H87.1462V63.4263H86.301V59.5532H84.5565V58.7169H84.5508Z" fill="black"/>
<path fill-rule="evenodd" clip-rule="evenodd" d="M92.8415 63.3792C93.1626 63.2787 93.4355 63.1248 93.6708 62.9136L93.4138 62.2573C93.2587 62.3953 93.0501 62.5117 92.7982 62.6071C92.547 62.7025 92.2634 62.7495 91.953 62.7495C91.4875 62.7495 91.102 62.6281 90.7968 62.3794C90.4915 62.1307 90.3261 61.7816 90.2886 61.3364H93.9493C93.9862 61.1729 94.0028 60.9872 94.0028 60.7704C94.0028 60.4479 93.9436 60.1566 93.826 59.8921C93.7164 59.6352 93.5561 59.4031 93.3547 59.2097C93.1513 59.0173 92.9112 58.8678 92.6488 58.7702C92.374 58.6636 92.0817 58.6097 91.787 58.6112C91.3908 58.6112 91.0429 58.6799 90.7383 58.8071C90.4501 58.928 90.1895 59.1063 89.9725 59.3311C89.7617 59.5547 89.5995 59.8195 89.4962 60.1089C89.3834 60.4173 89.3272 60.7435 89.3302 61.0718C89.3302 61.4426 89.3944 61.7809 89.5121 62.083C89.6304 62.3845 89.8065 62.644 90.026 62.8608C90.2454 63.0777 90.5131 63.2418 90.8292 63.3582C91.1674 63.4784 91.5242 63.5376 91.883 63.5331C92.1991 63.5331 92.5203 63.4796 92.8415 63.3792ZM90.6957 59.749C90.9577 59.5111 91.3056 59.3947 91.7444 59.3947C92.1622 59.3947 92.4885 59.5111 92.7295 59.728C92.9699 59.9506 93.0984 60.2571 93.12 60.6489H90.2301C90.2709 60.3024 90.4364 59.9825 90.6957 59.749ZM94.4149 58.7174H95.4852L97.1172 60.9879L95.3727 63.4269H94.3347L96.1645 60.9872L94.4149 58.7174ZM97.3258 58.7174H98.1716V63.4269H97.3258V58.7174ZM101.195 63.4269L99.3329 60.9872L101.072 58.7168H100.023L98.3802 60.9872L100.146 63.4269H101.195ZM105.059 63.3792C105.381 63.2787 105.653 63.1248 105.889 62.9136L105.632 62.2573C105.477 62.3953 105.268 62.5117 105.017 62.6071C104.765 62.7025 104.481 62.7495 104.171 62.7495C103.705 62.7495 103.32 62.6281 103.015 62.3794C102.71 62.1307 102.544 61.7816 102.506 61.3364H106.167C106.205 61.1729 106.221 60.9872 106.221 60.7704C106.221 60.4479 106.162 60.1566 106.044 59.8921C105.934 59.6354 105.774 59.4033 105.573 59.2097C105.37 59.0173 105.129 58.8678 104.867 58.7702C104.592 58.6636 104.3 58.6096 104.005 58.6112C103.609 58.6112 103.261 58.6799 102.956 58.8071C102.668 58.9281 102.408 59.1064 102.191 59.3311C101.98 59.5543 101.818 59.8193 101.715 60.1089C101.602 60.4172 101.545 60.7435 101.549 61.0718C101.549 61.4426 101.613 61.7809 101.731 62.083C101.848 62.3845 102.025 62.644 102.244 62.8608C102.464 63.0777 102.731 63.2418 103.047 63.3582C103.385 63.4784 103.742 63.5376 104.102 63.5331C104.427 63.5307 104.75 63.4788 105.059 63.3792ZM102.914 59.749C103.176 59.5111 103.524 59.3947 103.963 59.3947C104.375 59.3947 104.706 59.5111 104.947 59.728C105.188 59.9506 105.317 60.2571 105.338 60.6489H102.448C102.489 60.3024 102.654 59.9825 102.914 59.749ZM109.652 57.1351C109.154 57.1351 108.881 56.8597 108.838 56.3096H108.041C108.041 56.5207 108.078 56.7115 108.148 56.8915C108.218 57.0715 108.319 57.2248 108.453 57.3519C108.586 57.4791 108.758 57.5796 108.956 57.6585C109.154 57.738 109.384 57.7749 109.646 57.7749C109.887 57.7749 110.101 57.738 110.294 57.6585C110.487 57.5847 110.647 57.4791 110.786 57.3519C110.92 57.2248 111.027 57.0715 111.102 56.8915C111.177 56.7115 111.214 56.5207 111.214 56.3096H110.423C110.385 56.8597 110.122 57.1351 109.652 57.1351ZM107.366 58.7168V63.4269H108.212L110.963 59.9181V63.4269H111.808V58.7168H110.963L108.212 62.2255V58.7168H107.366Z" fill="black"/>
</g>
<defs>
<clipPath id="clip0_1_56826">
<rect width="152" height="76.318" fill="white"/>
</clipPath>
</defs>
</svg>
