<svg width="80" height="25" viewBox="0 0 80 25" fill="none" xmlns="http://www.w3.org/2000/svg">
<path d="M28.3411 24.4857L32.3806 0.780961H38.8418L34.7993 24.4857H28.3411ZM58.1428 1.29196C56.863 0.811718 54.857 0.296356 52.3521 0.296356C45.9675 0.296356 41.4705 3.51144 41.432 8.1193C41.3961 11.5255 44.6427 13.4257 47.0935 14.5595C49.6087 15.7217 50.454 16.4626 50.4419 17.5C50.4258 19.089 48.4335 19.8146 46.5762 19.8146C43.9903 19.8146 42.6164 19.4553 40.4944 18.5706L39.6615 18.1939L38.7549 23.5004C40.2641 24.1624 43.0546 24.7354 45.9523 24.7652C52.7443 24.7652 57.1535 21.5868 57.2036 16.666C57.2277 13.9693 55.5064 11.9174 51.7786 10.2254C49.5203 9.12883 48.1372 8.39708 48.1518 7.28668C48.1518 6.30136 49.3225 5.24775 51.8524 5.24775C53.9649 5.21494 55.4957 5.67569 56.6882 6.15594L57.2672 6.42948L58.1428 1.29196ZM74.7697 0.780597H69.7772C68.2306 0.780597 67.073 1.20272 66.3939 2.74638L56.7981 24.4701H63.5829C63.5829 24.4701 64.692 21.5492 64.9429 20.9078C65.6843 20.9078 72.2755 20.918 73.2177 20.918C73.411 21.7479 74.0038 24.4701 74.0038 24.4701H79.9993L74.7697 0.779871V0.780597ZM66.8483 16.0877C67.3828 14.7219 69.4227 9.46111 69.4227 9.46111C69.3847 9.52419 69.9532 8.08866 70.2793 7.19865L70.716 9.24242C70.716 9.24242 71.9532 14.9009 72.2118 16.0873H66.8483V16.0877ZM22.8561 0.780597L16.5304 16.9462L15.8566 13.6611C14.6788 9.87415 11.0099 5.77123 6.9082 3.71717L12.6923 24.4479L19.5285 24.4403L29.7006 0.780355L22.8561 0.780235" fill="#0E4595"/>
<path d="M10.6283 0.780243H0.209537L0.126953 1.27345C8.23264 3.2356 13.5959 7.97739 15.8227 13.6756L13.5572 2.78223C13.1662 1.28119 12.0319 0.833158 10.6285 0.780007" fill="#F2AE14"/>
</svg>
