<svg width="17" height="16" viewBox="0 0 17 16" fill="none" xmlns="http://www.w3.org/2000/svg">
<path d="M1.9375 8.44564V14.5472C1.9375 15.3495 2.58791 15.9999 3.39024 15.9999H7.55525C7.66224 15.9999 7.74897 15.9132 7.74897 15.8063V9.70466C7.74897 9.43698 7.96555 9.2204 8.23323 9.2204C8.5009 9.2204 8.71748 9.43698 8.71748 9.70466V15.8062C8.71748 15.9132 8.80421 15.9999 8.9112 15.9999H13.0753C13.8776 15.9999 14.528 15.3495 14.528 14.5472V8.44564C14.528 8.33865 14.4413 8.25195 14.3343 8.25195H2.13122C2.02423 8.25192 1.9375 8.33865 1.9375 8.44564Z" fill="#798CB4"/>
<path d="M15.9803 3.40907H14.1596C14.3918 3.06055 14.5275 2.63447 14.5275 2.18899C14.5275 1.2881 14.0142 0.513016 13.1812 0.174432C12.3484 -0.174571 11.4284 0.0098509 10.7987 0.64872L8.23227 3.21516L5.66583 0.64872C5.03616 0.0098509 4.11614 -0.174571 3.28336 0.174432C2.45035 0.513016 1.937 1.2881 1.937 2.18899C1.937 2.63447 2.07273 3.06055 2.30491 3.40907H0.484257C0.213042 3.40907 0 3.62186 0 3.89333V6.79884C0 7.07028 0.213042 7.2831 0.484257 7.2831H7.75773V4.86184C7.75773 4.5904 7.96109 4.38704 8.23227 4.37759H8.24195C8.51317 4.37759 8.72621 4.5904 8.72621 4.86184V7.2831H15.9803C16.2515 7.2831 16.4645 7.07028 16.4645 6.79884V3.89333C16.4645 3.62186 16.2515 3.40907 15.9803 3.40907ZM4.12581 3.40907C3.44791 3.40907 2.90551 2.86664 2.90551 2.18899C2.90551 1.58842 3.29281 1.22048 3.66098 1.06538C3.79646 1.00721 3.96127 0.968428 4.13553 0.968428C4.41642 0.968428 4.72619 1.06538 4.9877 1.32689L7.06043 3.40907H4.12581ZM12.3387 3.40907H9.40415L11.4769 1.32689C11.903 0.910256 12.4454 0.920192 12.8036 1.06538C13.1717 1.22048 13.5591 1.58842 13.5591 2.18899C13.559 2.86664 13.0166 3.40907 12.3387 3.40907Z" fill="#798CB4"/>
</svg>
