<svg width="158" height="42" viewBox="0 0 158 42" fill="none" xmlns="http://www.w3.org/2000/svg">
<g clip-path="url(#clip0_625_8400)">
<path d="M64.1013 19.1603L61.2494 15.0717C61.1294 15.085 60.9503 15.0917 60.7108 15.0917H57.5594V19.1603H54.9668V5.19922H60.7108C61.9205 5.19922 62.971 5.39867 63.8618 5.79757C64.7662 6.19648 65.4576 6.76822 65.9361 7.5128C66.4147 8.25738 66.6542 9.14161 66.6542 10.1654C66.6542 11.2158 66.3949 12.12 65.8766 12.8779C65.371 13.6358 64.6399 14.2008 63.6823 14.5732L66.8937 19.1603H64.1013ZM64.0413 10.1654C64.0413 9.27457 63.7491 8.5898 63.1641 8.11111C62.5791 7.63246 61.7212 7.39314 60.5913 7.39314H57.5594V12.9577H60.5913C61.7212 12.9577 62.5791 12.7183 63.1641 12.2396C63.7491 11.7477 64.0413 11.0562 64.0413 10.1654Z" fill="white"/>
<path d="M76.2772 19.36C74.8541 19.36 73.5714 19.0542 72.428 18.4426C71.2841 17.8176 70.387 16.96 69.7352 15.8698C69.0839 14.7662 68.7578 13.5363 68.7578 12.18C68.7578 10.8238 69.0839 9.60055 69.7352 8.51024C70.387 7.40663 71.2841 6.54902 72.428 5.9374C73.5714 5.31248 74.8541 5 76.2772 5C77.6997 5 78.983 5.31248 80.1264 5.9374C81.2697 6.54902 82.1673 7.4 82.8186 8.49031C83.4704 9.58061 83.796 10.8105 83.796 12.18C83.796 13.5496 83.4704 14.7795 82.8186 15.8698C82.1673 16.96 81.2697 17.8176 80.1264 18.4426C78.983 19.0542 77.6997 19.36 76.2772 19.36ZM76.2772 17.0864C77.2077 17.0864 78.0452 16.8803 78.7899 16.4681C79.5346 16.0426 80.1196 15.4576 80.5454 14.713C80.9707 13.9551 81.1836 13.1108 81.1836 12.18C81.1836 11.2493 80.9707 10.4116 80.5454 9.66703C80.1196 8.90915 79.5346 8.3241 78.7899 7.91194C78.0452 7.48642 77.2077 7.27371 76.2772 7.27371C75.3462 7.27371 74.5086 7.48642 73.7639 7.91194C73.0193 8.3241 72.4343 8.90915 72.0089 9.66703C71.5836 10.4116 71.3707 11.2493 71.3707 12.18C71.3707 13.1108 71.5836 13.9551 72.0089 14.713C72.4343 15.4576 73.0193 16.0426 73.7639 16.4681C74.5086 16.8803 75.3462 17.0864 76.2772 17.0864Z" fill="white"/>
<path d="M96.6369 11.9006C97.4077 12.1532 98.0193 12.5787 98.4717 13.177C98.9237 13.762 99.1496 14.4934 99.1496 15.3709C99.1496 16.5809 98.6841 17.5183 97.7537 18.1831C96.8227 18.8346 95.4664 19.1603 93.6848 19.1603H86.7441V5.19922H93.2861C94.9346 5.19922 96.2043 5.52501 97.0956 6.17649C97.9864 6.81472 98.4316 7.69895 98.4316 8.82912C98.4316 9.52053 98.2719 10.1322 97.953 10.664C97.6337 11.1959 97.1953 11.608 96.6369 11.9006ZM89.3372 7.23356V11.0828H93.0069C93.9108 11.0828 94.6022 10.9233 95.0808 10.6042C95.5729 10.2718 95.8191 9.79309 95.8191 9.16817C95.8191 8.52994 95.5729 8.0513 95.0808 7.73219C94.6022 7.39977 93.9108 7.23356 93.0069 7.23356H89.3372ZM93.5251 17.126C95.5332 17.126 96.5367 16.4545 96.5367 15.1117C96.5367 13.7687 95.5332 13.0973 93.5251 13.0973H89.3372V17.126H93.5251Z" fill="white"/>
<path d="M108.121 19.3598C106.193 19.3598 104.69 18.8213 103.613 17.7443C102.537 16.654 101.998 15.0983 101.998 13.0773V5.19922H104.591V12.9776C104.591 15.7166 105.774 17.0861 108.141 17.0861C110.494 17.0861 111.671 15.7166 111.671 12.9776V5.19922H114.224V13.0773C114.224 15.0983 113.685 16.654 112.608 17.7443C111.545 18.8213 110.049 19.3598 108.121 19.3598Z" fill="white"/>
<path d="M126.653 19.1603L122.864 13.8551L119.114 19.1603H116.162L121.348 12.0402L116.441 5.19922H119.373L122.943 10.1654L126.473 5.19922H129.286L124.399 11.9405L129.645 19.1603H126.653Z" fill="white"/>
<path d="M59.7736 34.3293L57.5594 36.603V40.173H54.9668V26.2119H57.5594V33.372L64.4603 26.2119H67.3723L61.5087 32.4545L67.7313 40.173H64.6999L59.7736 34.3293Z" fill="white"/>
<path d="M69.6953 26.2119H72.2879V40.173H69.6953V26.2119Z" fill="white"/>
<path d="M88.6711 26.2119V40.173H86.5372L78.8384 30.7194V40.173H76.2656V26.2119H78.4L86.0984 35.6656V26.2119H88.6711Z" fill="white"/>
<path d="M102.146 33.0332H104.599V38.5977C103.881 39.1694 103.043 39.6082 102.086 39.914C101.129 40.2198 100.145 40.3727 99.1341 40.3727C97.7115 40.3727 96.4283 40.0669 95.2849 39.4553C94.1415 38.8303 93.2439 37.9727 92.5927 36.8825C91.9409 35.7922 91.6152 34.5623 91.6152 33.1927C91.6152 31.8232 91.9409 30.5933 92.5927 29.503C93.2439 28.4127 94.1415 27.5617 95.2849 26.9501C96.4418 26.3252 97.7381 26.0127 99.1743 26.0127C100.344 26.0127 101.408 26.2055 102.365 26.5911C103.322 26.9767 104.127 27.5418 104.778 28.2864L103.143 29.8819C102.079 28.8182 100.796 28.2864 99.2938 28.2864C98.3101 28.2864 97.4323 28.4925 96.661 28.9046C95.9033 29.3169 95.3048 29.8952 94.8659 30.6398C94.4406 31.3844 94.2281 32.2354 94.2281 33.1927C94.2281 34.1235 94.4406 34.9611 94.8659 35.7057C95.3048 36.4503 95.9033 37.0354 96.661 37.4608C97.4323 37.8863 98.3033 38.0991 99.2739 38.0991C100.364 38.0991 101.322 37.8597 102.146 37.3811V33.0332Z" fill="white"/>
<path d="M108.217 26.2119H114.32C115.809 26.2119 117.132 26.5045 118.289 27.0895C119.446 27.6612 120.343 28.4789 120.981 29.5426C121.62 30.5931 121.938 31.8097 121.938 33.1925C121.938 34.5753 121.62 35.7986 120.981 36.8623C120.343 37.9127 119.446 38.7304 118.289 39.3154C117.132 39.8872 115.809 40.173 114.32 40.173H108.217V26.2119ZM114.2 37.9792C115.224 37.9792 116.121 37.7863 116.893 37.4008C117.677 37.0019 118.276 36.4434 118.687 35.7254C119.113 34.9941 119.326 34.1498 119.326 33.1925C119.326 32.2351 119.113 31.3975 118.687 30.6795C118.276 29.9482 117.677 29.3897 116.893 29.0041C116.121 28.6052 115.224 28.4058 114.2 28.4058H110.809V37.9792H114.2Z" fill="white"/>
<path d="M131.417 40.3727C129.995 40.3727 128.711 40.0669 127.568 39.4553C126.425 38.8303 125.527 37.9727 124.875 36.8825C124.224 35.7789 123.898 34.549 123.898 33.1927C123.898 31.8365 124.224 30.6132 124.875 29.5229C125.527 28.4193 126.425 27.5617 127.568 26.9501C128.711 26.3252 129.995 26.0127 131.417 26.0127C132.84 26.0127 134.123 26.3252 135.266 26.9501C136.41 27.5617 137.307 28.4127 137.959 29.503C138.611 30.5933 138.936 31.8232 138.936 33.1927C138.936 34.5623 138.611 35.7922 137.959 36.8825C137.307 37.9727 136.41 38.8303 135.266 39.4553C134.123 40.0669 132.84 40.3727 131.417 40.3727ZM131.417 38.0991C132.348 38.0991 133.186 37.893 133.931 37.4808C134.675 37.0553 135.26 36.4703 135.686 35.7257C136.111 34.9678 136.324 34.1235 136.324 33.1927C136.324 32.262 136.111 31.4243 135.686 30.6797C135.26 29.9218 134.675 29.3368 133.931 28.9246C133.186 28.4991 132.348 28.2864 131.417 28.2864C130.486 28.2864 129.649 28.4991 128.904 28.9246C128.16 29.3368 127.575 29.9218 127.149 30.6797C126.724 31.4243 126.511 32.262 126.511 33.1927C126.511 34.1235 126.724 34.9678 127.149 35.7257C127.575 36.4703 128.16 37.0553 128.904 37.4808C129.649 37.893 130.486 38.0991 131.417 38.0991Z" fill="white"/>
<path d="M154.707 40.173L154.687 30.9188L150.1 38.5775H148.943L144.356 31.0385V40.173H141.883V26.2119H144.017L149.562 35.4661L155.006 26.2119H157.141L157.161 40.173H154.707Z" fill="white"/>
<path d="M42.235 39.9673C42.7695 39.9673 43.2028 39.534 43.2028 38.9995V37.8431C43.2028 37.5056 43.0279 37.1902 42.7333 37.0253C38.7203 34.7788 33.9322 34.5487 28.035 33.9423C27.9348 33.932 27.8469 34.0106 27.8471 34.1113L27.8427 36.4185C27.8417 36.9086 27.5822 37.3612 27.1612 37.6071C26.9338 37.7399 27.0277 38.0891 27.291 38.0931C32.6495 38.1744 36.1162 38.5838 40.2577 39.9195C40.3548 39.9508 40.4569 39.9673 40.5589 39.9673H42.235Z" fill="#FFB800"/>
<path d="M34.5972 32.7722C33.855 32.693 33.4544 31.8447 33.8789 31.2307L36.3939 27.593C36.5057 27.4313 36.5656 27.2393 36.5656 27.0427V13.2857C36.5656 12.2441 37.9854 11.9377 38.4149 12.8866L44.733 26.8451C44.8733 27.155 44.8405 27.5158 44.6468 27.7954L40.795 33.3529C40.561 33.6905 40.1398 33.8437 39.7423 33.7403C38.9903 33.5446 37.7483 33.2346 36.8258 33.0705C36.1607 32.9522 35.3248 32.8498 34.5972 32.7722Z" fill="#FFB800"/>
<path d="M2.72165 39.9673C2.18718 39.9673 1.75391 39.534 1.75391 38.9995V37.8431C1.75391 37.5056 1.92879 37.1902 2.22334 37.0253C6.23633 34.7788 11.0245 34.5487 16.9216 33.9423C17.0218 33.932 17.1097 34.0106 17.1096 34.1113L17.114 36.4185C17.115 36.9086 17.3745 37.3612 17.7955 37.6071C18.0228 37.7399 17.9289 38.0891 17.6657 38.0931C12.3071 38.1744 8.84048 38.5838 4.6989 39.9195C4.6018 39.9508 4.49978 39.9673 4.39775 39.9673H2.72165Z" fill="#FFB800"/>
<path d="M10.3619 32.7722C11.1041 32.693 11.5047 31.8447 11.0802 31.2307L8.56528 27.593C8.45346 27.4313 8.39356 27.2393 8.39356 27.0427V13.2857C8.39356 12.2441 6.9737 11.9377 6.54419 12.8866L0.226133 26.8451C0.0858559 27.155 0.118602 27.5158 0.31238 27.7954L4.16413 33.3529C4.39809 33.6905 4.81933 33.8437 5.21681 33.7403C5.96881 33.5446 7.21086 33.2346 8.13329 33.0705C8.79845 32.9522 9.63438 32.8498 10.3619 32.7722Z" fill="#FFB800"/>
<path d="M31.1585 27.7293C31.3264 27.4865 31.3742 27.1802 31.2884 26.8977L23.4293 1.02565C23.1518 0.112351 21.8597 0.109671 21.5785 1.02181L13.6013 26.8959C13.5139 27.1794 13.5614 27.4873 13.7301 27.7314L16.6346 31.9326C16.7604 32.1145 17.0456 32.0258 17.046 31.8046C17.047 31.3145 17.3065 30.8619 17.7274 30.616L19.7093 29.4585L21.6955 28.3089C21.9259 28.1755 22.1884 28.1149 22.4451 28.1273C22.7018 28.1149 22.9612 28.1755 23.1917 28.3089L25.1779 29.4585L27.1597 30.616C27.5807 30.8619 27.8402 31.3145 27.8412 31.8046C27.8416 32.0258 28.1268 32.1144 28.2525 31.9326L31.1585 27.7293Z" fill="#FFB800"/>
<path fill-rule="evenodd" clip-rule="evenodd" d="M23.0297 38.4976C22.7085 38.6822 22.3134 38.6822 21.9922 38.4976L20.4801 37.6286L18.9714 36.7536C18.6509 36.5677 18.4533 36.2255 18.4526 35.855L18.4492 34.111L18.4526 32.367C18.4533 31.9965 18.6509 31.6543 18.9714 31.4684L20.4801 30.5935L21.9922 29.7244C22.3134 29.5398 22.7085 29.5398 23.0297 29.7244L24.5418 30.5935L26.0504 31.4684C26.3709 31.6543 26.5685 31.9965 26.5692 32.367L26.5726 34.111L26.5692 35.855C26.5685 36.2255 26.3709 36.5677 26.0504 36.7536L24.5418 37.6286L23.0297 38.4976ZM24.2025 33.5171C24.2025 32.9826 23.7692 32.5494 23.2348 32.5494H21.9169C21.3825 32.5494 20.9492 32.9826 20.9492 33.5171V34.835C20.9492 35.3694 21.3825 35.8027 21.9169 35.8027H23.2347C23.7692 35.8027 24.2025 35.3694 24.2025 34.835V33.5171Z" fill="#FFB800"/>
</g>
<defs>
<clipPath id="clip0_625_8400">
<rect width="157.161" height="42" fill="white"/>
</clipPath>
</defs>
</svg>
