<svg width="14" height="15" viewBox="0 0 14 15" fill="none" xmlns="http://www.w3.org/2000/svg">
<path d="M0.216797 0.212402H6.31986C7.80873 0.212402 9.13163 0.50495 10.2886 1.08995C11.4455 1.66169 12.3431 2.47943 12.9813 3.54313C13.6195 4.59356 13.9384 5.81016 13.9384 7.19297C13.9384 8.57577 13.6195 9.79905 12.9813 10.8627C12.3431 11.9132 11.4455 12.7309 10.2886 13.3159C9.13163 13.8877 7.80873 14.1735 6.31986 14.1735H0.216797V0.212402ZM6.19986 11.9797C7.22373 11.9797 8.12132 11.7868 8.89261 11.4012C9.67696 11.0024 10.2755 10.4439 10.6873 9.72593C11.1131 8.99461 11.3255 8.15031 11.3255 7.19297C11.3255 6.23563 11.1131 5.39795 10.6873 4.67998C10.2755 3.94866 9.67696 3.39022 8.89261 3.00463C8.12132 2.60572 7.22373 2.40632 6.19986 2.40632H2.80938V11.9797H6.19986Z" fill="white"/>
</svg>
