<svg width="19" height="18" viewBox="0 0 19 18" fill="none" xmlns="http://www.w3.org/2000/svg">
<g clip-path="url(#clip0_1_58394)">
<path d="M16.674 2.00012H11.4265V4.18655C11.4265 4.41851 11.3344 4.64096 11.1704 4.80497C11.0063 4.96898 10.7839 5.06113 10.5519 5.06113C10.32 5.06113 10.0975 4.96898 9.93352 4.80497C9.76951 4.64096 9.67737 4.41851 9.67737 4.18655V2.00012H2.68079C2.21688 2.00012 1.77198 2.18441 1.44395 2.51243C1.11592 2.84046 0.931641 3.28537 0.931641 3.74927V6.37299C0.931641 6.60494 1.02378 6.82739 1.1878 6.9914C1.35181 7.15542 1.57426 7.24756 1.80621 7.24756C2.27012 7.24756 2.71502 7.43184 3.04305 7.75987C3.37107 8.0879 3.55536 8.5328 3.55536 8.9967C3.55536 9.46061 3.37107 9.90551 3.04305 10.2335C2.71502 10.5616 2.27012 10.7458 1.80621 10.7458C1.57426 10.7458 1.35181 10.838 1.1878 11.002C1.02378 11.166 0.931641 11.3885 0.931641 11.6204V14.2441C0.931641 14.708 1.11592 15.1529 1.44395 15.481C1.77198 15.809 2.21688 15.9933 2.68079 15.9933H9.67737V13.8069C9.67737 13.5749 9.76951 13.3525 9.93352 13.1884C10.0975 13.0244 10.32 12.9323 10.5519 12.9323C10.7839 12.9323 11.0063 13.0244 11.1704 13.1884C11.3344 13.3525 11.4265 13.5749 11.4265 13.8069V15.9933H16.674C17.1379 15.9933 17.5828 15.809 17.9108 15.481C18.2388 15.1529 18.4231 14.708 18.4231 14.2441V3.74927C18.4231 3.28537 18.2388 2.84046 17.9108 2.51243C17.5828 2.18441 17.1379 2.00012 16.674 2.00012ZM11.4265 10.5972C11.4265 10.8291 11.3344 11.0516 11.1704 11.2156C11.0063 11.3796 10.7839 11.4717 10.5519 11.4717C10.32 11.4717 10.0975 11.3796 9.93352 11.2156C9.76951 11.0516 9.67737 10.8291 9.67737 10.5972V7.39624C9.67737 7.16428 9.76951 6.94183 9.93352 6.77782C10.0975 6.61381 10.32 6.52166 10.5519 6.52166C10.7839 6.52166 11.0063 6.61381 11.1704 6.77782C11.3344 6.94183 11.4265 7.16428 11.4265 7.39624V10.5972Z" fill="#7A8CB4"/>
</g>
<defs>
<clipPath id="clip0_1_58394">
<rect width="18" height="18" fill="white" transform="translate(0.652344 0.00695801)"/>
</clipPath>
</defs>
</svg>
