<svg width="76" height="15" viewBox="0 0 76 15" fill="none" xmlns="http://www.w3.org/2000/svg">
<path d="M10.1013 14.1607L7.24938 10.0721C7.12938 10.0854 6.95034 10.092 6.71083 10.092H3.55938V14.1607H0.966797V0.199585H6.71083C7.9205 0.199585 8.97099 0.399036 9.8618 0.79794C10.7662 1.19684 11.4576 1.76859 11.9361 2.51317C12.4147 3.25775 12.6542 4.14197 12.6542 5.16575C12.6542 6.21618 12.3949 7.12034 11.8766 7.87823C11.371 8.63612 10.6399 9.20118 9.68228 9.57352L12.8937 14.1607H10.1013ZM10.0413 5.16575C10.0413 4.27494 9.74906 3.59017 9.16406 3.11147C8.57906 2.63283 7.72115 2.3935 6.59131 2.3935H3.55938V7.95802H6.59131C7.72115 7.95802 8.57906 7.71865 9.16406 7.24001C9.74906 6.74805 10.0413 6.0566 10.0413 5.16575Z" fill="white"/>
<path d="M22.2772 14.36C20.8541 14.36 19.5714 14.0542 18.428 13.4426C17.2841 12.8176 16.387 11.96 15.7352 10.8698C15.0839 9.76616 14.7578 8.53626 14.7578 7.18002C14.7578 5.82382 15.0839 4.60055 15.7352 3.51024C16.387 2.40663 17.2841 1.54902 18.428 0.937403C19.5714 0.312484 20.8541 0 22.2772 0C23.6997 0 24.983 0.312484 26.1264 0.937403C27.2697 1.54902 28.1673 2.4 28.8186 3.49031C29.4704 4.58061 29.796 5.81052 29.796 7.18002C29.796 8.54957 29.4704 9.77947 28.8186 10.8698C28.1673 11.96 27.2697 12.8176 26.1264 13.4426C24.983 14.0542 23.6997 14.36 22.2772 14.36ZM22.2772 12.0864C23.2077 12.0864 24.0452 11.8803 24.7899 11.4681C25.5346 11.0426 26.1196 10.4576 26.5454 9.71299C26.9707 8.9551 27.1836 8.11079 27.1836 7.18002C27.1836 6.24929 26.9707 5.41161 26.5454 4.66703C26.1196 3.90915 25.5346 3.3241 24.7899 2.91194C24.0452 2.48642 23.2077 2.27371 22.2772 2.27371C21.3462 2.27371 20.5086 2.48642 19.7639 2.91194C19.0193 3.3241 18.4343 3.90915 18.0089 4.66703C17.5836 5.41161 17.3707 6.24929 17.3707 7.18002C17.3707 8.11079 17.5836 8.9551 18.0089 9.71299C18.4343 10.4576 19.0193 11.0426 19.7639 11.4681C20.5086 11.8803 21.3462 12.0864 22.2772 12.0864Z" fill="white"/>
<path d="M42.6369 6.90096C43.4077 7.15359 44.0193 7.57905 44.4717 8.17741C44.9237 8.76241 45.1496 9.49373 45.1496 10.3713C45.1496 11.5812 44.6841 12.5187 43.7537 13.1834C42.8227 13.835 41.4664 14.1607 39.6848 14.1607H32.7441V0.199585H39.2861C40.9346 0.199585 42.2043 0.525376 43.0956 1.17686C43.9864 1.81509 44.4316 2.69931 44.4316 3.82949C44.4316 4.52089 44.2719 5.13255 43.953 5.66438C43.6337 6.19625 43.1953 6.60841 42.6369 6.90096ZM35.3372 2.23392V6.08321H39.0069C39.9108 6.08321 40.6022 5.92368 41.0808 5.60457C41.5729 5.27215 41.8191 4.79346 41.8191 4.16854C41.8191 3.53031 41.5729 3.05167 41.0808 2.73255C40.6022 2.40013 39.9108 2.23392 39.0069 2.23392H35.3372ZM39.5251 12.1264C41.5332 12.1264 42.5367 11.4549 42.5367 10.112C42.5367 8.76909 41.5332 8.09762 39.5251 8.09762H35.3372V12.1264H39.5251Z" fill="white"/>
<path d="M54.121 14.3602C52.1927 14.3602 50.6903 13.8217 49.6132 12.7447C48.5366 11.6544 47.998 10.0987 47.998 8.07768V0.199585H50.5906V7.97796C50.5906 10.717 51.7742 12.0865 54.1408 12.0865C56.4943 12.0865 57.6711 10.717 57.6711 7.97796V0.199585H60.224V8.07768C60.224 10.0987 59.6855 11.6544 58.6084 12.7447C57.5448 13.8217 56.0487 14.3602 54.121 14.3602Z" fill="white"/>
<path d="M72.6529 14.1607L68.8637 8.85551L65.1137 14.1607H62.1621L67.3478 7.04055L62.4413 0.199585H65.3731L68.9431 5.16575L72.4734 0.199585H75.2857L70.399 6.94083L75.6447 14.1607H72.6529Z" fill="white"/>
</svg>
