<svg width="19" height="18" viewBox="0 0 19 18" fill="none" xmlns="http://www.w3.org/2000/svg">
<path d="M2.26562 9.5079V16.3672C2.26562 17.2691 2.99681 18.0003 3.89877 18.0003H8.58101C8.70128 18.0003 8.79878 17.9028 8.79878 17.7826V10.9233C8.79878 10.6224 9.04225 10.3789 9.34317 10.3789C9.64409 10.3789 9.88757 10.6224 9.88757 10.9233V17.7825C9.88757 17.9028 9.98506 18.0003 10.1053 18.0003H14.7865C15.6885 18.0003 16.4197 17.2691 16.4197 16.3671V9.5079C16.4197 9.38762 16.3222 9.29016 16.2019 9.29016H2.4834C2.36312 9.29012 2.26562 9.38762 2.26562 9.5079Z" fill="#798CB4"/>
<path d="M18.0527 3.84575H16.0059C16.2669 3.45395 16.4195 2.97495 16.4195 2.47416C16.4195 1.46139 15.8424 0.590053 14.9059 0.209422C13.9698 -0.182921 12.9355 0.024403 12.2276 0.742609L9.34247 3.62776L6.45732 0.742609C5.74945 0.024403 4.71518 -0.182921 3.77899 0.209422C2.84254 0.590053 2.26543 1.46139 2.26543 2.47416C2.26543 2.97495 2.41802 3.45395 2.67903 3.84575H0.632284C0.327389 3.84575 0.0878906 4.08496 0.0878906 4.39014V7.65647C0.0878906 7.96161 0.327389 8.20086 0.632284 8.20086H8.80899V5.47893C8.80899 5.17378 9.03761 4.94516 9.34247 4.93454H9.35335C9.65825 4.93454 9.89774 5.17378 9.89774 5.47893V8.20086H18.0527C18.3576 8.20086 18.597 7.96161 18.597 7.65647V4.39014C18.597 4.08496 18.3576 3.84575 18.0527 3.84575ZM4.72606 3.84575C3.96397 3.84575 3.35421 3.23596 3.35421 2.47416C3.35421 1.799 3.78961 1.38537 4.2035 1.21101C4.35581 1.14562 4.54108 1.10202 4.73698 1.10202C5.05276 1.10202 5.401 1.21101 5.69497 1.50499L8.0251 3.84575H4.72606ZM13.9589 3.84575H10.6599L12.99 1.50499C13.469 1.03662 14.0788 1.04779 14.4815 1.21101C14.8953 1.38537 15.3308 1.799 15.3308 2.47416C15.3307 3.23596 14.7209 3.84575 13.9589 3.84575Z" fill="#798CB4"/>
</svg>
