<svg width="21" height="20" viewBox="0 0 21 20" fill="none" xmlns="http://www.w3.org/2000/svg">
<path d="M4.42818 8.56327C4.43475 8.62273 4.44143 8.68285 4.44819 8.74356L4.55281 9.68525C4.62626 10.3465 4.68995 10.9201 4.80107 11.3778C4.92061 11.8701 5.11769 12.3339 5.52865 12.7018C5.93962 13.0696 6.42237 13.2143 6.92492 13.2786C7.39206 13.3386 7.96909 13.3385 8.63449 13.3385H13.0926C13.5488 13.3385 13.9515 13.3385 14.2876 13.3044C14.652 13.2674 15.0059 13.1854 15.3463 12.9805C15.6866 12.7756 15.9247 12.5011 16.1279 12.1964C16.3153 11.9153 16.5037 11.5595 16.7171 11.1564L18.7902 7.24046C19.5258 5.85101 18.5186 4.17808 16.9464 4.17808H8.53453C7.71609 4.17804 7.01591 4.178 6.46169 4.25544C6.18119 4.29464 5.90633 4.35739 5.64852 4.46436L5.52873 3.38624C5.42079 2.41477 4.59965 1.67981 3.62219 1.67981H3.20581C2.74589 1.67981 2.37305 2.05265 2.37305 2.51257C2.37305 2.97249 2.74589 3.34534 3.20581 3.34534H3.62219C3.75098 3.34534 3.85916 3.44217 3.87339 3.57017L4.42818 8.56327Z" fill="#7A8CB4"/>
<path fill-rule="evenodd" clip-rule="evenodd" d="M12.3672 16.2529C12.3672 15.1031 13.2993 14.171 14.4491 14.171C15.5989 14.171 16.531 15.1031 16.531 16.2529C16.531 17.4027 15.5989 18.3348 14.4491 18.3348C13.2993 18.3348 12.3672 17.4027 12.3672 16.2529Z" fill="#7A8CB4"/>
<path fill-rule="evenodd" clip-rule="evenodd" d="M4.87109 16.2529C4.87109 15.1031 5.8032 14.171 6.953 14.171C8.10281 14.171 9.03491 15.1031 9.03491 16.2529C9.03491 17.4027 8.10281 18.3348 6.953 18.3348C5.8032 18.3348 4.87109 17.4027 4.87109 16.2529Z" fill="#7A8CB4"/>
</svg>
