<svg width="16" height="15" viewBox="0 0 16 15" fill="none" xmlns="http://www.w3.org/2000/svg">
<path d="M8.4173 14.3729C6.99472 14.3729 5.71149 14.067 4.56811 13.4554C3.42472 12.8305 2.52714 11.9729 1.87537 10.8826C1.22408 9.77898 0.898438 8.54908 0.898438 7.19284C0.898438 5.83664 1.22408 4.61337 1.87537 3.52306C2.52714 2.41945 3.42472 1.56183 4.56811 0.95022C5.71149 0.325301 6.99472 0.0128174 8.4173 0.0128174C9.83988 0.0128174 11.1231 0.325301 12.2665 0.95022C13.4099 1.56183 14.3075 2.41282 14.9592 3.50312C15.6105 4.59343 15.9362 5.82334 15.9362 7.19284C15.9362 8.56238 15.6105 9.79229 14.9592 10.8826C14.3075 11.9729 13.4099 12.8305 12.2665 13.4554C11.1231 14.067 9.83988 14.3729 8.4173 14.3729ZM8.4173 12.0992C9.34827 12.0992 10.1858 11.8931 10.9305 11.4809C11.6747 11.0554 12.2597 10.4704 12.6855 9.7258C13.1109 8.96791 13.3238 8.12361 13.3238 7.19284C13.3238 6.26211 13.1109 5.42443 12.6855 4.67985C12.2597 3.92196 11.6747 3.33692 10.9305 2.92471C10.1858 2.49924 9.34827 2.28648 8.4173 2.28648C7.48634 2.28648 6.64876 2.49924 5.90408 2.92471C5.15989 3.33692 4.57489 3.92196 4.14908 4.67985C3.72376 5.42443 3.51086 6.26211 3.51086 7.19284C3.51086 8.12361 3.72376 8.96791 4.14908 9.7258C4.57489 10.4704 5.15989 11.0554 5.90408 11.4809C6.64876 11.8931 7.48634 12.0992 8.4173 12.0992Z" fill="white"/>
</svg>
