<svg width="49" height="14" viewBox="0 0 49 14" fill="none" xmlns="http://www.w3.org/2000/svg">
<path d="M35.3262 6.34045V13.8579H39.5025V9.40313H44.2358C46.2265 9.38921 47.9179 8.11541 48.5583 6.34045H35.3262Z" fill="#878A94"/>
<path d="M34.7695 0.145813C35.0132 3.21545 37.9227 5.6447 41.4726 5.6447C41.4865 5.6447 48.7325 5.6447 48.7325 5.6447C48.7882 5.36628 48.8161 5.07393 48.8161 4.77462C48.8161 2.22704 46.7627 0.166695 44.2221 0.145813H34.7695Z" fill="#878A94"/>
<path d="M28.5904 5.56814C28.6391 5.48461 28.7157 5.43588 28.8131 5.43588C28.9523 5.43588 29.0567 5.54725 29.0637 5.67951V13.7886H33.2401V0.145813H29.0637C28.5347 0.166695 27.9361 0.549529 27.7133 1.02981L24.3931 8.15749C24.3862 8.18533 24.3722 8.21317 24.3583 8.24101C24.3096 8.31062 24.2261 8.35934 24.1286 8.35934C23.9755 8.35934 23.8502 8.23405 23.8502 8.08092V0.145813H19.6738V13.7886H23.8502C24.3722 13.7608 24.9569 13.378 25.1797 12.9046L28.5904 5.58902C28.5834 5.58206 28.5904 5.5751 28.5904 5.56814Z" fill="#878A94"/>
<path d="M12.9963 5.80535L10.5531 13.7892H7.54614L5.10993 5.79839C5.08904 5.6731 4.97767 5.57565 4.83846 5.57565C4.68533 5.57565 4.567 5.70094 4.567 5.84711V13.7822H0.390625V0.139404H3.97534H5.04032C5.80599 0.139404 6.61342 0.738018 6.83616 1.46888L8.86866 8.11628C8.97307 8.45038 9.13316 8.44342 9.23757 8.11628L11.2701 1.46888C11.4928 0.731057 12.3002 0.139404 13.0659 0.139404H14.1309H17.7156V13.7822H13.5392V5.84711C13.5392 5.84711 13.5392 5.84711 13.5392 5.84015C13.5392 5.68702 13.4139 5.56869 13.2678 5.56869C13.1286 5.57565 13.0172 5.6731 12.9963 5.80535Z" fill="#878A94"/>
</svg>
