<svg width="33" height="35" viewBox="0 0 33 35" fill="none" xmlns="http://www.w3.org/2000/svg">
<rect x="0.427734" y="0.225342" width="31.9206" height="33.7983" rx="7.51074" fill="#F1F5FA"/>
<path d="M13.6943 24.8563C13.9293 24.8562 14.1319 24.7629 14.29 24.5878H14.291L19.7002 18.6063L19.708 18.5975L19.7158 18.5868C19.78 18.4977 19.8318 18.4005 19.8711 18.2958C19.9126 18.1853 19.9346 18.0715 19.9346 17.9559C19.9346 17.8403 19.9126 17.7265 19.8711 17.6161C19.8317 17.5112 19.7802 17.4133 19.7158 17.3241L19.708 17.3143L19.7002 17.3055L14.291 11.3241C14.1328 11.1487 13.9295 11.0557 13.6943 11.0555C13.4599 11.0555 13.2536 11.1479 13.085 11.3163L13.0771 11.3241L13.2412 11.4725L13.0771 11.3251C12.9184 11.5013 12.8438 11.7195 12.8438 11.9637C12.8438 12.2081 12.9183 12.4271 13.0771 12.6034L17.9004 17.9559L13.0771 23.3085C12.9183 23.4848 12.8438 23.7037 12.8438 23.9481C12.8438 24.1924 12.9184 24.4105 13.0771 24.5868L13.085 24.5956C13.2536 24.764 13.4599 24.8563 13.6943 24.8563Z" fill="#29A8EB" stroke="#29A8EB" stroke-width="0.442184"/>
</svg>
