<svg width="33" height="35" viewBox="0 0 33 35" fill="none" xmlns="http://www.w3.org/2000/svg">
<rect x="0.158203" y="0.634155" width="31.9206" height="33.7983" rx="7.51074" fill="#F1F5FA"/>
<path d="M13.4248 25.2651C13.6598 25.265 13.8624 25.1717 14.0205 24.9966H14.0215L19.4307 19.0151L19.4385 19.0063L19.4463 18.9956C19.5105 18.9065 19.5622 18.8093 19.6016 18.7046C19.643 18.5941 19.665 18.4804 19.665 18.3647C19.665 18.2491 19.643 18.1354 19.6016 18.0249C19.5622 17.92 19.5106 17.8222 19.4463 17.7329L19.4385 17.7231L19.4307 17.7144L14.0215 11.7329C13.8633 11.5575 13.66 11.4645 13.4248 11.4644C13.1903 11.4644 12.984 11.5567 12.8154 11.7251L12.8076 11.7329L12.9717 11.8813L12.8076 11.7339C12.6489 11.9101 12.5742 12.1283 12.5742 12.3726C12.5742 12.617 12.6487 12.8359 12.8076 13.0122L17.6309 18.3647L12.8076 23.7173C12.6487 23.8936 12.5742 24.1125 12.5742 24.3569C12.5742 24.6012 12.6489 24.8194 12.8076 24.9956L12.8154 25.0044C12.984 25.1728 13.1903 25.2651 13.4248 25.2651Z" fill="#2F90FF" stroke="#2F90FF" stroke-width="0.442184"/>
</svg>
