<svg width="33" height="35" viewBox="0 0 33 35" fill="none" xmlns="http://www.w3.org/2000/svg">
<rect x="0.787109" y="0.225342" width="31.9206" height="33.7983" rx="7.51074" fill="#F1F5FA"/>
<path d="M14.0537 24.8563C14.2887 24.8562 14.4913 24.7629 14.6494 24.5878H14.6504L20.0596 18.6063L20.0674 18.5975L20.0752 18.5868C20.1394 18.4977 20.1911 18.4005 20.2305 18.2958C20.2719 18.1853 20.2939 18.0715 20.2939 17.9559C20.2939 17.8403 20.2719 17.7265 20.2305 17.6161C20.1911 17.5112 20.1395 17.4133 20.0752 17.3241L20.0674 17.3143L20.0596 17.3055L14.6504 11.3241C14.4922 11.1487 14.2889 11.0557 14.0537 11.0555C13.8192 11.0555 13.6129 11.1479 13.4443 11.3163L13.4365 11.3241L13.6006 11.4725L13.4365 11.3251C13.2778 11.5013 13.2031 11.7195 13.2031 11.9637C13.2031 12.2081 13.2776 12.4271 13.4365 12.6034L18.2598 17.9559L13.4365 23.3085C13.2776 23.4848 13.2031 23.7037 13.2031 23.9481C13.2031 24.1924 13.2778 24.4105 13.4365 24.5868L13.4443 24.5956C13.6129 24.764 13.8192 24.8563 14.0537 24.8563Z" fill="#FF3636" stroke="#FF3636" stroke-width="0.442184"/>
</svg>
