<svg width="31" height="29" viewBox="0 0 31 29" fill="none" xmlns="http://www.w3.org/2000/svg">
<path d="M20.7594 0.915955H14.4384C11.575 0.915955 9.30565 0.915955 7.53142 1.117C5.70362 1.32347 4.22482 1.75815 3.05931 2.73755C1.89218 3.71695 1.37436 4.95987 1.12925 6.49485C0.890625 7.98635 0.890625 9.89217 0.890625 12.2979V20.2281C0.890625 22.2766 2.38403 24.0316 4.50564 24.7679C4.39688 23.5317 4.39688 21.7998 4.39688 20.3572V13.5517C4.39688 11.8116 4.39688 10.3106 4.58843 9.10974C4.79458 7.82199 5.25884 6.58858 6.45032 5.58744C7.6418 4.58631 9.11086 4.19646 10.6432 4.02258C12.0717 3.86229 13.8573 3.86229 15.9302 3.86229H20.9136C22.9849 3.86229 24.7673 3.86229 26.1974 4.02258C25.7688 3.10754 25.0208 2.32174 24.0508 1.7676C23.0808 1.21347 21.9339 0.916692 20.7594 0.915955Z" fill="white"/>
<path d="M6.73438 13.681C6.73438 9.97809 6.73437 8.12661 8.10441 6.97605C9.47283 5.8255 11.6756 5.8255 16.0844 5.8255H20.7594C25.1666 5.8255 27.371 5.8255 28.741 6.97605C30.1094 8.12661 30.1094 9.97809 30.1094 13.681V20.2285C30.1094 23.9314 30.1094 25.7829 28.741 26.9335C27.371 28.084 25.1666 28.084 20.7594 28.084H16.0844C11.6772 28.084 9.47283 28.084 8.10441 26.9335C6.73437 25.7829 6.73438 23.9314 6.73438 20.2285V13.681Z" fill="white"/>
</svg>
