<svg width="21" height="20" viewBox="0 0 21 20" fill="none" xmlns="http://www.w3.org/2000/svg">
<path d="M4.42818 8.56333C4.43475 8.62279 4.44143 8.68292 4.44819 8.74363L4.55281 9.68531C4.62626 10.3466 4.68995 10.9201 4.80107 11.3778C4.92061 11.8702 5.11769 12.334 5.52865 12.7018C5.93962 13.0697 6.42237 13.2143 6.92492 13.2787C7.39206 13.3386 7.96909 13.3386 8.63449 13.3386H13.0926C13.5488 13.3386 13.9515 13.3386 14.2876 13.3044C14.652 13.2674 15.0059 13.1855 15.3463 12.9806C15.6866 12.7756 15.9247 12.5011 16.1279 12.1965C16.3153 11.9154 16.5037 11.5595 16.7171 11.1565L18.7902 7.24052C19.5258 5.85108 18.5186 4.17815 16.9464 4.17815H8.53453C7.71609 4.17811 7.01591 4.17807 6.46169 4.2555C6.18119 4.2947 5.90633 4.35745 5.64852 4.46443L5.52873 3.38631C5.42079 2.41483 4.59965 1.67987 3.62219 1.67987H3.20581C2.74589 1.67987 2.37305 2.05271 2.37305 2.51264C2.37305 2.97256 2.74589 3.3454 3.20581 3.3454H3.62219C3.75098 3.3454 3.85916 3.44224 3.87339 3.57023L4.42818 8.56333Z" fill="#798CB4"/>
<path fill-rule="evenodd" clip-rule="evenodd" d="M12.3672 16.253C12.3672 15.1032 13.2993 14.1711 14.4491 14.1711C15.5989 14.1711 16.531 15.1032 16.531 16.253C16.531 17.4028 15.5989 18.3349 14.4491 18.3349C13.2993 18.3349 12.3672 17.4028 12.3672 16.253Z" fill="#798CB4"/>
<path fill-rule="evenodd" clip-rule="evenodd" d="M4.87109 16.253C4.87109 15.1032 5.8032 14.1711 6.953 14.1711C8.10281 14.1711 9.03491 15.1032 9.03491 16.253C9.03491 17.4028 8.10281 18.3349 6.953 18.3349C5.8032 18.3349 4.87109 17.4028 4.87109 16.253Z" fill="#798CB4"/>
</svg>
