<svg width="18" height="18" viewBox="0 0 18 18" fill="none" xmlns="http://www.w3.org/2000/svg">
<path fill-rule="evenodd" clip-rule="evenodd" d="M15.1609 3.43016C16.2351 4.03853 16.8976 5.1635 16.8976 6.38024V11.5304C16.8976 12.7478 16.2351 13.8721 15.1609 14.4805L10.6117 17.0562C9.53738 17.6646 8.21307 17.6646 7.13879 17.0562L2.58962 14.4805C1.51533 13.8721 0.853516 12.7478 0.853516 11.5304V6.38024C0.853516 5.1635 1.51533 4.03853 2.58962 3.43016L7.13879 0.855082C8.21307 0.246711 9.53738 0.246711 10.6117 0.855082L15.1609 3.43016ZM7.74779 2.02396L3.31762 4.53218C2.6197 4.92749 2.19052 5.65715 2.19052 6.44777V11.4636C2.19052 12.2535 2.6197 12.9838 3.31762 13.3791L7.74779 15.8867C8.44571 16.282 9.30474 16.282 10.0027 15.8867L14.4328 13.3791C15.1307 12.9838 15.5606 12.2535 15.5606 11.4636V6.44777C15.5606 5.65715 15.1307 4.92749 14.4328 4.53218L10.0027 2.02396C9.30474 1.62866 8.44571 1.62866 7.74779 2.02396ZM9.80144 3.42557L13.297 5.40409C13.87 5.7286 14.2236 6.32845 14.2236 6.97812V10.9358C14.2236 11.5848 13.87 12.1847 13.297 12.5092L9.80144 14.4884C9.22853 14.8128 8.52193 14.8128 7.94901 14.4884L4.45341 12.5092C3.8805 12.1847 3.52753 11.5848 3.52753 10.9358V6.97812C3.52753 6.32845 3.8805 5.7286 4.45341 5.40409L7.94901 3.42557C8.52193 3.10107 9.22853 3.10107 9.80144 3.42557ZM6.87005 10.9234H10.8811V6.98992H6.87005V10.9234Z" fill="#FF3636"/>
</svg>
