<svg width="16" height="15" viewBox="0 0 16 15" fill="none" xmlns="http://www.w3.org/2000/svg">
<path d="M8.4173 14.3729C6.99472 14.3729 5.71149 14.0671 4.56811 13.4555C3.42472 12.8305 2.52714 11.9729 1.87537 10.8827C1.22408 9.77904 0.898438 8.54914 0.898438 7.1929C0.898438 5.8367 1.22408 4.61343 1.87537 3.52312C2.52714 2.41951 3.42472 1.56189 4.56811 0.950281C5.71149 0.325362 6.99472 0.0128784 8.4173 0.0128784C9.83988 0.0128784 11.1231 0.325362 12.2665 0.950281C13.4099 1.56189 14.3075 2.41288 14.9592 3.50319C15.6105 4.59349 15.9362 5.8234 15.9362 7.1929C15.9362 8.56245 15.6105 9.79235 14.9592 10.8827C14.3075 11.9729 13.4099 12.8305 12.2665 13.4555C11.1231 14.0671 9.83988 14.3729 8.4173 14.3729ZM8.4173 12.0992C9.34827 12.0992 10.1858 11.8932 10.9305 11.481C11.6747 11.0555 12.2597 10.4704 12.6855 9.72586C13.1109 8.96798 13.3238 8.12367 13.3238 7.1929C13.3238 6.26217 13.1109 5.42449 12.6855 4.67991C12.2597 3.92203 11.6747 3.33698 10.9305 2.92477C10.1858 2.4993 9.34827 2.28654 8.4173 2.28654C7.48634 2.28654 6.64876 2.4993 5.90408 2.92477C5.15989 3.33698 4.57489 3.92203 4.14908 4.67991C3.72376 5.42449 3.51086 6.26217 3.51086 7.1929C3.51086 8.12367 3.72376 8.96798 4.14908 9.72586C4.57489 10.4704 5.15989 11.0555 5.90408 11.481C6.64876 11.8932 7.48634 12.0992 8.4173 12.0992Z" fill="white"/>
</svg>
