<svg width="76" height="15" viewBox="0 0 76 15" fill="none" xmlns="http://www.w3.org/2000/svg">
<path d="M10.1013 14.1607L7.24938 10.0721C7.12938 10.0854 6.95034 10.092 6.71083 10.092H3.55938V14.1607H0.966797V0.199558H6.71083C7.92051 0.199558 8.97099 0.39901 9.8618 0.797913C10.7662 1.19682 11.4576 1.76856 11.9361 2.51314C12.4147 3.25772 12.6542 4.14195 12.6542 5.16572C12.6542 6.21616 12.3949 7.12032 11.8766 7.87821C11.371 8.63609 10.6399 9.20116 9.68228 9.57349L12.8937 14.1607H10.1013ZM10.0413 5.16572C10.0413 4.27491 9.74906 3.59014 9.16406 3.11145C8.57906 2.6328 7.72115 2.39348 6.59131 2.39348H3.55938V7.95799H6.59131C7.72115 7.95799 8.57906 7.71862 9.16406 7.23998C9.74906 6.74803 10.0413 6.05658 10.0413 5.16572Z" fill="white"/>
<path d="M22.2772 14.3601C20.8541 14.3601 19.5714 14.0543 18.428 13.4427C17.2841 12.8177 16.387 11.9601 15.7352 10.8698C15.0839 9.7662 14.7578 8.5363 14.7578 7.18006C14.7578 5.82386 15.0839 4.60059 15.7352 3.51028C16.387 2.40667 17.2841 1.54905 18.428 0.937442C19.5714 0.312522 20.8541 3.8147e-05 22.2772 3.8147e-05C23.6997 3.8147e-05 24.983 0.312522 26.1264 0.937442C27.2697 1.54905 28.1673 2.40004 28.8186 3.49034C29.4704 4.58065 29.796 5.81056 29.796 7.18006C29.796 8.5496 29.4704 9.77951 28.8186 10.8698C28.1673 11.9601 27.2697 12.8177 26.1264 13.4427C24.983 14.0543 23.6997 14.3601 22.2772 14.3601ZM22.2772 12.0864C23.2077 12.0864 24.0452 11.8803 24.7899 11.4681C25.5346 11.0427 26.1196 10.4576 26.5454 9.71302C26.9707 8.95514 27.1836 8.11083 27.1836 7.18006C27.1836 6.24933 26.9707 5.41165 26.5454 4.66707C26.1196 3.90918 25.5346 3.32414 24.7899 2.91197C24.0452 2.48646 23.2077 2.27375 22.2772 2.27375C21.3462 2.27375 20.5086 2.48646 19.7639 2.91197C19.0193 3.32414 18.4343 3.90918 18.0089 4.66707C17.5836 5.41165 17.3707 6.24933 17.3707 7.18006C17.3707 8.11083 17.5836 8.95514 18.0089 9.71302C18.4343 10.4576 19.0193 11.0427 19.7639 11.4681C20.5086 11.8803 21.3462 12.0864 22.2772 12.0864Z" fill="white"/>
<path d="M42.6369 6.90093C43.4077 7.15356 44.0193 7.57903 44.4717 8.17738C44.9237 8.76238 45.1496 9.4937 45.1496 10.3713C45.1496 11.5812 44.6841 12.5186 43.7537 13.1834C42.8227 13.8349 41.4664 14.1607 39.6848 14.1607H32.7441V0.199558H39.2861C40.9346 0.199558 42.2043 0.525349 43.0956 1.17683C43.9864 1.81506 44.4316 2.69928 44.4316 3.82946C44.4316 4.52087 44.2719 5.13253 43.953 5.66435C43.6337 6.19622 43.1953 6.60838 42.6369 6.90093ZM35.3372 2.2339V6.08319H39.0069C39.9108 6.08319 40.6022 5.92366 41.0808 5.60454C41.5729 5.27212 41.8191 4.79343 41.8191 4.16851C41.8191 3.53028 41.5729 3.05164 41.0808 2.73253C40.6022 2.40011 39.9108 2.2339 39.0069 2.2339H35.3372ZM39.5251 12.1264C41.5332 12.1264 42.5367 11.4549 42.5367 10.112C42.5367 8.76906 41.5332 8.09759 39.5251 8.09759H35.3372V12.1264H39.5251Z" fill="white"/>
<path d="M54.121 14.3601C52.1927 14.3601 50.6903 13.8216 49.6132 12.7446C48.5366 11.6543 47.998 10.0987 47.998 8.07766V0.199558H50.5906V7.97793C50.5906 10.717 51.7742 12.0865 54.1408 12.0865C56.4943 12.0865 57.6711 10.717 57.6711 7.97793V0.199558H60.224V8.07766C60.224 10.0987 59.6855 11.6543 58.6084 12.7446C57.5448 13.8216 56.0487 14.3601 54.121 14.3601Z" fill="white"/>
<path d="M72.6529 14.1607L68.8637 8.85548L65.1137 14.1607H62.1621L67.3478 7.04053L62.4413 0.199558H65.3731L68.9431 5.16572L72.4734 0.199558H75.2857L70.399 6.9408L75.6447 14.1607H72.6529Z" fill="white"/>
</svg>
