<svg width="38" height="36" viewBox="0 0 38 36" fill="none" xmlns="http://www.w3.org/2000/svg">
<path d="M35.3991 35.4639C35.8417 35.4639 36.2004 35.1051 36.2004 34.6625V33.705C36.2004 33.4255 36.0556 33.1644 35.8117 33.0279C32.4889 31.1677 28.5243 30.9772 23.6413 30.4751C23.5583 30.4666 23.4856 30.5316 23.4857 30.615L23.482 32.5254C23.4812 32.9312 23.2664 33.306 22.9178 33.5096C22.7295 33.6195 22.8073 33.9087 23.0252 33.912C27.4622 33.9794 30.3326 34.3183 33.7619 35.4243C33.8423 35.4502 33.9268 35.4639 34.0112 35.4639H35.3991Z" fill="#FFB800"/>
<path d="M29.0747 29.5063C28.4601 29.4407 28.1284 28.7383 28.4799 28.2299L30.5623 25.2179C30.6549 25.0839 30.7045 24.925 30.7045 24.7622V13.3711C30.7045 12.5087 31.8802 12.255 32.2358 13.0407L37.4673 24.5985C37.5834 24.8551 37.5563 25.1539 37.3959 25.3854L34.2065 29.9871C34.0128 30.2666 33.664 30.3935 33.3349 30.3079C32.7122 30.1458 31.6838 29.8891 30.92 29.7533C30.3693 29.6553 29.6771 29.5705 29.0747 29.5063Z" fill="#FFB800"/>
<path d="M2.68216 35.4639C2.23962 35.4639 1.88086 35.1051 1.88086 34.6625V33.705C1.88086 33.4255 2.02566 33.1644 2.26955 33.0279C5.59237 31.1677 9.55703 30.9772 14.4399 30.4751C14.5229 30.4666 14.5957 30.5316 14.5956 30.615L14.5992 32.5254C14.6 32.9312 14.8149 33.306 15.1635 33.5096C15.3518 33.6195 15.274 33.9087 15.056 33.912C10.6191 33.9794 7.74864 34.3183 4.31936 35.4243C4.23896 35.4502 4.15448 35.4639 4.07 35.4639H2.68216Z" fill="#FFB800"/>
<path d="M9.00754 29.5063C9.62213 29.4407 9.95382 28.7383 9.60233 28.2299L7.51991 25.2179C7.42733 25.0839 7.37773 24.925 7.37773 24.7622V13.3711C7.37773 12.5087 6.20206 12.255 5.84642 13.0407L0.614976 24.5985C0.498825 24.8551 0.525938 25.1539 0.68639 25.3854L3.87569 29.9871C4.06942 30.2666 4.41821 30.3935 4.74733 30.3079C5.36999 30.1458 6.39843 29.8891 7.16222 29.7533C7.71298 29.6553 8.40514 29.5705 9.00754 29.5063Z" fill="#FFB800"/>
<path d="M26.2284 25.3307C26.3674 25.1296 26.407 24.876 26.336 24.6421L19.8285 3.21964C19.5988 2.46341 18.5289 2.46119 18.296 3.21646L11.6908 24.6406C11.6184 24.8753 11.6577 25.1303 11.7974 25.3324L14.2024 28.811C14.3065 28.9616 14.5427 28.8882 14.543 28.7051C14.5438 28.2993 14.7587 27.9245 15.1073 27.7209L16.7483 26.7625L18.3929 25.8105C18.5837 25.7001 18.801 25.65 19.0136 25.6602C19.2261 25.65 19.4409 25.7001 19.6317 25.8105L21.2764 26.7625L22.9173 27.7209C23.2659 27.9245 23.4808 28.2993 23.4816 28.7051C23.4819 28.8882 23.7181 28.9616 23.8222 28.811L26.2284 25.3307Z" fill="#FFB800"/>
<path fill-rule="evenodd" clip-rule="evenodd" d="M19.4978 34.2469C19.2318 34.3998 18.9046 34.3998 18.6387 34.2469L17.3867 33.5273L16.1375 32.8028C15.8721 32.6489 15.7085 32.3656 15.7079 32.0588L15.7051 30.6147L15.7079 29.1707C15.7085 28.8639 15.8721 28.5805 16.1375 28.4267L17.3867 27.7022L18.6387 26.9826C18.9046 26.8297 19.2318 26.8297 19.4978 26.9826L20.7498 27.7022L21.999 28.4267C22.2644 28.5805 22.4279 28.8639 22.4285 29.1707L22.4314 30.6147L22.4285 32.0588C22.4279 32.3656 22.2644 32.6489 21.999 32.8028L20.7498 33.5273L19.4978 34.2469ZM20.4689 30.123C20.4689 29.6804 20.1101 29.3217 19.6676 29.3217H18.5764C18.1338 29.3217 17.7751 29.6804 17.7751 30.123V31.2142C17.7751 31.6567 18.1338 32.0155 18.5764 32.0155H19.6676C20.1101 32.0155 20.4689 31.6567 20.4689 31.2142V30.123Z" fill="#FFB800"/>
</svg>
