<svg width="18" height="20" viewBox="0 0 18 20" fill="none" xmlns="http://www.w3.org/2000/svg">
<path d="M9.83398 12.5H8.16732C7.9463 12.5 7.73434 12.5878 7.57806 12.7441C7.42178 12.9004 7.33398 13.1123 7.33398 13.3334V19.1667H10.6673V13.3334C10.6673 13.1123 10.5795 12.9004 10.4232 12.7441C10.267 12.5878 10.055 12.5 9.83398 12.5Z" fill="#798CB4"/>
<path d="M15.4763 4.30865L11.3096 1.53365C10.6258 1.07859 9.82271 0.8358 9.0013 0.8358C8.17989 0.8358 7.37681 1.07859 6.69297 1.53365L2.5263 4.30865C1.95505 4.68879 1.48652 5.20413 1.16233 5.8089C0.838137 6.41366 0.668323 7.08914 0.667969 7.77531V15.0003C0.667969 15.5475 0.775743 16.0893 0.985137 16.5948C1.19453 17.1004 1.50145 17.5597 1.88836 17.9466C2.66976 18.728 3.72957 19.167 4.83464 19.167H5.66797V13.3336C5.66797 12.6706 5.93136 12.0347 6.4002 11.5659C6.86904 11.097 7.50493 10.8336 8.16797 10.8336H9.83463C10.4977 10.8336 11.1336 11.097 11.6024 11.5659C12.0712 12.0347 12.3346 12.6706 12.3346 13.3336V19.167H13.168C13.7151 19.167 14.257 19.0592 14.7625 18.8498C15.268 18.6404 15.7273 18.3335 16.1142 17.9466C16.5012 17.5597 16.8081 17.1004 17.0175 16.5948C17.2269 16.0893 17.3346 15.5475 17.3346 15.0003V7.77531C17.3343 7.08914 17.1645 6.41366 16.8403 5.8089C16.5161 5.20413 16.0476 4.68879 15.4763 4.30865Z" fill="#798CB4"/>
</svg>
