<svg width="18" height="17" viewBox="0 0 18 17" fill="none" xmlns="http://www.w3.org/2000/svg">
<path d="M15.7167 7.06445C15.6537 7.02864 15.5787 7.02029 15.5093 7.04131L9.30621 8.9261C9.25639 8.94126 9.20473 8.94892 9.15275 8.94892C9.01161 8.94892 8.87892 8.89398 8.77919 8.79415C8.64106 8.65601 8.5905 8.45402 8.64729 8.26708L10.5406 2.03578C10.5616 1.96669 10.5534 1.89205 10.5179 1.82919C10.4824 1.76633 10.4227 1.72069 10.3527 1.70294C9.74242 1.54817 9.11404 1.46973 8.48496 1.46973C4.30601 1.46978 0.90625 4.86954 0.90625 9.04839C0.90625 13.2272 4.30601 16.627 8.48491 16.627C12.6638 16.627 16.0636 13.2273 16.0636 9.04839C16.0636 8.4377 15.9892 7.82621 15.8426 7.23084C15.8252 7.16048 15.7797 7.10032 15.7167 7.06445Z" fill="#798CB4"/>
<path d="M17.3564 5.07504C16.4639 2.88123 14.6938 1.11113 12.4999 0.218677C12.4312 0.190734 12.3538 0.192952 12.2867 0.22491C12.2197 0.256815 12.1692 0.315502 12.1476 0.386549L10.0915 7.154C10.0632 7.24729 10.0885 7.3486 10.1575 7.41754C10.2077 7.46783 10.2752 7.49487 10.3442 7.49487C10.3699 7.49487 10.3957 7.49112 10.4209 7.48346L17.1884 5.42721C17.2594 5.40561 17.3181 5.35516 17.3501 5.28813C17.382 5.2212 17.3843 5.14381 17.3564 5.07504Z" fill="#798CB4"/>
</svg>
