<svg width="20" height="20" viewBox="0 0 20 20" fill="none" xmlns="http://www.w3.org/2000/svg">
<path d="M3.88914 8.44288C3.89528 8.49844 3.90152 8.55462 3.90783 8.61135L4.0056 9.4913C4.07422 10.1092 4.13374 10.6452 4.23758 11.0728C4.34928 11.5329 4.53343 11.9663 4.91745 12.31C5.30147 12.6538 5.75257 12.7889 6.22217 12.8491C6.65869 12.9051 7.19789 12.905 7.81965 12.905H11.9855C12.4118 12.905 12.788 12.905 13.1022 12.8731C13.4426 12.8386 13.7733 12.762 14.0914 12.5705C14.4094 12.379 14.6319 12.1225 14.8217 11.8378C14.9969 11.5751 15.1729 11.2426 15.3723 10.866L17.3095 7.2068C17.9969 5.90846 17.0557 4.34521 15.5866 4.34521H7.72625C6.96147 4.34518 6.3072 4.34514 5.78932 4.4175C5.52721 4.45413 5.27037 4.51276 5.02947 4.61272L4.91753 3.60529C4.81666 2.69751 4.04936 2.01074 3.13599 2.01074H2.74691C2.31715 2.01074 1.96875 2.35913 1.96875 2.7889C1.96875 3.21867 2.31715 3.56707 2.74691 3.56707H3.13599C3.25634 3.56707 3.35743 3.65755 3.37072 3.77716L3.88914 8.44288Z" fill="#798CB4"/>
<path fill-rule="evenodd" clip-rule="evenodd" d="M11.3105 15.628C11.3105 14.5536 12.1815 13.6826 13.256 13.6826C14.3304 13.6826 15.2014 14.5536 15.2014 15.628C15.2014 16.7024 14.3304 17.5734 13.256 17.5734C12.1815 17.5734 11.3105 16.7024 11.3105 15.628Z" fill="#798CB4"/>
<path fill-rule="evenodd" clip-rule="evenodd" d="M4.30469 15.628C4.30469 14.5536 5.17568 13.6826 6.25009 13.6826C7.32451 13.6826 8.1955 14.5536 8.1955 15.628C8.1955 16.7024 7.32451 17.5734 6.25009 17.5734C5.17568 17.5734 4.30469 16.7024 4.30469 15.628Z" fill="#798CB4"/>
</svg>
