<svg width="24" height="24" viewBox="0 0 24 24" fill="none" xmlns="http://www.w3.org/2000/svg">
<path fill-rule="evenodd" clip-rule="evenodd" d="M20.8125 4.25113C22.3189 5.1043 23.248 6.68194 23.248 8.38828V15.6108C23.248 17.3181 22.3189 18.8948 20.8125 19.748L14.4327 23.3601C12.9262 24.2133 11.069 24.2133 9.56242 23.3601L3.18274 19.748C1.67617 18.8948 0.748047 17.3181 0.748047 15.6108V8.38828C0.748047 6.68194 1.67617 5.1043 3.18274 4.25113L9.56242 0.639878C11.069 -0.213292 12.9262 -0.213292 14.4327 0.639878L20.8125 4.25113ZM10.4165 2.2791L4.20367 5.79659C3.22492 6.35097 2.62305 7.37423 2.62305 8.48298V15.517C2.62305 16.6248 3.22492 17.649 4.20367 18.2034L10.4165 21.72C11.3952 22.2744 12.5999 22.2744 13.5787 21.72L19.7914 18.2034C20.7702 17.649 21.373 16.6248 21.373 15.517V8.48298C21.373 7.37423 20.7702 6.35097 19.7914 5.79659L13.5787 2.2791C12.5999 1.72473 11.3952 1.72473 10.4165 2.2791ZM13.2965 4.2447L18.1986 7.01934C19.0021 7.47443 19.498 8.31565 19.498 9.22674V14.7769C19.498 15.6872 19.0021 16.5284 18.1986 16.9834L13.2965 19.7591C12.493 20.214 11.5021 20.214 10.6987 19.7591L5.79649 16.9834C4.99305 16.5284 4.49805 15.6872 4.49805 14.7769V9.22674C4.49805 8.31565 4.99305 7.47443 5.79649 7.01934L10.6987 4.2447C11.5021 3.78961 12.493 3.78961 13.2965 4.2447ZM9.18555 14.7595H14.8105V9.24329H9.18555V14.7595Z" fill="#1F1F31"/>
</svg>
