<svg width="19" height="19" viewBox="0 0 19 19" fill="none" xmlns="http://www.w3.org/2000/svg">
<path fill-rule="evenodd" clip-rule="evenodd" d="M3.10032 4.98145H15.9054C16.0541 4.98145 16.1968 5.04042 16.3021 5.14542C16.4073 5.25041 16.4665 5.39283 16.4667 5.5414V8.1329C16.4665 8.26252 16.4148 8.38679 16.323 8.4784C16.2312 8.57 16.1066 8.62146 15.9769 8.62146C15.6342 8.62146 15.3056 8.75741 15.0632 8.99941C14.8209 9.24143 14.6848 9.56965 14.6848 9.91189C14.6848 10.2541 14.8209 10.5824 15.0632 10.8244C15.3056 11.0664 15.6342 11.2023 15.9769 11.2023C16.1068 11.2023 16.2314 11.2539 16.3232 11.3456C16.415 11.4373 16.4667 11.5618 16.4667 11.6914V14.283C16.4665 14.4316 16.4073 14.5739 16.3021 14.679C16.1968 14.784 16.0541 14.8429 15.9054 14.8429H3.10032C3.02664 14.843 2.95368 14.8286 2.88558 14.8005C2.81749 14.7723 2.75561 14.7311 2.70349 14.6791C2.65137 14.6271 2.61001 14.5653 2.5818 14.4974C2.55358 14.4294 2.53906 14.3565 2.53906 14.283V11.705C2.53906 11.5753 2.59066 11.4509 2.68252 11.3592C2.77436 11.2674 2.89894 11.2159 3.02884 11.2159C3.37152 11.2159 3.70017 11.0799 3.94248 10.8379C4.1848 10.5959 4.32092 10.2677 4.32092 9.92547C4.32092 9.58322 4.1848 9.25499 3.94248 9.01299C3.70017 8.77099 3.37152 8.63503 3.02884 8.63503C2.89905 8.63503 2.77456 8.58358 2.68273 8.49197C2.59089 8.40037 2.53921 8.2761 2.53906 8.14647V5.5414C2.53906 5.46782 2.55358 5.39495 2.5818 5.32698C2.61001 5.259 2.65137 5.19724 2.70349 5.14524C2.75561 5.09324 2.81749 5.052 2.88558 5.0239C2.95368 4.99579 3.02664 4.98137 3.10032 4.98145ZM7.28335 11.0449L8.86073 12.4906C9.22332 12.8229 9.78241 12.8229 10.145 12.4906L11.7224 11.0449C11.9163 10.8672 12.0267 10.617 12.0267 10.355V8.07046C12.0267 7.5518 11.6029 7.13134 11.0802 7.13134H7.92549C7.4028 7.13134 6.97907 7.5518 6.97907 8.07046V10.355C6.97907 10.617 7.08938 10.8672 7.28335 11.0449Z" fill="#798CB4"/>
</svg>
