<svg width="77" height="38" viewBox="0 0 77 38" fill="none" xmlns="http://www.w3.org/2000/svg">
<path d="M72.2028 0.940186H5.10308C2.87692 0.940186 1.07227 2.7448 1.07227 4.97091V33.186C1.07227 35.4121 2.87692 37.2167 5.10308 37.2167H72.2028C74.429 37.2167 76.2336 35.4121 76.2336 33.186V4.97091C76.2336 2.7448 74.429 0.940186 72.2028 0.940186Z" fill="#101529"/>
<path opacity="0.5" d="M33.0277 11.7518L26.8712 26.4158H22.8498L19.8116 14.7192C19.7782 14.4453 19.6774 14.184 19.5184 13.9586C19.3593 13.7332 19.1469 13.5507 18.9001 13.4273C17.7165 12.8644 16.4655 12.456 15.1777 12.2121L15.2543 11.7564H21.711C22.1392 11.7463 22.5557 11.8965 22.879 12.1774C23.2023 12.4584 23.409 12.85 23.4585 13.2755L25.0518 21.7775L29.0015 11.8271H33.0277V11.7518ZM48.7508 21.6256C48.7508 17.7515 43.434 17.5242 43.434 15.8532C43.434 15.321 43.9662 14.7899 45.0296 14.638C46.3105 14.4983 47.6044 14.7361 48.752 15.3221L49.4361 12.2074C48.2942 11.7758 47.0864 11.5445 45.8657 11.5233C42.1434 11.5233 39.4879 13.4946 39.4879 16.3843C39.4879 18.511 41.3873 19.6509 42.8298 20.3339C44.2723 21.0169 44.8012 21.4738 44.8012 22.1567C44.8012 23.1447 43.6613 23.6004 42.5226 23.6004C41.177 23.6091 39.8487 23.2966 38.6483 22.6889L37.9641 25.8789C39.2978 26.384 40.7125 26.6413 42.1387 26.6385C46.0883 26.6385 48.6708 24.6672 48.7485 21.6256M58.6249 26.4158H62.1234L59.0853 11.7564H55.8152C55.4724 11.7494 55.1358 11.8476 54.8505 12.0377C54.5652 12.2278 54.345 12.5008 54.2195 12.8197L48.5235 26.4158H52.4731L53.2327 24.2126H58.0938L58.6249 26.4158ZM54.3714 21.2511L56.3428 15.7825L57.4826 21.2511H54.3714ZM38.421 11.7518L35.3063 26.4158H31.5097L34.6244 11.7564H38.421V11.7518Z" fill="url(#paint0_linear_1_56471)"/>
<defs>
<linearGradient id="paint0_linear_1_56471" x1="38.6506" y1="11.5233" x2="38.6506" y2="26.6385" gradientUnits="userSpaceOnUse">
<stop stop-color="white"/>
</linearGradient>
</defs>
</svg>
