<svg width="36" height="38" viewBox="0 0 36 38" fill="none" xmlns="http://www.w3.org/2000/svg">
<rect x="0.708984" y="0.599609" width="34.6046" height="36.6402" rx="8.14227" fill="#F1F5FA"/>
<path d="M15.0898 27.3015C15.3448 27.3015 15.5648 27.2005 15.7363 27.0105L21.6006 20.5261L21.6094 20.5164L21.6172 20.5056C21.6869 20.4088 21.7434 20.3029 21.7861 20.1892C21.8311 20.0695 21.8545 19.9463 21.8545 19.821C21.8545 19.6958 21.831 19.5726 21.7861 19.4529C21.7434 19.3391 21.687 19.2333 21.6172 19.1365L21.6094 19.1257L21.6006 19.116L15.7363 12.6326C15.5647 12.4422 15.3451 12.3397 15.0898 12.3396C14.8357 12.3396 14.6125 12.4403 14.4297 12.6228L14.4209 12.6316C14.2487 12.8227 14.168 13.06 14.168 13.325C14.168 13.5899 14.2486 13.8272 14.4209 14.0183L19.6504 19.821L14.4209 25.6238C14.2487 25.8149 14.168 26.0522 14.168 26.3171C14.168 26.5819 14.2488 26.8185 14.4209 27.0095L14.4297 27.0193L14.5 27.0837C14.6686 27.2253 14.8675 27.3015 15.0898 27.3015Z" fill="#FF3636" stroke="#FF3636" stroke-width="0.479364"/>
</svg>
