<svg width="36" height="38" viewBox="0 0 36 38" fill="none" xmlns="http://www.w3.org/2000/svg">
<rect x="0.708984" y="0.599121" width="34.6046" height="36.6402" rx="8.14227" fill="#F1F5FA"/>
<path d="M15.0898 27.3011C15.3448 27.3011 15.5648 27.2001 15.7363 27.0101L21.6006 20.5258L21.6094 20.516L21.6172 20.5052C21.6869 20.4085 21.7434 20.3026 21.7861 20.1888C21.8311 20.0691 21.8545 19.946 21.8545 19.8207C21.8545 19.6954 21.831 19.5722 21.7861 19.4525C21.7434 19.3388 21.687 19.2329 21.6172 19.1361L21.6094 19.1254L21.6006 19.1156L15.7363 12.6322C15.5647 12.4418 15.3451 12.3393 15.0898 12.3392C14.8357 12.3392 14.6125 12.4399 14.4297 12.6224L14.4209 12.6312C14.2487 12.8224 14.168 13.0596 14.168 13.3246C14.168 13.5895 14.2486 13.8268 14.4209 14.0179L19.6504 19.8207L14.4209 25.6234C14.2487 25.8146 14.168 26.0518 14.168 26.3168C14.168 26.5815 14.2488 26.8181 14.4209 27.0092L14.4297 27.0189L14.5 27.0834C14.6686 27.2249 14.8675 27.3011 15.0898 27.3011Z" fill="#FF5C5F" stroke="#FF5C5F" stroke-width="0.479364"/>
</svg>
