<svg width="36" height="38" viewBox="0 0 36 38" fill="none" xmlns="http://www.w3.org/2000/svg">
<rect x="0.708984" y="0.599365" width="34.6046" height="36.6402" rx="8.14227" fill="#F1F5FA"/>
<path d="M15.0898 27.3013C15.3448 27.3012 15.5648 27.2002 15.7363 27.0103L21.6006 20.5259L21.6094 20.5161L21.6172 20.5054C21.6869 20.4086 21.7434 20.3027 21.7861 20.189C21.8311 20.0693 21.8545 19.9461 21.8545 19.8208C21.8545 19.6955 21.831 19.5723 21.7861 19.4526C21.7434 19.3389 21.687 19.233 21.6172 19.1362L21.6094 19.1255L21.6006 19.1157L15.7363 12.6323C15.5647 12.4419 15.3451 12.3394 15.0898 12.3394C14.8357 12.3394 14.6125 12.44 14.4297 12.6226L14.4209 12.6313C14.2487 12.8225 14.168 13.0598 14.168 13.3247C14.168 13.5897 14.2486 13.8269 14.4209 14.0181L19.6504 19.8208L14.4209 25.6235C14.2487 25.8147 14.168 26.052 14.168 26.3169C14.168 26.5816 14.2488 26.8182 14.4209 27.0093L14.4297 27.019L14.5 27.0835C14.6686 27.225 14.8675 27.3013 15.0898 27.3013Z" fill="#29A8EB" stroke="#29A8EB" stroke-width="0.479364"/>
</svg>
