<svg width="17" height="16" viewBox="0 0 17 16" fill="none" xmlns="http://www.w3.org/2000/svg">
<path d="M15.4431 15.9272C15.6353 15.9272 15.7911 15.7714 15.7911 15.5791V15.1633C15.7911 15.0419 15.7282 14.9285 15.6223 14.8692C14.1791 14.0612 12.4571 13.9785 10.3363 13.7604C10.3003 13.7567 10.2687 13.785 10.2687 13.8212L10.2671 14.6509C10.2668 14.8272 10.1735 14.99 10.0221 15.0784C9.9403 15.1261 9.97407 15.2517 10.0687 15.2532C11.9958 15.2824 13.2426 15.4296 14.732 15.91C14.7669 15.9213 14.8036 15.9272 14.8403 15.9272H15.4431Z" fill="#FFB800"/>
<path d="M12.6953 13.3401C12.4283 13.3116 12.2843 13.0065 12.437 12.7857L13.3414 11.4775C13.3816 11.4193 13.4032 11.3503 13.4032 11.2796V6.33214C13.4032 5.95755 13.9138 5.84736 14.0682 6.18862L16.3404 11.2085C16.3909 11.32 16.3791 11.4497 16.3094 11.5503L14.9242 13.5489C14.84 13.6703 14.6885 13.7254 14.5456 13.6882C14.2752 13.6179 13.8285 13.5064 13.4968 13.4474C13.2575 13.4048 12.9569 13.368 12.6953 13.3401Z" fill="#FFB800"/>
<path d="M1.23084 15.9272C1.03863 15.9272 0.882812 15.7714 0.882812 15.5791V15.1633C0.882812 15.0419 0.945705 14.9285 1.05163 14.8692C2.49483 14.0612 4.21679 13.9785 6.33758 13.7604C6.37361 13.7567 6.40523 13.785 6.40517 13.8212L6.40677 14.6509C6.40711 14.8272 6.50044 14.99 6.65185 15.0784C6.73361 15.1261 6.69984 15.2517 6.60516 15.2532C4.67807 15.2824 3.43136 15.4296 1.94192 15.91C1.907 15.9213 1.87031 15.9272 1.83362 15.9272H1.23084Z" fill="#FFB800"/>
<path d="M3.97938 13.3401C4.24632 13.3116 4.39038 13.0065 4.23771 12.7857L3.33326 11.4775C3.29305 11.4193 3.27151 11.3503 3.27151 11.2796V6.33214C3.27151 5.95755 2.76088 5.84736 2.60642 6.18862L0.334254 11.2085C0.283806 11.32 0.295582 11.4497 0.365271 11.5503L1.75048 13.5489C1.83462 13.6703 1.9861 13.7254 2.12905 13.6882C2.39949 13.6179 2.84617 13.5064 3.17791 13.4474C3.41712 13.4048 3.71774 13.368 3.97938 13.3401Z" fill="#FFB800"/>
<path d="M11.4596 11.526C11.5199 11.4387 11.5372 11.3286 11.5063 11.227L8.67991 1.92259C8.58014 1.59414 8.11546 1.59317 8.01433 1.92121L5.14549 11.2263C5.11405 11.3283 5.13112 11.439 5.19179 11.5268L6.23635 13.0376C6.28157 13.1031 6.38414 13.0712 6.3843 12.9916C6.38465 12.8154 6.47797 12.6526 6.62936 12.5642L7.34209 12.1479L8.05641 11.7345C8.13927 11.6865 8.23366 11.6647 8.32597 11.6691C8.4183 11.6647 8.51158 11.6865 8.59446 11.7345L9.30877 12.1479L10.0215 12.5642C10.1729 12.6526 10.2662 12.8154 10.2666 12.9916C10.2667 13.0712 10.3693 13.1031 10.4145 13.0376L11.4596 11.526Z" fill="#FFB800"/>
<path fill-rule="evenodd" clip-rule="evenodd" d="M8.53497 15.3988C8.41946 15.4651 8.27736 15.4651 8.16185 15.3988L7.61805 15.0862L7.07549 14.7715C6.96022 14.7047 6.88917 14.5816 6.88891 14.4484L6.8877 13.8212L6.88891 13.194C6.88917 13.0608 6.96022 12.9377 7.07549 12.8709L7.61805 12.5562L8.16185 12.2437C8.27736 12.1772 8.41946 12.1772 8.53497 12.2437L9.07877 12.5562L9.62133 12.8709C9.73658 12.9377 9.80763 13.0608 9.80789 13.194L9.80912 13.8212L9.80789 14.4484C9.80763 14.5816 9.73658 14.7047 9.62133 14.7715L9.07877 15.0862L8.53497 15.3988ZM8.95675 13.6076C8.95675 13.4154 8.80093 13.2596 8.60872 13.2596H8.13479C7.94258 13.2596 7.78676 13.4154 7.78676 13.6076V14.0816C7.78676 14.2738 7.94258 14.4296 8.13479 14.4296H8.60872C8.80093 14.4296 8.95675 14.2738 8.95675 14.0816V13.6076Z" fill="#FFB800"/>
</svg>
