<svg width="36" height="38" viewBox="0 0 36 38" fill="none" xmlns="http://www.w3.org/2000/svg">
<rect x="0.72168" y="0.890869" width="34.6046" height="36.6402" rx="8.14227" fill="#F1F5FA"/>
<path d="M15.1025 27.5928C15.3574 27.5927 15.5775 27.4917 15.749 27.3018L21.6133 20.8174L21.6221 20.8076L21.6299 20.7969C21.6996 20.7001 21.7561 20.5942 21.7988 20.4805C21.8438 20.3608 21.8672 20.2376 21.8672 20.1123C21.8672 19.987 21.8437 19.8638 21.7988 19.7441C21.7561 19.6304 21.6997 19.5245 21.6299 19.4277L21.6221 19.417L21.6133 19.4072L15.749 12.9238C15.5774 12.7334 15.3577 12.6309 15.1025 12.6309C14.8484 12.6309 14.6252 12.7315 14.4424 12.9141L14.4336 12.9229C14.2613 13.114 14.1807 13.3513 14.1807 13.6162C14.1807 13.8812 14.2613 14.1184 14.4336 14.3096L19.6631 20.1123L14.4336 25.915C14.2614 26.1062 14.1807 26.3435 14.1807 26.6084C14.1807 26.8731 14.2615 27.1097 14.4336 27.3008L14.4424 27.3105L14.5127 27.375C14.6813 27.5165 14.8801 27.5928 15.1025 27.5928Z" fill="#2F90FF" stroke="#2F90FF" stroke-width="0.479364"/>
</svg>
