<svg width="29" height="27" viewBox="0 0 29 27" fill="none" xmlns="http://www.w3.org/2000/svg">
<path d="M19.3872 0.929077H13.5086C10.8456 0.929077 8.73515 0.929077 7.08511 1.11605C5.38526 1.30807 4.00998 1.71232 2.92606 2.62316C1.84063 3.534 1.35905 4.68992 1.1311 6.11745C0.90918 7.50455 0.90918 9.27696 0.90918 11.5143V18.8894C0.90918 20.7945 2.29805 22.4266 4.27115 23.1113C4.17 21.9617 4.17 20.351 4.17 19.0094V12.6803C4.17 11.062 4.17 9.66605 4.34814 8.5493C4.53986 7.35169 4.97162 6.20461 6.07969 5.27356C7.18777 4.34251 8.55399 3.97994 9.97909 3.81824C11.3076 3.66917 12.9682 3.66917 14.896 3.66917H19.5306C21.4569 3.66917 23.1145 3.66917 24.4445 3.81824C24.0459 2.96725 23.3502 2.23646 22.4482 1.72111C21.5461 1.20576 20.4794 0.929763 19.3872 0.929077Z" fill="white"/>
<path d="M6.34277 12.8004C6.34277 9.35666 6.34277 7.63478 7.61691 6.56477C8.88953 5.49475 10.9381 5.49475 15.0383 5.49475H19.3861C23.4847 5.49475 25.5348 5.49475 26.809 6.56477C28.0816 7.63478 28.0816 9.35666 28.0816 12.8004V18.8895C28.0816 22.3333 28.0816 24.0551 26.809 25.1252C25.5348 26.1952 23.4847 26.1952 19.3861 26.1952H15.0383C10.9396 26.1952 8.88953 26.1952 7.61691 25.1252C6.34277 24.0551 6.34277 22.3333 6.34277 18.8895V12.8004Z" fill="white"/>
</svg>
