<svg width="50" height="15" viewBox="0 0 50 15" fill="none" xmlns="http://www.w3.org/2000/svg">
<path d="M35.6943 6.64697V14.1644H39.8707V9.70965H44.6039C46.5947 9.69572 48.2861 8.42193 48.9265 6.64697H35.6943Z" fill="#878A94"/>
<path d="M35.1367 0.452148C35.3803 3.52178 38.2899 5.95104 41.8398 5.95104C41.8537 5.95104 49.0997 5.95104 49.0997 5.95104C49.1554 5.67261 49.1833 5.38027 49.1833 5.08096C49.1833 2.53337 47.1299 0.47303 44.5892 0.452148H35.1367Z" fill="#878A94"/>
<path d="M28.9576 5.87447C29.0063 5.79094 29.0829 5.74222 29.1803 5.74222C29.3195 5.74222 29.4239 5.85359 29.4309 5.98584V14.095H33.6073V0.452148H29.4309C28.9019 0.47303 28.3033 0.855864 28.0805 1.33615L24.7603 8.46382C24.7534 8.49166 24.7394 8.51951 24.7255 8.54735C24.6768 8.61695 24.5933 8.66568 24.4958 8.66568C24.3427 8.66568 24.2174 8.54039 24.2174 8.38726V0.452148H20.041V14.095H24.2174C24.7394 14.0671 25.3241 13.6843 25.5469 13.211L28.9576 5.89535C28.9506 5.88839 28.9576 5.88143 28.9576 5.87447Z" fill="#878A94"/>
<path d="M13.3645 6.11175L10.9213 14.0956H7.91431L5.47809 6.10478C5.45721 5.97949 5.34584 5.88205 5.20662 5.88205C5.05349 5.88205 4.93516 6.00734 4.93516 6.15351V14.0886H0.758789V0.445801H4.34351H5.40848C6.17415 0.445801 6.98158 1.04441 7.20432 1.77528L9.23682 8.42267C9.34123 8.75678 9.50133 8.74982 9.60574 8.42267L11.6382 1.77528C11.861 1.03745 12.6684 0.445801 13.4341 0.445801H14.4991H18.0838V14.0886H13.9074V6.15351C13.9074 6.15351 13.9074 6.15351 13.9074 6.14655C13.9074 5.99342 13.7821 5.87508 13.6359 5.87508C13.4967 5.88204 13.3854 5.97949 13.3645 6.11175Z" fill="#878A94"/>
</svg>
