<svg width="19" height="20" viewBox="0 0 19 20" fill="none" xmlns="http://www.w3.org/2000/svg">
<path fill-rule="evenodd" clip-rule="evenodd" d="M16.1266 3.83044C17.2911 4.48996 18.0093 5.70952 18.0093 7.02857V12.6118C18.0093 13.9316 17.2911 15.1504 16.1266 15.8099L11.1949 18.6022C10.0302 19.2618 8.59458 19.2618 7.42997 18.6022L2.4983 15.8099C1.33368 15.1504 0.616211 13.9316 0.616211 12.6118V7.02857C0.616211 5.70952 1.33368 4.48996 2.4983 3.83044L7.42997 1.03883C8.59458 0.379308 10.0302 0.379308 11.1949 1.03883L16.1266 3.83044ZM8.09018 2.306L3.28751 5.02511C2.53091 5.45367 2.06564 6.24467 2.06564 7.10177V12.5393C2.06564 13.3956 2.53091 14.1874 3.28751 14.6159L8.09018 17.3344C8.84678 17.7629 9.77805 17.7629 10.5346 17.3344L15.3373 14.6159C16.0939 14.1874 16.5599 13.3956 16.5599 12.5393V7.10177C16.5599 6.24467 16.0939 5.45367 15.3373 5.02511L10.5346 2.306C9.77805 1.87745 8.84678 1.87745 8.09018 2.306ZM10.3165 3.82546L14.106 5.97034C14.7271 6.32213 15.1105 6.97243 15.1105 7.67672V11.9672C15.1105 12.6708 14.7271 13.3211 14.106 13.6729L10.3165 15.8185C9.69543 16.1702 8.92941 16.1702 8.30833 15.8185L4.5188 13.6729C3.89772 13.3211 3.51507 12.6708 3.51507 11.9672V7.67672C3.51507 6.97243 3.89772 6.32213 4.5188 5.97034L8.30833 3.82546C8.92941 3.47367 9.69543 3.47367 10.3165 3.82546ZM7.13864 11.9537H11.4869V7.68951H7.13864V11.9537Z" fill="#FF5C5F"/>
</svg>
