<svg width="19" height="20" viewBox="0 0 19 20" fill="none" xmlns="http://www.w3.org/2000/svg">
<path fill-rule="evenodd" clip-rule="evenodd" d="M16.1266 3.83019C17.2911 4.48972 18.0093 5.70928 18.0093 7.02833V12.6115C18.0093 13.9313 17.2911 15.1501 16.1266 15.8097L11.1949 18.602C10.0302 19.2615 8.59458 19.2615 7.42997 18.602L2.4983 15.8097C1.33368 15.1501 0.616211 13.9313 0.616211 12.6115V7.02833C0.616211 5.70928 1.33368 4.48972 2.4983 3.83019L7.42997 1.03859C8.59458 0.379064 10.0302 0.379064 11.1949 1.03859L16.1266 3.83019ZM8.09018 2.30575L3.28751 5.02487C2.53091 5.45343 2.06564 6.24443 2.06564 7.10153V12.5391C2.06564 13.3954 2.53091 14.1871 3.28751 14.6157L8.09018 17.3341C8.84678 17.7627 9.77805 17.7627 10.5346 17.3341L15.3373 14.6157C16.0939 14.1871 16.5599 13.3954 16.5599 12.5391V7.10153C16.5599 6.24443 16.0939 5.45343 15.3373 5.02487L10.5346 2.30575C9.77805 1.87721 8.84678 1.87721 8.09018 2.30575ZM10.3165 3.82522L14.106 5.97009C14.7271 6.32189 15.1105 6.97218 15.1105 7.67648V11.9669C15.1105 12.6706 14.7271 13.3208 14.106 13.6726L10.3165 15.8183C9.69543 16.1699 8.92941 16.1699 8.30833 15.8183L4.5188 13.6726C3.89772 13.3208 3.51507 12.6706 3.51507 11.9669V7.67648C3.51507 6.97218 3.89772 6.32189 4.5188 5.97009L8.30833 3.82522C8.92941 3.47343 9.69543 3.47343 10.3165 3.82522ZM7.13864 11.9534H11.4869V7.68927H7.13864V11.9534Z" fill="#29A8EB"/>
</svg>
