<svg width="19" height="20" viewBox="0 0 19 20" fill="none" xmlns="http://www.w3.org/2000/svg">
<path fill-rule="evenodd" clip-rule="evenodd" d="M16.1266 3.83093C17.2911 4.49045 18.0093 5.71001 18.0093 7.02906V12.6123C18.0093 13.9321 17.2911 15.1509 16.1266 15.8104L11.1949 18.6027C10.0302 19.2622 8.59458 19.2622 7.42997 18.6027L2.4983 15.8104C1.33368 15.1509 0.616211 13.9321 0.616211 12.6123V7.02906C0.616211 5.71001 1.33368 4.49045 2.4983 3.83093L7.42997 1.03932C8.59458 0.379797 10.0302 0.379797 11.1949 1.03932L16.1266 3.83093ZM8.09018 2.30649L3.28751 5.0256C2.53091 5.45416 2.06564 6.24516 2.06564 7.10226V12.5398C2.06564 13.3961 2.53091 14.1879 3.28751 14.6164L8.09018 17.3349C8.84678 17.7634 9.77805 17.7634 10.5346 17.3349L15.3373 14.6164C16.0939 14.1879 16.5599 13.3961 16.5599 12.5398V7.10226C16.5599 6.24516 16.0939 5.45416 15.3373 5.0256L10.5346 2.30649C9.77805 1.87794 8.84678 1.87794 8.09018 2.30649ZM10.3165 3.82595L14.106 5.97083C14.7271 6.32262 15.1105 6.97291 15.1105 7.67721V11.9677C15.1105 12.6713 14.7271 13.3216 14.106 13.6734L10.3165 15.819C9.69543 16.1707 8.92941 16.1707 8.30833 15.819L4.5188 13.6734C3.89772 13.3216 3.51507 12.6713 3.51507 11.9677V7.67721C3.51507 6.97291 3.89772 6.32262 4.5188 5.97083L8.30833 3.82595C8.92941 3.47416 9.69543 3.47416 10.3165 3.82595ZM7.13864 11.9542H11.4869V7.69H7.13864V11.9542Z" fill="#FF3636"/>
</svg>
