<svg width="19" height="20" viewBox="0 0 19 20" fill="none" xmlns="http://www.w3.org/2000/svg">
<path fill-rule="evenodd" clip-rule="evenodd" d="M16.1393 4.12194C17.3038 4.78147 18.022 6.00103 18.022 7.32008V12.9033C18.022 14.2231 17.3038 15.4419 16.1393 16.1014L11.2076 18.8937C10.0429 19.5533 8.60728 19.5533 7.44267 18.8937L2.51099 16.1014C1.34637 15.4419 0.628906 14.2231 0.628906 12.9033V7.32008C0.628906 6.00103 1.34637 4.78147 2.51099 4.12194L7.44267 1.33034C8.60728 0.670812 10.0429 0.670812 11.2076 1.33034L16.1393 4.12194ZM8.10288 2.5975L3.3002 5.31662C2.5436 5.74517 2.07833 6.53618 2.07833 7.39328V12.8308C2.07833 13.6871 2.5436 14.4789 3.3002 14.9074L8.10288 17.6259C8.85948 18.0544 9.79074 18.0544 10.5473 17.6259L15.35 14.9074C16.1066 14.4789 16.5726 13.6871 16.5726 12.8308V7.39328C16.5726 6.53618 16.1066 5.74517 15.35 5.31662L10.5473 2.5975C9.79074 2.16896 8.85948 2.16896 8.10288 2.5975ZM10.3292 4.11697L14.1187 6.26184C14.7398 6.61364 15.1232 7.26393 15.1232 7.96823V12.2587C15.1232 12.9623 14.7398 13.6126 14.1187 13.9644L10.3292 16.11C9.70813 16.4617 8.94211 16.4617 8.32102 16.11L4.5315 13.9644C3.91041 13.6126 3.52776 12.9623 3.52776 12.2587V7.96823C3.52776 7.26393 3.91041 6.61364 4.5315 6.26184L8.32102 4.11697C8.94211 3.76517 9.70813 3.76517 10.3292 4.11697ZM7.15133 12.2452H11.4996V7.98101H7.15133V12.2452Z" fill="#2F90FF"/>
</svg>
