<svg width="62" height="38" viewBox="0 0 62 38" fill="none" xmlns="http://www.w3.org/2000/svg">
<path d="M56.4803 0.609375H4.25466C2.03594 0.609375 0.237305 2.4079 0.237305 4.6265V32.7464C0.237305 34.965 2.03594 36.7635 4.25466 36.7635H56.4803C58.699 36.7635 60.4977 34.965 60.4977 32.7464V4.6265C60.4977 2.4079 58.699 0.609375 56.4803 0.609375Z" fill="#101529"/>
<path opacity="0.2" d="M45.6485 24.9023V24.5759H45.7883V24.5091H45.4619V24.5759H45.6017V24.9023H45.6485ZM46.3012 24.9023V24.5063H46.2083L46.092 24.7625L45.9756 24.5063H45.8826V24.9023H45.9495V24.5993L46.0659 24.8555H46.1327L46.2491 24.5993V24.9023H46.3012Z" fill="white"/>
<path opacity="0.35" d="M24.3403 28.7307C29.8871 28.7307 34.3837 24.2343 34.3837 18.6878C34.3837 13.1414 29.8871 8.64502 24.3403 8.64502C18.7935 8.64502 14.2969 13.1414 14.2969 18.6878C14.2969 24.2343 18.7935 28.7307 24.3403 28.7307Z" fill="url(#paint0_linear_1_59986)"/>
<path opacity="0.25" d="M36.3901 28.7307C41.9369 28.7307 46.4335 24.2343 46.4335 18.6878C46.4335 13.1414 41.9369 8.64502 36.3901 8.64502C30.8433 8.64502 26.3467 13.1414 26.3467 18.6878C26.3467 24.2343 30.8433 28.7307 36.3901 28.7307Z" fill="url(#paint1_linear_1_59986)"/>
<defs>
<linearGradient id="paint0_linear_1_59986" x1="24.3403" y1="8.64502" x2="24.3403" y2="28.7307" gradientUnits="userSpaceOnUse">
<stop stop-color="white"/>
</linearGradient>
<linearGradient id="paint1_linear_1_59986" x1="36.3901" y1="8.64502" x2="36.3901" y2="28.7307" gradientUnits="userSpaceOnUse">
<stop stop-color="white"/>
</linearGradient>
</defs>
</svg>
