<svg width="69" height="38" viewBox="0 0 69 38" fill="none" xmlns="http://www.w3.org/2000/svg">
<path d="M64.4164 0.375H4.62923C2.38162 0.375 0.55957 2.1971 0.55957 4.44477V32.9331C0.55957 35.1808 2.38162 37.0029 4.62923 37.0029H64.4164C66.664 37.0029 68.4861 35.1808 68.4861 32.9331V4.44477C68.4861 2.1971 66.664 0.375 64.4164 0.375Z" fill="#101529"/>
<path d="M54.236 22.3932H52.2819V18.5544H50.4004V22.3932H48.4463V16.9204H54.236V22.3932Z" fill="url(#paint0_linear_1_60001)" fill-opacity="0.5"/>
<path fill-rule="evenodd" clip-rule="evenodd" d="M44.4359 22.5896C46.1852 22.5896 47.4843 21.517 47.4843 19.891C47.4843 18.3173 46.5258 17.2955 44.9241 17.2955C44.1849 17.2955 43.5749 17.5556 43.1155 18.0046C43.2252 17.0766 44.0099 16.3992 44.8739 16.3992C45.0733 16.3992 46.5745 16.3959 46.5745 16.3959L47.4234 14.7715C47.4234 14.7715 45.5387 14.8144 44.6626 14.8144C42.6607 14.8492 41.3086 16.6689 41.3086 18.8789C41.3086 21.4536 42.6273 22.5896 44.4359 22.5896ZM44.4466 18.7343C45.096 18.7343 45.5463 19.1611 45.5463 19.8908C45.5463 20.5476 45.1463 21.0888 44.4466 21.0902C43.7773 21.0902 43.327 20.5888 43.327 19.902C43.327 19.1721 43.7773 18.7343 44.4466 18.7343Z" fill="url(#paint1_linear_1_60001)" fill-opacity="0.5"/>
<path d="M39.7194 20.5595C39.7194 20.5595 39.2579 20.8255 38.5687 20.8758C37.7763 20.8993 37.0703 20.399 37.0703 19.5097C37.0703 18.6423 37.6933 18.1452 38.5488 18.1452C39.0733 18.1452 39.7672 18.5087 39.7672 18.5087C39.7672 18.5087 40.2749 17.5771 40.5379 17.1111C40.0563 16.746 39.4148 16.5459 38.6687 16.5459C36.7856 16.5459 35.3271 17.7736 35.3271 19.4987C35.3271 21.2458 36.6979 22.4449 38.6687 22.4088C39.2195 22.3883 39.9794 22.1948 40.4426 21.8973L39.7194 20.5595Z" fill="url(#paint2_linear_1_60001)" fill-opacity="0.5"/>
<path d="M14.7939 12.3682L17.5046 17.2133V20.1687L14.7971 25.0043L14.7956 18.6862L14.7939 12.3682Z" fill="#666976"/>
<path d="M25.2061 15.4489L27.746 13.8921L32.9443 13.8872L25.2061 18.6278V15.4489Z" fill="#676A77"/>
<path d="M25.1998 12.3407L25.2141 18.7555L22.4971 17.0861V7.49707L25.1998 12.3407Z" fill="#717480"/>
<path d="M32.9524 13.8897L27.7541 13.8945L25.1998 12.3407L22.4971 7.49707L32.9524 13.8897Z" fill="#717480"/>
<path d="M25.2141 25.0293V21.9171L22.4971 20.2793L22.4986 29.8778L25.2141 25.0293Z" fill="#727581"/>
<path d="M27.7355 23.4886L17.5046 17.2133L14.7939 12.3682L32.929 23.4822L27.7355 23.4886Z" fill="#6B6E7A"/>
<path d="M22.4971 29.8794L25.2126 25.0309L27.7463 23.4883L32.9398 23.4819L22.4971 29.8794Z" fill="#646875"/>
<path d="M14.7939 25.0047L22.5039 20.2818L19.9119 18.6914L17.5015 20.1691L14.7939 25.0047Z" fill="#696C79"/>
<defs>
<linearGradient id="paint0_linear_1_60001" x1="34.5161" y1="7.49615" x2="34.5161" y2="29.8799" gradientUnits="userSpaceOnUse">
<stop stop-color="white"/>
<stop offset="1" stop-color="white" stop-opacity="0.5"/>
</linearGradient>
<linearGradient id="paint1_linear_1_60001" x1="34.5189" y1="7.49678" x2="34.5189" y2="29.8805" gradientUnits="userSpaceOnUse">
<stop stop-color="white"/>
<stop offset="1" stop-color="white" stop-opacity="0.5"/>
</linearGradient>
<linearGradient id="paint2_linear_1_60001" x1="34.5203" y1="7.49453" x2="34.5203" y2="29.8783" gradientUnits="userSpaceOnUse">
<stop stop-color="white"/>
<stop offset="1" stop-color="white" stop-opacity="0.5"/>
</linearGradient>
</defs>
</svg>
