<svg width="77" height="38" viewBox="0 0 77 38" fill="none" xmlns="http://www.w3.org/2000/svg">
<path d="M72.2019 0.545898H5.1021C2.87595 0.545898 1.07129 2.35051 1.07129 4.57662V32.7917C1.07129 35.0178 2.87595 36.8224 5.1021 36.8224H72.2019C74.428 36.8224 76.2327 35.0178 76.2327 32.7917V4.57662C76.2327 2.35051 74.428 0.545898 72.2019 0.545898Z" fill="#101529"/>
<path opacity="0.5" d="M33.0287 11.3573L26.8722 26.0214H22.8508L19.8125 14.3248C19.7792 14.0509 19.6784 13.7896 19.5194 13.5642C19.3603 13.3387 19.1479 13.1563 18.9011 13.0329C17.7175 12.47 16.4665 12.0616 15.1787 11.8177L15.2553 11.362H21.712C22.1401 11.3519 22.5567 11.5021 22.88 11.783C23.2033 12.064 23.4099 12.4556 23.4595 12.8811L25.0528 21.3831L29.0025 11.4327H33.0287V11.3573ZM48.7518 21.2312C48.7518 17.3571 43.435 17.1297 43.435 15.4588C43.435 14.9266 43.9672 14.3955 45.0306 14.2435C46.3115 14.1039 47.6054 14.3417 48.753 14.9277L49.4371 11.813C48.2952 11.3814 47.0873 11.1501 45.8667 11.1289C42.1443 11.1289 39.4888 13.1002 39.4888 15.9899C39.4888 18.1166 41.3883 19.2565 42.8308 19.9395C44.2733 20.6225 44.8022 21.0793 44.8022 21.7623C44.8022 22.7503 43.6623 23.206 42.5235 23.206C41.178 23.2147 39.8497 22.9022 38.6492 22.2945L37.9651 25.4845C39.2988 25.9896 40.7135 26.2469 42.1397 26.2441C46.0893 26.2441 48.6717 24.2728 48.7494 21.2312M58.6258 26.0214H62.1244L59.0863 11.362H55.8162C55.4733 11.355 55.1368 11.4532 54.8515 11.6433C54.5662 11.8334 54.346 12.1064 54.2205 12.4253L48.5245 26.0214H52.4741L53.2337 23.8182H58.0948L58.6258 26.0214ZM54.3724 20.8566L56.3438 15.3881L57.4836 20.8566H54.3724ZM38.422 11.3573L35.3073 26.0214H31.5107L34.6254 11.362H38.422V11.3573Z" fill="url(#paint0_linear_1_60014)"/>
<defs>
<linearGradient id="paint0_linear_1_60014" x1="38.6515" y1="11.1289" x2="38.6515" y2="26.2441" gradientUnits="userSpaceOnUse">
<stop stop-color="white"/>
</linearGradient>
</defs>
</svg>
