<svg width="19" height="18" viewBox="0 0 19 18" fill="none" xmlns="http://www.w3.org/2000/svg">
<g clip-path="url(#clip0_1_58851)">
<path d="M16.674 2.00024H11.4265V4.18668C11.4265 4.41863 11.3344 4.64108 11.1704 4.80509C11.0063 4.96911 10.7839 5.06125 10.5519 5.06125C10.32 5.06125 10.0975 4.96911 9.93352 4.80509C9.76951 4.64108 9.67737 4.41863 9.67737 4.18668V2.00024H2.68079C2.21688 2.00024 1.77198 2.18453 1.44395 2.51256C1.11592 2.84059 0.931641 3.28549 0.931641 3.74939V6.37311C0.931641 6.60506 1.02378 6.82751 1.1878 6.99152C1.35181 7.15554 1.57426 7.24768 1.80621 7.24768C2.27012 7.24768 2.71502 7.43197 3.04305 7.75999C3.37107 8.08802 3.55536 8.53292 3.55536 8.99683C3.55536 9.46073 3.37107 9.90563 3.04305 10.2337C2.71502 10.5617 2.27012 10.746 1.80621 10.746C1.57426 10.746 1.35181 10.8381 1.1878 11.0021C1.02378 11.1661 0.931641 11.3886 0.931641 11.6205V14.2443C0.931641 14.7082 1.11592 15.1531 1.44395 15.4811C1.77198 15.8091 2.21688 15.9934 2.68079 15.9934H9.67737V13.807C9.67737 13.575 9.76951 13.3526 9.93352 13.1886C10.0975 13.0245 10.32 12.9324 10.5519 12.9324C10.7839 12.9324 11.0063 13.0245 11.1704 13.1886C11.3344 13.3526 11.4265 13.575 11.4265 13.807V15.9934H16.674C17.1379 15.9934 17.5828 15.8091 17.9108 15.4811C18.2388 15.1531 18.4231 14.7082 18.4231 14.2443V3.74939C18.4231 3.28549 18.2388 2.84059 17.9108 2.51256C17.5828 2.18453 17.1379 2.00024 16.674 2.00024ZM11.4265 10.5973C11.4265 10.8292 11.3344 11.0517 11.1704 11.2157C11.0063 11.3797 10.7839 11.4719 10.5519 11.4719C10.32 11.4719 10.0975 11.3797 9.93352 11.2157C9.76951 11.0517 9.67737 10.8292 9.67737 10.5973V7.39636C9.67737 7.16441 9.76951 6.94196 9.93352 6.77794C10.0975 6.61393 10.32 6.52179 10.5519 6.52179C10.7839 6.52179 11.0063 6.61393 11.1704 6.77794C11.3344 6.94196 11.4265 7.16441 11.4265 7.39636V10.5973Z" fill="#7A8CB4"/>
</g>
<defs>
<clipPath id="clip0_1_58851">
<rect width="18" height="18" fill="white" transform="translate(0.652344 0.00708008)"/>
</clipPath>
</defs>
</svg>
