<svg width="181" height="181" viewBox="0 0 181 181" fill="none" xmlns="http://www.w3.org/2000/svg">
<path d="M46.0771 39.0679C47.2762 39.0912 48.4587 39.3569 49.5527 39.8481C50.6467 40.3394 51.6302 41.0467 52.4443 41.9272L52.4561 41.9399L52.4688 41.9526L89.8672 79.3413L90.5039 79.978L91.1406 79.3413L128.521 41.9604C130.21 40.404 132.437 39.5607 134.734 39.6069C137.035 39.6533 139.229 40.5886 140.855 42.2163C142.482 43.844 143.415 46.0387 143.46 48.3394C143.505 50.6363 142.659 52.8607 141.102 54.5493L103.721 91.9214L103.084 92.5581L141.102 130.576C142.659 132.265 143.505 134.49 143.46 136.788C143.415 139.088 142.482 141.282 140.855 142.91C139.229 144.537 137.035 145.473 134.734 145.519C132.44 145.565 130.217 144.724 128.528 143.172L90.5039 105.148L52.4561 143.196L52.4443 143.208C51.6302 144.089 50.6467 144.796 49.5527 145.288C48.4587 145.779 47.2762 146.045 46.0771 146.068C44.8782 146.091 43.6865 145.872 42.5742 145.423C41.4621 144.975 40.4521 144.307 39.6045 143.458C38.7568 142.61 38.0892 141.599 37.6416 140.487C37.194 139.374 36.9749 138.182 36.999 136.983C37.0232 135.784 37.2893 134.602 37.7812 133.508C38.2732 132.415 38.9813 131.432 39.8623 130.619L39.876 130.606L77.9238 92.5581L77.2871 91.9214L39.8887 54.5425L39.876 54.5298L39.8623 54.5171C38.9813 53.7037 38.2732 52.721 37.7812 51.6274C37.2893 50.5338 37.0232 49.3518 36.999 48.1528C36.9749 46.9538 37.194 45.7616 37.6416 44.6489C38.0892 43.5364 38.7568 42.5255 39.6045 41.6772C40.4521 40.8291 41.4621 40.1607 42.5742 39.7124C43.6865 39.2641 44.8782 39.0446 46.0771 39.0679Z" fill="#FF6363" stroke="#FAE7E7" stroke-width="1.8"/>
</svg>
