<svg width="14" height="15" viewBox="0 0 14 15" fill="none" xmlns="http://www.w3.org/2000/svg">
<path d="M11.1457 7.03343H13.5989V12.5979C12.8809 13.1697 12.0433 13.6085 11.0862 13.9143C10.1286 14.2201 9.14491 14.373 8.13411 14.373C6.71153 14.373 5.4283 14.0672 4.28491 13.4556C3.14152 12.8306 2.24394 11.973 1.59265 10.8827C0.940877 9.79241 0.615234 8.56251 0.615234 7.19296C0.615234 5.82346 0.940877 4.59355 1.59265 3.50325C2.24394 2.41294 3.14152 1.56196 4.28491 0.950342C5.44185 0.325423 6.73814 0.0129395 8.17427 0.0129395C9.34427 0.0129395 10.4078 0.205761 11.3654 0.591358C12.3225 0.976955 13.1272 1.54202 13.7785 2.2866L12.143 3.88217C11.0794 2.81847 9.7962 2.2866 8.29379 2.2866C7.31008 2.2866 6.43233 2.49273 5.66104 2.90489C4.9033 3.3171 4.30475 3.89547 3.86588 4.64005C3.44056 5.38468 3.22814 6.23562 3.22814 7.19296C3.22814 8.12373 3.44056 8.96136 3.86588 9.70599C4.30475 10.4506 4.9033 11.0356 5.66104 11.4611C6.43233 11.8866 7.30329 12.0993 8.27394 12.0993C9.3641 12.0993 10.3217 11.86 11.1457 11.3813V7.03343Z" fill="white"/>
</svg>
