<svg width="49" height="14" viewBox="0 0 49 14" fill="none" xmlns="http://www.w3.org/2000/svg">
<path d="M35.3262 6.34058V13.858H39.5025V9.40325H44.2358C46.2265 9.38933 47.9179 8.11553 48.5583 6.34058H35.3262Z" fill="#878A94"/>
<path d="M34.7695 0.145752C35.0132 3.21538 37.9227 5.64464 41.4726 5.64464C41.4865 5.64464 48.7325 5.64464 48.7325 5.64464C48.7882 5.36622 48.8161 5.07387 48.8161 4.77456C48.8161 2.22698 46.7627 0.166634 44.2221 0.145752H34.7695Z" fill="#878A94"/>
<path d="M28.5904 5.56807C28.6391 5.48455 28.7157 5.43582 28.8131 5.43582C28.9523 5.43582 29.0567 5.54719 29.0637 5.67944V13.7886H33.2401V0.145752H29.0637C28.5347 0.166634 27.9361 0.549468 27.7133 1.02975L24.3931 8.15743C24.3862 8.18527 24.3722 8.21311 24.3583 8.24095C24.3096 8.31056 24.2261 8.35928 24.1286 8.35928C23.9755 8.35928 23.8502 8.23399 23.8502 8.08086V0.145752H19.6738V13.7886H23.8502C24.3722 13.7607 24.9569 13.3779 25.1797 12.9046L28.5904 5.58896C28.5834 5.582 28.5904 5.57504 28.5904 5.56807Z" fill="#878A94"/>
<path d="M12.9963 5.80535L10.5531 13.7892H7.54614L5.10993 5.79839C5.08904 5.6731 4.97767 5.57565 4.83846 5.57565C4.68533 5.57565 4.567 5.70094 4.567 5.84711V13.7822H0.390625V0.139404H3.97534H5.04032C5.80599 0.139404 6.61342 0.738018 6.83616 1.46888L8.86866 8.11628C8.97307 8.45038 9.13316 8.44342 9.23757 8.11628L11.2701 1.46888C11.4928 0.731057 12.3002 0.139404 13.0659 0.139404H14.1309H17.7156V13.7822H13.5392V5.84711C13.5392 5.84711 13.5392 5.84711 13.5392 5.84015C13.5392 5.68702 13.4139 5.56869 13.2678 5.56869C13.1286 5.57565 13.0172 5.6731 12.9963 5.80535Z" fill="#878A94"/>
</svg>
