<svg width="21" height="20" viewBox="0 0 21 20" fill="none" xmlns="http://www.w3.org/2000/svg">
<path d="M4.42818 8.56339C4.43475 8.62285 4.44143 8.68297 4.44819 8.74368L4.55281 9.68537C4.62626 10.3467 4.68995 10.9202 4.80107 11.3779C4.92061 11.8702 5.11769 12.3341 5.52865 12.7019C5.93962 13.0697 6.42237 13.2144 6.92492 13.2787C7.39206 13.3387 7.96909 13.3386 8.63449 13.3386H13.0926C13.5488 13.3386 13.9515 13.3386 14.2876 13.3045C14.652 13.2675 15.0059 13.1856 15.3463 12.9806C15.6866 12.7757 15.9247 12.5012 16.1279 12.1966C16.3153 11.9154 16.5037 11.5596 16.7171 11.1565L18.7902 7.24058C19.5258 5.85114 18.5186 4.17821 16.9464 4.17821H8.53453C7.71609 4.17816 7.01591 4.17812 6.46169 4.25556C6.18119 4.29476 5.90633 4.35751 5.64852 4.46449L5.52873 3.38636C5.42079 2.41489 4.59965 1.67993 3.62219 1.67993H3.20581C2.74589 1.67993 2.37305 2.05277 2.37305 2.5127C2.37305 2.97261 2.74589 3.34546 3.20581 3.34546H3.62219C3.75098 3.34546 3.85916 3.44229 3.87339 3.57029L4.42818 8.56339Z" fill="#7A8CB4"/>
<path fill-rule="evenodd" clip-rule="evenodd" d="M12.3672 16.2531C12.3672 15.1033 13.2993 14.1711 14.4491 14.1711C15.5989 14.1711 16.531 15.1033 16.531 16.2531C16.531 17.4028 15.5989 18.335 14.4491 18.335C13.2993 18.335 12.3672 17.4028 12.3672 16.2531Z" fill="#7A8CB4"/>
<path fill-rule="evenodd" clip-rule="evenodd" d="M4.87109 16.2531C4.87109 15.1033 5.8032 14.1711 6.953 14.1711C8.10281 14.1711 9.03491 15.1033 9.03491 16.2531C9.03491 17.4028 8.10281 18.335 6.953 18.335C5.8032 18.335 4.87109 17.4028 4.87109 16.2531Z" fill="#7A8CB4"/>
</svg>
