<svg width="62" height="37" viewBox="0 0 62 37" fill="none" xmlns="http://www.w3.org/2000/svg">
<path d="M57.1082 0.302979H4.88259C2.66387 0.302979 0.865234 2.10151 0.865234 4.32011V32.44C0.865234 34.6586 2.66387 36.4571 4.88259 36.4571H57.1082C59.327 36.4571 61.1256 34.6586 61.1256 32.44V4.32011C61.1256 2.10151 59.327 0.302979 57.1082 0.302979Z" fill="#101529"/>
<path opacity="0.2" d="M46.2765 24.5959V24.2695H46.4162V24.2027H46.0898V24.2695H46.2296V24.5959H46.2765ZM46.9292 24.5959V24.2H46.8363L46.7199 24.4561L46.6035 24.2H46.5105V24.5959H46.5774V24.293L46.6938 24.5491H46.7606L46.877 24.293V24.5959H46.9292Z" fill="white"/>
<path opacity="0.35" d="M24.9692 28.424C30.516 28.424 35.0126 23.9276 35.0126 18.3812C35.0126 12.8348 30.516 8.33838 24.9692 8.33838C19.4224 8.33838 14.9258 12.8348 14.9258 18.3812C14.9258 23.9276 19.4224 28.424 24.9692 28.424Z" fill="url(#paint0_linear_1_58937)"/>
<path opacity="0.25" d="M37.02 28.424C42.5668 28.424 47.0634 23.9276 47.0634 18.3812C47.0634 12.8348 42.5668 8.33838 37.02 8.33838C31.4732 8.33838 26.9766 12.8348 26.9766 18.3812C26.9766 23.9276 31.4732 28.424 37.02 28.424Z" fill="url(#paint1_linear_1_58937)"/>
<defs>
<linearGradient id="paint0_linear_1_58937" x1="24.9692" y1="8.33838" x2="24.9692" y2="28.424" gradientUnits="userSpaceOnUse">
<stop stop-color="white"/>
</linearGradient>
<linearGradient id="paint1_linear_1_58937" x1="37.02" y1="8.33838" x2="37.02" y2="28.424" gradientUnits="userSpaceOnUse">
<stop stop-color="white"/>
</linearGradient>
</defs>
</svg>
