<svg width="77" height="38" viewBox="0 0 77 38" fill="none" xmlns="http://www.w3.org/2000/svg">
<path d="M72.2028 0.940186H5.10308C2.87692 0.940186 1.07227 2.7448 1.07227 4.97091V33.186C1.07227 35.4121 2.87692 37.2167 5.10308 37.2167H72.2028C74.429 37.2167 76.2336 35.4121 76.2336 33.186V4.97091C76.2336 2.7448 74.429 0.940186 72.2028 0.940186Z" fill="#101529"/>
<path opacity="0.5" d="M33.0277 11.7519L26.8712 26.4159H22.8498L19.8116 14.7193C19.7782 14.4454 19.6774 14.1841 19.5184 13.9587C19.3593 13.7333 19.1469 13.5508 18.9001 13.4274C17.7165 12.8646 16.4655 12.4561 15.1777 12.2122L15.2543 11.7565H21.711C22.1392 11.7464 22.5557 11.8966 22.879 12.1775C23.2023 12.4586 23.409 12.8501 23.4585 13.2756L25.0518 21.7776L29.0015 11.8273H33.0277V11.7519ZM48.7508 21.6257C48.7508 17.7516 43.434 17.5243 43.434 15.8533C43.434 15.3211 43.9662 14.79 45.0296 14.6381C46.3105 14.4984 47.6044 14.7362 48.752 15.3222L49.4361 12.2076C48.2942 11.776 47.0864 11.5446 45.8657 11.5234C42.1434 11.5234 39.4879 13.4948 39.4879 16.3844C39.4879 18.5111 41.3873 19.651 42.8298 20.334C44.2723 21.017 44.8012 21.4739 44.8012 22.1568C44.8012 23.1448 43.6613 23.6005 42.5226 23.6005C41.177 23.6093 39.8487 23.2968 38.6483 22.689L37.9641 25.8791C39.2978 26.3841 40.7125 26.6415 42.1387 26.6386C46.0883 26.6386 48.6708 24.6673 48.7485 21.6257M58.6249 26.4159H62.1234L59.0853 11.7565H55.8152C55.4724 11.7496 55.1358 11.8477 54.8505 12.0379C54.5652 12.2279 54.345 12.5009 54.2195 12.8198L48.5235 26.4159H52.4731L53.2327 24.2128H58.0938L58.6249 26.4159ZM54.3714 21.2512L56.3428 15.7826L57.4826 21.2512H54.3714ZM38.421 11.7519L35.3063 26.4159H31.5097L34.6244 11.7565H38.421V11.7519Z" fill="url(#paint0_linear_1_58965)"/>
<defs>
<linearGradient id="paint0_linear_1_58965" x1="38.6506" y1="11.5234" x2="38.6506" y2="26.6386" gradientUnits="userSpaceOnUse">
<stop stop-color="white"/>
</linearGradient>
</defs>
</svg>
