<svg width="17" height="16" viewBox="0 0 17 16" fill="none" xmlns="http://www.w3.org/2000/svg">
<path d="M15.4401 15.9274C15.6324 15.9274 15.7882 15.7716 15.7882 15.5794V15.1635C15.7882 15.0421 15.7253 14.9287 15.6193 14.8694C14.1762 14.0615 12.4542 13.9787 10.3334 13.7607C10.2974 13.757 10.2657 13.7852 10.2658 13.8214L10.2642 14.6512C10.2639 14.8274 10.1705 14.9902 10.0191 15.0786C9.93737 15.1264 9.97114 15.252 10.0658 15.2534C11.9929 15.2827 13.2396 15.4299 14.729 15.9102C14.764 15.9215 14.8007 15.9274 14.8373 15.9274H15.4401Z" fill="#FFB800"/>
<path d="M12.6924 13.3403C12.4254 13.3119 12.2814 13.0068 12.434 12.786L13.3385 11.4777C13.3787 11.4196 13.4002 11.3505 13.4002 11.2798V6.33238C13.4002 5.95779 13.9109 5.84761 14.0653 6.18887L16.3375 11.2087C16.3879 11.3202 16.3762 11.45 16.3065 11.5505L14.9212 13.5492C14.8371 13.6706 14.6856 13.7257 14.5427 13.6885C14.2722 13.6181 13.8256 13.5066 13.4938 13.4476C13.2546 13.405 12.954 13.3682 12.6924 13.3403Z" fill="#FFB800"/>
<path d="M1.23084 15.9274C1.03863 15.9274 0.882812 15.7716 0.882812 15.5794V15.1635C0.882812 15.0421 0.945705 14.9287 1.05163 14.8694C2.49483 14.0615 4.21679 13.9787 6.33758 13.7607C6.37361 13.757 6.40523 13.7852 6.40517 13.8214L6.40677 14.6512C6.40711 14.8274 6.50044 14.9902 6.65185 15.0786C6.73361 15.1264 6.69984 15.252 6.60516 15.2534C4.67807 15.2827 3.43136 15.4299 1.94192 15.9102C1.907 15.9215 1.87031 15.9274 1.83362 15.9274H1.23084Z" fill="#FFB800"/>
<path d="M3.97645 13.3403C4.24339 13.3119 4.38745 13.0068 4.23478 12.786L3.33033 11.4777C3.29012 11.4196 3.26858 11.3505 3.26858 11.2798V6.33238C3.26858 5.95779 2.75795 5.84761 2.60349 6.18887L0.331324 11.2087C0.280876 11.3202 0.292653 11.45 0.362341 11.5505L1.74755 13.5492C1.83169 13.6706 1.98318 13.7257 2.12612 13.6885C2.39656 13.6181 2.84324 13.5066 3.17498 13.4476C3.41419 13.405 3.71481 13.3682 3.97645 13.3403Z" fill="#FFB800"/>
<path d="M11.4576 11.5263C11.518 11.4389 11.5352 11.3288 11.5043 11.2272L8.67796 1.92283C8.57819 1.59438 8.11351 1.59342 8.01237 1.92145L5.14353 11.2266C5.1121 11.3285 5.12917 11.4393 5.18984 11.527L6.23439 13.0379C6.27962 13.1033 6.38219 13.0714 6.38235 12.9919C6.38269 12.8156 6.47602 12.6528 6.62741 12.5644L7.34014 12.1482L8.05445 11.7347C8.13732 11.6867 8.2317 11.665 8.32402 11.6694C8.41635 11.665 8.50962 11.6867 8.59251 11.7347L9.30682 12.1482L10.0195 12.5644C10.1709 12.6528 10.2643 12.8156 10.2646 12.9919C10.2648 13.0714 10.3673 13.1033 10.4125 13.0379L11.4576 11.5263Z" fill="#FFB800"/>
<path fill-rule="evenodd" clip-rule="evenodd" d="M8.53399 15.3991C8.41848 15.4655 8.27638 15.4655 8.16087 15.3991L7.61708 15.0865L7.07452 14.7718C6.95925 14.705 6.8882 14.5819 6.88794 14.4487L6.88672 13.8215L6.88794 13.1943C6.8882 13.0611 6.95925 12.938 7.07452 12.8712L7.61708 12.5565L8.16087 12.244C8.27638 12.1776 8.41848 12.1776 8.53399 12.244L9.07779 12.5565L9.62035 12.8712C9.7356 12.938 9.80665 13.0611 9.80691 13.1943L9.80815 13.8215L9.80691 14.4487C9.80665 14.5819 9.7356 14.705 9.62035 14.7718L9.07779 15.0865L8.53399 15.3991ZM8.95577 13.6079C8.95577 13.4157 8.79995 13.2599 8.60774 13.2599H8.13381C7.9416 13.2599 7.78578 13.4157 7.78578 13.6079V14.0819C7.78578 14.2741 7.9416 14.4299 8.13381 14.4299H8.60774C8.79995 14.4299 8.95577 14.2741 8.95577 14.0819V13.6079Z" fill="#FFB800"/>
</svg>
