<svg width="26" height="27" viewBox="0 0 26 27" fill="none" xmlns="http://www.w3.org/2000/svg">
<rect y="0.336121" width="25.7899" height="25.7899" rx="12.895" fill="#101529"/>
<path d="M19.3901 11.0777C19.3083 10.2882 19.1324 9.41553 18.4848 8.9569C17.9832 8.60125 17.324 8.5881 16.7085 8.58883C15.4075 8.58883 14.1058 8.59102 12.8048 8.59175C11.5534 8.59322 10.302 8.59394 9.05066 8.59541C8.52792 8.59541 8.01978 8.55524 7.53428 8.78163C7.1174 8.97589 6.79105 9.34542 6.59466 9.75658C6.32234 10.3284 6.2654 10.9762 6.23254 11.6086C6.17195 12.7603 6.17852 13.9149 6.2508 15.0658C6.30409 15.9057 6.43915 16.8339 7.0882 17.3692C7.6635 17.8432 8.47536 17.8665 9.2215 17.8673C11.5899 17.8695 13.959 17.8717 16.3281 17.8731C16.6319 17.8738 16.9487 17.868 17.2583 17.8344C17.8672 17.7687 18.4476 17.5941 18.8389 17.1428C19.2339 16.6878 19.3354 16.0547 19.3952 15.4551C19.5412 14.0003 19.5398 12.5317 19.3901 11.0777ZM11.4351 15.2703V11.1916L14.9658 13.2306L11.4351 15.2703Z" fill="#798CB4"/>
</svg>
