<svg width="26" height="27" viewBox="0 0 26 27" fill="none" xmlns="http://www.w3.org/2000/svg">
<rect y="0.873901" width="25.7899" height="25.7899" rx="12.895" fill="#101529"/>
<path d="M5.53448 13.1912C5.56549 13.1757 5.59652 13.1609 5.62676 13.147C6.15243 12.9034 6.68508 12.6754 7.21695 12.4474C7.24563 12.4474 7.29369 12.4141 7.32083 12.4032C7.36192 12.3854 7.40302 12.3683 7.44411 12.3505C7.52319 12.3163 7.60228 12.283 7.68059 12.2489C7.83875 12.1814 7.99613 12.1139 8.1543 12.0464L9.10097 11.6408C9.73208 11.3709 10.364 11.1003 10.9951 10.8304C11.6262 10.5605 12.2581 10.2898 12.8892 10.0199C13.5203 9.75004 14.1522 9.47938 14.7833 9.20948C15.4144 8.93959 16.0463 8.66892 16.6774 8.39903C16.8178 8.33854 16.9697 8.24857 17.1201 8.2222C17.2465 8.19971 17.3698 8.15628 17.4969 8.13224C17.7381 8.08648 18.004 8.06787 18.235 8.16792C18.3149 8.20282 18.3886 8.25168 18.4498 8.31295C18.7429 8.603 18.7018 9.07919 18.6398 9.48713C18.2079 12.3303 17.7761 15.1742 17.3434 18.0174C17.2845 18.4075 17.2039 18.8356 16.8961 19.0822C16.6356 19.2909 16.2649 19.3141 15.9432 19.2257C15.6214 19.1365 15.3377 18.9496 15.0593 18.7658C13.9049 18.0011 12.7496 17.2364 11.5952 16.4717C11.3207 16.2903 11.0153 16.0529 11.0184 15.7233C11.0199 15.5248 11.1385 15.348 11.2595 15.1905C12.2627 13.8814 13.7103 12.9818 14.7872 11.7331C14.9392 11.5571 15.0586 11.2391 14.85 11.1375C14.7259 11.077 14.5833 11.1592 14.4701 11.2375C13.0466 12.2264 11.6239 13.216 10.2004 14.2048C9.73597 14.5274 9.24907 14.8594 8.68928 14.9385C8.18843 15.0098 7.68447 14.8702 7.19989 14.7275C6.79362 14.6081 6.38812 14.4856 5.98417 14.3591C5.76941 14.2924 5.54766 14.2203 5.38175 14.0691C5.21583 13.9179 5.12047 13.6635 5.22049 13.4618C5.28329 13.3354 5.40502 13.2555 5.53295 13.1904L5.53448 13.1912Z" fill="#798CB4"/>
</svg>
