<svg width="50" height="15" viewBox="0 0 50 15" fill="none" xmlns="http://www.w3.org/2000/svg">
<path d="M35.6992 6.64722V14.1647H39.8756V9.70989H44.6088C46.5995 9.69597 48.291 8.42217 48.9314 6.64722H35.6992Z" fill="#878A94"/>
<path d="M35.1406 0.452515C35.3842 3.52215 38.2938 5.9514 41.8437 5.9514C41.8576 5.9514 49.1036 5.9514 49.1036 5.9514C49.1593 5.67298 49.1872 5.38063 49.1872 5.08133C49.1872 2.53374 47.1338 0.473397 44.5932 0.452515H35.1406Z" fill="#878A94"/>
<path d="M28.9595 5.87484C29.0082 5.79131 29.0848 5.74259 29.1823 5.74259C29.3215 5.74259 29.4259 5.85396 29.4328 5.98621V14.0953H33.6092V0.452515H29.4328C28.9038 0.473397 28.3052 0.85623 28.0825 1.33651L24.7623 8.46419C24.7553 8.49203 24.7414 8.51987 24.7275 8.54772C24.6787 8.61732 24.5952 8.66605 24.4978 8.66605C24.3446 8.66605 24.2193 8.54076 24.2193 8.38762V0.452515H20.043V14.0953H24.2193C24.7414 14.0675 25.3261 13.6847 25.5488 13.2113L28.9595 5.89572C28.9526 5.88876 28.9595 5.8818 28.9595 5.87484Z" fill="#878A94"/>
<path d="M13.3674 6.11211L10.9242 14.0959H7.91724L5.48102 6.10515C5.46014 5.97986 5.34877 5.88241 5.20955 5.88241C5.05642 5.88241 4.93809 6.0077 4.93809 6.15388V14.089H0.761719V0.446167H4.34644H5.41141C6.17708 0.446167 6.98451 1.04478 7.20725 1.77565L9.23975 8.42304C9.34416 8.75715 9.50426 8.75019 9.60867 8.42304L11.6412 1.77565C11.8639 1.03782 12.6713 0.446167 13.437 0.446167H14.502H18.0867V14.089H13.9103V6.15388C13.9103 6.15388 13.9103 6.15388 13.9103 6.14692C13.9103 5.99378 13.785 5.87545 13.6389 5.87545C13.4997 5.88241 13.3883 5.97986 13.3674 6.11211Z" fill="#878A94"/>
</svg>
