<svg width="62" height="38" viewBox="0 0 62 38" fill="none" xmlns="http://www.w3.org/2000/svg">
<path d="M56.4813 0.609497H4.25564C2.03691 0.609497 0.238281 2.40803 0.238281 4.62663V32.7465C0.238281 34.9651 2.03691 36.7636 4.25564 36.7636H56.4813C58.7 36.7636 60.4986 34.9651 60.4986 32.7465V4.62663C60.4986 2.40803 58.7 0.609497 56.4813 0.609497Z" fill="#101529"/>
<path opacity="0.2" d="M45.6475 24.9026V24.5761H45.7873V24.5093H45.4609V24.5761H45.6007V24.9026H45.6475ZM46.3003 24.9026V24.5066H46.2074L46.091 24.7627L45.9746 24.5066H45.8816V24.9026H45.9485V24.5996L46.0649 24.8557H46.1317L46.2481 24.5996V24.9026H46.3003Z" fill="white"/>
<path opacity="0.35" d="M24.3403 28.7308C29.8871 28.7308 34.3837 24.2344 34.3837 18.688C34.3837 13.1415 29.8871 8.64514 24.3403 8.64514C18.7935 8.64514 14.2969 13.1415 14.2969 18.688C14.2969 24.2344 18.7935 28.7308 24.3403 28.7308Z" fill="url(#paint0_linear_1_61189)"/>
<path opacity="0.25" d="M36.3911 28.7308C41.9379 28.7308 46.4344 24.2344 46.4344 18.688C46.4344 13.1415 41.9379 8.64514 36.3911 8.64514C30.8443 8.64514 26.3477 13.1415 26.3477 18.688C26.3477 24.2344 30.8443 28.7308 36.3911 28.7308Z" fill="url(#paint1_linear_1_61189)"/>
<defs>
<linearGradient id="paint0_linear_1_61189" x1="24.3403" y1="8.64514" x2="24.3403" y2="28.7308" gradientUnits="userSpaceOnUse">
<stop stop-color="white"/>
</linearGradient>
<linearGradient id="paint1_linear_1_61189" x1="36.3911" y1="8.64514" x2="36.3911" y2="28.7308" gradientUnits="userSpaceOnUse">
<stop stop-color="white"/>
</linearGradient>
</defs>
</svg>
