<svg width="69" height="38" viewBox="0 0 69 38" fill="none" xmlns="http://www.w3.org/2000/svg">
<path d="M64.4155 0.375244H4.62826C2.38064 0.375244 0.558594 2.19734 0.558594 4.44501V32.9334C0.558594 35.181 2.38064 37.0031 4.62826 37.0031H64.4155C66.6631 37.0031 68.4851 35.181 68.4851 32.9334V4.44501C68.4851 2.19734 66.6631 0.375244 64.4155 0.375244Z" fill="#101529"/>
<path d="M54.2351 22.3934H52.281V18.5545H50.3994V22.3934H48.4453V16.9205H54.2351V22.3934Z" fill="url(#paint0_linear_1_61204)" fill-opacity="0.5"/>
<path fill-rule="evenodd" clip-rule="evenodd" d="M44.4359 22.5895C46.1852 22.5895 47.4843 21.5169 47.4843 19.8909C47.4843 18.3171 46.5258 17.2953 44.9241 17.2953C44.1849 17.2953 43.5749 17.5555 43.1155 18.0045C43.2252 17.0765 44.0099 16.3991 44.8739 16.3991C45.0733 16.3991 46.5745 16.3958 46.5745 16.3958L47.4234 14.7714C47.4234 14.7714 45.5387 14.8143 44.6626 14.8143C42.6607 14.8491 41.3086 16.6688 41.3086 18.8788C41.3086 21.4535 42.6273 22.5895 44.4359 22.5895ZM44.4466 18.7342C45.096 18.7342 45.5463 19.161 45.5463 19.8907C45.5463 20.5475 45.1463 21.0887 44.4466 21.0901C43.7773 21.0901 43.327 20.5887 43.327 19.9019C43.327 19.172 43.7773 18.7342 44.4466 18.7342Z" fill="url(#paint1_linear_1_61204)" fill-opacity="0.5"/>
<path d="M39.7204 20.5594C39.7204 20.5594 39.2589 20.8253 38.5697 20.8757C37.7773 20.8992 37.0713 20.3988 37.0713 19.5096C37.0713 18.6422 37.6943 18.1451 38.5497 18.1451C39.0742 18.1451 39.7681 18.5086 39.7681 18.5086C39.7681 18.5086 40.2758 17.577 40.5389 17.111C40.0573 16.7459 39.4158 16.5458 38.6697 16.5458C36.7866 16.5458 35.3281 17.7735 35.3281 19.4986C35.3281 21.2456 36.6989 22.4448 38.6697 22.4087C39.2204 22.3881 39.9804 22.1947 40.4436 21.8972L39.7204 20.5594Z" fill="url(#paint2_linear_1_61204)" fill-opacity="0.5"/>
<path d="M14.793 12.3679L17.5036 17.2131V20.1684L14.7961 25.004L14.7946 18.6859L14.793 12.3679Z" fill="#666976"/>
<path d="M25.207 15.4486L27.747 13.8918L32.9453 13.887L25.207 18.6275V15.4486Z" fill="#676A77"/>
<path d="M25.1988 12.3408L25.2132 18.7556L22.4961 17.0862V7.49719L25.1988 12.3408Z" fill="#717480"/>
<path d="M32.9514 13.8898L27.7531 13.8947L25.1988 12.3408L22.4961 7.49719L32.9514 13.8898Z" fill="#717480"/>
<path d="M25.2132 25.0296V21.9173L22.4961 20.2795L22.4976 29.8781L25.2132 25.0296Z" fill="#727581"/>
<path d="M27.7345 23.4884L17.5036 17.2131L14.793 12.3679L32.9281 23.4819L27.7345 23.4884Z" fill="#6B6E7A"/>
<path d="M22.4961 29.8792L25.2116 25.0306L27.7453 23.4881L32.9388 23.4817L22.4961 29.8792Z" fill="#646875"/>
<path d="M14.793 25.0045L22.5029 20.2815L19.9109 18.6912L17.5005 20.1689L14.793 25.0045Z" fill="#696C79"/>
<defs>
<linearGradient id="paint0_linear_1_61204" x1="34.5151" y1="7.49627" x2="34.5151" y2="29.88" gradientUnits="userSpaceOnUse">
<stop stop-color="white"/>
<stop offset="1" stop-color="white" stop-opacity="0.5"/>
</linearGradient>
<linearGradient id="paint1_linear_1_61204" x1="34.5189" y1="7.49665" x2="34.5189" y2="29.8804" gradientUnits="userSpaceOnUse">
<stop stop-color="white"/>
<stop offset="1" stop-color="white" stop-opacity="0.5"/>
</linearGradient>
<linearGradient id="paint2_linear_1_61204" x1="34.5213" y1="7.49441" x2="34.5213" y2="29.8781" gradientUnits="userSpaceOnUse">
<stop stop-color="white"/>
<stop offset="1" stop-color="white" stop-opacity="0.5"/>
</linearGradient>
</defs>
</svg>
