<svg width="77" height="38" viewBox="0 0 77 38" fill="none" xmlns="http://www.w3.org/2000/svg">
<path d="M72.2009 0.545654H5.10113C2.87497 0.545654 1.07031 2.35027 1.07031 4.57638V32.7914C1.07031 35.0175 2.87497 36.8222 5.10113 36.8222H72.2009C74.427 36.8222 76.2317 35.0175 76.2317 32.7914V4.57638C76.2317 2.35027 74.427 0.545654 72.2009 0.545654Z" fill="#101529"/>
<path opacity="0.5" d="M33.0296 11.3572L26.8732 26.0213H22.8517L19.8135 14.3246C19.7802 14.0508 19.6794 13.7895 19.5204 13.564C19.3613 13.3386 19.1488 13.1561 18.902 13.0328C17.7185 12.4699 16.4674 12.0615 15.1797 11.8175L15.2563 11.3619H21.7129C22.1411 11.3518 22.5577 11.5019 22.881 11.7829C23.2042 12.0639 23.4109 12.4555 23.4605 12.8809L25.0538 21.3829L29.0035 11.4326H33.0296V11.3572ZM48.7527 21.2311C48.7527 17.357 43.436 17.1296 43.436 15.4587C43.436 14.9264 43.9682 14.3954 45.0316 14.2434C46.3125 14.1038 47.6064 14.3416 48.7539 14.9275L49.4381 11.8129C48.2961 11.3813 47.0883 11.1499 45.8677 11.1288C42.1453 11.1288 39.4898 13.1001 39.4898 15.9897C39.4898 18.1164 41.3892 19.2563 42.8318 19.9393C44.2743 20.6223 44.8031 21.0792 44.8031 21.7621C44.8031 22.7502 43.6632 23.2058 42.5245 23.2058C41.1789 23.2146 39.8507 22.9021 38.6502 22.2944L37.9661 25.4844C39.2998 25.9894 40.7145 26.2468 42.1407 26.244C46.0903 26.244 48.6727 24.2727 48.7504 21.2311M58.6268 26.0213H62.1254L59.0872 11.3619H55.8171C55.4743 11.3549 55.1377 11.4531 54.8525 11.6432C54.5672 11.8333 54.347 12.1062 54.2214 12.4252L48.5255 26.0213H52.4751L53.2347 23.8181H58.0958L58.6268 26.0213ZM54.3734 20.8565L56.3448 15.3879L57.4846 20.8565H54.3734ZM38.423 11.3572L35.3083 26.0213H31.5116L34.6263 11.3619H38.423V11.3572Z" fill="url(#paint0_linear_1_61217)"/>
<defs>
<linearGradient id="paint0_linear_1_61217" x1="38.6525" y1="11.1288" x2="38.6525" y2="26.244" gradientUnits="userSpaceOnUse">
<stop stop-color="white"/>
</linearGradient>
</defs>
</svg>
