<svg width="14" height="15" viewBox="0 0 14 15" fill="none" xmlns="http://www.w3.org/2000/svg">
<path d="M11.1457 7.0333H13.5989V12.5978C12.8809 13.1696 12.0433 13.6083 11.0862 13.9141C10.1286 14.2199 9.14491 14.3729 8.13411 14.3729C6.71153 14.3729 5.4283 14.067 4.28491 13.4554C3.14152 12.8305 2.24394 11.9729 1.59265 10.8826C0.940877 9.79229 0.615234 8.56238 0.615234 7.19284C0.615234 5.82334 0.940877 4.59343 1.59265 3.50312C2.24394 2.41282 3.14152 1.56183 4.28491 0.95022C5.44185 0.325301 6.73814 0.0128174 8.17427 0.0128174C9.34427 0.0128174 10.4078 0.205639 11.3654 0.591236C12.3225 0.976833 13.1272 1.5419 13.7785 2.28648L12.143 3.88204C11.0794 2.81835 9.7962 2.28648 8.29379 2.28648C7.31008 2.28648 6.43233 2.49261 5.66104 2.90477C4.9033 3.31698 4.30475 3.89535 3.86588 4.63993C3.44056 5.38456 3.22814 6.2355 3.22814 7.19284C3.22814 8.12361 3.44056 8.96124 3.86588 9.70587C4.30475 10.4504 4.9033 11.0355 5.66104 11.461C6.43233 11.8864 7.30329 12.0992 8.27394 12.0992C9.3641 12.0992 10.3217 11.8599 11.1457 11.3812V7.0333Z" fill="white"/>
</svg>
