<svg width="16" height="15" viewBox="0 0 16 15" fill="none" xmlns="http://www.w3.org/2000/svg">
<path d="M8.4173 14.373C6.99472 14.373 5.71149 14.0672 4.56811 13.4556C3.42472 12.8306 2.52714 11.973 1.87537 10.8827C1.22408 9.7791 0.898438 8.5492 0.898438 7.19296C0.898438 5.83676 1.22408 4.61349 1.87537 3.52318C2.52714 2.41957 3.42472 1.56196 4.56811 0.950342C5.71149 0.325423 6.99472 0.0129395 8.4173 0.0129395C9.83988 0.0129395 11.1231 0.325423 12.2665 0.950342C13.4099 1.56196 14.3075 2.41294 14.9592 3.50325C15.6105 4.59355 15.9362 5.82346 15.9362 7.19296C15.9362 8.56251 15.6105 9.79241 14.9592 10.8827C14.3075 11.973 13.4099 12.8306 12.2665 13.4556C11.1231 14.0672 9.83988 14.373 8.4173 14.373ZM8.4173 12.0993C9.34827 12.0993 10.1858 11.8932 10.9305 11.481C11.6747 11.0556 12.2597 10.4705 12.6855 9.72592C13.1109 8.96804 13.3238 8.12373 13.3238 7.19296C13.3238 6.26223 13.1109 5.42455 12.6855 4.67997C12.2597 3.92209 11.6747 3.33704 10.9305 2.92483C10.1858 2.49936 9.34827 2.2866 8.4173 2.2866C7.48634 2.2866 6.64876 2.49936 5.90408 2.92483C5.15989 3.33704 4.57489 3.92209 4.14908 4.67997C3.72376 5.42455 3.51086 6.26223 3.51086 7.19296C3.51086 8.12373 3.72376 8.96804 4.14908 9.72592C4.57489 10.4705 5.15989 11.0556 5.90408 11.481C6.64876 11.8932 7.48634 12.0993 8.4173 12.0993Z" fill="white"/>
</svg>
