<svg width="23" height="22" viewBox="0 0 23 22" fill="none" xmlns="http://www.w3.org/2000/svg">
<path d="M2.86523 11.6131V20.0029C2.86523 21.1061 3.75957 22.0005 4.86279 22.0005H10.5898C10.7369 22.0005 10.8561 21.8812 10.8561 21.7341V13.3443C10.8561 12.9762 11.1539 12.6784 11.522 12.6784C11.8901 12.6784 12.1879 12.9762 12.1879 13.3443V21.7341C12.1879 21.8812 12.3071 22.0004 12.4542 22.0004H18.18C19.2832 22.0004 20.1775 21.1061 20.1775 20.0029V11.6131C20.1775 11.466 20.0583 11.3468 19.9111 11.3468H3.1316C2.98449 11.3468 2.86523 11.466 2.86523 11.6131Z" fill="#5D6F93"/>
<path d="M22.1705 4.68714H19.6671C19.9863 4.20791 20.173 3.62204 20.173 3.0095C20.173 1.77075 19.4671 0.70499 18.3217 0.239429C17.1766 -0.240459 15.9116 0.0131256 15.0458 0.891586L11.5168 4.42051L7.98792 0.891586C7.1221 0.0131256 5.85705 -0.240459 4.71196 0.239429C3.56656 0.70499 2.86068 1.77075 2.86068 3.0095C2.86068 3.62204 3.04732 4.20791 3.36657 4.68714H0.863131C0.490204 4.68714 0.197266 4.97972 0.197266 5.353V9.34815C0.197266 9.72138 0.490204 10.014 0.863131 10.014H10.8643V6.68473C10.8643 6.3115 11.144 6.03187 11.5168 6.01887H11.5301C11.9031 6.01887 12.196 6.3115 12.196 6.68473V10.014H22.1705C22.5435 10.014 22.8364 9.72138 22.8364 9.34815V5.353C22.8364 4.97972 22.5435 4.68714 22.1705 4.68714ZM5.87036 4.68714C4.93822 4.68714 4.19241 3.94128 4.19241 3.0095C4.19241 2.1837 4.72496 1.67777 5.2312 1.46451C5.41749 1.38452 5.6441 1.33119 5.88372 1.33119C6.26995 1.33119 6.69589 1.46451 7.05547 1.82408L9.90552 4.68714H5.87036ZM17.1633 4.68714H13.1282L15.9783 1.82408C16.5641 1.2512 17.31 1.26487 17.8025 1.46451C18.3087 1.67777 18.8413 2.1837 18.8413 3.0095C18.8413 3.94128 18.0954 4.68714 17.1633 4.68714Z" fill="#5D6F93"/>
</svg>
