<svg width="12" height="11" viewBox="0 0 12 11" fill="none" xmlns="http://www.w3.org/2000/svg">
<mask id="mask0_52_775" style="mask-type:luminance" maskUnits="userSpaceOnUse" x="0" y="0" width="12" height="11">
<path d="M0.726562 0.486328H11.0514V10.8112H0.726562V0.486328Z" fill="white"/>
</mask>
<g mask="url(#mask0_52_775)">
<path fill-rule="evenodd" clip-rule="evenodd" d="M6.54391 0.666116C6.34687 0.548455 6.12165 0.486328 5.89215 0.486328C5.66265 0.486328 5.43743 0.548455 5.24039 0.666116L2.02677 2.57622C1.82689 2.69701 1.66175 2.86759 1.54752 3.0713C1.43328 3.275 1.37384 3.50486 1.37502 3.73841V7.55862C1.37502 8.03808 1.62346 8.4814 2.02677 8.72081L5.24039 10.6309C5.43743 10.7486 5.66265 10.8107 5.89215 10.8107C6.12165 10.8107 6.34687 10.7486 6.54391 10.6309L9.75752 8.72081C9.95741 8.60002 10.1225 8.42943 10.2368 8.22573C10.351 8.02202 10.4105 7.79216 10.4093 7.55862V3.73841C10.4093 3.25895 10.1608 2.81563 9.75752 2.57622L6.54391 0.666116ZM4.92419 4.03525C4.75305 4.03525 4.58891 4.10324 4.46789 4.22426C4.34688 4.34528 4.27889 4.50941 4.27889 4.68056V6.61647C4.27889 6.78762 4.34688 6.95175 4.46789 7.07277C4.58891 7.19379 4.75305 7.26177 4.92419 7.26177H6.86011C7.03125 7.26177 7.19539 7.19379 7.31641 7.07277C7.43742 6.95175 7.50541 6.78762 7.50541 6.61647V4.68056C7.50541 4.50941 7.43742 4.34528 7.31641 4.22426C7.19539 4.10324 7.03125 4.03525 6.86011 4.03525H4.92419Z" fill="#2D2D2E"/>
</g>
</svg>
