<svg width="11" height="11" viewBox="0 0 11 11" fill="none" xmlns="http://www.w3.org/2000/svg">
<mask id="mask0_52_764" style="mask-type:luminance" maskUnits="userSpaceOnUse" x="0" y="0" width="11" height="11">
<path d="M0.453125 0.486328H10.778V10.8112H0.453125V0.486328Z" fill="white"/>
</mask>
<g mask="url(#mask0_52_764)">
<path fill-rule="evenodd" clip-rule="evenodd" d="M6.26266 0.666116C6.06562 0.548455 5.8404 0.486328 5.6109 0.486328C5.3814 0.486328 5.15618 0.548455 4.95914 0.666116L1.74552 2.57622C1.54564 2.69701 1.3805 2.86759 1.26627 3.0713C1.15203 3.275 1.09259 3.50486 1.09377 3.73841V7.55862C1.09377 8.03808 1.34221 8.4814 1.74552 8.72081L4.95914 10.6309C5.15618 10.7486 5.3814 10.8107 5.6109 10.8107C5.8404 10.8107 6.06562 10.7486 6.26266 10.6309L9.47627 8.72081C9.67616 8.60002 9.8413 8.42943 9.95553 8.22573C10.0698 8.02202 10.1292 7.79216 10.128 7.55862V3.73841C10.128 3.25895 9.87959 2.81563 9.47627 2.57622L6.26266 0.666116ZM4.64294 4.03525C4.4718 4.03525 4.30766 4.10324 4.18664 4.22426C4.06563 4.34528 3.99764 4.50941 3.99764 4.68056V6.61647C3.99764 6.78762 4.06563 6.95175 4.18664 7.07277C4.30766 7.19379 4.4718 7.26177 4.64294 7.26177H6.57886C6.75 7.26177 6.91414 7.19379 7.03516 7.07277C7.15617 6.95175 7.22416 6.78762 7.22416 6.61647V4.68056C7.22416 4.50941 7.15617 4.34528 7.03516 4.22426C6.91414 4.10324 6.75 4.03525 6.57886 4.03525H4.64294Z" fill="#2D2D2E"/>
</g>
</svg>
