<svg width="11" height="11" viewBox="0 0 11 11" fill="none" xmlns="http://www.w3.org/2000/svg">
<mask id="mask0_52_786" style="mask-type:luminance" maskUnits="userSpaceOnUse" x="0" y="0" width="11" height="11">
<path d="M0.3125 0.486328H10.6374V10.8112H0.3125V0.486328Z" fill="white"/>
</mask>
<g mask="url(#mask0_52_786)">
<path fill-rule="evenodd" clip-rule="evenodd" d="M6.12203 0.666116C5.92499 0.548455 5.69977 0.486328 5.47027 0.486328C5.24078 0.486328 5.01556 0.548455 4.81852 0.666116L1.6049 2.57622C1.40501 2.69701 1.23988 2.86759 1.12564 3.0713C1.0114 3.275 0.951967 3.50486 0.953142 3.73841V7.55862C0.953142 8.03808 1.20158 8.4814 1.6049 8.72081L4.81852 10.6309C5.01556 10.7486 5.24078 10.8107 5.47027 10.8107C5.69977 10.8107 5.92499 10.7486 6.12203 10.6309L9.33565 8.72081C9.53554 8.60002 9.70067 8.42943 9.81491 8.22573C9.92915 8.02202 9.98858 7.79216 9.98741 7.55862V3.73841C9.98741 3.25895 9.73897 2.81563 9.33565 2.57622L6.12203 0.666116ZM4.50232 4.03525C4.33117 4.03525 4.16704 4.10324 4.04602 4.22426C3.925 4.34528 3.85701 4.50941 3.85701 4.68056V6.61647C3.85701 6.78762 3.925 6.95175 4.04602 7.07277C4.16704 7.19379 4.33117 7.26177 4.50232 7.26177H6.43823C6.60938 7.26177 6.77351 7.19379 6.89453 7.07277C7.01555 6.95175 7.08354 6.78762 7.08354 6.61647V4.68056C7.08354 4.50941 7.01555 4.34528 6.89453 4.22426C6.77351 4.10324 6.60938 4.03525 6.43823 4.03525H4.50232Z" fill="#2D2D2E"/>
</g>
</svg>
