<svg width="26" height="27" viewBox="0 0 26 27" fill="none" xmlns="http://www.w3.org/2000/svg">
<rect y="0.335938" width="25.7899" height="25.7899" rx="12.895" fill="#101529"/>
<path d="M19.3862 11.0768C19.3044 10.2873 19.1285 9.41462 18.4809 8.95599C17.9793 8.60033 17.3201 8.58718 16.7046 8.58792C15.4036 8.58792 14.1019 8.59011 12.8009 8.59084C11.5495 8.5923 10.2981 8.59303 9.04676 8.59449C8.52402 8.59449 8.01588 8.55432 7.53037 8.78072C7.1135 8.97497 6.78715 9.34451 6.59076 9.75567C6.31843 10.3275 6.26149 10.9753 6.22864 11.6077C6.16804 12.7594 6.17461 13.914 6.24689 15.0649C6.30018 15.9048 6.43525 16.833 7.08429 17.3683C7.6596 17.8423 8.47145 17.8656 9.2176 17.8664C11.586 17.8686 13.9551 17.8707 16.3242 17.8722C16.628 17.8729 16.9448 17.8671 17.2544 17.8335C17.8633 17.7678 18.4437 17.5932 18.835 17.1419C19.23 16.6869 19.3315 16.0538 19.3913 15.4542C19.5373 13.9994 19.5359 12.5308 19.3862 11.0768ZM11.4312 15.2694V11.1907L14.9619 13.2297L11.4312 15.2694Z" fill="#798CB4"/>
</svg>
