<svg width="26" height="27" viewBox="0 0 26 27" fill="none" xmlns="http://www.w3.org/2000/svg">
<rect y="0.873047" width="25.7899" height="25.7899" rx="12.895" fill="#101529"/>
<path d="M5.53448 13.1897C5.56549 13.1742 5.59652 13.1594 5.62676 13.1455C6.15243 12.902 6.68508 12.674 7.21695 12.4459C7.24563 12.4459 7.29369 12.4126 7.32083 12.4017C7.36192 12.3839 7.40302 12.3668 7.44411 12.349C7.52319 12.3149 7.60228 12.2815 7.68059 12.2474C7.83875 12.1799 7.99613 12.1125 8.1543 12.045L9.10097 11.6394C9.73208 11.3695 10.364 11.0988 10.9951 10.8289C11.6262 10.559 12.2581 10.2884 12.8892 10.0185C13.5203 9.74857 14.1522 9.47791 14.7833 9.20802C15.4144 8.93813 16.0463 8.66746 16.6774 8.39757C16.8178 8.33707 16.9697 8.24711 17.1201 8.22074C17.2465 8.19825 17.3698 8.15482 17.4969 8.13078C17.7381 8.08502 18.004 8.06641 18.235 8.16645C18.3149 8.20135 18.3886 8.25021 18.4498 8.31148C18.7429 8.60154 18.7018 9.07772 18.6398 9.48566C18.2079 12.3288 17.7761 15.1728 17.3434 18.016C17.2845 18.4061 17.2039 18.8342 16.8961 19.0808C16.6356 19.2894 16.2649 19.3127 15.9432 19.2243C15.6214 19.1351 15.3377 18.9482 15.0593 18.7644C13.9049 17.9997 12.7496 17.235 11.5952 16.4703C11.3207 16.2888 11.0153 16.0515 11.0184 15.7219C11.0199 15.5233 11.1385 15.3465 11.2595 15.1891C12.2627 13.8799 13.7103 12.9803 14.7872 11.7317C14.9392 11.5556 15.0586 11.2376 14.85 11.136C14.7259 11.0755 14.5833 11.1578 14.4701 11.2361C13.0466 12.2249 11.6239 13.2145 10.2004 14.2033C9.73597 14.526 9.24907 14.8579 8.68928 14.937C8.18843 15.0084 7.68447 14.8688 7.19989 14.7261C6.79362 14.6066 6.38812 14.4841 5.98417 14.3577C5.76941 14.291 5.54766 14.2189 5.38175 14.0676C5.21583 13.9164 5.12047 13.662 5.22049 13.4604C5.28329 13.3339 5.40502 13.2541 5.53295 13.1889L5.53448 13.1897Z" fill="#798CB4"/>
</svg>
