<svg width="17" height="16" viewBox="0 0 17 16" fill="none" xmlns="http://www.w3.org/2000/svg">
<path d="M15.4401 15.4277C15.6324 15.4277 15.7882 15.2718 15.7882 15.0796V14.6638C15.7882 14.5424 15.7253 14.4289 15.6193 14.3696C14.1762 13.5617 12.4542 13.479 10.3334 13.2609C10.2974 13.2572 10.2657 13.2855 10.2658 13.3217V13.3217L10.2642 14.1514C10.2639 14.3277 10.1705 14.4905 10.0191 14.5789V14.5789C9.93737 14.6266 9.97114 14.7522 10.0658 14.7537C11.9929 14.7829 13.2396 14.9301 14.729 15.4105C14.764 15.4218 14.8007 15.4277 14.8373 15.4277H15.4401Z" fill="#FFB800"/>
<path d="M12.6963 12.8396C12.4293 12.8111 12.2853 12.5061 12.4379 12.2852L13.3424 10.977C13.3826 10.9188 13.4041 10.8498 13.4041 10.7791V5.83165C13.4041 5.45706 13.9148 5.34687 14.0692 5.68813L16.3414 10.708C16.3918 10.8195 16.3801 10.9492 16.3104 11.0498L14.9252 13.0484C14.841 13.1698 14.6895 13.2249 14.5466 13.1877C14.2761 13.1174 13.8295 13.0059 13.4977 12.9469C13.2585 12.9043 12.9579 12.8675 12.6963 12.8396Z" fill="#FFB800"/>
<path d="M1.23084 15.4277C1.03863 15.4277 0.882812 15.2718 0.882812 15.0796V14.6638C0.882812 14.5424 0.945705 14.4289 1.05163 14.3696C2.49483 13.5617 4.21679 13.479 6.33758 13.2609C6.37361 13.2572 6.40523 13.2855 6.40517 13.3217V13.3217L6.40677 14.1514C6.40711 14.3277 6.50044 14.4905 6.65185 14.5789V14.5789C6.73361 14.6266 6.69984 14.7522 6.60516 14.7537C4.67807 14.7829 3.43136 14.9301 1.94192 15.4105C1.907 15.4218 1.87031 15.4277 1.83362 15.4277H1.23084Z" fill="#FFB800"/>
<path d="M3.97645 12.8396C4.24339 12.8111 4.38745 12.5061 4.23478 12.2852L3.33033 10.977C3.29012 10.9188 3.26858 10.8498 3.26858 10.7791V5.83165C3.26858 5.45706 2.75795 5.34688 2.60349 5.68813L0.331324 10.708C0.280876 10.8195 0.292653 10.9492 0.362341 11.0498L1.74755 13.0484C1.83169 13.1698 1.98318 13.2249 2.12612 13.1877C2.39656 13.1174 2.84324 13.0059 3.17498 12.9469C3.41419 12.9043 3.71481 12.8675 3.97645 12.8396Z" fill="#FFB800"/>
<path d="M11.4576 11.0255C11.518 10.9382 11.5352 10.8281 11.5043 10.7265L8.67796 1.4221C8.57819 1.09365 8.11351 1.09269 8.01237 1.42072L5.14353 10.7258C5.1121 10.8278 5.12917 10.9385 5.18984 11.0263L6.23439 12.5372C6.27962 12.6026 6.38219 12.5707 6.38235 12.4912V12.4912C6.38269 12.3149 6.47602 12.1521 6.62741 12.0637L7.34014 11.6474L8.05445 11.234C8.13732 11.186 8.2317 11.1642 8.32402 11.1687C8.41635 11.1642 8.50962 11.186 8.59251 11.234L9.30682 11.6474L10.0195 12.0637C10.1709 12.1521 10.2643 12.3149 10.2646 12.4912V12.4912C10.2648 12.5707 10.3673 12.6026 10.4125 12.5372L11.4576 11.0255Z" fill="#FFB800"/>
<path fill-rule="evenodd" clip-rule="evenodd" d="M8.53009 14.8983C8.41458 14.9647 8.27248 14.9647 8.15696 14.8983L7.61317 14.5857L7.07061 14.2711C6.95534 14.2042 6.88429 14.0812 6.88403 13.9479L6.88281 13.3207L6.88403 12.6935C6.88429 12.5603 6.95534 12.4372 7.07061 12.3704L7.61317 12.0557L8.15696 11.7432C8.27248 11.6768 8.41458 11.6768 8.53009 11.7432L9.07388 12.0557L9.61644 12.3704C9.73169 12.4372 9.80274 12.5603 9.803 12.6935L9.80424 13.3207L9.803 13.9479C9.80274 14.0812 9.73169 14.2042 9.61644 14.2711L9.07388 14.5857L8.53009 14.8983ZM8.95186 13.1071C8.95186 12.9149 8.79605 12.7591 8.60383 12.7591H8.12991C7.93769 12.7591 7.78188 12.9149 7.78188 13.1071V13.5811C7.78188 13.7733 7.93769 13.9291 8.12991 13.9291H8.60383C8.79605 13.9291 8.95186 13.7733 8.95186 13.5811V13.1071Z" fill="#FFB800"/>
</svg>
