<svg width="12" height="14" viewBox="0 0 12 14" fill="none" xmlns="http://www.w3.org/2000/svg">
<path d="M11.0714 8.1726C10.914 6.12366 9.96004 4.83968 9.11845 3.70663C8.33917 2.65767 7.66612 1.75184 7.66612 0.415615C7.66612 0.308283 7.60601 0.210182 7.5107 0.160997C7.4151 0.111517 7.30022 0.11962 7.21331 0.182785C5.94937 1.08722 4.89478 2.61157 4.52639 4.06603C4.27065 5.07862 4.23681 6.21699 4.23206 6.96882C3.06483 6.71951 2.80041 4.97355 2.79762 4.95452C2.78447 4.86396 2.72915 4.78515 2.64865 4.74211C2.56732 4.69964 2.47171 4.69655 2.38925 4.73736C2.32805 4.76699 0.886873 5.49926 0.80302 8.42301C0.797143 8.52028 0.796875 8.61784 0.796875 8.71538C0.796875 11.5558 3.10813 13.867 5.94881 13.867C5.95273 13.8672 5.95691 13.8678 5.96027 13.867C5.96139 13.867 5.96249 13.867 5.96389 13.867C8.79759 13.8588 11.1007 11.5508 11.1007 8.71538C11.1007 8.57255 11.0714 8.1726 11.0714 8.1726ZM5.94881 13.2946C5.00182 13.2946 4.2315 12.474 4.2315 11.4653C4.2315 11.4309 4.23123 11.3963 4.23372 11.3538C4.24518 10.9284 4.32598 10.638 4.41458 10.4449C4.58062 10.8015 4.87745 11.1294 5.35961 11.1294C5.51782 11.1294 5.64584 11.0013 5.64584 10.8432C5.64584 10.4357 5.65424 9.96555 5.75569 9.54127C5.84598 9.16507 6.06175 8.76483 6.33512 8.44399C6.4567 8.86044 6.69375 9.19749 6.92518 9.52646C7.25641 9.99711 7.59879 10.4837 7.6589 11.3135C7.66252 11.3627 7.66617 11.4122 7.66617 11.4653C7.66612 12.474 6.8958 13.2946 5.94881 13.2946Z" fill="#FFB060"/>
</svg>
