<svg width="14" height="13" viewBox="0 0 14 13" fill="none" xmlns="http://www.w3.org/2000/svg">
<path d="M1.5625 6.85447V11.807C1.5625 12.4582 2.09043 12.9861 2.74166 12.9861H6.1223C6.20914 12.9861 6.27954 12.9157 6.27954 12.8289V7.8764C6.27954 7.65913 6.45533 7.48333 6.6726 7.48333C6.88987 7.48333 7.06566 7.65913 7.06566 7.8764V12.8289C7.06566 12.9157 7.13605 12.9861 7.22289 12.9861H10.6028C11.254 12.9861 11.7819 12.4582 11.7819 11.8069V6.85447C11.7819 6.76764 11.7115 6.69727 11.6247 6.69727H1.71973C1.6329 6.69724 1.5625 6.76764 1.5625 6.85447Z" fill="#798CB4"/>
<path d="M12.963 2.76682H11.4852C11.6737 2.48393 11.7838 2.13809 11.7838 1.77651C11.7838 1.04528 11.3672 0.416156 10.691 0.141335C10.0151 -0.141943 9.26835 0.00774805 8.75726 0.526304L6.67414 2.60943L4.59101 0.526304C4.07992 0.00774805 3.33316 -0.141943 2.65721 0.141335C1.98109 0.416156 1.5644 1.04528 1.5644 1.77651C1.5644 2.13809 1.67458 2.48393 1.86303 2.76682H0.385248C0.165109 2.76682 -0.0078125 2.93953 -0.0078125 3.15988V5.51822C-0.0078125 5.73854 0.165109 5.91128 0.385248 5.91128H6.28896V3.946C6.28896 3.72568 6.45402 3.56061 6.67414 3.55294H6.68199C6.90213 3.55294 7.07505 3.72568 7.07505 3.946V5.91128H12.963C13.1832 5.91128 13.3561 5.73854 13.3561 5.51822V3.15988C13.3561 2.93953 13.1832 2.76682 12.963 2.76682ZM3.34102 2.76682C2.79078 2.76682 2.35052 2.32654 2.35052 1.77651C2.35052 1.28904 2.66489 0.990386 2.96372 0.864499C3.07369 0.817282 3.20746 0.785804 3.3489 0.785804C3.5769 0.785804 3.82833 0.864499 4.04059 1.07676L5.72298 2.76682H3.34102ZM10.0073 2.76682H7.62532L9.30771 1.07676C9.65356 0.738586 10.0938 0.746652 10.3846 0.864499C10.6834 0.990386 10.9978 1.28904 10.9978 1.77651C10.9977 2.32654 10.5575 2.76682 10.0073 2.76682Z" fill="#798CB4"/>
</svg>
