<svg width="50" height="15" viewBox="0 0 50 15" fill="none" xmlns="http://www.w3.org/2000/svg">
<path d="M35.6953 6.64844V14.1659H39.8717V9.71111H44.6049C46.5956 9.69719 48.2871 8.4234 48.9275 6.64844H35.6953Z" fill="#878A94"/>
<path d="M35.1328 0.453125C35.3764 3.52276 38.286 5.95201 41.8359 5.95201C41.8498 5.95201 49.0958 5.95201 49.0958 5.95201C49.1515 5.67359 49.1793 5.38124 49.1793 5.08194C49.1793 2.53435 47.126 0.474007 44.5853 0.453125H35.1328Z" fill="#878A94"/>
<path d="M28.9556 5.87545C29.0043 5.79192 29.0809 5.7432 29.1784 5.7432C29.3176 5.7432 29.422 5.85457 29.4289 5.98682V14.0959H33.6053V0.453125H29.4289C28.8999 0.474007 28.3013 0.856841 28.0786 1.33712L24.7584 8.4648C24.7514 8.49264 24.7375 8.52048 24.7236 8.54833C24.6748 8.61793 24.5913 8.66666 24.4939 8.66666C24.3407 8.66666 24.2154 8.54137 24.2154 8.38823V0.453125H20.0391V14.0959H24.2154C24.7375 14.0681 25.3222 13.6853 25.5449 13.2119L28.9556 5.89633C28.9487 5.88937 28.9556 5.88241 28.9556 5.87545Z" fill="#878A94"/>
<path d="M13.3635 6.11321L10.9203 14.097H7.91333L5.47711 6.10625C5.45623 5.98096 5.34486 5.88351 5.20565 5.88351C5.05251 5.88351 4.93418 6.0088 4.93418 6.15497V14.0901H0.757812V0.447266H4.34253H5.40751C6.17317 0.447266 6.98061 1.04588 7.20335 1.77674L9.23585 8.42414C9.34026 8.75825 9.50035 8.75129 9.60476 8.42414L11.6373 1.77674C11.86 1.03892 12.6674 0.447266 13.4331 0.447266H14.4981H18.0828V14.0901H13.9064V6.15497C13.9064 6.15497 13.9064 6.15497 13.9064 6.14801C13.9064 5.99488 13.7811 5.87655 13.635 5.87655C13.4957 5.88351 13.3844 5.98096 13.3635 6.11321Z" fill="#878A94"/>
</svg>
