<svg width="14" height="14" viewBox="0 0 14 14" fill="none" xmlns="http://www.w3.org/2000/svg">
<path fill-rule="evenodd" clip-rule="evenodd" d="M12.1418 2.47983C13.0205 2.97751 13.5625 3.8978 13.5625 4.89317V9.1063C13.5625 10.1022 13.0205 11.0219 12.1418 11.5196L8.42024 13.6267C7.54141 14.1244 6.45804 14.1244 5.57922 13.6267L1.85774 11.5196C0.978906 11.0219 0.4375 10.1022 0.4375 9.1063V4.89317C0.4375 3.8978 0.978906 2.97751 1.85774 2.47983L5.57922 0.373262C6.45804 -0.124421 7.54141 -0.124421 8.42024 0.373262L12.1418 2.47983ZM6.07742 1.32948L2.45328 3.38134C1.88234 3.70473 1.53125 4.30163 1.53125 4.94841V9.05161C1.53125 9.6978 1.88234 10.2953 2.45328 10.6187L6.07742 12.67C6.64835 12.9934 7.35109 12.9934 7.92203 12.67L11.5461 10.6187C12.1171 10.2953 12.4687 9.6978 12.4687 9.05161V4.94841C12.4687 4.30163 12.1171 3.70473 11.5461 3.38134L7.92203 1.32948C7.35109 1.00609 6.64835 1.00609 6.07742 1.32948ZM7.75743 2.47607L10.617 4.09462C11.0857 4.36008 11.375 4.8508 11.375 5.38226V8.61988C11.375 9.15084 11.0857 9.64154 10.617 9.90701L7.75743 11.5261C7.28875 11.7915 6.71071 11.7915 6.24203 11.5261L3.38243 9.90701C2.91375 9.64154 2.625 9.15084 2.625 8.61988V5.38226C2.625 4.8508 2.91375 4.36008 3.38243 4.09462L6.24203 2.47607C6.71071 2.21061 7.28875 2.21061 7.75743 2.47607ZM5.35937 8.60969H8.64062V5.39192H5.35937V8.60969Z" fill="#0C101F"/>
</svg>
