<svg width="69" height="38" viewBox="0 0 69 38" fill="none" xmlns="http://www.w3.org/2000/svg">
<path d="M64.4194 0.375H4.63216C2.38455 0.375 0.5625 2.1971 0.5625 4.44477V32.9331C0.5625 35.1808 2.38455 37.0029 4.63216 37.0029H64.4194C66.667 37.0029 68.489 35.1808 68.489 32.9331V4.44477C68.489 2.1971 66.667 0.375 64.4194 0.375Z" fill="#101529"/>
<path d="M54.2429 22.3927H52.2888V18.5539H50.4072V22.3927H48.4531V16.9199H54.2429V22.3927Z" fill="url(#paint0_linear_52_932)" fill-opacity="0.5"/>
<path fill-rule="evenodd" clip-rule="evenodd" d="M44.4398 22.5896C46.1891 22.5896 47.4882 21.517 47.4882 19.891C47.4882 18.3173 46.5297 17.2955 44.928 17.2955C44.1888 17.2955 43.5789 17.5556 43.1194 18.0046C43.2291 17.0766 44.0138 16.3992 44.8778 16.3992C45.0772 16.3992 46.5784 16.3959 46.5784 16.3959L47.4273 14.7715C47.4273 14.7715 45.5426 14.8144 44.6665 14.8144C42.6646 14.8492 41.3125 16.6689 41.3125 18.8789C41.3125 21.4536 42.6312 22.5896 44.4398 22.5896ZM44.4505 18.7343C45.0999 18.7343 45.5502 19.1611 45.5502 19.8908C45.5502 20.5476 45.1502 21.0888 44.4505 21.0902C43.7812 21.0902 43.3309 20.5888 43.3309 19.902C43.3309 19.1721 43.7812 18.7343 44.4505 18.7343Z" fill="url(#paint1_linear_52_932)" fill-opacity="0.5"/>
<path d="M39.7204 20.5585C39.7204 20.5585 39.2589 20.8245 38.5697 20.8748C37.7773 20.8984 37.0713 20.398 37.0713 19.5087C37.0713 18.6414 37.6943 18.1442 38.5497 18.1442C39.0742 18.1442 39.7681 18.5078 39.7681 18.5078C39.7681 18.5078 40.2758 17.5761 40.5389 17.1101C40.0573 16.7451 39.4158 16.5449 38.6697 16.5449C36.7866 16.5449 35.3281 17.7727 35.3281 19.4977C35.3281 21.2448 36.6989 22.4439 38.6697 22.4078C39.2204 22.3873 39.9804 22.1939 40.4436 21.8964L39.7204 20.5585Z" fill="url(#paint2_linear_52_932)" fill-opacity="0.5"/>
<path d="M14.7969 12.3672L17.5075 17.2123V20.1677L14.8 25.0033L14.7985 18.6852L14.7969 12.3672Z" fill="#666976"/>
<path d="M25.2109 15.4484L27.7509 13.8916L32.9492 13.8867L25.2109 18.6273V15.4484Z" fill="#676A77"/>
<path d="M25.2027 12.3417L25.2171 18.7564L22.5 17.087V7.49805L25.2027 12.3417Z" fill="#717480"/>
<path d="M32.9553 13.8906L27.757 13.8955L25.2027 12.3417L22.5 7.49805L32.9553 13.8906Z" fill="#717480"/>
<path d="M25.2171 25.0293V21.9171L22.5 20.2793L22.5015 29.8778L25.2171 25.0293Z" fill="#727581"/>
<path d="M27.7384 23.4876L17.5075 17.2123L14.7969 12.3672L32.932 23.4812L27.7384 23.4876Z" fill="#6B6E7A"/>
<path d="M22.5 29.8799L25.2156 25.0314L27.7492 23.4888L32.9427 23.4824L22.5 29.8799Z" fill="#646875"/>
<path d="M14.7969 25.0047L22.5068 20.2818L19.9148 18.6914L17.5044 20.1691L14.7969 25.0047Z" fill="#696C79"/>
<defs>
<linearGradient id="paint0_linear_52_932" x1="34.5229" y1="7.49566" x2="34.5229" y2="29.8794" gradientUnits="userSpaceOnUse">
<stop stop-color="white"/>
<stop offset="1" stop-color="white" stop-opacity="0.5"/>
</linearGradient>
<linearGradient id="paint1_linear_52_932" x1="34.5228" y1="7.49678" x2="34.5228" y2="29.8805" gradientUnits="userSpaceOnUse">
<stop stop-color="white"/>
<stop offset="1" stop-color="white" stop-opacity="0.5"/>
</linearGradient>
<linearGradient id="paint2_linear_52_932" x1="34.5213" y1="7.49356" x2="34.5213" y2="29.8773" gradientUnits="userSpaceOnUse">
<stop stop-color="white"/>
<stop offset="1" stop-color="white" stop-opacity="0.5"/>
</linearGradient>
</defs>
</svg>
