<svg width="62" height="38" viewBox="0 0 62 38" fill="none" xmlns="http://www.w3.org/2000/svg">
<path d="M56.4774 0.609375H4.25173C2.03301 0.609375 0.234375 2.4079 0.234375 4.6265V32.7464C0.234375 34.965 2.03301 36.7635 4.25173 36.7635H56.4774C58.6961 36.7635 60.4947 34.965 60.4947 32.7464V4.6265C60.4947 2.4079 58.6961 0.609375 56.4774 0.609375Z" fill="#101529"/>
<path opacity="0.2" d="M45.6475 24.9018V24.5754H45.7873V24.5086H45.4609V24.5754H45.6007V24.9018H45.6475ZM46.3003 24.9018V24.5059H46.2074L46.091 24.762L45.9746 24.5059H45.8816V24.9018H45.9485V24.5989L46.0649 24.855H46.1317L46.2481 24.5989V24.9018H46.3003Z" fill="white"/>
<path opacity="0.35" d="M24.3403 28.7302C29.8871 28.7302 34.3837 24.2338 34.3837 18.6874C34.3837 13.1409 29.8871 8.64453 24.3403 8.64453C18.7935 8.64453 14.2969 13.1409 14.2969 18.6874C14.2969 24.2338 18.7935 28.7302 24.3403 28.7302Z" fill="url(#paint0_linear_52_917)"/>
<path opacity="0.25" d="M36.3871 28.7302C41.934 28.7302 46.4305 24.2338 46.4305 18.6874C46.4305 13.1409 41.934 8.64453 36.3871 8.64453C30.8404 8.64453 26.3438 13.1409 26.3438 18.6874C26.3438 24.2338 30.8404 28.7302 36.3871 28.7302Z" fill="url(#paint1_linear_52_917)"/>
<defs>
<linearGradient id="paint0_linear_52_917" x1="24.3403" y1="8.64453" x2="24.3403" y2="28.7302" gradientUnits="userSpaceOnUse">
<stop stop-color="white"/>
</linearGradient>
<linearGradient id="paint1_linear_52_917" x1="36.3871" y1="8.64453" x2="36.3871" y2="28.7302" gradientUnits="userSpaceOnUse">
<stop stop-color="white"/>
</linearGradient>
</defs>
</svg>
