<svg width="21" height="21" viewBox="0 0 21 21" fill="none" xmlns="http://www.w3.org/2000/svg">
<path d="M10.0716 2.97266C8.41337 2.97266 6.79239 3.46437 5.41364 4.38563C4.03488 5.30688 2.96027 6.6163 2.3257 8.14828C1.69113 9.68027 1.5251 11.366 1.8486 12.9924C2.1721 14.6187 2.97061 16.1126 4.14314 17.2852C5.31568 18.4577 6.80958 19.2562 8.43593 19.5797C10.0623 19.9032 11.748 19.7372 13.28 19.1026C14.812 18.468 16.1214 17.3934 17.0427 16.0147C17.9639 14.6359 18.4557 13.0149 18.4557 11.3567C18.4557 10.2557 18.2388 9.16549 17.8175 8.14828C17.3961 7.13108 16.7785 6.20683 16 5.4283C15.2215 4.64976 14.2972 4.0322 13.28 3.61086C12.2628 3.18952 11.1726 2.97266 10.0716 2.97266ZM13.4252 12.1951H10.0716C9.84922 12.1951 9.63597 12.1068 9.47874 11.9496C9.3215 11.7923 9.23317 11.5791 9.23317 11.3567V6.32629C9.23317 6.10393 9.3215 5.89067 9.47874 5.73344C9.63597 5.57621 9.84922 5.48788 10.0716 5.48788C10.2939 5.48788 10.5072 5.57621 10.6644 5.73344C10.8217 5.89067 10.91 6.10393 10.91 6.32629V10.5183H13.4252C13.6476 10.5183 13.8608 10.6067 14.0181 10.7639C14.1753 10.9211 14.2636 11.1344 14.2636 11.3567C14.2636 11.5791 14.1753 11.7923 14.0181 11.9496C13.8608 12.1068 13.6476 12.1951 13.4252 12.1951Z" fill="#1F1F31"/>
</svg>
