<svg width="8" height="15" viewBox="0 0 8 15" fill="none" xmlns="http://www.w3.org/2000/svg">
<path d="M1.02344 15.2441C1.28331 15.2441 1.50779 15.1409 1.68262 14.9473L7.65918 8.33887L7.66797 8.3291L7.67578 8.31738C7.74686 8.21877 7.80414 8.11101 7.84766 7.99512C7.89341 7.87316 7.91797 7.74777 7.91797 7.62012C7.91795 7.49243 7.89346 7.3671 7.84766 7.24512C7.80413 7.1292 7.74688 7.02148 7.67578 6.92285L7.66797 6.91211L7.65918 6.90137L1.68262 0.294922C1.5077 0.100816 1.28362 -0.00390625 1.02344 -0.00390625C0.764466 -0.00387413 0.537808 0.0991604 0.351563 0.285156L0.341797 0.293945C0.166398 0.488667 0.0840307 0.730156 0.0839844 1C0.0839844 1.26982 0.166504 1.51132 0.341797 1.70605L5.6709 7.62109L0.341797 13.5342C0.166416 13.7289 0.0840024 13.9704 0.0839844 14.2402C0.0839844 14.5101 0.166456 14.7515 0.341797 14.9463L0.350586 14.9561H0.351562C0.537746 15.1418 0.764618 15.2441 1.02344 15.2441Z" fill="white" stroke="white" stroke-width="0.488524"/>
</svg>
