<svg width="8" height="16" viewBox="0 0 8 16" fill="none" xmlns="http://www.w3.org/2000/svg">
<path d="M1.02344 15.623C1.28331 15.623 1.50779 15.5198 1.68262 15.3262L7.65918 8.71777L7.66797 8.70801L7.67578 8.69629C7.74686 8.59768 7.80414 8.48991 7.84766 8.37402C7.89341 8.25207 7.91797 8.12667 7.91797 7.99902C7.91795 7.87134 7.89346 7.74601 7.84766 7.62402C7.80413 7.50811 7.74688 7.40039 7.67578 7.30176L7.66797 7.29102L7.65918 7.28027L1.68262 0.673828C1.5077 0.479722 1.28362 0.375 1.02344 0.375C0.764466 0.375032 0.537808 0.478067 0.351563 0.664062L0.341797 0.672852C0.166398 0.867573 0.0840307 1.10906 0.0839844 1.37891C0.0839844 1.64873 0.166504 1.89023 0.341797 2.08496L5.6709 8L0.341797 13.9131C0.166416 14.1078 0.0840024 14.3493 0.0839844 14.6191C0.0839844 14.889 0.166456 15.1304 0.341797 15.3252L0.350586 15.335H0.351562C0.537746 15.5207 0.764618 15.623 1.02344 15.623Z" fill="white" stroke="white" stroke-width="0.488524"/>
</svg>
