<svg width="31" height="29" viewBox="0 0 31 29" fill="none" xmlns="http://www.w3.org/2000/svg">
<path d="M20.7594 0.916016H14.4384C11.575 0.916016 9.30565 0.916016 7.53142 1.11706C5.70362 1.32353 4.22482 1.75822 3.05931 2.73761C1.89218 3.71701 1.37436 4.95993 1.12925 6.49491C0.890625 7.98642 0.890625 9.89223 0.890625 12.2979V20.2282C0.890625 22.2766 2.38403 24.0317 4.50564 24.7679C4.39688 23.5318 4.39688 21.7998 4.39688 20.3572V13.5517C4.39688 11.8116 4.39688 10.3106 4.58843 9.1098C4.79458 7.82205 5.25884 6.58864 6.45032 5.58751C7.6418 4.58638 9.11086 4.19652 10.6432 4.02265C12.0717 3.86236 13.8573 3.86236 15.9302 3.86236H20.9136C22.9849 3.86236 24.7673 3.86236 26.1974 4.02265C25.7688 3.1076 25.0208 2.3218 24.0508 1.76767C23.0808 1.21353 21.9339 0.916753 20.7594 0.916016Z" fill="white"/>
<path d="M6.73438 13.6812C6.73438 9.97827 6.73437 8.12679 8.10441 6.97624C9.47283 5.82568 11.6756 5.82568 16.0844 5.82568H20.7594C25.1666 5.82568 27.371 5.82568 28.741 6.97624C30.1094 8.12679 30.1094 9.97827 30.1094 13.6812V20.2286C30.1094 23.9316 30.1094 25.7831 28.741 26.9336C27.371 28.0842 25.1666 28.0842 20.7594 28.0842H16.0844C11.6772 28.0842 9.47283 28.0842 8.10441 26.9336C6.73437 25.7831 6.73438 23.9316 6.73438 20.2286V13.6812Z" fill="white"/>
</svg>
