<svg width="22" height="21" viewBox="0 0 22 21" fill="none" xmlns="http://www.w3.org/2000/svg">
<g clip-path="url(#clip0_1_60616)">
<path d="M19.2176 2.32483H13.0956V4.87567C13.0956 5.14628 12.9881 5.4058 12.7967 5.59715C12.6054 5.7885 12.3459 5.896 12.0752 5.896C11.8046 5.896 11.5451 5.7885 11.3538 5.59715C11.1624 5.4058 11.0549 5.14628 11.0549 4.87567V2.32483H2.89223C2.35101 2.32483 1.83196 2.53983 1.44926 2.92253C1.06656 3.30523 0.851563 3.82428 0.851562 4.3655V7.4265C0.851563 7.69711 0.959062 7.95664 1.15041 8.14799C1.34176 8.33934 1.60129 8.44684 1.8719 8.44684C2.41312 8.44684 2.93217 8.66184 3.31487 9.04454C3.69757 9.42724 3.91257 9.94629 3.91257 10.4875C3.91257 11.0287 3.69757 11.5478 3.31487 11.9305C2.93217 12.3132 2.41312 12.5282 1.8719 12.5282C1.60129 12.5282 1.34176 12.6357 1.15041 12.827C0.959062 13.0184 0.851563 13.2779 0.851562 13.5485V16.6095C0.851563 17.1507 1.06656 17.6698 1.44926 18.0525C1.83196 18.4352 2.35101 18.6502 2.89223 18.6502H11.0549V16.0993C11.0549 15.8287 11.1624 15.5692 11.3538 15.3779C11.5451 15.1865 11.8046 15.079 12.0752 15.079C12.3459 15.079 12.6054 15.1865 12.7967 15.3779C12.9881 15.5692 13.0956 15.8287 13.0956 16.0993V18.6502H19.2176C19.7588 18.6502 20.2779 18.4352 20.6606 18.0525C21.0433 17.6698 21.2583 17.1507 21.2583 16.6095V4.3655C21.2583 3.82428 21.0433 3.30523 20.6606 2.92253C20.2779 2.53983 19.7588 2.32483 19.2176 2.32483ZM13.0956 12.3547C13.0956 12.6253 12.9881 12.8849 12.7967 13.0762C12.6054 13.2676 12.3459 13.3751 12.0752 13.3751C11.8046 13.3751 11.5451 13.2676 11.3538 13.0762C11.1624 12.8849 11.0549 12.6253 11.0549 12.3547V8.6203C11.0549 8.34969 11.1624 8.09016 11.3538 7.89881C11.5451 7.70746 11.8046 7.59996 12.0752 7.59996C12.3459 7.59996 12.6054 7.70746 12.7967 7.89881C12.9881 8.09016 13.0956 8.34969 13.0956 8.6203V12.3547Z" fill="#5D6F93"/>
</g>
<defs>
<clipPath id="clip0_1_60616">
<rect width="21" height="21" fill="white" transform="translate(0.523438)"/>
</clipPath>
</defs>
</svg>
