<svg width="19" height="22" viewBox="0 0 19 22" fill="none" xmlns="http://www.w3.org/2000/svg">
<path d="M10.5283 13.7496H8.69499C8.45187 13.7496 8.21871 13.8462 8.04681 14.0181C7.8749 14.19 7.77832 14.4232 7.77832 14.6663V21.083H11.445V14.6663C11.445 14.4232 11.3484 14.19 11.1765 14.0181C11.0046 13.8462 10.7714 13.7496 10.5283 13.7496Z" fill="#27BA70"/>
<path d="M16.7325 4.73932L12.1492 1.68682C11.397 1.18625 10.5136 0.919189 9.61003 0.919189C8.70647 0.919189 7.82308 1.18625 7.07086 1.68682L2.48753 4.73932C1.85915 5.15748 1.34376 5.72435 0.987153 6.3896C0.630544 7.05484 0.443749 7.79786 0.443359 8.55265V16.5002C0.443359 17.102 0.561911 17.698 0.792245 18.2541C1.02258 18.8102 1.36018 19.3155 1.78579 19.7411C2.64533 20.6006 3.81112 21.0835 5.02669 21.0835H5.94336V14.6668C5.94336 13.9375 6.23309 13.238 6.74882 12.7223C7.26454 12.2066 7.96401 11.9168 8.69336 11.9168H10.5267C11.256 11.9168 11.9555 12.2066 12.4712 12.7223C12.987 13.238 13.2767 13.9375 13.2767 14.6668V21.0835H14.1934C14.7953 21.0835 15.3912 20.9649 15.9473 20.7346C16.5034 20.5043 17.0087 20.1667 17.4343 19.7411C17.8599 19.3155 18.1975 18.8102 18.4278 18.2541C18.6581 17.698 18.7767 17.102 18.7767 16.5002V8.55265C18.7763 7.79786 18.5895 7.05484 18.2329 6.3896C17.8763 5.72435 17.3609 5.15748 16.7325 4.73932Z" fill="#27BA70"/>
</svg>
