<svg width="17" height="16" viewBox="0 0 17 16" fill="none" xmlns="http://www.w3.org/2000/svg">
<path d="M15.4431 15.9275C15.6353 15.9275 15.7911 15.7717 15.7911 15.5795V15.1636C15.7911 15.0422 15.7282 14.9288 15.6223 14.8695C14.1791 14.0616 12.4571 13.9788 10.3363 13.7608C10.3003 13.7571 10.2687 13.7853 10.2687 13.8216L10.2671 14.6513C10.2668 14.8275 10.1735 14.9903 10.0221 15.0787C9.9403 15.1265 9.97407 15.2521 10.0687 15.2535C11.9958 15.2828 13.2426 15.43 14.732 15.9104C14.7669 15.9216 14.8036 15.9275 14.8403 15.9275H15.4431Z" fill="#FFB800"/>
<path d="M12.6953 13.3404C12.4283 13.312 12.2843 13.0069 12.437 12.7861L13.3414 11.4779C13.3816 11.4197 13.4032 11.3507 13.4032 11.2799V6.3325C13.4032 5.95791 13.9138 5.84773 14.0682 6.18899L16.3404 11.2089C16.3909 11.3203 16.3791 11.4501 16.3094 11.5506L14.9242 13.5493C14.84 13.6707 14.6885 13.7258 14.5456 13.6886C14.2752 13.6182 13.8285 13.5067 13.4968 13.4477C13.2575 13.4052 12.9569 13.3683 12.6953 13.3404Z" fill="#FFB800"/>
<path d="M1.23084 15.9275C1.03863 15.9275 0.882812 15.7717 0.882812 15.5795V15.1636C0.882812 15.0422 0.945705 14.9288 1.05163 14.8695C2.49483 14.0616 4.21679 13.9788 6.33758 13.7608C6.37361 13.7571 6.40523 13.7853 6.40517 13.8216L6.40677 14.6513C6.40711 14.8275 6.50044 14.9903 6.65185 15.0787C6.73361 15.1265 6.69984 15.2521 6.60516 15.2535C4.67807 15.2828 3.43136 15.43 1.94192 15.9104C1.907 15.9216 1.87031 15.9275 1.83362 15.9275H1.23084Z" fill="#FFB800"/>
<path d="M3.97938 13.3404C4.24632 13.312 4.39038 13.0069 4.23771 12.7861L3.33326 11.4779C3.29305 11.4197 3.27151 11.3507 3.27151 11.2799V6.3325C3.27151 5.95791 2.76088 5.84773 2.60642 6.18899L0.334254 11.2089C0.283806 11.3203 0.295582 11.4501 0.365271 11.5506L1.75048 13.5493C1.83462 13.6707 1.9861 13.7258 2.12905 13.6886C2.39949 13.6182 2.84617 13.5067 3.17791 13.4477C3.41712 13.4052 3.71774 13.3683 3.97938 13.3404Z" fill="#FFB800"/>
<path d="M11.4596 11.5264C11.5199 11.4391 11.5372 11.3289 11.5063 11.2273L8.67991 1.92295C8.58014 1.5945 8.11546 1.59354 8.01433 1.92157L5.14549 11.2267C5.11405 11.3286 5.13112 11.4394 5.19179 11.5271L6.23635 13.038C6.28157 13.1034 6.38414 13.0715 6.3843 12.992C6.38465 12.8157 6.47797 12.653 6.62936 12.5645L7.34209 12.1483L8.05641 11.7348C8.13927 11.6869 8.23366 11.6651 8.32597 11.6695C8.4183 11.6651 8.51158 11.6869 8.59446 11.7348L9.30877 12.1483L10.0215 12.5645C10.1729 12.653 10.2662 12.8157 10.2666 12.992C10.2667 13.0715 10.3693 13.1034 10.4145 13.038L11.4596 11.5264Z" fill="#FFB800"/>
<path fill-rule="evenodd" clip-rule="evenodd" d="M8.53497 15.3991C8.41946 15.4655 8.27736 15.4655 8.16185 15.3991L7.61805 15.0866L7.07549 14.7719C6.96022 14.7051 6.88917 14.582 6.88891 14.4488L6.8877 13.8216L6.88891 13.1944C6.88917 13.0611 6.96022 12.9381 7.07549 12.8712L7.61805 12.5565L8.16185 12.244C8.27736 12.1776 8.41946 12.1776 8.53497 12.244L9.07877 12.5565L9.62133 12.8712C9.73658 12.9381 9.80763 13.0611 9.80789 13.1944L9.80912 13.8216L9.80789 14.4488C9.80763 14.582 9.73658 14.7051 9.62133 14.7719L9.07877 15.0866L8.53497 15.3991ZM8.95675 13.608C8.95675 13.4158 8.80093 13.2599 8.60872 13.2599H8.13479C7.94258 13.2599 7.78676 13.4158 7.78676 13.608V14.0819C7.78676 14.2741 7.94258 14.43 8.13479 14.43H8.60872C8.80093 14.43 8.95675 14.2741 8.95675 14.0819V13.608Z" fill="#FFB800"/>
</svg>
