<svg width="26" height="27" viewBox="0 0 26 27" fill="none" xmlns="http://www.w3.org/2000/svg">
<rect y="0.336182" width="25.7899" height="25.7899" rx="12.895" fill="#101529"/>
<path d="M19.3891 11.0778C19.3074 10.2883 19.1314 9.41559 18.4838 8.95697C17.9823 8.60131 17.323 8.58816 16.7075 8.58889C15.4065 8.58889 14.1048 8.59109 12.8038 8.59182C11.5524 8.59328 10.3011 8.59401 9.04969 8.59547C8.52695 8.59547 8.01881 8.5553 7.5333 8.78169C7.11642 8.97595 6.79008 9.34548 6.59369 9.75664C6.32136 10.3285 6.26442 10.9762 6.23157 11.6087C6.17097 12.7604 6.17754 13.915 6.24982 15.0659C6.30311 15.9058 6.43818 16.834 7.08722 17.3693C7.66253 17.8432 8.47438 17.8666 9.22053 17.8673C11.5889 17.8695 13.958 17.8717 16.3272 17.8732C16.6309 17.8739 16.9477 17.8681 17.2573 17.8345C17.8662 17.7687 18.4466 17.5942 18.8379 17.1429C19.2329 16.6879 19.3344 16.0547 19.3942 15.4552C19.5403 14.0004 19.5388 12.5318 19.3891 11.0778ZM11.4341 15.2704V11.1917L14.9648 13.2307L11.4341 15.2704Z" fill="#798CB4"/>
</svg>
