<svg width="62" height="38" viewBox="0 0 62 38" fill="none" xmlns="http://www.w3.org/2000/svg">
<path d="M56.4803 0.609497H4.25466C2.03594 0.609497 0.237305 2.40803 0.237305 4.62663V32.7465C0.237305 34.9651 2.03594 36.7636 4.25466 36.7636H56.4803C58.699 36.7636 60.4977 34.9651 60.4977 32.7465V4.62663C60.4977 2.40803 58.699 0.609497 56.4803 0.609497Z" fill="#101529"/>
<path opacity="0.2" d="M45.6485 24.9026V24.5761H45.7883V24.5093H45.4619V24.5761H45.6017V24.9026H45.6485ZM46.3012 24.9026V24.5066H46.2083L46.092 24.7627L45.9756 24.5066H45.8826V24.9026H45.9495V24.5996L46.0659 24.8557H46.1327L46.2491 24.5996V24.9026H46.3012Z" fill="white"/>
<path opacity="0.35" d="M24.3403 28.7308C29.8871 28.7308 34.3837 24.2344 34.3837 18.688C34.3837 13.1415 29.8871 8.64514 24.3403 8.64514C18.7935 8.64514 14.2969 13.1415 14.2969 18.688C14.2969 24.2344 18.7935 28.7308 24.3403 28.7308Z" fill="url(#paint0_linear_1_60198)"/>
<path opacity="0.25" d="M36.3901 28.7308C41.9369 28.7308 46.4335 24.2344 46.4335 18.688C46.4335 13.1415 41.9369 8.64514 36.3901 8.64514C30.8433 8.64514 26.3467 13.1415 26.3467 18.688C26.3467 24.2344 30.8433 28.7308 36.3901 28.7308Z" fill="url(#paint1_linear_1_60198)"/>
<defs>
<linearGradient id="paint0_linear_1_60198" x1="24.3403" y1="8.64514" x2="24.3403" y2="28.7308" gradientUnits="userSpaceOnUse">
<stop stop-color="white"/>
</linearGradient>
<linearGradient id="paint1_linear_1_60198" x1="36.3901" y1="8.64514" x2="36.3901" y2="28.7308" gradientUnits="userSpaceOnUse">
<stop stop-color="white"/>
</linearGradient>
</defs>
</svg>
