<svg width="69" height="38" viewBox="0 0 69 38" fill="none" xmlns="http://www.w3.org/2000/svg">
<path d="M64.4164 0.375244H4.62923C2.38162 0.375244 0.55957 2.19734 0.55957 4.44501V32.9334C0.55957 35.181 2.38162 37.0031 4.62923 37.0031H64.4164C66.664 37.0031 68.4861 35.181 68.4861 32.9334V4.44501C68.4861 2.19734 66.664 0.375244 64.4164 0.375244Z" fill="#101529"/>
<path d="M54.236 22.3934H52.2819V18.5545H50.4004V22.3934H48.4463V16.9205H54.236V22.3934Z" fill="url(#paint0_linear_1_60213)" fill-opacity="0.5"/>
<path fill-rule="evenodd" clip-rule="evenodd" d="M44.4359 22.5895C46.1852 22.5895 47.4843 21.5169 47.4843 19.8909C47.4843 18.3171 46.5258 17.2953 44.9241 17.2953C44.1849 17.2953 43.5749 17.5555 43.1155 18.0045C43.2252 17.0765 44.0099 16.3991 44.8739 16.3991C45.0733 16.3991 46.5745 16.3958 46.5745 16.3958L47.4234 14.7714C47.4234 14.7714 45.5387 14.8143 44.6626 14.8143C42.6607 14.8491 41.3086 16.6688 41.3086 18.8788C41.3086 21.4535 42.6273 22.5895 44.4359 22.5895ZM44.4466 18.7342C45.096 18.7342 45.5463 19.161 45.5463 19.8907C45.5463 20.5475 45.1463 21.0887 44.4466 21.0901C43.7773 21.0901 43.327 20.5887 43.327 19.9019C43.327 19.172 43.7773 18.7342 44.4466 18.7342Z" fill="url(#paint1_linear_1_60213)" fill-opacity="0.5"/>
<path d="M39.7194 20.5594C39.7194 20.5594 39.2579 20.8253 38.5687 20.8757C37.7763 20.8992 37.0703 20.3988 37.0703 19.5096C37.0703 18.6422 37.6933 18.1451 38.5488 18.1451C39.0733 18.1451 39.7672 18.5086 39.7672 18.5086C39.7672 18.5086 40.2749 17.577 40.5379 17.111C40.0563 16.7459 39.4148 16.5458 38.6687 16.5458C36.7856 16.5458 35.3271 17.7735 35.3271 19.4986C35.3271 21.2456 36.6979 22.4448 38.6687 22.4087C39.2195 22.3881 39.9794 22.1947 40.4426 21.8972L39.7194 20.5594Z" fill="url(#paint2_linear_1_60213)" fill-opacity="0.5"/>
<path d="M14.7939 12.3679L17.5046 17.2131V20.1684L14.7971 25.004L14.7956 18.6859L14.7939 12.3679Z" fill="#666976"/>
<path d="M25.2061 15.4486L27.746 13.8918L32.9443 13.887L25.2061 18.6275V15.4486Z" fill="#676A77"/>
<path d="M25.1998 12.3408L25.2141 18.7556L22.4971 17.0862V7.49719L25.1998 12.3408Z" fill="#717480"/>
<path d="M32.9524 13.8898L27.7541 13.8947L25.1998 12.3408L22.4971 7.49719L32.9524 13.8898Z" fill="#717480"/>
<path d="M25.2141 25.0296V21.9173L22.4971 20.2795L22.4986 29.8781L25.2141 25.0296Z" fill="#727581"/>
<path d="M27.7355 23.4884L17.5046 17.2131L14.7939 12.3679L32.929 23.4819L27.7355 23.4884Z" fill="#6B6E7A"/>
<path d="M22.4971 29.8792L25.2126 25.0306L27.7463 23.4881L32.9398 23.4817L22.4971 29.8792Z" fill="#646875"/>
<path d="M14.7939 25.0045L22.5039 20.2815L19.9119 18.6912L17.5015 20.1689L14.7939 25.0045Z" fill="#696C79"/>
<defs>
<linearGradient id="paint0_linear_1_60213" x1="34.5161" y1="7.49627" x2="34.5161" y2="29.88" gradientUnits="userSpaceOnUse">
<stop stop-color="white"/>
<stop offset="1" stop-color="white" stop-opacity="0.5"/>
</linearGradient>
<linearGradient id="paint1_linear_1_60213" x1="34.5189" y1="7.49665" x2="34.5189" y2="29.8804" gradientUnits="userSpaceOnUse">
<stop stop-color="white"/>
<stop offset="1" stop-color="white" stop-opacity="0.5"/>
</linearGradient>
<linearGradient id="paint2_linear_1_60213" x1="34.5203" y1="7.49441" x2="34.5203" y2="29.8781" gradientUnits="userSpaceOnUse">
<stop stop-color="white"/>
<stop offset="1" stop-color="white" stop-opacity="0.5"/>
</linearGradient>
</defs>
</svg>
