<svg width="77" height="38" viewBox="0 0 77 38" fill="none" xmlns="http://www.w3.org/2000/svg">
<path d="M72.2019 0.545654H5.1021C2.87595 0.545654 1.07129 2.35027 1.07129 4.57638V32.7914C1.07129 35.0175 2.87595 36.8222 5.1021 36.8222H72.2019C74.428 36.8222 76.2327 35.0175 76.2327 32.7914V4.57638C76.2327 2.35027 74.428 0.545654 72.2019 0.545654Z" fill="#101529"/>
<path opacity="0.5" d="M33.0287 11.3572L26.8722 26.0213H22.8508L19.8125 14.3246C19.7792 14.0508 19.6784 13.7895 19.5194 13.564C19.3603 13.3386 19.1479 13.1561 18.9011 13.0328C17.7175 12.4699 16.4665 12.0615 15.1787 11.8175L15.2553 11.3619H21.712C22.1401 11.3518 22.5567 11.5019 22.88 11.7829C23.2033 12.0639 23.4099 12.4555 23.4595 12.8809L25.0528 21.3829L29.0025 11.4326H33.0287V11.3572ZM48.7518 21.2311C48.7518 17.357 43.435 17.1296 43.435 15.4587C43.435 14.9264 43.9672 14.3954 45.0306 14.2434C46.3115 14.1038 47.6054 14.3416 48.753 14.9275L49.4371 11.8129C48.2952 11.3813 47.0873 11.1499 45.8667 11.1288C42.1443 11.1288 39.4888 13.1001 39.4888 15.9897C39.4888 18.1164 41.3883 19.2563 42.8308 19.9393C44.2733 20.6223 44.8022 21.0792 44.8022 21.7621C44.8022 22.7502 43.6623 23.2058 42.5235 23.2058C41.178 23.2146 39.8497 22.9021 38.6492 22.2944L37.9651 25.4844C39.2988 25.9894 40.7135 26.2468 42.1397 26.244C46.0893 26.244 48.6717 24.2727 48.7494 21.2311M58.6258 26.0213H62.1244L59.0863 11.3619H55.8162C55.4733 11.3549 55.1368 11.4531 54.8515 11.6432C54.5662 11.8333 54.346 12.1062 54.2205 12.4252L48.5245 26.0213H52.4741L53.2337 23.8181H58.0948L58.6258 26.0213ZM54.3724 20.8565L56.3438 15.3879L57.4836 20.8565H54.3724ZM38.422 11.3572L35.3073 26.0213H31.5107L34.6254 11.3619H38.422V11.3572Z" fill="url(#paint0_linear_1_60226)"/>
<defs>
<linearGradient id="paint0_linear_1_60226" x1="38.6515" y1="11.1288" x2="38.6515" y2="26.244" gradientUnits="userSpaceOnUse">
<stop stop-color="white"/>
</linearGradient>
</defs>
</svg>
