<svg width="62" height="37" viewBox="0 0 62 37" fill="none" xmlns="http://www.w3.org/2000/svg">
<path d="M57.1082 0.302917H4.88259C2.66387 0.302917 0.865234 2.10145 0.865234 4.32005V32.4399C0.865234 34.6585 2.66387 36.4571 4.88259 36.4571H57.1082C59.327 36.4571 61.1256 34.6585 61.1256 32.4399V4.32005C61.1256 2.10145 59.327 0.302917 57.1082 0.302917Z" fill="#101529"/>
<path opacity="0.2" d="M46.2765 24.5959V24.2695H46.4162V24.2027H46.0898V24.2695H46.2296V24.5959H46.2765ZM46.9292 24.5959V24.2H46.8363L46.7199 24.4561L46.6035 24.2H46.5105V24.5959H46.5774V24.293L46.6938 24.5491H46.7606L46.877 24.293V24.5959H46.9292Z" fill="white"/>
<path opacity="0.35" d="M24.9692 28.4241C30.516 28.4241 35.0126 23.9278 35.0126 18.3813C35.0126 12.8349 30.516 8.3385 24.9692 8.3385C19.4224 8.3385 14.9258 12.8349 14.9258 18.3813C14.9258 23.9278 19.4224 28.4241 24.9692 28.4241Z" fill="url(#paint0_linear_1_57555)"/>
<path opacity="0.25" d="M37.02 28.4241C42.5668 28.4241 47.0634 23.9278 47.0634 18.3813C47.0634 12.8349 42.5668 8.3385 37.02 8.3385C31.4732 8.3385 26.9766 12.8349 26.9766 18.3813C26.9766 23.9278 31.4732 28.4241 37.02 28.4241Z" fill="url(#paint1_linear_1_57555)"/>
<defs>
<linearGradient id="paint0_linear_1_57555" x1="24.9692" y1="8.3385" x2="24.9692" y2="28.4241" gradientUnits="userSpaceOnUse">
<stop stop-color="white"/>
</linearGradient>
<linearGradient id="paint1_linear_1_57555" x1="37.02" y1="8.3385" x2="37.02" y2="28.4241" gradientUnits="userSpaceOnUse">
<stop stop-color="white"/>
</linearGradient>
</defs>
</svg>
