<svg width="19" height="18" viewBox="0 0 19 18" fill="none" xmlns="http://www.w3.org/2000/svg">
<g clip-path="url(#clip0_1_57486)">
<path d="M16.672 2.00018H11.4246V4.18661C11.4246 4.41857 11.3324 4.64102 11.1684 4.80503C11.0044 4.96905 10.7819 5.06119 10.55 5.06119C10.318 5.06119 10.0956 4.96905 9.93157 4.80503C9.76756 4.64102 9.67542 4.41857 9.67542 4.18661V2.00018H2.67883C2.21493 2.00018 1.77003 2.18447 1.442 2.5125C1.11397 2.84052 0.929688 3.28543 0.929688 3.74933V6.37305C0.929688 6.605 1.02183 6.82745 1.18584 6.99146C1.34986 7.15548 1.57231 7.24762 1.80426 7.24762C2.26816 7.24762 2.71306 7.4319 3.04109 7.75993C3.36912 8.08796 3.55341 8.53286 3.55341 8.99677C3.55341 9.46067 3.36912 9.90557 3.04109 10.2336C2.71306 10.5616 2.26816 10.7459 1.80426 10.7459C1.57231 10.7459 1.34986 10.8381 1.18584 11.0021C1.02183 11.1661 0.929688 11.3885 0.929688 11.6205V14.2442C0.929688 14.7081 1.11397 15.153 1.442 15.481C1.77003 15.8091 2.21493 15.9933 2.67883 15.9933H9.67542V13.8069C9.67542 13.575 9.76756 13.3525 9.93157 13.1885C10.0956 13.0245 10.318 12.9323 10.55 12.9323C10.7819 12.9323 11.0044 13.0245 11.1684 13.1885C11.3324 13.3525 11.4246 13.575 11.4246 13.8069V15.9933H16.672C17.1359 15.9933 17.5808 15.8091 17.9088 15.481C18.2369 15.153 18.4211 14.7081 18.4211 14.2442V3.74933C18.4211 3.28543 18.2369 2.84052 17.9088 2.5125C17.5808 2.18447 17.1359 2.00018 16.672 2.00018ZM11.4246 10.5972C11.4246 10.8292 11.3324 11.0516 11.1684 11.2156C11.0044 11.3797 10.7819 11.4718 10.55 11.4718C10.318 11.4718 10.0956 11.3797 9.93157 11.2156C9.76756 11.0516 9.67542 10.8292 9.67542 10.5972V7.3963C9.67542 7.16435 9.76756 6.9419 9.93157 6.77788C10.0956 6.61387 10.318 6.52172 10.55 6.52172C10.7819 6.52172 11.0044 6.61387 11.1684 6.77788C11.3324 6.9419 11.4246 7.16435 11.4246 7.3963V10.5972Z" fill="#7A8CB4"/>
</g>
<defs>
<clipPath id="clip0_1_57486">
<rect width="18" height="18" fill="white" transform="translate(0.652344 0.00702286)"/>
</clipPath>
</defs>
</svg>
