<svg width="38" height="36" viewBox="0 0 38 36" fill="none" xmlns="http://www.w3.org/2000/svg">
<path d="M35.3972 35.4639C35.8397 35.4639 36.1985 35.1051 36.1985 34.6625V33.705C36.1985 33.4255 36.0537 33.1644 35.8098 33.0279C32.487 31.1677 28.5223 30.9772 23.6393 30.4751C23.5564 30.4666 23.4836 30.5316 23.4838 30.615V30.615L23.4801 32.5254C23.4793 32.9312 23.2644 33.306 22.9158 33.5096V33.5096C22.7276 33.6195 22.8053 33.9087 23.0233 33.912C27.4602 33.9794 30.3307 34.3183 33.7599 35.4243C33.8403 35.4502 33.9248 35.4639 34.0093 35.4639H35.3972Z" fill="#FFB800"/>
<path d="M29.0747 29.5064C28.4601 29.4409 28.1284 28.7385 28.4799 28.2301L30.5623 25.218C30.6549 25.0841 30.7045 24.9251 30.7045 24.7623V13.3713C30.7045 12.5088 31.8802 12.2551 32.2358 13.0408L37.4673 24.5986C37.5834 24.8553 37.5563 25.154 37.3959 25.3855L34.2065 29.9872C34.0128 30.2667 33.664 30.3936 33.3349 30.308C32.7122 30.146 31.6838 29.8893 30.92 29.7534C30.3693 29.6554 29.6771 29.5706 29.0747 29.5064Z" fill="#FFB800"/>
<path d="M2.68021 35.4639C2.23766 35.4639 1.87891 35.1051 1.87891 34.6625V33.705C1.87891 33.4255 2.02371 33.1644 2.2676 33.0279C5.59042 31.1677 9.55507 30.9772 14.438 30.4751C14.521 30.4666 14.5938 30.5316 14.5936 30.615V30.615L14.5973 32.5254C14.5981 32.9312 14.813 33.306 15.1616 33.5096V33.5096C15.3498 33.6195 15.2721 33.9087 15.0541 33.912C10.6171 33.9794 7.74669 34.3183 4.31741 35.4243C4.23701 35.4502 4.15253 35.4639 4.06805 35.4639H2.68021Z" fill="#FFB800"/>
<path d="M9.00559 29.5064C9.62018 29.4409 9.95186 28.7385 9.60037 28.2301L7.51796 25.218C7.42537 25.0841 7.37578 24.9251 7.37578 24.7623V13.3713C7.37578 12.5088 6.20011 12.2551 5.84447 13.0408L0.613023 24.5986C0.496872 24.8553 0.523985 25.154 0.684437 25.3855L3.87374 29.9872C4.06746 30.2667 4.41625 30.3936 4.74538 30.308C5.36804 30.146 6.39648 29.8893 7.16027 29.7534C7.71103 29.6554 8.40319 29.5706 9.00559 29.5064Z" fill="#FFB800"/>
<path d="M26.2264 25.3307C26.3654 25.1296 26.4051 24.876 26.334 24.6421L19.8265 3.21964C19.5968 2.46341 18.5269 2.46119 18.2941 3.21646L11.6888 24.6406C11.6165 24.8753 11.6558 25.1303 11.7955 25.3324L14.2004 28.811C14.3046 28.9616 14.5407 28.8882 14.5411 28.7051V28.7051C14.5419 28.2993 14.7568 27.9245 15.1053 27.7209L16.7463 26.7625L18.391 25.8105C18.5817 25.7001 18.7991 25.65 19.0116 25.6602C19.2242 25.65 19.4389 25.7001 19.6298 25.8105L21.2744 26.7625L22.9154 27.7209C23.264 27.9245 23.4788 28.2993 23.4796 28.7051V28.7051C23.48 28.8882 23.7161 28.9616 23.8203 28.811L26.2264 25.3307Z" fill="#FFB800"/>
<path fill-rule="evenodd" clip-rule="evenodd" d="M19.4958 34.2472C19.2299 34.4 18.9027 34.4 18.6367 34.2472L17.3847 33.5276L16.1355 32.8031C15.8701 32.6492 15.7065 32.3658 15.7059 32.0591L15.7031 30.615L15.7059 29.1709C15.7065 28.8641 15.8701 28.5808 16.1355 28.4269L17.3847 27.7024L18.6367 26.9828C18.9027 26.8299 19.2299 26.8299 19.4958 26.9828L20.7479 27.7024L21.9971 28.4269C22.2624 28.5808 22.426 28.8641 22.4266 29.1709L22.4294 30.615L22.4266 32.0591C22.426 32.3658 22.2624 32.6492 21.9971 32.8031L20.7479 33.5276L19.4958 34.2472ZM20.4669 30.1232C20.4669 29.6807 20.1082 29.3219 19.6656 29.3219H18.5744C18.1319 29.3219 17.7731 29.6807 17.7731 30.1232V31.2144C17.7731 31.657 18.1319 32.0157 18.5744 32.0157H19.6656C20.1082 32.0157 20.4669 31.657 20.4669 31.2144V30.1232Z" fill="#FFB800"/>
</svg>
