<svg width="19" height="18" viewBox="0 0 19 18" fill="none" xmlns="http://www.w3.org/2000/svg">
<path d="M2.26562 9.50791V16.3672C2.26562 17.2691 2.99681 18.0003 3.89877 18.0003H8.58101C8.70128 18.0003 8.79878 17.9028 8.79878 17.7826V10.9233C8.79878 10.6224 9.04225 10.3789 9.34317 10.3789C9.64409 10.3789 9.88757 10.6224 9.88757 10.9233V17.7826C9.88757 17.9028 9.98506 18.0003 10.1053 18.0003H14.7865C15.6885 18.0003 16.4197 17.2691 16.4197 16.3671V9.50791C16.4197 9.38764 16.3222 9.29018 16.2019 9.29018H2.4834C2.36312 9.29014 2.26562 9.38764 2.26562 9.50791Z" fill="#798CB4"/>
<path d="M18.0507 3.84579H16.0039C16.2649 3.45399 16.4175 2.975 16.4175 2.4742C16.4175 1.46144 15.8404 0.590099 14.904 0.209468C13.9678 -0.182875 12.9335 0.0244488 12.2257 0.742655L9.34052 3.62781L6.45537 0.742655C5.7475 0.0244488 4.71323 -0.182875 3.77703 0.209468C2.84058 0.590099 2.26348 1.46144 2.26348 2.4742C2.26348 2.975 2.41607 3.45399 2.67708 3.84579H0.630331C0.325436 3.84579 0.0859375 4.085 0.0859375 4.39019V7.65651C0.0859375 7.96166 0.325436 8.20091 0.630331 8.20091H8.80704V5.47897C8.80704 5.17383 9.03566 4.94521 9.34052 4.93458H9.3514C9.65629 4.93458 9.89579 5.17383 9.89579 5.47897V8.20091H18.0507C18.3556 8.20091 18.5951 7.96166 18.5951 7.65651V4.39019C18.5951 4.085 18.3556 3.84579 18.0507 3.84579ZM4.72411 3.84579C3.96202 3.84579 3.35226 3.236 3.35226 2.4742C3.35226 1.79905 3.78766 1.38541 4.20155 1.21106C4.35385 1.14566 4.53913 1.10207 4.73503 1.10207C5.0508 1.10207 5.39904 1.21106 5.69302 1.50504L8.02315 3.84579H4.72411ZM13.9569 3.84579H10.6579L12.9881 1.50504C13.467 1.03667 14.0768 1.04784 14.4795 1.21106C14.8934 1.38541 15.3288 1.79905 15.3288 2.4742C15.3288 3.236 14.719 3.84579 13.9569 3.84579Z" fill="#798CB4"/>
</svg>
