<svg width="49" height="14" viewBox="0 0 49 14" fill="none" xmlns="http://www.w3.org/2000/svg">
<path d="M35.3281 6.34033V13.8578H39.5045V9.403H44.2377C46.2285 9.38908 47.9199 8.11529 48.5603 6.34033H35.3281Z" fill="#878A94"/>
<path d="M34.7695 0.145508C35.0132 3.21514 37.9227 5.6444 41.4726 5.6444C41.4865 5.6444 48.7325 5.6444 48.7325 5.6444C48.7882 5.36597 48.8161 5.07363 48.8161 4.77432C48.8161 2.22673 46.7627 0.16639 44.2221 0.145508H34.7695Z" fill="#878A94"/>
<path d="M28.5884 5.56783C28.6372 5.4843 28.7137 5.43558 28.8112 5.43558C28.9504 5.43558 29.0548 5.54695 29.0618 5.6792V13.7883H33.2381V0.145508H29.0618C28.5327 0.16639 27.9341 0.549224 27.7114 1.02951L24.3912 8.15718C24.3842 8.18502 24.3703 8.21287 24.3564 8.24071C24.3076 8.31031 24.2241 8.35904 24.1267 8.35904C23.9735 8.35904 23.8482 8.23375 23.8482 8.08061V0.145508H19.6719V13.7883H23.8482C24.3703 13.7605 24.955 13.3776 25.1777 12.9043L28.5884 5.58871C28.5815 5.58175 28.5884 5.57479 28.5884 5.56783Z" fill="#878A94"/>
<path d="M12.9963 5.80511L10.5531 13.7889H7.54614L5.10993 5.79814C5.08904 5.67285 4.97767 5.5754 4.83846 5.5754C4.68533 5.5754 4.567 5.7007 4.567 5.84687V13.782H0.390625V0.13916H3.97534H5.04032C5.80599 0.13916 6.61342 0.737774 6.83616 1.46864L8.86866 8.11603C8.97307 8.45014 9.13316 8.44318 9.23757 8.11603L11.2701 1.46864C11.4928 0.730813 12.3002 0.13916 13.0659 0.13916H14.1309H17.7156V13.782H13.5392V5.84687C13.5392 5.84687 13.5392 5.84687 13.5392 5.83991C13.5392 5.68677 13.4139 5.56844 13.2678 5.56844C13.1286 5.5754 13.0172 5.67285 12.9963 5.80511Z" fill="#878A94"/>
</svg>
