<svg width="21" height="20" viewBox="0 0 21 20" fill="none" xmlns="http://www.w3.org/2000/svg">
<path d="M4.43014 8.56333C4.43671 8.62279 4.44339 8.68292 4.45014 8.74363L4.55477 9.68531C4.62821 10.3466 4.6919 10.9201 4.80302 11.3778C4.92257 11.8702 5.11964 12.334 5.5306 12.7018C5.94157 13.0697 6.42432 13.2143 6.92687 13.2787C7.39402 13.3386 7.97105 13.3386 8.63644 13.3386H13.0946C13.5508 13.3386 13.9534 13.3386 14.2896 13.3044C14.6539 13.2674 15.0079 13.1855 15.3482 12.9806C15.6886 12.7756 15.9266 12.5011 16.1298 12.1965C16.3173 11.9154 16.5057 11.5595 16.719 11.1565L18.7922 7.24052C19.5278 5.85108 18.5205 4.17815 16.9484 4.17815H8.53649C7.71804 4.17811 7.01787 4.17807 6.46364 4.2555C6.18314 4.2947 5.90828 4.35745 5.65048 4.46443L5.53068 3.38631C5.42274 2.41483 4.6016 1.67987 3.62415 1.67987H3.20776C2.74784 1.67987 2.375 2.05271 2.375 2.51264C2.375 2.97256 2.74784 3.3454 3.20776 3.3454H3.62415C3.75293 3.3454 3.86112 3.44224 3.87534 3.57023L4.43014 8.56333Z" fill="#7A8CB4"/>
<path fill-rule="evenodd" clip-rule="evenodd" d="M12.3672 16.253C12.3672 15.1032 13.2993 14.1711 14.4491 14.1711C15.5989 14.1711 16.531 15.1032 16.531 16.253C16.531 17.4028 15.5989 18.3349 14.4491 18.3349C13.2993 18.3349 12.3672 17.4028 12.3672 16.253Z" fill="#7A8CB4"/>
<path fill-rule="evenodd" clip-rule="evenodd" d="M4.87109 16.253C4.87109 15.1032 5.8032 14.1711 6.953 14.1711C8.10281 14.1711 9.03491 15.1032 9.03491 16.253C9.03491 17.4028 8.10281 18.3349 6.953 18.3349C5.8032 18.3349 4.87109 17.4028 4.87109 16.253Z" fill="#7A8CB4"/>
</svg>
