<svg width="22" height="21" viewBox="0 0 22 21" fill="none" xmlns="http://www.w3.org/2000/svg">
<g clip-path="url(#clip0_1_61308)">
<path d="M19.2176 2.32495H13.0956V4.87579C13.0956 5.1464 12.9881 5.40592 12.7967 5.59727C12.6054 5.78862 12.3459 5.89612 12.0752 5.89612C11.8046 5.89612 11.5451 5.78862 11.3538 5.59727C11.1624 5.40592 11.0549 5.1464 11.0549 4.87579V2.32495H2.89223C2.35101 2.32495 1.83196 2.53995 1.44926 2.92265C1.06656 3.30535 0.851563 3.8244 0.851562 4.36562V7.42663C0.851563 7.69724 0.959062 7.95676 1.15041 8.14811C1.34176 8.33946 1.60129 8.44696 1.8719 8.44696C2.41312 8.44696 2.93217 8.66196 3.31487 9.04466C3.69757 9.42736 3.91257 9.94641 3.91257 10.4876C3.91257 11.0288 3.69757 11.5479 3.31487 11.9306C2.93217 12.3133 2.41312 12.5283 1.8719 12.5283C1.60129 12.5283 1.34176 12.6358 1.15041 12.8271C0.959062 13.0185 0.851563 13.278 0.851562 13.5486V16.6096C0.851563 17.1509 1.06656 17.6699 1.44926 18.0526C1.83196 18.4353 2.35101 18.6503 2.89223 18.6503H11.0549V16.0995C11.0549 15.8289 11.1624 15.5693 11.3538 15.378C11.5451 15.1866 11.8046 15.0791 12.0752 15.0791C12.3459 15.0791 12.6054 15.1866 12.7967 15.378C12.9881 15.5693 13.0956 15.8289 13.0956 16.0995V18.6503H19.2176C19.7588 18.6503 20.2779 18.4353 20.6606 18.0526C21.0433 17.6699 21.2583 17.1509 21.2583 16.6096V4.36562C21.2583 3.8244 21.0433 3.30535 20.6606 2.92265C20.2779 2.53995 19.7588 2.32495 19.2176 2.32495ZM13.0956 12.3548C13.0956 12.6255 12.9881 12.885 12.7967 13.0763C12.6054 13.2677 12.3459 13.3752 12.0752 13.3752C11.8046 13.3752 11.5451 13.2677 11.3538 13.0763C11.1624 12.885 11.0549 12.6255 11.0549 12.3548V8.62042C11.0549 8.34981 11.1624 8.09028 11.3538 7.89893C11.5451 7.70758 11.8046 7.60008 12.0752 7.60008C12.3459 7.60008 12.6054 7.70758 12.7967 7.89893C12.9881 8.09028 13.0956 8.34981 13.0956 8.62042V12.3548Z" fill="#5D6F93"/>
</g>
<defs>
<clipPath id="clip0_1_61308">
<rect width="21" height="21" fill="white" transform="translate(0.523438)"/>
</clipPath>
</defs>
</svg>
