<svg width="20" height="19" viewBox="0 0 20 19" fill="none" xmlns="http://www.w3.org/2000/svg">
<path d="M13.7811 0.626465H9.6407C7.76508 0.626465 6.27863 0.626465 5.11646 0.758151C3.91922 0.893397 2.95057 1.17812 2.18714 1.81965C1.42264 2.46118 1.08346 3.27532 0.922903 4.28076C0.766602 5.25773 0.766602 6.50608 0.766602 8.08187V13.2764C0.766602 14.6181 1.74482 15.7677 3.13452 16.25C3.06328 15.4403 3.06328 14.3058 3.06328 13.3609V8.90313C3.06328 7.76333 3.06328 6.78013 3.18874 5.99357C3.32378 5.15007 3.62788 4.34216 4.40832 3.68639C5.18877 3.03063 6.15103 2.77527 7.15477 2.66137C8.09045 2.55638 9.26005 2.55638 10.6179 2.55638H13.8821C15.2389 2.55638 16.4063 2.55638 17.3431 2.66137C17.0624 2.062 16.5724 1.54729 15.937 1.18431C15.3017 0.821342 14.5504 0.626948 13.7811 0.626465Z" fill="white"/>
<path d="M4.59473 8.9876C4.59473 6.56208 4.59473 5.34932 5.49213 4.59568C6.38847 3.84204 7.83134 3.84204 10.7192 3.84204H13.7814C16.6682 3.84204 18.1122 3.84204 19.0096 4.59568C19.9059 5.34932 19.9059 6.56208 19.9059 8.9876V13.2763C19.9059 15.7018 19.9059 16.9146 19.0096 17.6682C18.1122 18.4219 16.6682 18.4219 13.7814 18.4219H10.7192C7.8324 18.4219 6.38847 18.4219 5.49213 17.6682C4.59473 16.9146 4.59473 15.7018 4.59473 13.2763V8.9876Z" fill="white"/>
</svg>
