<svg width="23" height="22" viewBox="0 0 23 22" fill="none" xmlns="http://www.w3.org/2000/svg">
<path d="M4.61766 9.41097C4.6249 9.47642 4.63225 9.5426 4.63968 9.60943L4.75485 10.646C4.83569 11.3739 4.9058 12.0052 5.02812 12.509C5.15971 13.051 5.37664 13.5615 5.829 13.9664C6.28138 14.3713 6.81277 14.5306 7.36595 14.6014C7.88016 14.6674 8.51533 14.6673 9.24777 14.6673H14.1551C14.6572 14.6673 15.1004 14.6673 15.4705 14.6297C15.8715 14.589 16.2611 14.4988 16.6358 14.2732C17.0104 14.0477 17.2725 13.7455 17.4961 13.4102C17.7025 13.1007 17.9098 12.709 18.1447 12.2654L20.4267 7.95488C21.2364 6.42545 20.1277 4.58397 18.3971 4.58397H9.13774C8.23684 4.58392 7.46611 4.58387 6.85605 4.66912C6.54729 4.71226 6.24474 4.78133 5.96096 4.89909L5.82909 3.71234C5.71028 2.64299 4.80641 1.83398 3.73047 1.83398H3.27214C2.76588 1.83398 2.35547 2.24439 2.35547 2.75065C2.35547 3.25691 2.76588 3.66732 3.27214 3.66732H3.73047C3.87223 3.66732 3.99132 3.77391 4.00697 3.9148L4.61766 9.41097Z" fill="#5D6F93"/>
<path fill-rule="evenodd" clip-rule="evenodd" d="M13.3594 17.8752C13.3594 16.6095 14.3854 15.5835 15.651 15.5835C16.9167 15.5835 17.9427 16.6095 17.9427 17.8752C17.9427 19.1408 16.9167 20.1668 15.651 20.1668C14.3854 20.1668 13.3594 19.1408 13.3594 17.8752Z" fill="#5D6F93"/>
<path fill-rule="evenodd" clip-rule="evenodd" d="M5.10742 17.8752C5.10742 16.6095 6.13344 15.5835 7.39909 15.5835C8.66474 15.5835 9.69075 16.6095 9.69075 17.8752C9.69075 19.1408 8.66474 20.1668 7.39909 20.1668C6.13344 20.1668 5.10742 19.1408 5.10742 17.8752Z" fill="#5D6F93"/>
</svg>
