<svg width="45" height="42" viewBox="0 0 45 42" fill="none" xmlns="http://www.w3.org/2000/svg">
<path d="M42.235 41.9673C42.7695 41.9673 43.2028 41.534 43.2028 40.9995V39.8431C43.2028 39.5056 43.0279 39.1902 42.7333 39.0253C38.7203 36.7788 33.9322 36.5487 28.035 35.9423C27.9348 35.932 27.8469 36.0106 27.8471 36.1113V36.1113L27.8427 38.4185C27.8417 38.9086 27.5822 39.3612 27.1612 39.6071V39.6071C26.9338 39.7399 27.0277 40.0891 27.291 40.0931C32.6495 40.1744 36.1162 40.5838 40.2577 41.9195C40.3548 41.9508 40.4569 41.9673 40.5589 41.9673H42.235Z" fill="#FFB800"/>
<path d="M34.5972 34.7722C33.855 34.693 33.4544 33.8447 33.8789 33.2307L36.3939 29.593C36.5057 29.4313 36.5656 29.2393 36.5656 29.0427V15.2857C36.5656 14.2441 37.9854 13.9377 38.4149 14.8866L44.733 28.8451C44.8733 29.155 44.8405 29.5158 44.6468 29.7954L40.795 35.3529C40.561 35.6905 40.1398 35.8437 39.7423 35.7403C38.9903 35.5446 37.7483 35.2346 36.8258 35.0705C36.1607 34.9522 35.3248 34.8498 34.5972 34.7722Z" fill="#FFB800"/>
<path d="M2.72165 41.9673C2.18718 41.9673 1.75391 41.534 1.75391 40.9995V39.8431C1.75391 39.5056 1.92879 39.1902 2.22334 39.0253C6.23633 36.7788 11.0245 36.5487 16.9216 35.9423C17.0218 35.932 17.1097 36.0106 17.1096 36.1113V36.1113L17.114 38.4185C17.115 38.9086 17.3745 39.3612 17.7955 39.6071V39.6071C18.0228 39.7399 17.9289 40.0891 17.6657 40.0931C12.3071 40.1744 8.84048 40.5838 4.6989 41.9195C4.6018 41.9508 4.49978 41.9673 4.39775 41.9673H2.72165Z" fill="#FFB800"/>
<path d="M10.3619 34.7722C11.1041 34.693 11.5047 33.8447 11.0802 33.2307L8.56528 29.593C8.45346 29.4313 8.39356 29.2393 8.39356 29.0427V15.2857C8.39356 14.2441 6.9737 13.9377 6.54419 14.8866L0.226133 28.8451C0.0858559 29.155 0.118602 29.5158 0.31238 29.7954L4.16413 35.3529C4.39809 35.6905 4.81933 35.8437 5.21681 35.7403C5.96881 35.5446 7.21086 35.2346 8.13329 35.0705C8.79845 34.9522 9.63438 34.8498 10.3619 34.7722Z" fill="#FFB800"/>
<path d="M31.1565 29.7293C31.3244 29.4865 31.3723 29.1802 31.2864 28.8977L23.4273 3.02565C23.1499 2.11235 21.8578 2.10967 21.5766 3.02181L13.5994 28.8959C13.512 29.1794 13.5594 29.4873 13.7281 29.7314L16.6326 33.9326C16.7584 34.1145 17.0436 34.0258 17.0441 33.8046V33.8046C17.045 33.3145 17.3045 32.8619 17.7255 32.616L19.7073 31.4585L21.6936 30.3089C21.924 30.1755 22.1864 30.1149 22.4431 30.1273C22.6999 30.1149 22.9592 30.1755 23.1897 30.3089L25.1759 31.4585L27.1577 32.616C27.5787 32.8619 27.8382 33.3145 27.8392 33.8046V33.8046C27.8396 34.0258 28.1248 34.1144 28.2506 33.9326L31.1565 29.7293Z" fill="#FFB800"/>
<path fill-rule="evenodd" clip-rule="evenodd" d="M23.0297 40.4976C22.7085 40.6822 22.3134 40.6822 21.9922 40.4976L20.4801 39.6286L18.9714 38.7536C18.6509 38.5677 18.4533 38.2255 18.4526 37.855L18.4492 36.111L18.4526 34.367C18.4533 33.9965 18.6509 33.6543 18.9714 33.4684L20.4801 32.5935L21.9922 31.7244C22.3134 31.5398 22.7085 31.5398 23.0297 31.7244L24.5418 32.5935L26.0504 33.4684C26.3709 33.6543 26.5685 33.9965 26.5692 34.367L26.5726 36.111L26.5692 37.855C26.5685 38.2255 26.3709 38.5677 26.0504 38.7536L24.5418 39.6286L23.0297 40.4976ZM24.2025 35.5171C24.2025 34.9826 23.7692 34.5494 23.2348 34.5494H21.9169C21.3825 34.5494 20.9492 34.9826 20.9492 35.5171V36.835C20.9492 37.3694 21.3825 37.8027 21.9169 37.8027H23.2347C23.7692 37.8027 24.2025 37.3694 24.2025 36.835V35.5171Z" fill="#FFB800"/>
</svg>
