<svg width="62" height="37" viewBox="0 0 62 37" fill="none" xmlns="http://www.w3.org/2000/svg">
<path d="M57.1102 0.302734H4.88454C2.66582 0.302734 0.867188 2.10126 0.867188 4.31986V32.4398C0.867188 34.6584 2.66582 36.4569 4.88454 36.4569H57.1102C59.3289 36.4569 61.1275 34.6584 61.1275 32.4398V4.31986C61.1275 2.10126 59.3289 0.302734 57.1102 0.302734Z" fill="#101529"/>
<path opacity="0.2" d="M46.2765 24.5957V24.2692H46.4162V24.2024H46.0898V24.2692H46.2296V24.5957H46.2765ZM46.9292 24.5957V24.1997H46.8363L46.7199 24.4558L46.6035 24.1997H46.5105V24.5957H46.5774V24.2927L46.6938 24.5488H46.7606L46.877 24.2927V24.5957H46.9292Z" fill="white"/>
<path opacity="0.35" d="M24.9692 28.424C30.516 28.424 35.0126 23.9276 35.0126 18.3812C35.0126 12.8348 30.516 8.33838 24.9692 8.33838C19.4224 8.33838 14.9258 12.8348 14.9258 18.3812C14.9258 23.9276 19.4224 28.424 24.9692 28.424Z" fill="url(#paint0_linear_1_57331)"/>
<path opacity="0.25" d="M37.02 28.424C42.5668 28.424 47.0634 23.9276 47.0634 18.3812C47.0634 12.8348 42.5668 8.33838 37.02 8.33838C31.4732 8.33838 26.9766 12.8348 26.9766 18.3812C26.9766 23.9276 31.4732 28.424 37.02 28.424Z" fill="url(#paint1_linear_1_57331)"/>
<defs>
<linearGradient id="paint0_linear_1_57331" x1="24.9692" y1="8.33838" x2="24.9692" y2="28.424" gradientUnits="userSpaceOnUse">
<stop stop-color="white"/>
</linearGradient>
<linearGradient id="paint1_linear_1_57331" x1="37.02" y1="8.33838" x2="37.02" y2="28.424" gradientUnits="userSpaceOnUse">
<stop stop-color="white"/>
</linearGradient>
</defs>
</svg>
