<svg width="77" height="38" viewBox="0 0 77 38" fill="none" xmlns="http://www.w3.org/2000/svg">
<path d="M72.2009 0.94043H5.10113C2.87497 0.94043 1.07031 2.74505 1.07031 4.97115V33.1862C1.07031 35.4123 2.87497 37.2169 5.10113 37.2169H72.2009C74.427 37.2169 76.2317 35.4123 76.2317 33.1862V4.97115C76.2317 2.74505 74.427 0.94043 72.2009 0.94043Z" fill="#101529"/>
<path opacity="0.5" d="M33.0296 11.7519L26.8732 26.4159H22.8517L19.8135 14.7193C19.7802 14.4454 19.6794 14.1841 19.5204 13.9587C19.3613 13.7333 19.1488 13.5508 18.902 13.4274C17.7185 12.8646 16.4674 12.4561 15.1797 12.2122L15.2563 11.7565H21.7129C22.1411 11.7464 22.5577 11.8966 22.881 12.1775C23.2042 12.4586 23.4109 12.8501 23.4605 13.2756L25.0538 21.7776L29.0035 11.8273H33.0296V11.7519ZM48.7527 21.6257C48.7527 17.7516 43.436 17.5243 43.436 15.8533C43.436 15.3211 43.9682 14.79 45.0316 14.6381C46.3125 14.4984 47.6064 14.7362 48.7539 15.3222L49.4381 12.2076C48.2961 11.776 47.0883 11.5446 45.8677 11.5234C42.1453 11.5234 39.4898 13.4948 39.4898 16.3844C39.4898 18.5111 41.3892 19.651 42.8318 20.334C44.2743 21.017 44.8031 21.4739 44.8031 22.1568C44.8031 23.1448 43.6632 23.6005 42.5245 23.6005C41.1789 23.6093 39.8507 23.2968 38.6502 22.689L37.9661 25.8791C39.2998 26.3841 40.7145 26.6415 42.1407 26.6386C46.0903 26.6386 48.6727 24.6673 48.7504 21.6257M58.6268 26.4159H62.1254L59.0872 11.7565H55.8171C55.4743 11.7496 55.1377 11.8477 54.8525 12.0379C54.5672 12.2279 54.347 12.5009 54.2214 12.8198L48.5255 26.4159H52.4751L53.2347 24.2128H58.0958L58.6268 26.4159ZM54.3734 21.2512L56.3448 15.7826L57.4846 21.2512H54.3734ZM38.423 11.7519L35.3083 26.4159H31.5116L34.6263 11.7565H38.423V11.7519Z" fill="url(#paint0_linear_1_57359)"/>
<defs>
<linearGradient id="paint0_linear_1_57359" x1="38.6525" y1="11.5234" x2="38.6525" y2="26.6386" gradientUnits="userSpaceOnUse">
<stop stop-color="white"/>
</linearGradient>
</defs>
</svg>
