<svg width="14" height="15" viewBox="0 0 14 15" fill="none" xmlns="http://www.w3.org/2000/svg">
<path d="M0.214844 0.212402H6.3179C7.80677 0.212402 9.12968 0.50495 10.2866 1.08995C11.4436 1.66169 12.3411 2.47943 12.9794 3.54313C13.6176 4.59356 13.9365 5.81016 13.9365 7.19297C13.9365 8.57577 13.6176 9.79905 12.9794 10.8627C12.3411 11.9132 11.4436 12.7309 10.2866 13.3159C9.12968 13.8877 7.80677 14.1735 6.3179 14.1735H0.214844V0.212402ZM6.1979 11.9797C7.22178 11.9797 8.11936 11.7868 8.89065 11.4012C9.67501 11.0024 10.2735 10.4439 10.6853 9.72593C11.1111 8.99461 11.3236 8.15031 11.3236 7.19297C11.3236 6.23563 11.1111 5.39795 10.6853 4.67998C10.2735 3.94866 9.67501 3.39022 8.89065 3.00463C8.11936 2.60572 7.22178 2.40632 6.1979 2.40632H2.80743V11.9797H6.1979Z" fill="white"/>
</svg>
