<svg width="14" height="15" viewBox="0 0 14 15" fill="none" xmlns="http://www.w3.org/2000/svg">
<path d="M11.1438 7.03336H13.597V12.5979C12.8789 13.1696 12.0413 13.6084 11.0842 13.9142C10.1267 14.22 9.14296 14.3729 8.13215 14.3729C6.70957 14.3729 5.42634 14.0671 4.28296 13.4555C3.13957 12.8305 2.24199 11.9729 1.5907 10.8827C0.938924 9.79235 0.613281 8.56245 0.613281 7.1929C0.613281 5.8234 0.938924 4.59349 1.5907 3.50319C2.24199 2.41288 3.13957 1.56189 4.28296 0.950281C5.43989 0.325362 6.73619 0.0128784 8.17232 0.0128784C9.34232 0.0128784 10.4059 0.2057 11.3634 0.591297C12.3205 0.976894 13.1252 1.54196 13.7765 2.28654L12.141 3.8821C11.0775 2.81841 9.79425 2.28654 8.29183 2.28654C7.30812 2.28654 6.43038 2.49267 5.65909 2.90483C4.90135 3.31704 4.3028 3.89541 3.86393 4.63999C3.43861 5.38462 3.22618 6.23556 3.22618 7.1929C3.22618 8.12367 3.43861 8.9613 3.86393 9.70593C4.3028 10.4505 4.90135 11.0356 5.65909 11.461C6.43038 11.8865 7.30134 12.0992 8.27199 12.0992C9.36215 12.0992 10.3197 11.8599 11.1438 11.3812V7.03336Z" fill="white"/>
</svg>
