<svg width="20" height="21" viewBox="0 0 20 21" fill="none" xmlns="http://www.w3.org/2000/svg">
<mask id="mask0_1_55512" style="mask-type:luminance" maskUnits="userSpaceOnUse" x="0" y="0" width="20" height="21">
<path d="M0.771484 0.973511H19.9763V20.1783H0.771484V0.973511Z" fill="white"/>
</mask>
<g mask="url(#mask0_1_55512)">
<path fill-rule="evenodd" clip-rule="evenodd" d="M11.5851 1.30793C11.2186 1.08907 10.7997 0.973511 10.3728 0.973511C9.94595 0.973511 9.52704 1.08907 9.16053 1.30793L3.18304 4.86081C2.81123 5.08549 2.50408 5.40279 2.29159 5.78169C2.0791 6.16059 1.96855 6.58814 1.97073 7.02255V14.1283C1.97073 15.0201 2.43285 15.8448 3.18304 16.2901L9.16053 19.8429C9.52704 20.0618 9.94595 20.1774 10.3728 20.1774C10.7997 20.1774 11.2186 20.0618 11.5851 19.8429L17.5626 16.2901C17.9344 16.0654 18.2416 15.7481 18.4541 15.3692C18.6666 14.9903 18.7771 14.5627 18.7749 14.1283V7.02255C18.7749 6.13073 18.3128 5.30612 17.5626 4.86081L11.5851 1.30793ZM8.57238 7.57469C8.25404 7.57469 7.94874 7.70115 7.72364 7.92625C7.49854 8.15135 7.37208 8.45665 7.37208 8.77499V12.3759C7.37208 12.6942 7.49854 12.9995 7.72364 13.2246C7.94874 13.4497 8.25404 13.5762 8.57238 13.5762H12.1733C12.4916 13.5762 12.7969 13.4497 13.022 13.2246C13.2471 12.9995 13.3736 12.6942 13.3736 12.3759V8.77499C13.3736 8.45665 13.2471 8.15135 13.022 7.92625C12.7969 7.70115 12.4916 7.57469 12.1733 7.57469H8.57238Z" fill="#2D2D2E"/>
</g>
</svg>
