<svg width="21" height="21" viewBox="0 0 21 21" fill="none" xmlns="http://www.w3.org/2000/svg">
<mask id="mask0_1_55523" style="mask-type:luminance" maskUnits="userSpaceOnUse" x="0" y="0" width="21" height="21">
<path d="M0.873047 0.973511H20.0778V20.1783H0.873047V0.973511Z" fill="white"/>
</mask>
<g mask="url(#mask0_1_55523)">
<path fill-rule="evenodd" clip-rule="evenodd" d="M11.6867 1.30793C11.3202 1.08907 10.9013 0.973511 10.4744 0.973511C10.0475 0.973511 9.6286 1.08907 9.26209 1.30793L3.2846 4.86081C2.9128 5.08549 2.60564 5.40279 2.39315 5.78169C2.18066 6.16059 2.07011 6.58814 2.0723 7.02255V14.1283C2.0723 15.0201 2.53441 15.8448 3.2846 16.2901L9.26209 19.8429C9.6286 20.0618 10.0475 20.1774 10.4744 20.1774C10.9013 20.1774 11.3202 20.0618 11.6867 19.8429L17.6642 16.2901C18.036 16.0654 18.3431 15.7481 18.5556 15.3692C18.7681 14.9903 18.8787 14.5627 18.8765 14.1283V7.02255C18.8765 6.13073 18.4144 5.30612 17.6642 4.86081L11.6867 1.30793ZM8.67394 7.57469C8.35561 7.57469 8.05031 7.70115 7.82521 7.92625C7.60011 8.15135 7.47365 8.45665 7.47365 8.77499V12.3759C7.47365 12.6942 7.60011 12.9995 7.82521 13.2246C8.05031 13.4497 8.35561 13.5762 8.67394 13.5762H12.2748C12.5932 13.5762 12.8985 13.4497 13.1236 13.2246C13.3487 12.9995 13.4751 12.6942 13.4751 12.3759V8.77499C13.4751 8.45665 13.3487 8.15135 13.1236 7.92625C12.8985 7.70115 12.5932 7.57469 12.2748 7.57469H8.67394Z" fill="#2D2D2E"/>
</g>
</svg>
