<svg width="20" height="21" viewBox="0 0 20 21" fill="none" xmlns="http://www.w3.org/2000/svg">
<mask id="mask0_1_55534" style="mask-type:luminance" maskUnits="userSpaceOnUse" x="0" y="0" width="20" height="21">
<path d="M0.488281 0.973511H19.6931V20.1783H0.488281V0.973511Z" fill="white"/>
</mask>
<g mask="url(#mask0_1_55534)">
<path fill-rule="evenodd" clip-rule="evenodd" d="M11.3039 1.30793C10.9374 1.08907 10.5185 0.973511 10.0916 0.973511C9.6647 0.973511 9.24579 1.08907 8.87928 1.30793L2.90179 4.86081C2.52998 5.08549 2.22283 5.40279 2.01034 5.78169C1.79785 6.16059 1.6873 6.58814 1.68948 7.02255V14.1283C1.68948 15.0201 2.1516 15.8448 2.90179 16.2901L8.87928 19.8429C9.24579 20.0618 9.6647 20.1774 10.0916 20.1774C10.5185 20.1774 10.9374 20.0618 11.3039 19.8429L17.2814 16.2901C17.6532 16.0654 17.9603 15.7481 18.1728 15.3692C18.3853 14.9903 18.4959 14.5627 18.4937 14.1283V7.02255C18.4937 6.13073 18.0316 5.30612 17.2814 4.86081L11.3039 1.30793ZM8.29113 7.57469C7.97279 7.57469 7.66749 7.70115 7.44239 7.92625C7.21729 8.15135 7.09083 8.45665 7.09083 8.77499V12.3759C7.09083 12.6942 7.21729 12.9995 7.44239 13.2246C7.66749 13.4497 7.97279 13.5762 8.29113 13.5762H11.892C12.2104 13.5762 12.5157 13.4497 12.7408 13.2246C12.9659 12.9995 13.0923 12.6942 13.0923 12.3759V8.77499C13.0923 8.45665 12.9659 8.15135 12.7408 7.92625C12.5157 7.70115 12.2104 7.57469 11.892 7.57469H8.29113Z" fill="#2D2D2E"/>
</g>
</svg>
