<svg width="19" height="18" viewBox="0 0 19 18" fill="none" xmlns="http://www.w3.org/2000/svg">
<g clip-path="url(#clip0_1_55819)">
<path d="M16.9474 2.00012H11.7V4.18655C11.7 4.41851 11.6078 4.64096 11.4438 4.80497C11.2798 4.96898 11.0573 5.06113 10.8254 5.06113C10.5934 5.06113 10.371 4.96898 10.207 4.80497C10.0429 4.64096 9.95081 4.41851 9.95081 4.18655V2.00012H2.95422C2.49032 2.00012 2.04542 2.18441 1.71739 2.51243C1.38936 2.84046 1.20508 3.28537 1.20508 3.74927V6.37299C1.20508 6.60494 1.29722 6.82739 1.46123 6.9914C1.62525 7.15542 1.8477 7.24756 2.07965 7.24756C2.54355 7.24756 2.98846 7.43184 3.31648 7.75987C3.64451 8.0879 3.8288 8.5328 3.8288 8.9967C3.8288 9.46061 3.64451 9.90551 3.31648 10.2335C2.98846 10.5616 2.54355 10.7458 2.07965 10.7458C1.8477 10.7458 1.62525 10.838 1.46123 11.002C1.29722 11.166 1.20508 11.3885 1.20508 11.6204V14.2441C1.20508 14.708 1.38936 15.1529 1.71739 15.481C2.04542 15.809 2.49032 15.9933 2.95422 15.9933H9.95081V13.8069C9.95081 13.5749 10.0429 13.3525 10.207 13.1884C10.371 13.0244 10.5934 12.9323 10.8254 12.9323C11.0573 12.9323 11.2798 13.0244 11.4438 13.1884C11.6078 13.3525 11.7 13.5749 11.7 13.8069V15.9933H16.9474C17.4113 15.9933 17.8562 15.809 18.1842 15.481C18.5122 15.1529 18.6965 14.708 18.6965 14.2441V3.74927C18.6965 3.28537 18.5122 2.84046 18.1842 2.51243C17.8562 2.18441 17.4113 2.00012 16.9474 2.00012ZM11.7 10.5972C11.7 10.8291 11.6078 11.0516 11.4438 11.2156C11.2798 11.3796 11.0573 11.4717 10.8254 11.4717C10.5934 11.4717 10.371 11.3796 10.207 11.2156C10.0429 11.0516 9.95081 10.8291 9.95081 10.5972V7.39624C9.95081 7.16428 10.0429 6.94183 10.207 6.77782C10.371 6.61381 10.5934 6.52166 10.8254 6.52166C11.0573 6.52166 11.2798 6.61381 11.4438 6.77782C11.6078 6.94183 11.7 7.16428 11.7 7.39624V10.5972Z" fill="#7A8CB4"/>
</g>
<defs>
<clipPath id="clip0_1_55819">
<rect width="18" height="18" fill="white" transform="translate(0.925781 0.00695801)"/>
</clipPath>
</defs>
</svg>
