<svg width="42" height="42" viewBox="0 0 42 42" fill="none" xmlns="http://www.w3.org/2000/svg">
<path d="M11.1719 9.29297C11.4422 9.29822 11.7094 9.35798 11.9561 9.46875C12.2025 9.57946 12.424 9.73913 12.6074 9.9375L12.6133 9.94336L21.0459 18.374L21.1895 18.5176L29.7598 9.94727C30.1409 9.59538 30.6435 9.4047 31.1621 9.41504C31.6809 9.42548 32.1762 9.6359 32.543 10.0029C32.9097 10.3699 33.1198 10.8651 33.1299 11.3838C33.1399 11.9023 32.9487 12.4043 32.5967 12.7852L24.1699 21.2109L24.0264 21.3545L32.5967 29.9248L32.7217 30.0732C32.9939 30.4317 33.1387 30.8734 33.1299 31.3271C33.1198 31.8457 32.9095 32.3401 32.543 32.707C32.1762 33.0741 31.6809 33.2855 31.1621 33.2959C30.7083 33.3049 30.2668 33.1598 29.9082 32.8877L29.7598 32.7637L21.1895 24.1934L21.0459 24.3369L12.6133 32.7686L12.6074 32.7744C12.424 32.9729 12.2026 33.1324 11.9561 33.2432C11.7094 33.3539 11.4422 33.4147 11.1719 33.4199C10.9016 33.4251 10.6326 33.3755 10.3818 33.2744C10.1312 33.1733 9.90393 33.0222 9.71289 32.8311C9.52174 32.6398 9.37045 32.412 9.26953 32.1611C9.16863 31.9103 9.11956 31.6414 9.125 31.3711C9.13045 31.1008 9.19086 30.8345 9.30176 30.5879C9.4126 30.3415 9.57106 30.1189 9.76953 29.9355L9.77051 29.9365L18.3525 21.3545L18.209 21.2109L9.77637 12.7822L9.77051 12.7764C9.57199 12.593 9.41263 12.3714 9.30176 12.125C9.19086 11.8785 9.13048 11.6121 9.125 11.3418C9.11956 11.0715 9.16869 10.8026 9.26953 10.5518C9.37045 10.3009 9.52174 10.0731 9.71289 9.88184C9.90393 9.69067 10.1312 9.53957 10.3818 9.43848C10.6326 9.33741 10.9016 9.28775 11.1719 9.29297Z" fill="#798CB4" stroke="#798CB4" stroke-width="0.405866"/>
</svg>
