<svg width="31" height="31" viewBox="0 0 31 31" fill="none" xmlns="http://www.w3.org/2000/svg">
<rect width="31" height="31" rx="15.5" fill="#121424"/>
<path d="M6.65303 14.8059C6.69031 14.7872 6.72761 14.7695 6.76395 14.7527C7.39582 14.46 8.03607 14.1859 8.67539 13.9118C8.70987 13.9118 8.76764 13.8718 8.80026 13.8587C8.84965 13.8373 8.89905 13.8168 8.94845 13.7953C9.04351 13.7543 9.13857 13.7142 9.2327 13.6732C9.42282 13.5921 9.61199 13.511 9.80211 13.4299L10.94 12.9423C11.6986 12.6179 12.4582 12.2926 13.2168 11.9681C13.9754 11.6437 14.7349 11.3184 15.4936 10.994C16.2522 10.6696 17.0117 10.3442 17.7703 10.0198C18.5289 9.69538 19.2885 9.37003 20.0471 9.04561C20.2158 8.9729 20.3984 8.86476 20.5792 8.83306C20.7311 8.80603 20.8793 8.75383 21.0321 8.72493C21.322 8.66993 21.6416 8.64755 21.9194 8.76781C22.0154 8.80976 22.1039 8.86849 22.1775 8.94214C22.5298 9.29079 22.4804 9.86318 22.4058 10.3535C21.8868 13.7711 21.3677 17.1896 20.8476 20.6071C20.7768 21.076 20.6799 21.5906 20.3099 21.8871C19.9967 22.1378 19.5513 22.1658 19.1645 22.0595C18.7777 21.9523 18.4367 21.7276 18.1021 21.5067C16.7144 20.5875 15.3258 19.6684 13.9381 18.7492C13.6082 18.531 13.241 18.2458 13.2448 17.8496C13.2466 17.6109 13.3892 17.3984 13.5346 17.2091C14.7405 15.6355 16.4805 14.5541 17.775 13.0533C17.9576 12.8416 18.1012 12.4594 17.8505 12.3373C17.7014 12.2646 17.5299 12.3634 17.3938 12.4576C15.6827 13.6462 13.9726 14.8357 12.2615 16.0243C11.7033 16.4121 11.118 16.8111 10.4452 16.9062C9.84313 16.9919 9.23736 16.8241 8.65489 16.6526C8.16655 16.509 7.67912 16.3617 7.19357 16.2098C6.93542 16.1296 6.66888 16.0429 6.46944 15.8611C6.27 15.6793 6.15539 15.3736 6.27561 15.1312C6.3511 14.9792 6.49742 14.8832 6.65119 14.8049L6.65303 14.8059Z" fill="#798CB4"/>
</svg>
