<svg width="31" height="31" viewBox="0 0 31 31" fill="none" xmlns="http://www.w3.org/2000/svg">
<rect y="1.90735e-05" width="31" height="31" rx="15.5" fill="#121424"/>
<path d="M23.3065 12.9116C23.2082 11.9627 22.9967 10.9137 22.2183 10.3624C21.6154 9.93492 20.823 9.91911 20.0832 9.91999C18.5193 9.91999 16.9546 9.92263 15.3908 9.9235C13.8866 9.92526 12.3825 9.92614 10.8783 9.92789C10.2499 9.92789 9.63915 9.87961 9.05557 10.1517C8.55447 10.3852 8.1622 10.8294 7.92613 11.3237C7.59879 12.011 7.53034 12.7896 7.49085 13.5498C7.41801 14.9342 7.42591 16.322 7.51279 17.7055C7.57686 18.715 7.7392 19.8307 8.51937 20.4742C9.2109 21.0439 10.1868 21.072 11.0836 21.0729C13.9305 21.0755 16.7782 21.0781 19.626 21.0799C19.991 21.0808 20.3719 21.0737 20.744 21.0334C21.4759 20.9544 22.1736 20.7446 22.6439 20.2021C23.1187 19.6552 23.2407 18.8941 23.3127 18.1734C23.4882 16.4247 23.4864 14.6594 23.3065 12.9116ZM13.7445 17.9513V13.0486L17.9884 15.4995L13.7445 17.9513Z" fill="#798CB4"/>
</svg>
