<svg width="18" height="20" viewBox="0 0 18 20" fill="none" xmlns="http://www.w3.org/2000/svg">
<path d="M9.83398 12.4999H8.16732C7.9463 12.4999 7.73434 12.5877 7.57806 12.744C7.42178 12.9002 7.33398 13.1122 7.33398 13.3332V19.1665H10.6673V13.3332C10.6673 13.1122 10.5795 12.9002 10.4232 12.744C10.267 12.5877 10.055 12.4999 9.83398 12.4999Z" fill="#27BA70"/>
<path d="M15.4763 4.30854L11.3096 1.53354C10.6258 1.07848 9.82271 0.835693 9.0013 0.835693C8.17989 0.835693 7.37681 1.07848 6.69297 1.53354L2.5263 4.30854C1.95505 4.68868 1.48652 5.20402 1.16233 5.80879C0.838137 6.41356 0.668323 7.08903 0.667969 7.77521V15.0002C0.667969 15.5474 0.775743 16.0892 0.985137 16.5947C1.19453 17.1002 1.50145 17.5596 1.88836 17.9465C2.66976 18.7279 3.72957 19.1669 4.83464 19.1669H5.66797V13.3335C5.66797 12.6705 5.93136 12.0346 6.4002 11.5658C6.86904 11.0969 7.50493 10.8335 8.16797 10.8335H9.83464C10.4977 10.8335 11.1336 11.0969 11.6024 11.5658C12.0712 12.0346 12.3346 12.6705 12.3346 13.3335V19.1669H13.168C13.7151 19.1669 14.257 19.0591 14.7625 18.8497C15.268 18.6403 15.7273 18.3334 16.1142 17.9465C16.5012 17.5596 16.8081 17.1002 17.0175 16.5947C17.2269 16.0892 17.3346 15.5474 17.3346 15.0002V7.77521C17.3343 7.08903 17.1645 6.41356 16.8403 5.80879C16.5161 5.20402 16.0476 4.68868 15.4763 4.30854Z" fill="#27BA70"/>
</svg>
