<svg width="16" height="21" viewBox="0 0 16 21" fill="none" xmlns="http://www.w3.org/2000/svg">
<path d="M15.8301 12.2952C15.5896 9.1633 14.1314 7.20066 12.845 5.46873C11.6538 3.86535 10.625 2.48075 10.625 0.438249C10.625 0.274187 10.5331 0.124234 10.3874 0.0490521C10.2413 -0.0265807 10.0657 -0.014194 9.93286 0.0823568C8.00086 1.46483 6.38887 3.79489 5.82576 6.0181C5.43484 7.5659 5.38312 9.30595 5.37586 10.4552C3.59168 10.0741 3.18751 7.40529 3.18325 7.37621C3.16315 7.23778 3.07858 7.11732 2.95553 7.05153C2.83121 6.9866 2.68507 6.98188 2.55903 7.04427C2.46547 7.08955 0.262566 8.20887 0.134392 12.678C0.12541 12.8267 0.125 12.9758 0.125 13.1249C0.125 17.4667 3.65788 20.9993 8 20.9993C8.00599 20.9998 8.01239 21.0006 8.01751 20.9993C8.01924 20.9993 8.02092 20.9993 8.02305 20.9993C12.3545 20.9869 15.875 17.459 15.875 13.1249C15.875 12.9065 15.8301 12.2952 15.8301 12.2952ZM8 20.1244C6.55248 20.1244 5.375 18.8701 5.375 17.3283C5.375 17.2757 5.37459 17.2227 5.3784 17.1578C5.39592 16.5076 5.51942 16.0637 5.65485 15.7685C5.90865 16.3136 6.36237 16.8148 7.09938 16.8148C7.34121 16.8148 7.53689 16.6191 7.53689 16.3773C7.53689 15.7544 7.54973 15.0358 7.70481 14.3873C7.84283 13.8123 8.17263 13.2005 8.5905 12.71C8.77634 13.3466 9.13868 13.8618 9.49244 14.3647C9.99873 15.0841 10.5221 15.8279 10.614 17.0963C10.6195 17.1715 10.6251 17.2471 10.6251 17.3283C10.625 18.8701 9.44752 20.1244 8 20.1244Z" fill="#FFB060"/>
</svg>
