<svg width="19" height="18" viewBox="0 0 19 18" fill="none" xmlns="http://www.w3.org/2000/svg">
<path d="M2.17773 9.49447V16.3537C2.17773 17.2557 2.90892 17.9869 3.81088 17.9869H8.49312C8.61339 17.9869 8.71089 17.8894 8.71089 17.7691V10.9098C8.71089 10.6089 8.95436 10.3654 9.25528 10.3654C9.5562 10.3654 9.79968 10.6089 9.79968 10.9098V17.7691C9.79968 17.8894 9.89717 17.9868 10.0174 17.9868H14.6986C15.6006 17.9868 16.3318 17.2557 16.3318 16.3537V9.49447C16.3318 9.3742 16.2343 9.27673 16.114 9.27673H2.39551C2.27523 9.2767 2.17773 9.3742 2.17773 9.49447Z" fill="#798CB4"/>
<path d="M17.9648 3.83232H15.918C16.179 3.44052 16.3316 2.96152 16.3316 2.46073C16.3316 1.44797 15.7545 0.576625 14.818 0.195995C13.8819 -0.196349 12.8476 0.0109753 12.1397 0.729181L9.25458 3.61433L6.36943 0.729181C5.66156 0.0109753 4.62729 -0.196349 3.69109 0.195995C2.75465 0.576625 2.17754 1.44797 2.17754 2.46073C2.17754 2.96152 2.33013 3.44052 2.59114 3.83232H0.544393C0.239498 3.83232 0 4.07153 0 4.37671V7.64304C0 7.94819 0.239498 8.18743 0.544393 8.18743H8.7211V5.4655C8.7211 5.16035 8.94972 4.93174 9.25458 4.92111H9.26546C9.57036 4.92111 9.80985 5.16035 9.80985 5.4655V8.18743H17.9648C18.2697 8.18743 18.5092 7.94819 18.5092 7.64304V4.37671C18.5092 4.07153 18.2697 3.83232 17.9648 3.83232ZM4.63817 3.83232C3.87608 3.83232 3.26632 3.22253 3.26632 2.46073C3.26632 1.78558 3.70172 1.37194 4.11561 1.19759C4.26792 1.13219 4.45319 1.08859 4.64909 1.08859C4.96486 1.08859 5.3131 1.19759 5.60708 1.49156L7.93721 3.83232H4.63817ZM13.871 3.83232H10.572L12.9021 1.49156C13.3811 1.02319 13.9909 1.03437 14.3936 1.19759C14.8074 1.37194 15.2429 1.78558 15.2429 2.46073C15.2428 3.22253 14.633 3.83232 13.871 3.83232Z" fill="#798CB4"/>
</svg>
