<svg width="21" height="20" viewBox="0 0 21 20" fill="none" xmlns="http://www.w3.org/2000/svg">
<path d="M4.65865 8.56333C4.66522 8.62279 4.6719 8.68292 4.67865 8.74363L4.78328 9.68531C4.85672 10.3466 4.92041 10.9201 5.03154 11.3778C5.15108 11.8702 5.34815 12.334 5.75912 12.7018C6.17008 13.0697 6.65284 13.2143 7.15539 13.2787C7.62253 13.3386 8.19956 13.3386 8.86496 13.3386H13.3231C13.7793 13.3386 14.1819 13.3386 14.5181 13.3044C14.8824 13.2674 15.2364 13.1855 15.5767 12.9806C15.9171 12.7756 16.1552 12.5011 16.3584 12.1965C16.5458 11.9154 16.7342 11.5595 16.9475 11.1565L19.0207 7.24052C19.7563 5.85108 18.7491 4.17815 17.1769 4.17815H8.765C7.94656 4.17811 7.24638 4.17807 6.69216 4.2555C6.41166 4.2947 6.1368 4.35745 5.87899 4.46443L5.7592 3.38631C5.65126 2.41483 4.83012 1.67987 3.85266 1.67987H3.43628C2.97636 1.67987 2.60352 2.05271 2.60352 2.51264C2.60352 2.97256 2.97636 3.3454 3.43628 3.3454H3.85266C3.98145 3.3454 4.08963 3.44224 4.10386 3.57023L4.65865 8.56333Z" fill="#798CB4"/>
<path fill-rule="evenodd" clip-rule="evenodd" d="M12.5977 16.253C12.5977 15.1032 13.5298 14.1711 14.6796 14.1711C15.8294 14.1711 16.7615 15.1032 16.7615 16.253C16.7615 17.4028 15.8294 18.3349 14.6796 18.3349C13.5298 18.3349 12.5977 17.4028 12.5977 16.253Z" fill="#798CB4"/>
<path fill-rule="evenodd" clip-rule="evenodd" d="M5.10156 16.253C5.10156 15.1032 6.03367 14.1711 7.18347 14.1711C8.33328 14.1711 9.26538 15.1032 9.26538 16.253C9.26538 17.4028 8.33328 18.3349 7.18347 18.3349C6.03367 18.3349 5.10156 17.4028 5.10156 16.253Z" fill="#798CB4"/>
</svg>
