<svg width="21" height="20" viewBox="0 0 21 20" fill="none" xmlns="http://www.w3.org/2000/svg">
<path d="M3.93209 8.56327C3.93866 8.62273 3.94534 8.68285 3.95209 8.74356L4.05672 9.68525C4.13016 10.3465 4.19385 10.9201 4.30498 11.3778C4.42452 11.8701 4.62159 12.3339 5.03255 12.7018C5.44352 13.0696 5.92627 13.2143 6.42882 13.2786C6.89597 13.3386 7.473 13.3385 8.1384 13.3385H12.5965C13.0527 13.3385 13.4554 13.3385 13.7916 13.3044C14.1559 13.2674 14.5098 13.1854 14.8502 12.9805C15.1905 12.7756 15.4286 12.5011 15.6318 12.1964C15.8192 11.9153 16.0076 11.5595 16.221 11.1564L18.2941 7.24046C19.0297 5.85101 18.0225 4.17808 16.4503 4.17808H8.03844C7.22 4.17804 6.51982 4.178 5.9656 4.25544C5.6851 4.29464 5.41024 4.35739 5.15243 4.46436L5.03264 3.38624C4.92469 2.41477 4.10356 1.67981 3.1261 1.67981H2.70972C2.2498 1.67981 1.87695 2.05265 1.87695 2.51257C1.87695 2.97249 2.2498 3.34534 2.70972 3.34534H3.1261C3.25489 3.34534 3.36307 3.44217 3.37729 3.57017L3.93209 8.56327Z" fill="#798CB4"/>
<path fill-rule="evenodd" clip-rule="evenodd" d="M11.8711 16.2529C11.8711 15.1031 12.8032 14.171 13.953 14.171C15.1028 14.171 16.0349 15.1031 16.0349 16.2529C16.0349 17.4027 15.1028 18.3348 13.953 18.3348C12.8032 18.3348 11.8711 17.4027 11.8711 16.2529Z" fill="#798CB4"/>
<path fill-rule="evenodd" clip-rule="evenodd" d="M4.375 16.2529C4.375 15.1031 5.3071 14.171 6.45691 14.171C7.60671 14.171 8.53882 15.1031 8.53882 16.2529C8.53882 17.4027 7.60671 18.3348 6.45691 18.3348C5.3071 18.3348 4.375 17.4027 4.375 16.2529Z" fill="#798CB4"/>
</svg>
