<svg width="23" height="23" viewBox="0 0 23 23" fill="none" xmlns="http://www.w3.org/2000/svg">
<path fill-rule="evenodd" clip-rule="evenodd" d="M19.6024 4.00398C21.021 4.80744 21.896 6.29315 21.896 7.90006V14.7017C21.896 16.3096 21.021 17.7943 19.6024 18.5978L13.5943 21.9995C12.1756 22.803 10.4266 22.803 9.00781 21.9995L2.99986 18.5978C1.58108 17.7943 0.707031 16.3096 0.707031 14.7017V7.90006C0.707031 6.29315 1.58108 4.80744 2.99986 4.00398L9.00781 0.603142C10.4266 -0.200315 12.1756 -0.200315 13.5943 0.603142L19.6024 4.00398ZM9.8121 2.14685L3.9613 5.45938C3.03958 5.98146 2.47278 6.94509 2.47278 7.98924V14.6134C2.47278 15.6567 3.03958 16.6212 3.9613 17.1433L9.8121 20.455C10.7338 20.9771 11.8683 20.9771 12.79 20.455L18.6408 17.1433C19.5625 16.6212 20.1302 15.6567 20.1302 14.6134V7.98924C20.1302 6.94509 19.5625 5.98146 18.6408 5.45938L12.79 2.14685C11.8683 1.62478 10.7338 1.62478 9.8121 2.14685ZM12.5243 3.99792L17.1408 6.61089C17.8975 7.03945 18.3645 7.83167 18.3645 8.68966V13.9165C18.3645 14.7736 17.8975 15.5658 17.1408 15.9944L12.5243 18.6083C11.7677 19.0367 10.8345 19.0367 10.0779 18.6083L5.46131 15.9944C4.70468 15.5658 4.23853 14.7736 4.23853 13.9165V8.68966C4.23853 7.83167 4.70468 7.03945 5.46131 6.61089L10.0779 3.99792C10.8345 3.56935 11.7677 3.56935 12.5243 3.99792ZM8.65289 13.9H13.9501V8.70524H8.65289V13.9Z" fill="#0C101F"/>
</svg>
