<svg width="18" height="18" viewBox="0 0 18 18" fill="none" xmlns="http://www.w3.org/2000/svg">
<path d="M1.20026 15.6765C1.20026 16.2913 1.69695 16.788 2.31174 16.788H8.42488V11.2306H1.20026V15.6765ZM16.2052 5.67321H15.2987C15.514 5.25294 15.6495 4.7875 15.6495 4.28386C15.6495 2.59928 14.2775 1.22729 12.5929 1.22729C11.148 1.22729 10.2137 1.96713 9.01535 3.59961C7.81703 1.96713 6.8827 1.22729 5.43778 1.22729C3.75318 1.22729 2.38121 2.59928 2.38121 4.28386C2.38121 4.7875 2.51319 5.25294 2.73201 5.67321H1.75601C1.14122 5.67321 0.644531 6.16991 0.644531 6.78469V9.56339C0.644531 9.86904 0.894614 10.1191 1.20027 10.1191H16.761C17.0666 10.1191 17.3167 9.86904 17.3167 9.56339V6.78469C17.3167 6.16991 16.82 5.67321 16.2052 5.67321ZM5.4343 5.67321C4.66669 5.67321 4.04496 5.05147 4.04496 4.28386C4.04496 3.51625 4.66669 2.89451 5.4343 2.89451C6.1255 2.89451 6.63608 3.00914 8.42488 5.67321H5.4343ZM12.5929 5.67321H9.60234C11.3876 3.01609 11.8844 2.89451 12.5929 2.89451C13.3605 2.89451 13.9823 3.51625 13.9823 4.28386C13.9823 5.05147 13.3605 5.67321 12.5929 5.67321ZM9.60234 16.788H15.6495C16.2643 16.788 16.761 16.2913 16.761 15.6765V11.2306H9.60234V16.788Z" fill="#798CB4"/>
</svg>
