<svg width="24" height="25" viewBox="0 0 24 25" fill="none" xmlns="http://www.w3.org/2000/svg">
<path d="M12 3.67969C10.0222 3.67969 8.08879 4.26618 6.4443 5.36499C4.79981 6.46381 3.51809 8.02559 2.76121 9.85285C2.00433 11.6801 1.8063 13.6908 2.19215 15.6306C2.578 17.5704 3.53041 19.3522 4.92894 20.7508C6.32746 22.1493 8.10929 23.1017 10.0491 23.4875C11.9889 23.8734 13.9996 23.6754 15.8268 22.9185C17.6541 22.1616 19.2159 20.8799 20.3147 19.2354C21.4135 17.5909 22 15.6575 22 13.6797C22 12.3665 21.7413 11.0661 21.2388 9.85285C20.7363 8.6396 19.9997 7.53721 19.0711 6.60862C18.1425 5.68003 17.0401 4.94344 15.8268 4.44089C14.6136 3.93835 13.3132 3.67969 12 3.67969ZM16 14.6797H12C11.7348 14.6797 11.4804 14.5743 11.2929 14.3868C11.1054 14.1993 11 13.9449 11 13.6797V7.67969C11 7.41447 11.1054 7.16012 11.2929 6.97258C11.4804 6.78504 11.7348 6.67969 12 6.67969C12.2652 6.67969 12.5196 6.78504 12.7071 6.97258C12.8946 7.16012 13 7.41447 13 7.67969V12.6797H16C16.2652 12.6797 16.5196 12.785 16.7071 12.9726C16.8946 13.1601 17 13.4145 17 13.6797C17 13.9449 16.8946 14.1993 16.7071 14.3868C16.5196 14.5743 16.2652 14.6797 16 14.6797Z" fill="#1F1F31"/>
</svg>
