<svg width="9" height="17" viewBox="0 0 9 17" fill="none" xmlns="http://www.w3.org/2000/svg">
<path d="M1.19141 16.7991C1.46943 16.799 1.70948 16.688 1.89648 16.4807L8.29004 9.41138L8.2998 9.40063L8.30762 9.38892C8.38368 9.2834 8.44563 9.1682 8.49219 9.04419C8.54116 8.91371 8.5664 8.7794 8.56641 8.64282C8.56641 8.50626 8.54114 8.37192 8.49219 8.24146C8.44563 8.11745 8.38368 8.00224 8.30762 7.89673L8.2998 7.88501L8.29004 7.87427L1.89648 0.804932C1.70947 0.597613 1.46946 0.486622 1.19141 0.486572C0.914329 0.486572 0.670945 0.596183 0.47168 0.795166L0.461914 0.804932V0.805908C0.274441 1.0142 0.185559 1.2722 0.185547 1.56079C0.185547 1.84963 0.274137 2.10826 0.461914 2.31665L6.16309 8.64282L0.461914 14.969C0.274177 15.1774 0.185547 15.436 0.185547 15.7249C0.185583 16.0134 0.274426 16.2715 0.461914 16.4797L0.47168 16.4905L0.548828 16.5608C0.732561 16.7149 0.949063 16.7991 1.19141 16.7991Z" fill="white" stroke="white" stroke-width="0.522607"/>
</svg>
