<svg width="9" height="15" viewBox="0 0 9 15" fill="none" xmlns="http://www.w3.org/2000/svg">
<path d="M1.52344 15.2493C1.78331 15.2493 2.00779 15.1461 2.18262 14.9524L8.15918 8.34399L8.16797 8.33423L8.17578 8.32251C8.24686 8.2239 8.30414 8.11614 8.34766 8.00024C8.39341 7.87829 8.41797 7.75289 8.41797 7.62524C8.41795 7.49756 8.39346 7.37223 8.34766 7.25024C8.30413 7.13433 8.24688 7.02661 8.17578 6.92798L8.16797 6.91724L8.15918 6.90649L2.18262 0.300049C2.0077 0.105943 1.78362 0.0012207 1.52344 0.0012207C1.26447 0.00125282 1.03781 0.104287 0.851563 0.290283L0.841797 0.299072C0.666398 0.493794 0.584031 0.735283 0.583984 1.00513C0.583984 1.27495 0.666504 1.51645 0.841797 1.71118L6.1709 7.62622L0.841797 13.5393C0.666416 13.734 0.584002 13.9755 0.583984 14.2454C0.583984 14.5152 0.666456 14.7567 0.841797 14.9514L0.850586 14.9612H0.851562C1.03775 15.147 1.26462 15.2492 1.52344 15.2493Z" fill="white" stroke="white" stroke-width="0.488524"/>
</svg>
