<svg width="25" height="25" viewBox="0 0 25 25" fill="none" xmlns="http://www.w3.org/2000/svg">
<path d="M12.384 2.06195C6.83962 2.06195 2.33984 6.56173 2.33984 12.1061C2.33984 17.6505 6.83962 22.1502 12.384 22.1502C17.9284 22.1502 22.4281 17.6505 22.4281 12.1061C22.4281 6.56173 17.9284 2.06195 12.384 2.06195ZM12.384 5.0752C14.0513 5.0752 15.3972 6.42111 15.3972 8.08844C15.3972 9.75577 14.0513 11.1017 12.384 11.1017C10.7167 11.1017 9.37075 9.75577 9.37075 8.08844C9.37075 6.42111 10.7167 5.0752 12.384 5.0752ZM12.384 19.3379C9.87296 19.3379 7.6532 18.0522 6.3575 16.1037C6.38764 14.1049 10.3752 13.0101 12.384 13.0101C14.3828 13.0101 18.3803 14.1049 18.4105 16.1037C17.1148 18.0522 14.895 19.3379 12.384 19.3379Z" fill="#44A0FF"/>
</svg>
