<svg width="31" height="31" viewBox="0 0 31 31" fill="none" xmlns="http://www.w3.org/2000/svg">
<rect width="31" height="31" rx="15.5" fill="#121424"/>
<path d="M23.3065 12.9116C23.2082 11.9627 22.9967 10.9137 22.2183 10.3624C21.6154 9.93489 20.823 9.91909 20.0832 9.91997C18.5193 9.91997 16.9546 9.9226 15.3908 9.92348C13.8866 9.92524 12.3825 9.92611 10.8783 9.92787C10.2499 9.92787 9.63915 9.87959 9.05557 10.1517C8.55447 10.3852 8.1622 10.8294 7.92613 11.3236C7.59879 12.011 7.53034 12.7896 7.49085 13.5498C7.41801 14.9342 7.42591 16.322 7.51279 17.7055C7.57686 18.715 7.7392 19.8307 8.51937 20.4742C9.2109 21.0439 10.1868 21.072 11.0836 21.0728C13.9305 21.0755 16.7782 21.0781 19.626 21.0799C19.991 21.0807 20.3719 21.0737 20.744 21.0333C21.4759 20.9543 22.1736 20.7445 22.6439 20.202C23.1187 19.6551 23.2407 18.8941 23.3127 18.1734C23.4882 16.4247 23.4864 14.6594 23.3065 12.9116ZM13.7445 17.9513V13.0486L17.9884 15.4995L13.7445 17.9513Z" fill="#798CB4"/>
</svg>
