<svg width="93" height="47" viewBox="0 0 93 47" fill="none" xmlns="http://www.w3.org/2000/svg">
<g clip-path="url(#clip0_1_60737)">
<path d="M80.4134 13.8185V25.1344H76.3727V17.1965H72.4821V25.1344H68.4414V13.8177H80.4134V13.8185Z" fill="black"/>
<path fill-rule="evenodd" clip-rule="evenodd" d="M60.1426 25.5381C63.7598 25.5381 66.4458 23.3203 66.4458 19.9581C66.4458 16.7038 64.4641 14.5909 61.152 14.5909C59.6234 14.5909 58.3621 15.129 57.4121 16.0574C57.6389 14.1385 59.2616 12.7376 61.0482 12.7376C61.4605 12.7376 64.5647 12.731 64.5647 12.731L66.3201 9.37189C66.3201 9.37189 62.4229 9.4606 60.6112 9.4606C56.4718 9.53273 53.6758 13.2953 53.6758 17.8652C53.6758 23.1891 56.4027 25.5381 60.1426 25.5381ZM60.1646 17.5663C61.5076 17.5663 62.4387 18.4488 62.4387 19.9577C62.4387 21.3158 61.6114 22.4347 60.1646 22.4378C58.7806 22.4378 57.8495 21.401 57.8495 19.9808C57.8495 18.4715 58.7806 17.5663 60.1646 17.5663Z" fill="black"/>
<path d="M50.3889 21.3456C50.3889 21.3456 49.4347 21.8956 48.0095 21.9998C46.371 22.0484 44.9111 21.0135 44.9111 19.1749C44.9111 17.3813 46.1994 16.3534 47.9682 16.3534C49.0528 16.3534 50.4877 17.1051 50.4877 17.1051C50.4877 17.1051 51.5376 15.1785 52.0814 14.215C51.0855 13.4602 49.7591 13.0463 48.2162 13.0463C44.3225 13.0463 41.3066 15.5851 41.3066 19.1521C41.3066 22.7646 44.1412 25.2444 48.2162 25.1695C49.3552 25.1271 50.9266 24.7271 51.8843 24.1119L50.3889 21.3456Z" fill="black"/>
<path d="M0.701172 10.6804L6.30629 20.6992V26.8104L0.707729 36.8095L0.701172 10.6804Z" fill="#5B57A2"/>
<path d="M22.2207 17.054L27.4729 13.8349L38.2218 13.8248L22.2207 23.6272V17.054Z" fill="#D90751"/>
<path d="M22.1921 10.621L22.2218 23.8856L16.6035 20.4335V0.605347L22.1921 10.621Z" fill="#FAB718"/>
<path d="M38.2229 13.824L27.4736 13.834L22.1921 10.621L16.6035 0.605347L38.2229 13.824Z" fill="#ED6F26"/>
<path d="M22.2218 36.8655V30.4299L16.6035 27.0434L16.6066 46.8912L22.2218 36.8655Z" fill="#63B22F"/>
<path d="M27.4617 33.6752L6.30591 20.6992L0.701172 10.6804L38.2009 33.6621L27.4617 33.6752Z" fill="#1487C9"/>
<path d="M16.6074 46.8907L22.2218 36.865L27.4609 33.6752L38.2002 33.662L16.6074 46.8907Z" fill="#017F36"/>
<path d="M0.708984 36.8098L16.6515 27.0436L11.2917 23.7551L6.30755 26.8107L0.708984 36.8098Z" fill="#984995"/>
<path d="M44.9123 32.7497C44.7889 32.9071 44.6265 33.0259 44.4317 33.1061C44.2319 33.1875 44.018 33.2289 43.8022 33.228C43.5876 33.2309 43.3743 33.1951 43.1724 33.1223C42.991 33.0565 42.8253 32.9538 42.6856 32.8207C42.5477 32.6874 42.4394 32.5265 42.3678 32.3486C42.2903 32.1537 42.2516 31.9455 42.254 31.7357C42.254 31.5274 42.2899 31.3346 42.3643 31.1517C42.4357 30.9685 42.5394 30.8115 42.6694 30.6796C42.7994 30.545 42.9552 30.4424 43.1303 30.3622C43.3089 30.2851 43.5037 30.2434 43.7178 30.2434C43.9484 30.2434 44.1625 30.2723 44.3573 30.3298C44.5521 30.3877 44.7175 30.4841 44.8537 30.6191L44.6169 31.0202C44.5023 30.9164 44.3674 30.8376 44.2207 30.7888C44.0813 30.7439 43.9356 30.7212 43.7891 30.7217C43.6595 30.7217 43.5361 30.7471 43.4161 30.7953C43.2979 30.843 43.1899 30.9127 43.0979 31.0009C43.0039 31.0916 42.9298 31.2009 42.8804 31.3218C42.8252 31.4468 42.7994 31.5849 42.7994 31.7388C42.7994 31.8962 42.8283 32.0373 42.8835 32.1592C42.939 32.2846 43.0135 32.3906 43.1076 32.4801C43.2017 32.5704 43.312 32.6375 43.4385 32.6826C43.5654 32.7308 43.6985 32.7532 43.8412 32.7532C44.0163 32.7532 44.1756 32.7177 44.3118 32.6502C44.4467 32.5851 44.5679 32.4947 44.6689 32.3841L44.9123 32.7497ZM45.5807 33.1605V30.3043H46.0937V32.4323L47.7619 30.3043H48.2749V33.1609H47.7619V31.0329L46.0937 33.1609L45.5807 33.1605ZM51.673 32.7497C51.5468 32.9084 51.3813 33.0313 51.1928 33.1061C50.9928 33.1874 50.7788 33.2289 50.5629 33.228C50.3485 33.2309 50.1352 33.1951 49.9335 33.1223C49.752 33.0565 49.5862 32.9538 49.4463 32.8207C49.3084 32.6874 49.2001 32.5265 49.1285 32.3486C49.051 32.1537 49.0123 31.9455 49.0147 31.7357C49.0147 31.5274 49.0506 31.3346 49.125 31.1517C49.1968 30.9685 49.3005 30.8115 49.4301 30.6796C49.5601 30.545 49.7159 30.4424 49.891 30.3622C50.076 30.2807 50.2764 30.2402 50.4785 30.2434C50.7091 30.2434 50.9232 30.2723 51.118 30.3298C51.3128 30.3877 51.4782 30.4841 51.6148 30.6191L51.3776 31.0202C51.2632 30.9163 51.1284 30.8375 50.9818 30.7888C50.8424 30.7439 50.6967 30.7212 50.5502 30.7217C50.2924 30.7225 50.0448 30.8225 49.8586 31.0009C49.7654 31.0923 49.6915 31.2014 49.6411 31.3218C49.5859 31.4468 49.5601 31.5849 49.5601 31.7388C49.5601 31.8962 49.5894 32.0373 49.6446 32.1592C49.6997 32.2846 49.7742 32.3906 49.8683 32.4801C49.9624 32.5704 50.0731 32.6375 50.1996 32.6826C50.3261 32.7274 50.4592 32.7532 50.6019 32.7532C50.7774 32.7532 50.9332 32.7177 51.0725 32.6502C51.2074 32.5851 51.3286 32.4947 51.4296 32.3841L51.673 32.7497ZM51.9361 30.3043H54.5682V30.8115H53.5102V33.1605H52.9972V30.8115H51.9392V30.3043H51.9361Z" fill="black"/>
<path fill-rule="evenodd" clip-rule="evenodd" d="M56.9632 33.1322C57.158 33.0713 57.3234 32.9779 57.4661 32.8499L57.3103 32.4518C57.2162 32.5355 57.0897 32.6061 56.9373 32.664C56.7846 32.7218 56.6126 32.7504 56.4243 32.7504C56.142 32.7504 55.9083 32.6767 55.7231 32.5259C55.5384 32.3747 55.4377 32.1633 55.415 31.8933H57.6351C57.6578 31.7938 57.6675 31.6816 57.6675 31.55C57.6675 31.3541 57.6316 31.1778 57.5603 31.0174C57.4938 30.8616 57.3968 30.7207 57.2748 30.6031C57.1512 30.4867 57.0055 30.3962 56.8463 30.337C56.6797 30.2723 56.5024 30.2396 56.3237 30.2406C56.0834 30.2406 55.8724 30.2822 55.6876 30.3594C55.513 30.4328 55.355 30.541 55.2232 30.6772C55.0954 30.8127 54.9971 30.9733 54.9347 31.1489C54.8662 31.3359 54.8321 31.5337 54.8341 31.7329C54.8341 31.9577 54.873 32.1629 54.9444 32.3461C55.0138 32.5236 55.12 32.6844 55.256 32.8179C55.3891 32.949 55.5511 33.0489 55.7428 33.1195C55.948 33.1923 56.1646 33.2281 56.3823 33.2252C56.5795 33.224 56.7754 33.1924 56.9632 33.1322ZM55.6649 30.9337C55.8238 30.7894 56.0348 30.7188 56.3009 30.7188C56.5509 30.7188 56.7522 30.7863 56.8984 30.9213C57.0446 31.056 57.1221 31.2422 57.1352 31.4795H55.3826C55.4074 31.2694 55.5077 31.0752 55.6649 30.9337Z" fill="black"/>
<path d="M58.3633 30.304H58.8308L59.9408 31.7196L60.9923 30.304H61.4466V33.1606H60.934V31.0777L59.9343 32.403H59.9146L58.8763 31.0774V33.1602H58.3633V30.304Z" fill="black"/>
<path fill-rule="evenodd" clip-rule="evenodd" d="M62.8431 30.3138C62.6875 30.3544 62.5387 30.4181 62.4019 30.5028L62.5381 30.9078C62.6549 30.8499 62.7718 30.8017 62.8887 30.76C63.0055 30.718 63.1548 30.6987 63.3334 30.6987C63.4761 30.6987 63.5899 30.7215 63.6774 30.7662C63.765 30.8079 63.8298 30.8723 63.8753 30.9494C63.9208 31.0266 63.9501 31.1226 63.9663 31.2348C63.9825 31.3471 63.9891 31.469 63.9891 31.6009C63.8841 31.5277 63.7645 31.4784 63.6385 31.4562C63.5166 31.432 63.3928 31.4191 63.2686 31.4177C63.1158 31.4177 62.9731 31.4404 62.8366 31.4786C62.7004 31.5172 62.5836 31.575 62.4894 31.6522C62.3934 31.7292 62.3158 31.8267 62.2623 31.9376C62.2051 32.059 62.1762 32.1918 62.1778 32.326C62.1778 32.6053 62.2592 32.8236 62.4212 32.9779C62.5836 33.1318 62.7976 33.2085 63.0638 33.2085C63.3041 33.2085 63.4958 33.1669 63.6416 33.0835C63.7877 32.9998 63.9046 32.9038 63.9891 32.7947V33.1638H64.4693V31.4115C64.4693 31.0389 64.3883 30.7504 64.2228 30.5479C64.0604 30.3458 63.7715 30.2432 63.3627 30.2432C63.1806 30.2432 63.0086 30.2686 62.8431 30.3138ZM63.7006 32.628C63.5837 32.7113 63.431 32.7495 63.2427 32.7495C63.0773 32.7495 62.9473 32.7079 62.8566 32.6276C62.7656 32.5443 62.7201 32.4352 62.7201 32.3002C62.7201 32.2203 62.7363 32.1528 62.7722 32.0919C62.808 32.0309 62.8566 31.9827 62.9118 31.9442C62.9721 31.9038 63.0391 31.8744 63.1097 31.8574C63.1845 31.8381 63.2589 31.8285 63.3369 31.8285C63.5903 31.8285 63.8074 31.8894 63.986 32.0178V32.3804C63.9018 32.4747 63.8059 32.5582 63.7006 32.628ZM68.9975 29.2994C69.1013 29.2515 69.1985 29.1713 69.2895 29.0525L69.0102 28.6514C68.9389 28.7478 68.8579 28.8149 68.7669 28.8504C68.6704 28.8881 68.5704 28.916 68.4683 28.9337L68.3711 28.9511C68.2867 28.9657 68.196 28.9819 68.0984 28.9981C67.9419 29.0271 67.7894 29.0745 67.6441 29.1393C67.4134 29.2388 67.2287 29.3734 67.089 29.5435C66.9494 29.7136 66.8391 29.9061 66.7643 30.1182C66.6885 30.3331 66.6374 30.556 66.6119 30.7824C66.5857 31.0138 66.573 31.2348 66.573 31.4466C66.573 31.7197 66.6084 31.9665 66.6798 32.1879C66.7515 32.4097 66.8518 32.5956 66.9849 32.7464C67.118 32.9007 67.2773 33.0164 67.4655 33.0997C67.6537 33.1831 67.8647 33.2247 68.1015 33.2247C68.3191 33.2247 68.5204 33.1831 68.7021 33.1059C68.8772 33.0318 69.036 32.9239 69.1695 32.7885C69.2991 32.6566 69.4033 32.4992 69.4746 32.3229C69.5491 32.1463 69.5849 31.9569 69.5849 31.7579C69.5849 31.543 69.5526 31.3475 69.4908 31.1739C69.434 31.0084 69.3434 30.8566 69.2247 30.728C69.1058 30.6016 68.9606 30.5028 68.7993 30.4387C68.6216 30.3688 68.4321 30.3339 68.2411 30.3361C68.1177 30.3361 67.9978 30.3523 67.8809 30.3844C67.7672 30.4164 67.6581 30.4628 67.5561 30.5224C67.4572 30.5791 67.3666 30.6492 67.2869 30.7307C67.209 30.8113 67.1442 30.9012 67.0987 31.0038H67.0856C67.0956 30.8723 67.1118 30.7377 67.1407 30.5996C67.17 30.4615 67.2121 30.3296 67.2676 30.2046C67.3228 30.0796 67.3941 29.967 67.4817 29.8644C67.5756 29.7609 67.6907 29.6788 67.8192 29.6237C67.9605 29.5564 68.11 29.5079 68.2639 29.4795L68.3657 29.461C68.4672 29.4425 68.564 29.4247 68.6565 29.4054C68.78 29.38 68.8934 29.3472 68.9975 29.2994ZM67.1928 32.0437C67.1426 31.8816 67.1185 31.7126 67.1214 31.543C67.1432 31.4457 67.1828 31.3532 67.2383 31.2703C67.2935 31.1835 67.3648 31.1068 67.4493 31.0389C67.6399 30.8896 67.8756 30.8093 68.1177 30.8113C68.4197 30.8113 68.6469 30.9043 68.8058 31.0875C68.9651 31.2734 69.043 31.5045 69.043 31.7837C69.043 31.9218 69.0168 32.0471 68.9717 32.1625C68.9278 32.2762 68.8615 32.38 68.7768 32.4677C68.6921 32.5553 68.5906 32.6251 68.4784 32.6728C68.3615 32.7241 68.2346 32.7499 68.0919 32.7499C67.9492 32.7499 67.8192 32.721 67.6992 32.6631C67.58 32.6064 67.4747 32.5243 67.3907 32.4224C67.3027 32.309 67.2357 32.1807 67.1928 32.0437ZM73.5188 30.3041H73.0058V33.1607H73.5188V30.3041ZM70.3247 30.3041H70.8377V31.1612H71.3118C71.5355 31.1612 71.7171 31.1901 71.8633 31.2445C72.0095 31.2993 72.1264 31.3729 72.2139 31.4628C72.3015 31.5527 72.3632 31.6587 72.3991 31.7772C72.4346 31.8959 72.4542 32.0178 72.4542 32.1463C72.4542 32.2747 72.4346 32.397 72.3925 32.5189C72.3536 32.6408 72.2853 32.7464 72.1943 32.8429C72.1036 32.9393 71.9802 33.0164 71.8244 33.0743C71.6685 33.1318 71.4803 33.1638 71.2531 33.1638H70.3217V30.3041H70.3247ZM70.8377 31.6391V32.6855H71.2111C71.4676 32.6855 71.6493 32.6408 71.753 32.5505C71.8572 32.4606 71.9088 32.3326 71.9088 32.1625C71.9088 31.9889 71.8537 31.8578 71.7499 31.7675C71.6427 31.6776 71.4641 31.6325 71.2177 31.6325H70.8377V31.6391Z" fill="black"/>
<path d="M76.9104 32.7497C76.7869 32.9071 76.6246 33.0259 76.4298 33.1061C76.2299 33.1875 76.0161 33.2289 75.8003 33.228C75.5857 33.2309 75.3723 33.1951 75.1704 33.1223C74.989 33.0566 74.8233 32.9539 74.6837 32.8207C74.5457 32.6873 74.4373 32.5265 74.3655 32.3486C74.2883 32.1536 74.2497 31.9454 74.2521 31.7357C74.2521 31.5274 74.2875 31.3346 74.3624 31.1517C74.4337 30.9685 74.5375 30.8116 74.6675 30.6796C74.7974 30.545 74.9529 30.4424 75.1284 30.3622C75.3133 30.2807 75.5137 30.2402 75.7158 30.2434C75.9461 30.2434 76.1605 30.2723 76.3553 30.3298C76.5501 30.3877 76.7156 30.4841 76.8517 30.6191L76.6149 31.0202C76.5004 30.9164 76.3655 30.8376 76.2188 30.7888C76.0793 30.7439 75.9337 30.7212 75.7872 30.7217C75.6576 30.7217 75.5342 30.7471 75.4138 30.7954C75.2957 30.843 75.1878 30.9128 75.096 31.0009C75.0027 31.0922 74.9287 31.2014 74.8784 31.3218C74.8233 31.4468 74.7974 31.5849 74.7974 31.7388C74.7974 31.8962 74.8264 32.0373 74.8815 32.1592C74.9367 32.2846 75.0115 32.3906 75.1056 32.4801C75.1997 32.5704 75.3101 32.6375 75.4366 32.6826C75.5635 32.7274 75.6965 32.7532 75.8392 32.7532C76.0144 32.7532 76.1702 32.7177 76.3098 32.6502C76.4447 32.5851 76.566 32.4947 76.667 32.3841L76.9104 32.7497ZM77.173 30.3043H79.8055V30.8116H78.7471V33.1605H78.2345V30.8116H77.1765V30.3043H77.173Z" fill="black"/>
<path fill-rule="evenodd" clip-rule="evenodd" d="M80.8782 30.3052H80.3652V34.4322H80.8782V33.0298C80.982 33.0973 81.1054 33.1455 81.2481 33.1775C81.3908 33.2095 81.5401 33.2254 81.6928 33.2254C81.92 33.2254 82.1245 33.1837 82.3096 33.1069C82.4872 33.031 82.6481 32.9209 82.7832 32.783C82.9163 32.6445 83.017 32.484 83.0883 32.2946C83.1597 32.1057 83.1956 31.9032 83.1956 31.6883C83.1956 31.4762 83.1632 31.2806 83.1015 31.104C83.0433 30.9362 82.9529 30.7814 82.8353 30.6484C82.7199 30.5187 82.5767 30.4167 82.4164 30.3499C82.2412 30.2746 82.0521 30.2374 81.8614 30.2407C81.6605 30.2407 81.4722 30.2793 81.2936 30.3565C81.1151 30.4336 80.9754 30.5262 80.8782 30.6419V30.3052ZM81.2354 30.8347C81.3816 30.7576 81.5405 30.719 81.7125 30.719C81.8618 30.719 81.9949 30.7414 82.1152 30.7896C82.2321 30.8378 82.3293 30.9053 82.4107 30.9952C82.4917 31.0851 82.5534 31.188 82.5923 31.3095C82.6344 31.4314 82.654 31.5633 82.654 31.7076C82.654 31.8619 82.6278 31.9996 82.5827 32.128C82.5401 32.2498 82.4726 32.3613 82.3844 32.4555C82.2958 32.5485 82.1886 32.6217 82.0697 32.6703C81.9371 32.7258 81.7945 32.7532 81.6508 32.7506C81.5116 32.7506 81.3816 32.7347 81.2582 32.7027C81.123 32.666 80.9948 32.6073 80.8786 32.5292V31.1136C80.9693 31.0048 81.0896 30.9119 81.2354 30.8347ZM87.1294 30.3048H86.6164V33.1613H87.1294V30.3048ZM83.9323 30.3048H84.4453V31.1618H84.9189C85.143 31.1618 85.3247 31.1907 85.4709 31.2451C85.617 31.2999 85.7339 31.3736 85.8215 31.4634C85.909 31.5533 85.9707 31.6594 86.0062 31.7778C86.0421 31.8966 86.0614 32.0185 86.0614 32.1469C86.0614 32.2754 86.0421 32.3976 86.0001 32.5195C85.9611 32.6414 85.8928 32.7471 85.8018 32.8435C85.7112 32.9399 85.5877 33.0171 85.4319 33.0749C85.2761 33.1324 85.0879 33.1644 84.8607 33.1644H83.9292V30.3048H83.9323ZM84.4487 31.6397V32.6861H84.8221C85.0782 32.6861 85.2603 32.6414 85.364 32.5511C85.4678 32.4613 85.5198 32.3332 85.5198 32.1631C85.5198 31.9896 85.4647 31.8584 85.3609 31.7682C85.2537 31.6783 85.0751 31.6332 84.8287 31.6332H84.4487V31.6397Z" fill="black"/>
<path d="M89.5897 31.681L90.6867 33.1606H90.0572L89.2098 32.005L88.3497 33.1606H87.7526L88.843 31.7065L87.8174 30.304H88.4473L89.2295 31.3825L90.0244 30.304H90.6219L89.5897 31.681ZM44.5324 36.691H42.9583V39.0723H42.4453V36.2162H45.045V39.0723H44.5324V36.691ZM47.9563 36.723H46.9438L46.9111 37.2043C46.8756 37.612 46.827 37.9395 46.7587 38.1895C46.6904 38.4402 46.606 38.6326 46.5088 38.7672C46.4116 38.9022 46.2978 38.9952 46.1678 39.0403C46.0337 39.0889 45.8919 39.1129 45.7493 39.1109L45.7103 38.6164C45.7655 38.6195 45.8303 38.6068 45.9017 38.5748C45.9734 38.5428 46.0447 38.4722 46.1126 38.3665C46.1809 38.2569 46.2426 38.1031 46.2978 37.904C46.3529 37.7019 46.3888 37.4389 46.4081 37.1079L46.4602 36.2189H48.4693V39.0754H47.9563V36.723Z" fill="black"/>
<path fill-rule="evenodd" clip-rule="evenodd" d="M49.851 36.2228C49.6851 36.2675 49.5358 36.3316 49.4093 36.4118L49.5459 36.8164C49.6627 36.7586 49.7796 36.7103 49.8961 36.6687C50.013 36.627 50.1626 36.6077 50.3408 36.6077C50.4839 36.6077 50.5973 36.6301 50.6849 36.6749C50.7728 36.7169 50.8376 36.7809 50.8831 36.8581C50.9282 36.9352 50.9576 37.0316 50.9738 37.1435C50.99 37.2561 50.9965 37.378 50.9965 37.5095C50.8915 37.4365 50.7719 37.3873 50.6459 37.3653C50.5241 37.341 50.4002 37.3281 50.276 37.3267C50.1237 37.3267 49.9806 37.3491 49.8444 37.3876C49.7079 37.4262 49.591 37.4841 49.4969 37.5612C49.4008 37.6382 49.3232 37.7357 49.2697 37.8466C49.2127 37.9681 49.1839 38.1009 49.1856 38.2351C49.1856 38.5139 49.2666 38.7326 49.429 38.8865C49.591 39.0404 49.8055 39.1176 50.0716 39.1176C50.3119 39.1176 50.5032 39.0759 50.6494 38.9922C50.7952 38.9089 50.9121 38.8125 50.9965 38.7033V39.0724H51.4771V37.3201C51.4771 36.9479 51.3957 36.659 51.2303 36.4569C51.0679 36.2544 50.779 36.1522 50.3701 36.1522C50.1947 36.1524 50.0201 36.1764 49.851 36.2228ZM50.7111 38.5363C50.5946 38.62 50.4419 38.6586 50.2536 38.6586C50.0847 38.6586 49.9582 38.6169 49.8676 38.5363C49.7765 38.453 49.731 38.3438 49.731 38.2092C49.731 38.129 49.7472 38.0615 49.7831 38.0005C49.8186 37.9396 49.8676 37.8914 49.9227 37.8528C49.9779 37.8142 50.0458 37.7853 50.1206 37.766C50.1948 37.7469 50.2711 37.7373 50.3478 37.7375C50.6008 37.7375 50.8183 37.7984 50.9969 37.9265V38.289C50.9126 38.3834 50.8166 38.4665 50.7111 38.5363Z" fill="black"/>
<path d="M51.9805 36.2166H54.6129V36.7234H53.5546V39.0727H53.0419V36.7238H51.9839V36.2166H51.9805Z" fill="black"/>
<path fill-rule="evenodd" clip-rule="evenodd" d="M57.0104 39.0436C57.2052 38.9827 57.3707 38.8894 57.5134 38.7613L57.3576 38.3633C57.2635 38.447 57.1369 38.5175 56.9842 38.5754C56.8318 38.6332 56.6598 38.6618 56.4716 38.6618C56.1893 38.6618 55.9555 38.5881 55.7704 38.4373C55.5852 38.2865 55.485 38.0747 55.4622 37.8047H57.6823C57.7047 37.7056 57.7147 37.593 57.7147 37.4615C57.7147 37.2659 57.6789 37.0893 57.6075 36.9288C57.541 36.773 57.4438 36.6323 57.3217 36.5149C57.1983 36.3983 57.0527 36.3076 56.8936 36.2484C56.7269 36.1838 56.5496 36.1511 56.3709 36.152C56.1306 36.152 55.9196 36.1936 55.7349 36.2708C55.5601 36.3441 55.4021 36.4522 55.2705 36.5886C55.1426 36.7242 55.0442 36.8848 54.9816 37.0603C54.9132 37.2474 54.8791 37.4452 54.8809 37.6443C54.8809 37.8692 54.9199 38.0744 54.9912 38.2576C55.063 38.4404 55.1698 38.5978 55.3029 38.7293C55.436 38.8608 55.5984 38.9603 55.79 39.0309C55.9951 39.1038 56.2115 39.1397 56.4292 39.137C56.6209 39.137 56.8156 39.1046 57.0104 39.0436ZM55.709 36.842C55.868 36.6978 56.0789 36.6272 56.3451 36.6272C56.5985 36.6272 56.7964 36.6978 56.9425 36.8293C57.0883 36.9643 57.1663 37.1502 57.1794 37.3878H55.4267C55.4515 37.1776 55.5518 36.9836 55.709 36.842ZM57.9647 36.2164H58.6138L59.6035 37.5934L58.5456 39.0726H57.9161L59.0258 37.593L57.9647 36.2164ZM59.7301 36.2164H60.2431V39.0726H59.7301V36.2164ZM62.0767 39.0726L60.9474 37.593L62.0023 36.216H61.3659L60.3696 37.593L61.4407 39.0726H62.0767ZM64.4203 39.0436C64.6151 38.9827 64.7805 38.8894 64.9232 38.7613L64.7674 38.3633C64.6733 38.447 64.5468 38.5175 64.3944 38.5754C64.2417 38.6332 64.0697 38.6618 63.8814 38.6618C63.5991 38.6618 63.3654 38.5881 63.1802 38.4373C62.9955 38.2865 62.8948 38.0747 62.872 37.8047H65.0922C65.1149 37.7056 65.1246 37.593 65.1246 37.4615C65.1246 37.2659 65.0891 37.0893 65.0174 36.9288C64.9509 36.7731 64.8538 36.6324 64.7319 36.5149C64.6084 36.3983 64.4627 36.3076 64.3034 36.2484C64.1368 36.1838 63.9595 36.151 63.7808 36.152C63.5409 36.152 63.3299 36.1936 63.1447 36.2708C62.9701 36.3442 62.8123 36.4523 62.6807 36.5886C62.5526 36.724 62.4542 36.8847 62.3918 37.0603C62.3233 37.2473 62.2892 37.4452 62.2912 37.6443C62.2912 37.8692 62.3301 38.0744 62.4015 38.2576C62.4728 38.4404 62.5801 38.5978 62.7131 38.7293C62.8462 38.8608 63.0082 38.9603 63.1999 39.0309C63.4051 39.1038 63.6216 39.1397 63.8394 39.137C64.0366 39.1355 64.2325 39.104 64.4203 39.0436ZM63.1189 36.842C63.2782 36.6978 63.4892 36.6272 63.7553 36.6272C64.0053 36.6272 64.2062 36.6978 64.3524 36.8293C64.4986 36.9643 64.5765 37.1502 64.5892 37.3878H62.8366C62.8613 37.1776 62.9617 36.9836 63.1189 36.842ZM67.2055 35.2568C66.9035 35.2568 66.738 35.0897 66.7122 34.7561H66.2285C66.2285 34.8842 66.2512 34.9999 66.2933 35.109C66.3357 35.2182 66.3974 35.3111 66.4784 35.3883C66.5594 35.4654 66.6636 35.5264 66.7835 35.5742C66.9035 35.6224 67.0431 35.6448 67.202 35.6448C67.3482 35.6448 67.4782 35.6224 67.595 35.5742C67.7119 35.5295 67.8091 35.4654 67.8936 35.3883C67.9746 35.3111 68.0398 35.2182 68.0849 35.109C68.1304 34.9999 68.1532 34.8842 68.1532 34.7561H67.673C67.6502 35.0897 67.4909 35.2568 67.2055 35.2568ZM65.8193 36.216V39.0726H66.3322L68.0004 36.9446V39.0726H68.5134V36.216H68.0004L66.3322 38.344V36.216H65.8193Z" fill="black"/>
</g>
<defs>
<clipPath id="clip0_1_60737">
<rect width="92.1844" height="46.2851" fill="white" transform="translate(0.703125 0.604919)"/>
</clipPath>
</defs>
</svg>
