<svg width="50" height="15" viewBox="0 0 50 15" fill="none" xmlns="http://www.w3.org/2000/svg">
<path d="M17.8384 14.7249L20.2883 0.348589H24.2068L21.7551 14.7249H17.8384ZM35.9124 0.6585C35.1362 0.367243 33.9196 0.0546875 32.4005 0.0546875C28.5284 0.0546875 25.8011 2.00456 25.7777 4.79912C25.7559 6.86488 27.7249 8.01735 29.2113 8.70495C30.7367 9.40982 31.2493 9.85912 31.242 10.4883C31.2322 11.452 30.0239 11.892 28.8975 11.892C27.3293 11.892 26.496 11.6742 25.2091 11.1376L24.704 10.9091L24.1541 14.1274C25.0694 14.5289 26.7618 14.8764 28.5192 14.8944C32.6384 14.8944 35.3124 12.9668 35.3428 9.9825C35.3574 8.34702 34.3135 7.1026 32.0527 6.07644C30.6831 5.41138 29.8442 4.96759 29.8531 4.29416C29.8531 3.69658 30.5631 3.05759 32.0974 3.05759C33.3786 3.03769 34.307 3.31713 35.0303 3.60838L35.3814 3.77428L35.9124 0.6585ZM45.9963 0.348368H42.9684C42.0304 0.348368 41.3284 0.604376 40.9165 1.54057L35.0969 14.7155H39.2117C39.2117 14.7155 39.8843 12.9441 40.0365 12.5551C40.4862 12.5551 44.4836 12.5612 45.055 12.5612C45.1722 13.0646 45.5318 14.7155 45.5318 14.7155H49.1679L45.9963 0.347928V0.348368ZM41.1921 9.63175C41.5163 8.80344 42.7534 5.61289 42.7534 5.61289C42.7304 5.65115 43.0752 4.78054 43.2729 4.24076L43.5378 5.48026C43.5378 5.48026 44.2881 8.91198 44.445 9.63153H41.1921V9.63175ZM14.5119 0.348368L10.6755 10.1524L10.2668 8.16011C9.55255 5.86339 7.32743 3.37507 4.83984 2.12933L8.34779 14.702L12.4938 14.6974L18.6629 0.348221L14.5119 0.348149" fill="#0E4595"/>
<path d="M7.09734 0.347839H0.778601L0.728516 0.646955C5.64443 1.83696 8.8971 4.71274 10.2476 8.16854L8.87367 1.562C8.63654 0.651654 7.94857 0.379931 7.09748 0.348206" fill="#F2AE14"/>
</svg>
