<svg width="98" height="31" viewBox="0 0 98 31" fill="none" xmlns="http://www.w3.org/2000/svg">
<path d="M43.6649 18.221H30.7759C30.9585 19.3529 31.4697 20.2657 32.273 20.9228C33.0762 21.58 34.0985 21.9451 35.3765 21.9451C36.8736 21.9451 38.1515 21.434 39.2468 20.3752L42.606 21.9451C41.7661 23.1501 40.7438 24.0264 39.5755 24.6107C38.4071 25.1948 37.0196 25.4869 35.3765 25.4869C32.8572 25.4869 30.849 24.6836 29.2424 23.1136C27.6724 21.5436 26.8691 19.5719 26.8691 17.1621C26.8691 14.7158 27.6724 12.7076 29.2424 11.101C30.8125 9.49449 32.7842 8.69122 35.1574 8.69122C37.6767 8.69122 39.7214 9.49449 41.2915 11.101C42.8616 12.7076 43.6649 14.8253 43.6649 17.4907V18.221ZM39.685 15.0809C39.4294 14.2046 38.8817 13.4744 38.1149 12.9266C37.3482 12.3789 36.4354 12.0869 35.413 12.0869C34.2811 12.0869 33.3318 12.4155 32.4555 13.0362C31.9443 13.4378 31.4331 14.1316 30.9951 15.1174H39.685V15.0809Z" fill="#0D1019"/>
<path d="M46.3887 9.09285H50.4051V10.7359C51.3178 9.96916 52.1211 9.42146 52.8879 9.12936C53.6181 8.83726 54.3848 8.69122 55.1516 8.69122C56.7217 8.69122 58.0727 9.23891 59.168 10.3343C60.0808 11.2836 60.5555 12.6711 60.5555 14.4967V25.0487H56.6121V18.0749C56.6121 16.1763 56.5392 14.8984 56.3566 14.2776C56.1739 13.6569 55.8819 13.1822 55.4803 12.8537C55.0421 12.525 54.5309 12.3789 53.9102 12.3789C53.1069 12.3789 52.4132 12.6345 51.829 13.1822C51.2448 13.73 50.8432 14.4602 50.6241 15.446C50.5146 15.9571 50.4415 17.016 50.4415 18.6956V25.0853H46.4252V9.09285H46.3887Z" fill="#0D1019"/>
<path d="M71.9479 8.69122C73.4449 8.69122 74.8689 9.05634 76.1833 9.8231C77.4977 10.5899 78.5566 11.6122 79.2868 12.8901C80.0171 14.168 80.4188 15.592 80.4188 17.089C80.4188 18.5861 80.0536 20.0101 79.2868 21.3245C78.5566 22.6389 77.5342 23.6613 76.2198 24.3915C74.9054 25.1218 73.518 25.4869 71.9479 25.4869C69.6476 25.4869 67.7124 24.6836 66.0694 23.0406C64.4628 21.3976 63.623 19.4258 63.623 17.089C63.623 14.6062 64.5359 12.525 66.3615 10.8454C68.0046 9.38495 69.8666 8.69122 71.9479 8.69122ZM71.9844 12.452C70.7429 12.452 69.7206 12.8901 68.8808 13.7664C68.041 14.6428 67.6395 15.7381 67.6395 17.089C67.6395 18.4766 68.041 19.6084 68.8808 20.4482C69.6842 21.3245 70.7429 21.7261 71.9844 21.7261C73.2258 21.7261 74.2847 21.288 75.1244 20.4116C75.9642 19.5353 76.3658 18.4035 76.3658 17.0526C76.3658 15.6651 75.9642 14.5697 75.1244 13.73C74.3211 12.8901 73.2624 12.452 71.9844 12.452Z" fill="#0D1019"/>
<path d="M84.1443 3.21307H88.1606V9.09156H90.534V12.5237H88.1606V25.0475H84.1443V12.5237H82.0996V9.09156H84.1443V3.21307Z" fill="#0D1019"/>
<path d="M94.8784 20.8864C95.4991 20.8864 96.0468 21.1054 96.5214 21.5436C96.9596 21.9817 97.1787 22.5294 97.1787 23.1501C97.1787 23.7708 96.9596 24.3185 96.5214 24.7931C96.0834 25.2679 95.5356 25.4504 94.8784 25.4504C94.2577 25.4504 93.71 25.2313 93.2354 24.7931C92.7972 24.355 92.5781 23.8073 92.5781 23.1501C92.5781 22.4928 92.7972 21.9817 93.2354 21.5436C93.71 21.1054 94.2212 20.8864 94.8784 20.8864Z" fill="#FFDF54"/>
<path d="M9.72075 30.7062V21.1035H0.884766L12.7148 0.839111V10.4784H21.3682L9.72075 30.7062Z" fill="#FFDF54"/>
</svg>
