<svg width="12" height="11" viewBox="0 0 12 11" fill="none" xmlns="http://www.w3.org/2000/svg">
<path d="M1.44922 5.90572V10.0201C1.44922 10.5611 1.8878 10.9997 2.42882 10.9997H5.23733C5.30947 10.9997 5.36795 10.9412 5.36795 10.8691V6.75469C5.36795 6.57419 5.514 6.42815 5.69449 6.42815C5.87499 6.42815 6.02103 6.57419 6.02103 6.75469V10.869C6.02103 10.9412 6.07951 10.9996 6.15166 10.9996H8.95954C9.50056 10.9996 9.93914 10.5611 9.93914 10.02V5.90572C9.93914 5.83358 9.88066 5.77512 9.80852 5.77512H1.57984C1.5077 5.77509 1.44922 5.83358 1.44922 5.90572Z" fill="#798CB4"/>
<path d="M10.9163 2.50984H9.6886C9.84515 2.27483 9.93668 1.98752 9.93668 1.68713C9.93668 1.07965 9.59054 0.557 9.02882 0.328689C8.46729 0.0933521 7.84691 0.21771 7.42231 0.648506L5.69173 2.37909L3.96115 0.648506C3.53656 0.21771 2.91618 0.0933521 2.35463 0.328689C1.79293 0.557 1.44676 1.07965 1.44676 1.68713C1.44676 1.98752 1.53829 2.27483 1.69485 2.50984H0.467165C0.284282 2.50984 0.140625 2.65332 0.140625 2.83638V4.7956C0.140625 4.97863 0.284282 5.12214 0.467165 5.12214H5.37174V3.48946C5.37174 3.30642 5.50887 3.1693 5.69173 3.16292H5.69826C5.88114 3.16292 6.0248 3.30642 6.0248 3.48946V5.12214H10.9163C11.0992 5.12214 11.2428 4.97863 11.2428 4.7956V2.83638C11.2428 2.65332 11.0992 2.50984 10.9163 2.50984ZM2.92271 2.50984C2.46559 2.50984 2.09984 2.14407 2.09984 1.68713C2.09984 1.28216 2.361 1.03405 2.60926 0.929466C2.70062 0.89024 2.81175 0.864089 2.92925 0.864089C3.11866 0.864089 3.32755 0.929466 3.50388 1.1058L4.90155 2.50984H2.92271ZM8.46076 2.50984H6.48194L7.87961 1.1058C8.16692 0.824862 8.53269 0.831563 8.77423 0.929466C9.02246 1.03405 9.28365 1.28216 9.28365 1.68713C9.28363 2.14407 8.91786 2.50984 8.46076 2.50984Z" fill="#798CB4"/>
</svg>
