<svg width="47" height="29" viewBox="0 0 47 29" fill="none" xmlns="http://www.w3.org/2000/svg">
<path d="M29.6523 3.51111H17.2754V25.7503H29.6523V3.51111Z" fill="#FF5F00"/>
<path d="M18.0611 14.6306C18.0611 10.112 20.1828 6.10427 23.444 3.51101C21.0472 1.625 18.0218 0.485535 14.7212 0.485535C6.90216 0.485535 0.576172 6.81152 0.576172 14.6306C0.576172 22.4497 6.90216 28.7757 14.7212 28.7757C18.0218 28.7757 21.0472 27.6362 23.444 25.7502C20.1828 23.1962 18.0611 19.1492 18.0611 14.6306Z" fill="#EB001B"/>
<path d="M46.3542 14.6306C46.3542 22.4497 40.0282 28.7757 32.2091 28.7757C28.9086 28.7757 25.8831 27.6362 23.4863 25.7502C26.7868 23.1569 28.8693 19.1492 28.8693 14.6306C28.8693 10.112 26.7476 6.10427 23.4863 3.51101C25.8831 1.625 28.9086 0.485535 32.2091 0.485535C40.0282 0.485535 46.3542 6.85082 46.3542 14.6306Z" fill="#F79E1B"/>
</svg>
