<svg width="53" height="15" viewBox="0 0 53 15" fill="none" xmlns="http://www.w3.org/2000/svg">
<path d="M37.8418 6.69769V14.7492H42.3149V9.97794H47.3843C49.5165 9.96303 51.3281 8.59875 52.014 6.69769H37.8418Z" fill="#37A72E"/>
<path d="M37.2461 0.0629272C37.507 3.35063 40.6233 5.95247 44.4254 5.95247C44.4403 5.95247 52.2011 5.95247 52.2011 5.95247C52.2607 5.65427 52.2905 5.34115 52.2905 5.02058C52.2905 2.29201 50.0913 0.0852926 47.3701 0.0629272H37.2461Z" fill="url(#paint0_linear_1_60726)"/>
<path d="M30.6242 5.87046C30.6764 5.781 30.7584 5.72882 30.8628 5.72882C31.0119 5.72882 31.1237 5.8481 31.1312 5.98975V14.675H35.6042V0.0629272H31.1312C30.5646 0.0852926 29.9234 0.495324 29.6849 1.00973L26.1288 8.64377C26.1213 8.67359 26.1064 8.70341 26.0915 8.73323C26.0393 8.80778 25.9499 8.85997 25.8455 8.85997C25.6815 8.85997 25.5473 8.72577 25.5473 8.56176V0.0629272H21.0742V14.675H25.5473C26.1064 14.6451 26.7327 14.2351 26.9712 13.7282L30.6242 5.89283C30.6168 5.88537 30.6242 5.87792 30.6242 5.87046Z" fill="#37A72E"/>
<path d="M13.925 6.12425L11.3083 14.6753H8.08769L5.4784 6.1168C5.45603 5.9826 5.33675 5.87823 5.18765 5.87823C5.02364 5.87823 4.8969 6.01243 4.8969 6.16898V14.6678H0.423828V0.0557861H4.26321H5.40385C6.22391 0.0557861 7.0887 0.696927 7.32727 1.47971L9.50416 8.59935C9.61599 8.9572 9.78746 8.94974 9.89928 8.59935L12.0762 1.47971C12.3147 0.689472 13.1795 0.0557861 13.9996 0.0557861H15.1402H18.9796V14.6678H14.5065V6.16898C14.5065 6.16898 14.5065 6.16898 14.5065 6.16153C14.5065 5.99752 14.3724 5.87078 14.2158 5.87078C14.0667 5.87823 13.9474 5.98261 13.925 6.12425Z" fill="#37A72E"/>
<defs>
<linearGradient id="paint0_linear_1_60726" x1="37.2479" y1="3.00771" x2="52.2896" y2="3.00771" gradientUnits="userSpaceOnUse">
<stop stop-color="#00A0E5"/>
<stop offset="1" stop-color="#0077C3"/>
</linearGradient>
</defs>
</svg>
