<svg width="19" height="18" viewBox="0 0 19 18" fill="none" xmlns="http://www.w3.org/2000/svg">
<g clip-path="url(#clip0_1_56068)">
<path d="M16.674 2.00018H11.4265V4.18661C11.4265 4.41857 11.3344 4.64102 11.1704 4.80503C11.0063 4.96905 10.7839 5.06119 10.5519 5.06119C10.32 5.06119 10.0975 4.96905 9.93352 4.80503C9.76951 4.64102 9.67737 4.41857 9.67737 4.18661V2.00018H2.68079C2.21688 2.00018 1.77198 2.18447 1.44395 2.5125C1.11592 2.84052 0.931641 3.28543 0.931641 3.74933V6.37305C0.931641 6.605 1.02378 6.82745 1.1878 6.99146C1.35181 7.15548 1.57426 7.24762 1.80621 7.24762C2.27012 7.24762 2.71502 7.4319 3.04305 7.75993C3.37107 8.08796 3.55536 8.53286 3.55536 8.99677C3.55536 9.46067 3.37107 9.90557 3.04305 10.2336C2.71502 10.5616 2.27012 10.7459 1.80621 10.7459C1.57426 10.7459 1.35181 10.8381 1.1878 11.0021C1.02378 11.1661 0.931641 11.3885 0.931641 11.6205V14.2442C0.931641 14.7081 1.11592 15.153 1.44395 15.481C1.77198 15.8091 2.21688 15.9933 2.68079 15.9933H9.67737V13.8069C9.67737 13.575 9.76951 13.3525 9.93352 13.1885C10.0975 13.0245 10.32 12.9323 10.5519 12.9323C10.7839 12.9323 11.0063 13.0245 11.1704 13.1885C11.3344 13.3525 11.4265 13.575 11.4265 13.8069V15.9933H16.674C17.1379 15.9933 17.5828 15.8091 17.9108 15.481C18.2388 15.153 18.4231 14.7081 18.4231 14.2442V3.74933C18.4231 3.28543 18.2388 2.84052 17.9108 2.5125C17.5828 2.18447 17.1379 2.00018 16.674 2.00018ZM11.4265 10.5972C11.4265 10.8292 11.3344 11.0516 11.1704 11.2156C11.0063 11.3797 10.7839 11.4718 10.5519 11.4718C10.32 11.4718 10.0975 11.3797 9.93352 11.2156C9.76951 11.0516 9.67737 10.8292 9.67737 10.5972V7.3963C9.67737 7.16435 9.76951 6.9419 9.93352 6.77788C10.0975 6.61387 10.32 6.52172 10.5519 6.52172C10.7839 6.52172 11.0063 6.61387 11.1704 6.77788C11.3344 6.9419 11.4265 7.16435 11.4265 7.3963V10.5972Z" fill="#7A8CB4"/>
</g>
<defs>
<clipPath id="clip0_1_56068">
<rect width="18" height="18" fill="white" transform="translate(0.652344 0.00702286)"/>
</clipPath>
</defs>
</svg>
