<svg width="32" height="35" viewBox="0 0 32 35" fill="none" xmlns="http://www.w3.org/2000/svg">
<rect x="0.0683594" y="0.225342" width="31.9206" height="33.7983" rx="7.51074" fill="#F1F5FA"/>
<path d="M13.335 24.8563C13.5699 24.8562 13.7725 24.7629 13.9307 24.5878H13.9316L19.3408 18.6063L19.3486 18.5975L19.3564 18.5868C19.4206 18.4977 19.4724 18.4005 19.5117 18.2958C19.5532 18.1853 19.5752 18.0715 19.5752 17.9559C19.5752 17.8403 19.5532 17.7265 19.5117 17.6161C19.4723 17.5112 19.4208 17.4133 19.3564 17.3241L19.3486 17.3143L19.3408 17.3055L13.9316 11.3241C13.7734 11.1487 13.5702 11.0557 13.335 11.0555C13.1005 11.0555 12.8942 11.1479 12.7256 11.3163L12.7178 11.3241L12.8818 11.4725L12.7178 11.3251C12.5591 11.5013 12.4844 11.7195 12.4844 11.9637C12.4844 12.2081 12.5589 12.4271 12.7178 12.6034L17.541 17.9559L12.7178 23.3085C12.5589 23.4848 12.4844 23.7037 12.4844 23.9481C12.4844 24.1924 12.5591 24.4105 12.7178 24.5868L12.7256 24.5956C12.8942 24.764 13.1005 24.8563 13.335 24.8563Z" fill="#FD5B5E" stroke="#FD5B5E" stroke-width="0.442184"/>
</svg>
