<svg width="18" height="18" viewBox="0 0 18 18" fill="none" xmlns="http://www.w3.org/2000/svg">
<path fill-rule="evenodd" clip-rule="evenodd" d="M15.4421 3.43016C16.5163 4.03853 17.1789 5.1635 17.1789 6.38024V11.5304C17.1789 12.7478 16.5163 13.8721 15.4421 14.4805L10.8929 17.0562C9.81863 17.6646 8.49432 17.6646 7.42004 17.0562L2.87087 14.4805C1.79658 13.8721 1.13477 12.7478 1.13477 11.5304V6.38024C1.13477 5.1635 1.79658 4.03853 2.87087 3.43016L7.42004 0.855082C8.49432 0.246711 9.81863 0.246711 10.8929 0.855082L15.4421 3.43016ZM8.02904 2.02396L3.59887 4.53218C2.90095 4.92749 2.47177 5.65715 2.47177 6.44777V11.4636C2.47177 12.2535 2.90095 12.9838 3.59887 13.3791L8.02904 15.8867C8.72696 16.282 9.58599 16.282 10.2839 15.8867L14.7141 13.3791C15.412 12.9838 15.8418 12.2535 15.8418 11.4636V6.44777C15.8418 5.65715 15.412 4.92749 14.7141 4.53218L10.2839 2.02396C9.58599 1.62866 8.72696 1.62866 8.02904 2.02396ZM10.0827 3.42557L13.5782 5.40409C14.1512 5.7286 14.5048 6.32845 14.5048 6.97812V10.9358C14.5048 11.5848 14.1512 12.1847 13.5782 12.5092L10.0827 14.4884C9.50978 14.8128 8.80318 14.8128 8.23026 14.4884L4.73466 12.5092C4.16175 12.1847 3.80878 11.5848 3.80878 10.9358V6.97812C3.80878 6.32845 4.16175 5.7286 4.73466 5.40409L8.23026 3.42557C8.80318 3.10107 9.50978 3.10107 10.0827 3.42557ZM7.1513 10.9234H11.1623V6.98992H7.1513V10.9234Z" fill="#FD5B5E"/>
</svg>
