<svg width="19" height="18" viewBox="0 0 19 18" fill="none" xmlns="http://www.w3.org/2000/svg">
<path fill-rule="evenodd" clip-rule="evenodd" d="M15.8015 3.43016C16.8757 4.03853 17.5382 5.1635 17.5382 6.38024V11.5304C17.5382 12.7478 16.8757 13.8721 15.8015 14.4805L11.2523 17.0562C10.178 17.6646 8.85369 17.6646 7.77941 17.0562L3.23025 14.4805C2.15596 13.8721 1.49414 12.7478 1.49414 11.5304V6.38024C1.49414 5.1635 2.15596 4.03853 3.23025 3.43016L7.77941 0.855082C8.85369 0.246711 10.178 0.246711 11.2523 0.855082L15.8015 3.43016ZM8.38841 2.02396L3.95824 4.53218C3.26033 4.92749 2.83115 5.65715 2.83115 6.44777V11.4636C2.83115 12.2535 3.26033 12.9838 3.95824 13.3791L8.38841 15.8867C9.08633 16.282 9.94536 16.282 10.6433 15.8867L15.0734 13.3791C15.7713 12.9838 16.2012 12.2535 16.2012 11.4636V6.44777C16.2012 5.65715 15.7713 4.92749 15.0734 4.53218L10.6433 2.02396C9.94536 1.62866 9.08633 1.62866 8.38841 2.02396ZM10.4421 3.42557L13.9376 5.40409C14.5106 5.7286 14.8642 6.32845 14.8642 6.97812V10.9358C14.8642 11.5848 14.5106 12.1847 13.9376 12.5092L10.4421 14.4884C9.86915 14.8128 9.16255 14.8128 8.58964 14.4884L5.09404 12.5092C4.52112 12.1847 4.16815 11.5848 4.16815 10.9358V6.97812C4.16815 6.32845 4.52112 5.7286 5.09404 5.40409L8.58964 3.42557C9.16255 3.10107 9.86915 3.10107 10.4421 3.42557ZM7.51067 10.9234H11.5217V6.98992H7.51067V10.9234Z" fill="#29A8EB"/>
</svg>
