<svg width="18" height="18" viewBox="0 0 18 18" fill="none" xmlns="http://www.w3.org/2000/svg">
<path fill-rule="evenodd" clip-rule="evenodd" d="M15.5339 3.83898C16.6081 4.44735 17.2706 5.57232 17.2706 6.78906V11.9392C17.2706 13.1566 16.6081 14.2809 15.5339 14.8893L10.9847 17.465C9.91042 18.0734 8.58611 18.0734 7.51183 17.465L2.96267 14.8893C1.88838 14.2809 1.22656 13.1566 1.22656 11.9392V6.78906C1.22656 5.57232 1.88838 4.44735 2.96267 3.83898L7.51183 1.2639C8.58611 0.655525 9.91042 0.655525 10.9847 1.2639L15.5339 3.83898ZM8.12083 2.43278L3.69067 4.94099C2.99275 5.33631 2.56357 6.06596 2.56357 6.85658V11.8724C2.56357 12.6623 2.99275 13.3926 3.69067 13.7879L8.12083 16.2955C8.81875 16.6908 9.67778 16.6908 10.3757 16.2955L14.8058 13.7879C15.5038 13.3926 15.9336 12.6623 15.9336 11.8724V6.85658C15.9336 6.06596 15.5038 5.33631 14.8058 4.94099L10.3757 2.43278C9.67778 2.03747 8.81875 2.03747 8.12083 2.43278ZM10.1745 3.83439L13.67 5.8129C14.243 6.13741 14.5966 6.73727 14.5966 7.38693V11.3446C14.5966 11.9937 14.243 12.5935 13.67 12.918L10.1745 14.8972C9.60158 15.2216 8.89497 15.2216 8.32206 14.8972L4.82646 12.918C4.25355 12.5935 3.90058 11.9937 3.90058 11.3446V7.38693C3.90058 6.73727 4.25355 6.13741 4.82646 5.8129L8.32206 3.83439C8.89497 3.50988 9.60158 3.50988 10.1745 3.83439ZM7.24309 11.3322H11.2541V7.39873H7.24309V11.3322Z" fill="#2F90FF"/>
</svg>
