<svg width="33" height="34" viewBox="0 0 33 34" fill="none" xmlns="http://www.w3.org/2000/svg">
<path fill-rule="evenodd" clip-rule="evenodd" d="M28.4546 6.14861C30.5137 7.31477 31.7837 9.47119 31.7837 11.8035V21.6757C31.7837 24.0093 30.5137 26.1644 28.4546 27.3306L19.7344 32.2679C17.6751 33.4341 15.1366 33.4341 13.0773 32.2679L4.35719 27.3306C2.29792 26.1644 1.0293 24.0093 1.0293 21.6757V11.8035C1.0293 9.47119 2.29792 7.31477 4.35719 6.14861L13.0773 1.21251C15.1366 0.0463492 17.6751 0.0463492 19.7344 1.21251L28.4546 6.14861ZM14.2447 3.45311L5.75266 8.26102C4.41484 9.01879 3.59216 10.4174 3.59216 11.933V21.5476C3.59216 23.0617 4.41484 24.4616 5.75266 25.2194L14.2447 30.0261C15.5825 30.7839 17.2292 30.7839 18.567 30.0261L27.059 25.2194C28.3968 24.4616 29.2208 23.0617 29.2208 21.5476V11.933C29.2208 10.4174 28.3968 9.01879 27.059 8.26102L18.567 3.45311C17.2292 2.69536 15.5825 2.69536 14.2447 3.45311ZM18.1813 6.13981L24.8818 9.93236C25.9801 10.5544 26.658 11.7042 26.658 12.9496V20.5359C26.658 21.7801 25.9801 22.9299 24.8818 23.5519L18.1813 27.3458C17.0831 27.9676 15.7286 27.9676 14.6304 27.3458L7.92982 23.5519C6.83163 22.9299 6.15503 21.7801 6.15503 20.5359V12.9496C6.15503 11.7042 6.83163 10.5544 7.92982 9.93236L14.6304 6.13981C15.7286 5.51777 17.0831 5.51777 18.1813 6.13981ZM12.5622 20.5121H20.2508V12.9722H12.5622V20.5121Z" fill="white"/>
</svg>
