<svg width="69" height="38" viewBox="0 0 69 38" fill="none" xmlns="http://www.w3.org/2000/svg">
<path d="M64.4155 0.769775H4.62826C2.38064 0.769775 0.558594 2.59187 0.558594 4.83954V33.3279C0.558594 35.5756 2.38064 37.3977 4.62826 37.3977H64.4155C66.6631 37.3977 68.4851 35.5756 68.4851 33.3279V4.83954C68.4851 2.59187 66.6631 0.769775 64.4155 0.769775Z" fill="#101529"/>
<path d="M54.2351 22.7879H52.281V18.9491H50.3994V22.7879H48.4453V17.3151H54.2351V22.7879Z" fill="url(#paint0_linear_1_56019)" fill-opacity="0.5"/>
<path fill-rule="evenodd" clip-rule="evenodd" d="M44.4359 22.984C46.1852 22.984 47.4843 21.9114 47.4843 20.2855C47.4843 18.7117 46.5258 17.6899 44.9241 17.6899C44.1849 17.6899 43.5749 17.95 43.1155 18.399C43.2252 17.471 44.0099 16.7936 44.8739 16.7936C45.0733 16.7936 46.5745 16.7903 46.5745 16.7903L47.4234 15.1659C47.4234 15.1659 45.5387 15.2088 44.6626 15.2088C42.6607 15.2436 41.3086 17.0633 41.3086 19.2733C41.3086 21.848 42.6273 22.984 44.4359 22.984ZM44.4466 19.1287C45.096 19.1287 45.5463 19.5555 45.5463 20.2853C45.5463 20.942 45.1463 21.4832 44.4466 21.4846C43.7773 21.4846 43.327 20.9832 43.327 20.2964C43.327 19.5665 43.7773 19.1287 44.4466 19.1287Z" fill="url(#paint1_linear_1_56019)" fill-opacity="0.5"/>
<path d="M39.7204 20.9539C39.7204 20.9539 39.2589 21.2199 38.5697 21.2702C37.7773 21.2937 37.0713 20.7934 37.0713 19.9041C37.0713 19.0367 37.6943 18.5396 38.5497 18.5396C39.0742 18.5396 39.7681 18.9032 39.7681 18.9032C39.7681 18.9032 40.2758 17.9715 40.5389 17.5055C40.0573 17.1404 39.4158 16.9403 38.6697 16.9403C36.7866 16.9403 35.3281 18.1681 35.3281 19.8931C35.3281 21.6402 36.6989 22.8393 38.6697 22.8032C39.2204 22.7827 39.9804 22.5892 40.4436 22.2917L39.7204 20.9539Z" fill="url(#paint2_linear_1_56019)" fill-opacity="0.5"/>
<path d="M14.793 12.7625L17.5036 17.6076V20.563L14.7961 25.3986L14.7946 19.0805L14.793 12.7625Z" fill="#666976"/>
<path d="M25.207 15.8432L27.747 14.2864L32.9453 14.2815L25.207 19.0221V15.8432Z" fill="#676A77"/>
<path d="M25.1988 12.7354L25.2132 19.1501L22.4961 17.4807V7.89172L25.1988 12.7354Z" fill="#717480"/>
<path d="M32.9514 14.2843L27.7531 14.2892L25.1988 12.7354L22.4961 7.89172L32.9514 14.2843Z" fill="#717480"/>
<path d="M25.2132 25.4241V22.3118L22.4961 20.6741L22.4976 30.2726L25.2132 25.4241Z" fill="#727581"/>
<path d="M27.7345 23.8829L17.5036 17.6076L14.793 12.7625L32.9281 23.8765L27.7345 23.8829Z" fill="#6B6E7A"/>
<path d="M22.4961 30.2737L25.2116 25.4252L27.7453 23.8826L32.9388 23.8762L22.4961 30.2737Z" fill="#646875"/>
<path d="M14.793 25.399L22.5029 20.6761L19.9109 19.0857L17.5005 20.5634L14.793 25.399Z" fill="#696C79"/>
<defs>
<linearGradient id="paint0_linear_1_56019" x1="34.5151" y1="7.8908" x2="34.5151" y2="30.2745" gradientUnits="userSpaceOnUse">
<stop stop-color="white"/>
<stop offset="1" stop-color="white" stop-opacity="0.5"/>
</linearGradient>
<linearGradient id="paint1_linear_1_56019" x1="34.5189" y1="7.89118" x2="34.5189" y2="30.2749" gradientUnits="userSpaceOnUse">
<stop stop-color="white"/>
<stop offset="1" stop-color="white" stop-opacity="0.5"/>
</linearGradient>
<linearGradient id="paint2_linear_1_56019" x1="34.5213" y1="7.88894" x2="34.5213" y2="30.2727" gradientUnits="userSpaceOnUse">
<stop stop-color="white"/>
<stop offset="1" stop-color="white" stop-opacity="0.5"/>
</linearGradient>
</defs>
</svg>
