<svg width="38" height="36" viewBox="0 0 38 36" fill="none" xmlns="http://www.w3.org/2000/svg">
<path d="M35.3991 35.4658C35.8417 35.4658 36.2004 35.1071 36.2004 34.6645V33.707C36.2004 33.4275 36.0556 33.1664 35.8117 33.0298C32.4889 31.1697 28.5243 30.9791 23.6413 30.477C23.5583 30.4685 23.4856 30.5336 23.4857 30.617V30.617L23.482 32.5273C23.4812 32.9332 23.2664 33.308 22.9178 33.5115V33.5115C22.7295 33.6215 22.8073 33.9107 23.0252 33.914C27.4622 33.9813 30.3326 34.3203 33.7619 35.4263C33.8423 35.4522 33.9268 35.4658 34.0112 35.4658H35.3991Z" fill="#FFB800"/>
<path d="M29.0747 29.5069C28.4601 29.4414 28.1284 28.7389 28.4799 28.2305L30.5623 25.2185C30.6549 25.0845 30.7045 24.9256 30.7045 24.7628V13.3717C30.7045 12.5093 31.8802 12.2556 32.2358 13.0413L37.4673 24.5991C37.5834 24.8557 37.5563 25.1545 37.3959 25.386L34.2065 29.9877C34.0128 30.2672 33.664 30.3941 33.3349 30.3085C32.7122 30.1464 31.6838 29.8898 30.92 29.7539C30.3693 29.6559 29.6771 29.5711 29.0747 29.5069Z" fill="#FFB800"/>
<path d="M2.68216 35.4658C2.23962 35.4658 1.88086 35.1071 1.88086 34.6645V33.707C1.88086 33.4275 2.02566 33.1664 2.26955 33.0298C5.59237 31.1697 9.55703 30.9791 14.4399 30.477C14.5229 30.4685 14.5957 30.5336 14.5956 30.617V30.617L14.5992 32.5273C14.6 32.9332 14.8149 33.308 15.1635 33.5115V33.5115C15.3518 33.6215 15.274 33.9107 15.056 33.914C10.6191 33.9813 7.74864 34.3203 4.31936 35.4263C4.23896 35.4522 4.15448 35.4658 4.07 35.4658H2.68216Z" fill="#FFB800"/>
<path d="M9.00754 29.5069C9.62213 29.4414 9.95382 28.7389 9.60233 28.2305L7.51991 25.2185C7.42733 25.0845 7.37773 24.9256 7.37773 24.7628V13.3717C7.37773 12.5093 6.20206 12.2556 5.84642 13.0413L0.614976 24.5991C0.498825 24.8557 0.525938 25.1545 0.68639 25.386L3.87569 29.9877C4.06942 30.2672 4.41821 30.3941 4.74733 30.3085C5.36999 30.1464 6.39843 29.8898 7.16222 29.7539C7.71298 29.6559 8.40514 29.5711 9.00754 29.5069Z" fill="#FFB800"/>
<path d="M26.2284 25.3312C26.3674 25.1301 26.407 24.8765 26.336 24.6426L19.8285 3.22013C19.5988 2.4639 18.5289 2.46168 18.296 3.21695L11.6908 24.6411C11.6184 24.8758 11.6577 25.1308 11.7974 25.3328L14.2024 28.8115C14.3065 28.9621 14.5427 28.8887 14.543 28.7056V28.7056C14.5438 28.2998 14.7587 27.9249 15.1073 27.7214L16.7483 26.763L18.3929 25.811C18.5837 25.7006 18.801 25.6504 19.0136 25.6607C19.2261 25.6504 19.4409 25.7006 19.6317 25.811L21.2764 26.763L22.9173 27.7214C23.2659 27.9249 23.4808 28.2998 23.4816 28.7056V28.7056C23.4819 28.8887 23.7181 28.9621 23.8222 28.8115L26.2284 25.3312Z" fill="#FFB800"/>
<path fill-rule="evenodd" clip-rule="evenodd" d="M19.4978 34.2482C19.2318 34.401 18.9046 34.401 18.6387 34.2482L17.3867 33.5285L16.1375 32.804C15.8721 32.6502 15.7085 32.3668 15.7079 32.06L15.7051 30.616L15.7079 29.1719C15.7085 28.8651 15.8721 28.5818 16.1375 28.4279L17.3867 27.7034L18.6387 26.9838C18.9046 26.8309 19.2318 26.8309 19.4978 26.9838L20.7498 27.7034L21.999 28.4279C22.2644 28.5818 22.4279 28.8651 22.4285 29.1719L22.4314 30.616L22.4285 32.06C22.4279 32.3668 22.2644 32.6502 21.999 32.804L20.7498 33.5285L19.4978 34.2482ZM20.4689 30.1242C20.4689 29.6817 20.1101 29.3229 19.6676 29.3229H18.5764C18.1338 29.3229 17.7751 29.6817 17.7751 30.1242V31.2154C17.7751 31.658 18.1338 32.0167 18.5764 32.0167H19.6676C20.1101 32.0167 20.4689 31.658 20.4689 31.2154V30.1242Z" fill="#FFB800"/>
</svg>
