<svg width="18" height="20" viewBox="0 0 18 20" fill="none" xmlns="http://www.w3.org/2000/svg">
<path d="M9.83398 12.5002H8.16732C7.9463 12.5002 7.73434 12.588 7.57806 12.7443C7.42178 12.9006 7.33398 13.1126 7.33398 13.3336V19.1669H10.6673V13.3336C10.6673 13.1126 10.5795 12.9006 10.4232 12.7443C10.267 12.588 10.055 12.5002 9.83398 12.5002Z" fill="#798CB4"/>
<path d="M15.4763 4.30878L11.3096 1.53378C10.6258 1.07872 9.82271 0.835938 9.0013 0.835938C8.17989 0.835938 7.37681 1.07872 6.69297 1.53378L2.5263 4.30878C1.95505 4.68893 1.48652 5.20427 1.16233 5.80904C0.838137 6.4138 0.668323 7.08927 0.667969 7.77545V15.0005C0.667969 15.5476 0.775743 16.0894 0.985137 16.595C1.19453 17.1005 1.50145 17.5598 1.88836 17.9467C2.66976 18.7281 3.72957 19.1671 4.83464 19.1671H5.66797V13.3338C5.66797 12.6707 5.93136 12.0349 6.4002 11.566C6.86904 11.0972 7.50493 10.8338 8.16797 10.8338H9.83464C10.4977 10.8338 11.1336 11.0972 11.6024 11.566C12.0712 12.0349 12.3346 12.6707 12.3346 13.3338V19.1671H13.168C13.7151 19.1671 14.257 19.0593 14.7625 18.85C15.268 18.6406 15.7273 18.3336 16.1142 17.9467C16.5012 17.5598 16.8081 17.1005 17.0175 16.595C17.2269 16.0894 17.3346 15.5476 17.3346 15.0005V7.77545C17.3343 7.08927 17.1645 6.4138 16.8403 5.80904C16.5161 5.20427 16.0476 4.68893 15.4763 4.30878Z" fill="#798CB4"/>
</svg>
