<svg width="49" height="14" viewBox="0 0 49 14" fill="none" xmlns="http://www.w3.org/2000/svg">
<path d="M35.3262 6.3418V13.8593H39.5025V9.40447H44.2358C46.2265 9.39055 47.9179 8.11675 48.5583 6.3418H35.3262Z" fill="#878A94"/>
<path d="M34.7695 0.146484C35.0132 3.21612 37.9227 5.64537 41.4726 5.64537C41.4865 5.64537 48.7325 5.64537 48.7325 5.64537C48.7882 5.36695 48.8161 5.0746 48.8161 4.7753C48.8161 2.22771 46.7627 0.167366 44.2221 0.146484H34.7695Z" fill="#878A94"/>
<path d="M28.5904 5.56881C28.6391 5.48528 28.7157 5.43656 28.8131 5.43656C28.9523 5.43656 29.0567 5.54793 29.0637 5.68018V13.7893H33.2401V0.146484H29.0637C28.5347 0.167366 27.9361 0.5502 27.7133 1.03048L24.3931 8.15816C24.3862 8.186 24.3722 8.21384 24.3583 8.24168C24.3096 8.31129 24.2261 8.36002 24.1286 8.36002C23.9755 8.36002 23.8502 8.23472 23.8502 8.08159V0.146484H19.6738V13.7893H23.8502C24.3722 13.7615 24.9569 13.3786 25.1797 12.9053L28.5904 5.58969C28.5834 5.58273 28.5904 5.57577 28.5904 5.56881Z" fill="#878A94"/>
<path d="M12.9963 5.80657L10.5531 13.7904H7.54614L5.10993 5.79961C5.08904 5.67432 4.97767 5.57687 4.83846 5.57687C4.68533 5.57687 4.567 5.70216 4.567 5.84833V13.7834H0.390625V0.140625H3.97534H5.04032C5.80599 0.140625 6.61342 0.739239 6.83616 1.4701L8.86866 8.1175C8.97307 8.45161 9.13316 8.44465 9.23757 8.1175L11.2701 1.4701C11.4928 0.732278 12.3002 0.140625 13.0659 0.140625H14.1309H17.7156V13.7834H13.5392V5.84833C13.5392 5.84833 13.5392 5.84833 13.5392 5.84137C13.5392 5.68824 13.4139 5.56991 13.2678 5.56991C13.1286 5.57687 13.0172 5.67432 12.9963 5.80657Z" fill="#878A94"/>
</svg>
