<svg width="62" height="37" viewBox="0 0 62 37" fill="none" xmlns="http://www.w3.org/2000/svg">
<path d="M57.1082 0.302734H4.88259C2.66387 0.302734 0.865234 2.10126 0.865234 4.31986V32.4398C0.865234 34.6584 2.66387 36.4569 4.88259 36.4569H57.1082C59.327 36.4569 61.1256 34.6584 61.1256 32.4398V4.31986C61.1256 2.10126 59.327 0.302734 57.1082 0.302734Z" fill="#101529"/>
<path opacity="0.2" d="M46.2765 24.5952V24.2687H46.4162V24.2019H46.0898V24.2687H46.2296V24.5952H46.2765ZM46.9292 24.5952V24.1992H46.8363L46.7199 24.4553L46.6035 24.1992H46.5105V24.5952H46.5774V24.2922L46.6938 24.5484H46.7606L46.877 24.2922V24.5952H46.9292Z" fill="white"/>
<path opacity="0.35" d="M24.9692 28.4235C30.516 28.4235 35.0126 23.9272 35.0126 18.3807C35.0126 12.8343 30.516 8.33789 24.9692 8.33789C19.4224 8.33789 14.9258 12.8343 14.9258 18.3807C14.9258 23.9272 19.4224 28.4235 24.9692 28.4235Z" fill="url(#paint0_linear_1_57780)"/>
<path opacity="0.25" d="M37.02 28.4235C42.5668 28.4235 47.0634 23.9272 47.0634 18.3807C47.0634 12.8343 42.5668 8.33789 37.02 8.33789C31.4732 8.33789 26.9766 12.8343 26.9766 18.3807C26.9766 23.9272 31.4732 28.4235 37.02 28.4235Z" fill="url(#paint1_linear_1_57780)"/>
<defs>
<linearGradient id="paint0_linear_1_57780" x1="24.9692" y1="8.33789" x2="24.9692" y2="28.4235" gradientUnits="userSpaceOnUse">
<stop stop-color="white"/>
</linearGradient>
<linearGradient id="paint1_linear_1_57780" x1="37.02" y1="8.33789" x2="37.02" y2="28.4235" gradientUnits="userSpaceOnUse">
<stop stop-color="white"/>
</linearGradient>
</defs>
</svg>
