<svg width="17" height="16" viewBox="0 0 17 16" fill="none" xmlns="http://www.w3.org/2000/svg">
<path d="M15.4401 15.9277C15.6324 15.9277 15.7882 15.7718 15.7882 15.5796V15.1638C15.7882 15.0424 15.7253 14.9289 15.6193 14.8696C14.1762 14.0617 12.4542 13.979 10.3334 13.7609C10.2974 13.7572 10.2657 13.7855 10.2658 13.8217L10.2642 14.6514C10.2639 14.8277 10.1705 14.9905 10.0191 15.0789C9.93737 15.1266 9.97114 15.2522 10.0658 15.2537C11.9929 15.2829 13.2396 15.4301 14.729 15.9105C14.764 15.9218 14.8007 15.9277 14.8373 15.9277H15.4401Z" fill="#FFB800"/>
<path d="M12.6924 13.3406C12.4254 13.3121 12.2814 13.007 12.434 12.7862L13.3385 11.478C13.3787 11.4198 13.4002 11.3508 13.4002 11.2801V6.33262C13.4002 5.95803 13.9109 5.84785 14.0653 6.18911L16.3375 11.209C16.3879 11.3204 16.3762 11.4502 16.3065 11.5508L14.9212 13.5494C14.8371 13.6708 14.6856 13.7259 14.5427 13.6887C14.2722 13.6183 13.8256 13.5069 13.4938 13.4478C13.2546 13.4053 12.954 13.3685 12.6924 13.3406Z" fill="#FFB800"/>
<path d="M1.23084 15.9277C1.03863 15.9277 0.882812 15.7718 0.882812 15.5796V15.1638C0.882812 15.0424 0.945705 14.9289 1.05163 14.8696C2.49483 14.0617 4.21679 13.979 6.33758 13.7609C6.37361 13.7572 6.40523 13.7855 6.40517 13.8217L6.40677 14.6514C6.40711 14.8277 6.50044 14.9905 6.65185 15.0789C6.73361 15.1266 6.69984 15.2522 6.60516 15.2537C4.67807 15.2829 3.43136 15.4301 1.94192 15.9105C1.907 15.9218 1.87031 15.9277 1.83362 15.9277H1.23084Z" fill="#FFB800"/>
<path d="M3.97645 13.3406C4.24339 13.3121 4.38745 13.007 4.23478 12.7862L3.33033 11.478C3.29012 11.4198 3.26858 11.3508 3.26858 11.2801V6.33262C3.26858 5.95804 2.75795 5.84785 2.60349 6.18911L0.331324 11.209C0.280876 11.3204 0.292653 11.4502 0.362341 11.5508L1.74755 13.5494C1.83169 13.6708 1.98318 13.7259 2.12612 13.6887C2.39656 13.6184 2.84324 13.5069 3.17498 13.4478C3.41419 13.4053 3.71481 13.3685 3.97645 13.3406Z" fill="#FFB800"/>
<path d="M11.4576 11.5265C11.518 11.4392 11.5352 11.329 11.5043 11.2274L8.67796 1.92308C8.57819 1.59463 8.11351 1.59366 8.01237 1.9217L5.14353 11.2268C5.1121 11.3288 5.12917 11.4395 5.18984 11.5273L6.23439 13.0381C6.27962 13.1036 6.38219 13.0717 6.38235 12.9921C6.38269 12.8159 6.47602 12.6531 6.62741 12.5647L7.34014 12.1484L8.05445 11.7349C8.13732 11.687 8.2317 11.6652 8.32402 11.6696C8.41635 11.6652 8.50962 11.687 8.59251 11.7349L9.30682 12.1484L10.0195 12.5647C10.1709 12.6531 10.2643 12.8159 10.2646 12.9921C10.2648 13.0717 10.3673 13.1035 10.4125 13.0381L11.4576 11.5265Z" fill="#FFB800"/>
<path fill-rule="evenodd" clip-rule="evenodd" d="M8.53399 15.3993C8.41848 15.4656 8.27638 15.4656 8.16087 15.3993L7.61708 15.0867L7.07452 14.772C6.95925 14.7052 6.8882 14.5821 6.88794 14.4489L6.88672 13.8217L6.88794 13.1945C6.8882 13.0612 6.95925 12.9382 7.07452 12.8713L7.61708 12.5567L8.16087 12.2441C8.27638 12.1777 8.41848 12.1777 8.53399 12.2441L9.07779 12.5567L9.62035 12.8713C9.7356 12.9382 9.80665 13.0612 9.80691 13.1945L9.80815 13.8217L9.80691 14.4489C9.80665 14.5821 9.7356 14.7052 9.62035 14.772L9.07779 15.0867L8.53399 15.3993ZM8.95577 13.6081C8.95577 13.4159 8.79995 13.2601 8.60774 13.2601H8.13381C7.9416 13.2601 7.78578 13.4159 7.78578 13.6081V14.082C7.78578 14.2743 7.9416 14.4301 8.13381 14.4301H8.60774C8.79995 14.4301 8.95577 14.2743 8.95577 14.082V13.6081Z" fill="#FFB800"/>
</svg>
