<svg width="50" height="15" viewBox="0 0 50 15" fill="none" xmlns="http://www.w3.org/2000/svg">
<path d="M35.6992 6.64746V14.1649H39.8756V9.71013H44.6088C46.5995 9.69621 48.291 8.42242 48.9314 6.64746H35.6992Z" fill="#878A94"/>
<path d="M35.1406 0.453125C35.3842 3.52276 38.2938 5.95201 41.8437 5.95201C41.8576 5.95201 49.1036 5.95201 49.1036 5.95201C49.1593 5.67359 49.1872 5.38124 49.1872 5.08194C49.1872 2.53435 47.1338 0.474007 44.5932 0.453125H35.1406Z" fill="#878A94"/>
<path d="M28.9595 5.87545C29.0082 5.79192 29.0848 5.7432 29.1823 5.7432C29.3215 5.7432 29.4259 5.85457 29.4328 5.98682V14.0959H33.6092V0.453125H29.4328C28.9038 0.474007 28.3052 0.856841 28.0825 1.33712L24.7623 8.4648C24.7553 8.49264 24.7414 8.52048 24.7275 8.54833C24.6787 8.61793 24.5952 8.66666 24.4978 8.66666C24.3446 8.66666 24.2193 8.54137 24.2193 8.38823V0.453125H20.043V14.0959H24.2193C24.7414 14.0681 25.3261 13.6853 25.5488 13.2119L28.9595 5.89633C28.9526 5.88937 28.9595 5.88241 28.9595 5.87545Z" fill="#878A94"/>
<path d="M13.3674 6.11223L10.9242 14.0961H7.91724L5.48102 6.10527C5.46014 5.97998 5.34877 5.88253 5.20955 5.88253C5.05642 5.88253 4.93809 6.00782 4.93809 6.154V14.0891H0.761719V0.446289H4.34644H5.41141C6.17708 0.446289 6.98451 1.0449 7.20725 1.77577L9.23975 8.42316C9.34416 8.75727 9.50426 8.75031 9.60867 8.42316L11.6412 1.77577C11.8639 1.03794 12.6713 0.446289 13.437 0.446289H14.502H18.0867V14.0891H13.9103V6.154C13.9103 6.154 13.9103 6.154 13.9103 6.14704C13.9103 5.9939 13.785 5.87557 13.6389 5.87557C13.4997 5.88253 13.3883 5.97998 13.3674 6.11223Z" fill="#878A94"/>
</svg>
