<svg width="62" height="38" viewBox="0 0 62 38" fill="none" xmlns="http://www.w3.org/2000/svg">
<path d="M56.4813 0.609375H4.25564C2.03691 0.609375 0.238281 2.4079 0.238281 4.6265V32.7464C0.238281 34.965 2.03691 36.7635 4.25564 36.7635H56.4813C58.7 36.7635 60.4986 34.965 60.4986 32.7464V4.6265C60.4986 2.4079 58.7 0.609375 56.4813 0.609375Z" fill="#101529"/>
<path opacity="0.2" d="M45.6475 24.9028V24.5764H45.7873V24.5095H45.4609V24.5764H45.6007V24.9028H45.6475ZM46.3003 24.9028V24.5068H46.2074L46.091 24.763L45.9746 24.5068H45.8816V24.9028H45.9485V24.5998L46.0649 24.856H46.1317L46.2481 24.5998V24.9028H46.3003Z" fill="white"/>
<path opacity="0.35" d="M24.3403 28.7311C29.8871 28.7311 34.3837 24.2348 34.3837 18.6883C34.3837 13.1419 29.8871 8.64551 24.3403 8.64551C18.7935 8.64551 14.2969 13.1419 14.2969 18.6883C14.2969 24.2348 18.7935 28.7311 24.3403 28.7311Z" fill="url(#paint0_linear_1_61082)"/>
<path opacity="0.25" d="M36.3911 28.7311C41.9379 28.7311 46.4344 24.2348 46.4344 18.6883C46.4344 13.1419 41.9379 8.64551 36.3911 8.64551C30.8443 8.64551 26.3477 13.1419 26.3477 18.6883C26.3477 24.2348 30.8443 28.7311 36.3911 28.7311Z" fill="url(#paint1_linear_1_61082)"/>
<defs>
<linearGradient id="paint0_linear_1_61082" x1="24.3403" y1="8.64551" x2="24.3403" y2="28.7311" gradientUnits="userSpaceOnUse">
<stop stop-color="white"/>
</linearGradient>
<linearGradient id="paint1_linear_1_61082" x1="36.3911" y1="8.64551" x2="36.3911" y2="28.7311" gradientUnits="userSpaceOnUse">
<stop stop-color="white"/>
</linearGradient>
</defs>
</svg>
