<svg width="77" height="38" viewBox="0 0 77 38" fill="none" xmlns="http://www.w3.org/2000/svg">
<path d="M72.2009 0.545898H5.10113C2.87497 0.545898 1.07031 2.35051 1.07031 4.57662V32.7917C1.07031 35.0178 2.87497 36.8224 5.10113 36.8224H72.2009C74.427 36.8224 76.2317 35.0178 76.2317 32.7917V4.57662C76.2317 2.35051 74.427 0.545898 72.2009 0.545898Z" fill="#101529"/>
<path opacity="0.5" d="M33.0296 11.3573L26.8732 26.0214H22.8517L19.8135 14.3248C19.7802 14.0509 19.6794 13.7896 19.5204 13.5642C19.3613 13.3387 19.1488 13.1563 18.902 13.0329C17.7185 12.47 16.4674 12.0616 15.1797 11.8177L15.2563 11.362H21.7129C22.1411 11.3519 22.5577 11.5021 22.881 11.783C23.2042 12.064 23.4109 12.4556 23.4605 12.8811L25.0538 21.3831L29.0035 11.4327H33.0296V11.3573ZM48.7527 21.2312C48.7527 17.3571 43.436 17.1297 43.436 15.4588C43.436 14.9266 43.9682 14.3955 45.0316 14.2435C46.3125 14.1039 47.6064 14.3417 48.7539 14.9277L49.4381 11.813C48.2961 11.3814 47.0883 11.1501 45.8677 11.1289C42.1453 11.1289 39.4898 13.1002 39.4898 15.9899C39.4898 18.1166 41.3892 19.2565 42.8318 19.9395C44.2743 20.6225 44.8031 21.0793 44.8031 21.7623C44.8031 22.7503 43.6632 23.206 42.5245 23.206C41.1789 23.2147 39.8507 22.9022 38.6502 22.2945L37.9661 25.4845C39.2998 25.9896 40.7145 26.2469 42.1407 26.2441C46.0903 26.2441 48.6727 24.2728 48.7504 21.2312M58.6268 26.0214H62.1254L59.0872 11.362H55.8171C55.4743 11.355 55.1377 11.4532 54.8525 11.6433C54.5672 11.8334 54.347 12.1064 54.2214 12.4253L48.5255 26.0214H52.4751L53.2347 23.8182H58.0958L58.6268 26.0214ZM54.3734 20.8566L56.3448 15.3881L57.4846 20.8566H54.3734ZM38.423 11.3573L35.3083 26.0214H31.5116L34.6263 11.362H38.423V11.3573Z" fill="url(#paint0_linear_1_61110)"/>
<defs>
<linearGradient id="paint0_linear_1_61110" x1="38.6525" y1="11.1289" x2="38.6525" y2="26.2441" gradientUnits="userSpaceOnUse">
<stop stop-color="white"/>
</linearGradient>
</defs>
</svg>
