<svg width="159" height="51" viewBox="0 0 159 51" fill="none" xmlns="http://www.w3.org/2000/svg">
<path d="M70.5377 29.5971H49.2855C49.5866 31.4634 50.4295 32.9686 51.754 34.0521C53.0784 35.1358 54.7641 35.7378 56.8712 35.7378C59.3397 35.7378 61.4469 34.8949 63.2529 33.1491L68.7917 35.7378C67.4069 37.7246 65.7212 39.1695 63.7949 40.1328C61.8683 41.096 59.5806 41.5777 56.8712 41.5777C52.7172 41.5777 49.406 40.2532 46.7569 37.6643C44.1683 35.0757 42.8438 31.8246 42.8438 27.8512C42.8438 23.8174 44.1683 20.5063 46.7569 17.8572C49.3458 15.2083 52.5969 13.8838 56.51 13.8838C60.6641 13.8838 64.0355 15.2083 66.6243 17.8572C69.2132 20.5063 70.5377 23.998 70.5377 28.3929V29.5971ZM63.9754 24.4195C63.554 22.9746 62.6509 21.7706 61.3866 20.8674C60.1223 19.9643 58.6172 19.4828 56.9315 19.4828C55.0652 19.4828 53.4998 20.0246 52.0549 21.048C51.2121 21.7103 50.3692 22.8543 49.6469 24.4797H63.9754V24.4195Z" fill="#0D1019"/>
<path d="M75.0312 14.546H81.6538V17.2552C83.1587 15.9909 84.4833 15.0879 85.7475 14.6062C86.9516 14.1246 88.2159 13.8838 89.4801 13.8838C92.069 13.8838 94.2966 14.7868 96.1027 16.593C97.6078 18.1583 98.3904 20.446 98.3904 23.4563V40.8552H91.8884V29.3563C91.8884 26.2257 91.7681 24.1186 91.467 23.0949C91.1659 22.0715 90.6844 21.2889 90.0221 20.7471C89.2996 20.2052 88.4567 19.9643 87.4333 19.9643C86.1087 19.9643 84.965 20.3858 84.0016 21.2889C83.0384 22.192 82.3761 23.396 82.015 25.0215C81.8344 25.8643 81.7138 27.6103 81.7138 30.3797V40.9154H75.0915V14.546H75.0312Z" fill="#0D1019"/>
<path d="M117.172 13.8838C119.64 13.8838 121.988 14.4858 124.156 15.7501C126.323 17.0144 128.069 18.7 129.273 20.8072C130.477 22.9143 131.139 25.2623 131.139 27.7306C131.139 30.1991 130.537 32.5471 129.273 34.7143C128.069 36.8817 126.383 38.5674 124.216 39.7715C122.048 40.9757 119.761 41.5777 117.172 41.5777C113.379 41.5777 110.188 40.2532 107.479 37.544C104.83 34.8349 103.445 31.5837 103.445 27.7306C103.445 23.6369 104.95 20.2052 107.961 17.4358C110.67 15.0277 113.74 13.8838 117.172 13.8838ZM117.232 20.0849C115.185 20.0849 113.499 20.8072 112.115 22.2521C110.73 23.6971 110.068 25.5032 110.068 27.7306C110.068 30.0186 110.73 31.8849 112.115 33.2695C113.439 34.7143 115.185 35.3766 117.232 35.3766C119.279 35.3766 121.025 34.6543 122.41 33.2092C123.794 31.7643 124.456 29.898 124.456 27.6706C124.456 25.3828 123.794 23.5766 122.41 22.192C121.085 20.8072 119.339 20.0849 117.232 20.0849Z" fill="#0D1019"/>
<path d="M137.284 4.85059H143.906V14.5434H147.819V20.2026H143.906V40.8526H137.284V20.2026H133.912V14.5434H137.284V4.85059Z" fill="#0D1019"/>
<path d="M154.982 33.9922C156.006 33.9922 156.909 34.3534 157.691 35.0759C158.414 35.7982 158.775 36.7013 158.775 37.7248C158.775 38.7482 158.414 39.6513 157.691 40.4339C156.969 41.2167 156.066 41.5176 154.982 41.5176C153.959 41.5176 153.056 41.1565 152.273 40.4339C151.551 39.7116 151.189 38.8085 151.189 37.7248C151.189 36.6411 151.551 35.7982 152.273 35.0759C153.056 34.3534 153.899 33.9922 154.982 33.9922Z" fill="#FFDF54"/>
<path d="M14.5694 50.1835V34.3498H0L19.5061 0.936523V16.8304H33.7745L14.5694 50.1835Z" fill="#FFDF54"/>
</svg>
