<svg width="76" height="47" viewBox="0 0 76 47" fill="none" xmlns="http://www.w3.org/2000/svg">
<path d="M48.0036 4.98965H27.5957V41.6592H48.0036V4.98965Z" fill="#FF5F00"/>
<path d="M28.8908 23.324C28.8908 15.8735 32.3893 9.2652 37.7666 4.98925C33.8146 1.87947 28.826 0.000640869 23.3839 0.000640869C10.4913 0.000640869 0.0605469 10.4314 0.0605469 23.324C0.0605469 36.2166 10.4913 46.6474 23.3839 46.6474C28.826 46.6474 33.8146 44.7685 37.7666 41.6587C32.3893 37.4476 28.8908 30.7745 28.8908 23.324Z" fill="#EB001B"/>
<path d="M75.5381 23.324C75.5381 36.2166 65.1074 46.6473 52.2148 46.6473C46.7727 46.6473 41.784 44.7685 37.832 41.6587C43.2741 37.3828 46.7079 30.7745 46.7079 23.324C46.7079 15.8735 43.2094 9.2652 37.832 4.98925C41.784 1.87947 46.7727 0.000640869 52.2148 0.000640869C65.1074 0.000640869 75.5381 10.4962 75.5381 23.324Z" fill="#F79E1B"/>
</svg>
