<svg width="86" height="25" viewBox="0 0 86 25" fill="none" xmlns="http://www.w3.org/2000/svg">
<path d="M61.6953 11.2528V24.5287H69.0708V16.6615H77.4297C80.9454 16.6369 83.9325 14.3874 85.0634 11.2528H61.6953Z" fill="#37A72E"/>
<path d="M60.7129 0.312164C61.1431 5.73316 66.2814 10.0232 72.5506 10.0232C72.5752 10.0232 85.3717 10.0232 85.3717 10.0232C85.47 9.53155 85.5192 9.01526 85.5192 8.48668C85.5192 3.98762 81.8929 0.349042 77.4061 0.312164H60.7129Z" fill="url(#paint0_linear_1_56815)"/>
<path d="M49.7955 9.88803C49.8816 9.74052 50.0168 9.65447 50.1889 9.65447C50.4347 9.65447 50.6191 9.85115 50.6314 10.0847V24.4055H58.0069V0.312164H50.6314C49.6972 0.349042 48.64 1.02513 48.2467 1.87331L42.3831 14.4608C42.3709 14.51 42.3463 14.5592 42.3217 14.6084C42.2356 14.7313 42.0881 14.8173 41.916 14.8173C41.6456 14.8173 41.4243 14.5961 41.4243 14.3256V0.312164H34.0488V24.4055H41.4243C42.3463 24.3563 43.3788 23.6802 43.7722 22.8443L49.7955 9.92491C49.7832 9.91261 49.7955 9.90032 49.7955 9.88803Z" fill="#37A72E"/>
<path d="M22.2617 10.3063L17.9471 24.4058H12.6367L8.33432 10.294C8.29744 10.0727 8.10076 9.90065 7.85491 9.90065C7.58448 9.90065 7.3755 10.1219 7.3755 10.3801V24.3935H0V0.300201H6.33064H8.2114C9.56357 0.300201 10.9895 1.35736 11.3829 2.64807L14.9723 14.3874C15.1567 14.9775 15.4394 14.9652 15.6238 14.3874L19.2132 2.64807C19.6066 1.34507 21.0325 0.300201 22.3847 0.300201H24.2654H30.5961V24.3935H23.2205V10.3801C23.2205 10.3801 23.2205 10.3801 23.2205 10.3678C23.2205 10.0973 22.9993 9.88836 22.7411 9.88836C22.4953 9.90065 22.2986 10.0727 22.2617 10.3063Z" fill="#37A72E"/>
<defs>
<linearGradient id="paint0_linear_1_56815" x1="60.7159" y1="5.16772" x2="85.5177" y2="5.16772" gradientUnits="userSpaceOnUse">
<stop stop-color="#00A0E5"/>
<stop offset="1" stop-color="#0077C3"/>
</linearGradient>
</defs>
</svg>
