<svg width="15" height="8" viewBox="0 0 15 8" fill="none" xmlns="http://www.w3.org/2000/svg">
<path d="M-0.235352 0.670898C-0.235238 0.92156 -0.135274 1.1381 0.0517578 1.30664L0.0517578 1.30566L6.42187 7.06836L6.43164 7.07715L6.44238 7.08398C6.53745 7.15252 6.6412 7.20804 6.75293 7.25C6.87058 7.29418 6.99208 7.31738 7.11523 7.31738C7.23822 7.31733 7.35906 7.29411 7.47656 7.25C7.58832 7.20804 7.69202 7.15254 7.78711 7.08398L7.79785 7.07715L7.80762 7.06836L14.1768 1.30566L14.1777 1.30664C14.3648 1.1381 14.4647 0.92156 14.4648 0.670899C14.4648 0.421336 14.3666 0.201985 14.1875 0.0224616L14.1787 0.0136725L14.0205 0.188477L14.1777 0.0136725C13.99 -0.155472 13.7573 -0.235351 13.4971 -0.235351C13.2368 -0.235312 13.0042 -0.155527 12.8164 0.0136724L7.11426 5.15137L1.41309 0.0136719C1.22529 -0.15554 0.992712 -0.235349 0.732422 -0.235352C0.472133 -0.235352 0.239558 -0.155534 0.0517578 0.0136719L0.0419922 0.0214844L0.0429687 0.0224609C-0.136401 0.202056 -0.235352 0.421156 -0.235352 0.670898Z" fill="white" stroke="white" stroke-width="0.470988"/>
</svg>
