<svg width="20" height="20" viewBox="0 0 20 20" fill="none" xmlns="http://www.w3.org/2000/svg">
<path d="M9.99935 1.66656C5.39935 1.66656 1.66602 5.3999 1.66602 9.9999C1.66602 14.5999 5.39935 18.3332 9.99935 18.3332C14.5993 18.3332 18.3327 14.5999 18.3327 9.9999C18.3327 5.3999 14.5993 1.66656 9.99935 1.66656ZM9.99935 4.16656C11.3827 4.16656 12.4993 5.28323 12.4993 6.66656C12.4993 8.0499 11.3827 9.16656 9.99935 9.16656C8.61602 9.16656 7.49935 8.0499 7.49935 6.66656C7.49935 5.28323 8.61602 4.16656 9.99935 4.16656ZM9.99935 15.9999C7.91602 15.9999 6.07435 14.9332 4.99935 13.3166C5.02435 11.6582 8.33268 10.7499 9.99935 10.7499C11.6577 10.7499 14.9743 11.6582 14.9993 13.3166C13.9243 14.9332 12.0827 15.9999 9.99935 15.9999Z" fill="#44A0FF"/>
</svg>
