<svg width="19" height="22" viewBox="0 0 19 22" fill="none" xmlns="http://www.w3.org/2000/svg">
<path d="M10.5283 13.7496H8.69499C8.45187 13.7496 8.21871 13.8462 8.04681 14.0181C7.8749 14.19 7.77832 14.4231 7.77832 14.6662V21.0829H11.445V14.6662C11.445 14.4231 11.3484 14.19 11.1765 14.0181C11.0046 13.8462 10.7714 13.7496 10.5283 13.7496Z" fill="#27BA70"/>
<path d="M16.7325 4.73926L12.1492 1.68676C11.397 1.18619 10.5136 0.919128 9.61003 0.919128C8.70647 0.919128 7.82308 1.18619 7.07086 1.68676L2.48753 4.73926C1.85915 5.15742 1.34376 5.72429 0.987153 6.38954C0.630544 7.05478 0.443749 7.7978 0.443359 8.55259V16.5001C0.443359 17.102 0.561911 17.698 0.792245 18.2541C1.02258 18.8101 1.36018 19.3154 1.78579 19.741C2.64533 20.6005 3.81112 21.0834 5.02669 21.0834H5.94336V14.6668C5.94336 13.9374 6.23309 13.2379 6.74882 12.7222C7.26454 12.2065 7.96401 11.9168 8.69336 11.9168H10.5267C11.256 11.9168 11.9555 12.2065 12.4712 12.7222C12.987 13.2379 13.2767 13.9374 13.2767 14.6668V21.0834H14.1934C14.7953 21.0834 15.3912 20.9649 15.9473 20.7345C16.5034 20.5042 17.0087 20.1666 17.4343 19.741C17.8599 19.3154 18.1975 18.8101 18.4278 18.2541C18.6581 17.698 18.7767 17.102 18.7767 16.5001V8.55259C18.7763 7.7978 18.5895 7.05478 18.2329 6.38954C17.8763 5.72429 17.3609 5.15742 16.7325 4.73926Z" fill="#27BA70"/>
</svg>
