<svg width="23" height="22" viewBox="0 0 23 22" fill="none" xmlns="http://www.w3.org/2000/svg">
<path d="M2.86621 11.6131V20.0029C2.86621 21.1061 3.76055 22.0005 4.86376 22.0005H10.5908C10.7379 22.0005 10.8571 21.8812 10.8571 21.7341V13.3443C10.8571 12.9762 11.1549 12.6784 11.523 12.6784C11.8911 12.6784 12.1889 12.9762 12.1889 13.3443V21.7341C12.1889 21.8812 12.3081 22.0004 12.4552 22.0004H18.1809C19.2841 22.0004 20.1785 21.1061 20.1785 20.0029V11.6131C20.1785 11.466 20.0592 11.3468 19.9121 11.3468H3.13257C2.98546 11.3468 2.86621 11.466 2.86621 11.6131Z" fill="#5D6F93"/>
<path d="M22.1715 4.68714H19.668C19.9873 4.20791 20.1739 3.62204 20.1739 3.0095C20.1739 1.77075 19.4681 0.70499 18.3226 0.239429C17.1776 -0.240459 15.9126 0.0131256 15.0467 0.891586L11.5178 4.42051L7.98889 0.891586C7.12308 0.0131256 5.85803 -0.240459 4.71294 0.239429C3.56754 0.70499 2.86166 1.77075 2.86166 3.0095C2.86166 3.62204 3.0483 4.20791 3.36755 4.68714H0.864107C0.49118 4.68714 0.198242 4.97972 0.198242 5.353V9.34815C0.198242 9.72138 0.49118 10.014 0.864107 10.014H10.8653V6.68473C10.8653 6.3115 11.1449 6.03187 11.5178 6.01887H11.5311C11.9041 6.01887 12.197 6.3115 12.197 6.68473V10.014H22.1715C22.5445 10.014 22.8374 9.72138 22.8374 9.34815V5.353C22.8374 4.97972 22.5445 4.68714 22.1715 4.68714ZM5.87134 4.68714C4.9392 4.68714 4.19339 3.94128 4.19339 3.0095C4.19339 2.1837 4.72594 1.67777 5.23218 1.46451C5.41847 1.38452 5.64508 1.33119 5.88469 1.33119C6.27093 1.33119 6.69687 1.46451 7.05644 1.82408L9.9065 4.68714H5.87134ZM17.1643 4.68714H13.1292L15.9792 1.82408C16.5651 1.2512 17.311 1.26487 17.8035 1.46451C18.3097 1.67777 18.8423 2.1837 18.8423 3.0095C18.8422 3.94128 18.0964 4.68714 17.1643 4.68714Z" fill="#5D6F93"/>
</svg>
