<svg width="24" height="24" viewBox="0 0 24 24" fill="none" xmlns="http://www.w3.org/2000/svg">
<path d="M6.04199 5.14062C6.19567 5.14364 6.34707 5.17826 6.4873 5.24121C6.5927 5.28853 6.69016 5.35147 6.77637 5.42773L6.8584 5.50781L6.86133 5.51074L11.6582 10.3066L11.7402 10.3887L11.8213 10.3066L16.6152 5.5127C16.8321 5.31258 17.1181 5.20403 17.4131 5.20996C17.7082 5.2159 17.9896 5.33614 18.1982 5.54492C18.4068 5.75368 18.5265 6.03503 18.5322 6.33008C18.5372 6.58816 18.4546 6.83908 18.2998 7.04297L18.2285 7.12793L13.4355 11.9199L13.3535 12.002L13.4355 12.083L18.2285 16.876V16.877C18.4289 17.0937 18.538 17.3797 18.5322 17.6748C18.5265 17.9698 18.4068 18.2512 18.1982 18.46C17.9896 18.6687 17.7082 18.789 17.4131 18.7949C17.1547 18.8001 16.9033 18.7175 16.6992 18.5625L16.6152 18.4922L11.8213 13.6982L11.7402 13.6162L6.8584 18.498C6.75398 18.611 6.62763 18.7016 6.4873 18.7646C6.34705 18.8276 6.19571 18.8622 6.04199 18.8652C5.88826 18.8682 5.73539 18.8397 5.59277 18.7822C5.45017 18.7247 5.32062 18.639 5.21191 18.5303C5.10324 18.4215 5.01737 18.292 4.95996 18.1494C4.90259 18.0068 4.8739 17.8539 4.87695 17.7002C4.88005 17.5464 4.91443 17.3942 4.97754 17.2539C5.04057 17.1139 5.13136 16.988 5.24414 16.8838H5.24512L5.24805 16.8799L10.126 12.002L10.0449 11.9199L5.24805 7.12598L5.24414 7.12305L5.16406 7.04004C5.08798 6.95403 5.02483 6.85708 4.97754 6.75195C4.91449 6.6118 4.8801 6.46029 4.87695 6.30664C4.87386 6.15285 4.90255 5.99916 4.95996 5.85645C5.01737 5.71391 5.1033 5.58428 5.21191 5.47559C5.32059 5.36691 5.45022 5.28109 5.59277 5.22363C5.73537 5.1662 5.88829 5.13764 6.04199 5.14062Z" fill="#798CB4" stroke="#798CB4" stroke-width="0.230873"/>
</svg>
