<svg width="26" height="27" viewBox="0 0 26 27" fill="none" xmlns="http://www.w3.org/2000/svg">
<rect y="0.335938" width="25.7899" height="25.7899" rx="12.895" fill="#101529"/>
<path d="M19.3901 11.0778C19.3083 10.2883 19.1324 9.41559 18.4848 8.95697C17.9832 8.60131 17.324 8.58816 16.7085 8.58889C15.4075 8.58889 14.1058 8.59109 12.8048 8.59182C11.5534 8.59328 10.302 8.59401 9.05066 8.59547C8.52792 8.59547 8.01978 8.5553 7.53428 8.78169C7.1174 8.97595 6.79105 9.34548 6.59466 9.75664C6.32234 10.3285 6.2654 10.9762 6.23254 11.6087C6.17195 12.7604 6.17852 13.915 6.2508 15.0659C6.30409 15.9058 6.43915 16.834 7.0882 17.3693C7.6635 17.8432 8.47536 17.8666 9.2215 17.8673C11.5899 17.8695 13.959 17.8717 16.3281 17.8732C16.6319 17.8739 16.9487 17.8681 17.2583 17.8345C17.8672 17.7687 18.4476 17.5942 18.8389 17.1429C19.2339 16.6879 19.3354 16.0547 19.3952 15.4552C19.5412 14.0004 19.5398 12.5318 19.3901 11.0778ZM11.4351 15.2704V11.1917L14.9658 13.2307L11.4351 15.2704Z" fill="#798CB4"/>
</svg>
