<svg width="26" height="27" viewBox="0 0 26 27" fill="none" xmlns="http://www.w3.org/2000/svg">
<rect y="0.874023" width="25.7899" height="25.7899" rx="12.895" fill="#101529"/>
<path d="M5.53448 13.1916C5.56549 13.1761 5.59652 13.1614 5.62676 13.1474C6.15243 12.9039 6.68508 12.6759 7.21695 12.4479C7.24563 12.4479 7.29369 12.4145 7.32083 12.4037C7.36192 12.3859 7.40302 12.3688 7.44411 12.351C7.52319 12.3168 7.60228 12.2835 7.68059 12.2494C7.83875 12.1819 7.99613 12.1144 8.1543 12.0469L9.10097 11.6413C9.73208 11.3714 10.364 11.1008 10.9951 10.8309C11.6262 10.561 12.2581 10.2903 12.8892 10.0204C13.5203 9.75053 14.1522 9.47986 14.7833 9.20997C15.4144 8.94008 16.0463 8.66941 16.6774 8.39952C16.8178 8.33903 16.9697 8.24906 17.1201 8.22269C17.2465 8.2002 17.3698 8.15677 17.4969 8.13273C17.7381 8.08697 18.004 8.06836 18.235 8.16841C18.3149 8.20331 18.3886 8.25217 18.4498 8.31344C18.7429 8.60349 18.7018 9.07968 18.6398 9.48762C18.2079 12.3308 17.7761 15.1747 17.3434 18.0179C17.2845 18.408 17.2039 18.8361 16.8961 19.0827C16.6356 19.2914 16.2649 19.3146 15.9432 19.2262C15.6214 19.137 15.3377 18.9501 15.0593 18.7663C13.9049 18.0016 12.7496 17.2369 11.5952 16.4722C11.3207 16.2908 11.0153 16.0534 11.0184 15.7238C11.0199 15.5253 11.1385 15.3485 11.2595 15.191C12.2627 13.8819 13.7103 12.9823 14.7872 11.7336C14.9392 11.5576 15.0586 11.2396 14.85 11.138C14.7259 11.0775 14.5833 11.1597 14.4701 11.238C13.0466 12.2269 11.6239 13.2165 10.2004 14.2053C9.73597 14.5279 9.24907 14.8599 8.68928 14.939C8.18843 15.0103 7.68447 14.8707 7.19989 14.728C6.79362 14.6086 6.38812 14.486 5.98417 14.3596C5.76941 14.2929 5.54766 14.2208 5.38175 14.0696C5.21583 13.9183 5.12047 13.664 5.22049 13.4623C5.28329 13.3359 5.40502 13.256 5.53295 13.1909L5.53448 13.1916Z" fill="#798CB4"/>
</svg>
