<svg width="17" height="16" viewBox="0 0 17 16" fill="none" xmlns="http://www.w3.org/2000/svg">
<path d="M15.4401 15.9272C15.6324 15.9272 15.7882 15.7714 15.7882 15.5791V15.1633C15.7882 15.0419 15.7253 14.9285 15.6193 14.8692C14.1762 14.0612 12.4542 13.9785 10.3334 13.7604C10.2974 13.7567 10.2657 13.785 10.2658 13.8212L10.2642 14.6509C10.2639 14.8272 10.1705 14.99 10.0191 15.0784C9.93737 15.1261 9.97114 15.2517 10.0658 15.2532C11.9929 15.2824 13.2396 15.4296 14.729 15.91C14.764 15.9213 14.8007 15.9272 14.8373 15.9272H15.4401Z" fill="#FFB800"/>
<path d="M12.6924 13.3401C12.4254 13.3116 12.2814 13.0065 12.434 12.7857L13.3385 11.4775C13.3787 11.4193 13.4002 11.3503 13.4002 11.2796V6.33214C13.4002 5.95755 13.9109 5.84736 14.0653 6.18862L16.3375 11.2085C16.3879 11.32 16.3762 11.4497 16.3065 11.5503L14.9212 13.5489C14.8371 13.6703 14.6856 13.7254 14.5427 13.6882C14.2722 13.6179 13.8256 13.5064 13.4938 13.4474C13.2546 13.4048 12.954 13.368 12.6924 13.3401Z" fill="#FFB800"/>
<path d="M1.23084 15.9272C1.03863 15.9272 0.882812 15.7714 0.882812 15.5791V15.1633C0.882812 15.0419 0.945705 14.9285 1.05163 14.8692C2.49483 14.0612 4.21679 13.9785 6.33758 13.7604C6.37361 13.7567 6.40523 13.785 6.40517 13.8212L6.40677 14.6509C6.40711 14.8272 6.50044 14.99 6.65185 15.0784C6.73361 15.1261 6.69984 15.2517 6.60516 15.2532C4.67807 15.2824 3.43136 15.4296 1.94192 15.91C1.907 15.9213 1.87031 15.9272 1.83362 15.9272H1.23084Z" fill="#FFB800"/>
<path d="M3.97645 13.3401C4.24339 13.3116 4.38745 13.0065 4.23478 12.7857L3.33033 11.4775C3.29012 11.4193 3.26858 11.3503 3.26858 11.2796V6.33214C3.26858 5.95755 2.75795 5.84736 2.60349 6.18862L0.331324 11.2085C0.280876 11.32 0.292653 11.4497 0.362341 11.5503L1.74755 13.5489C1.83169 13.6703 1.98318 13.7254 2.12612 13.6882C2.39656 13.6179 2.84324 13.5064 3.17498 13.4474C3.41419 13.4048 3.71481 13.368 3.97645 13.3401Z" fill="#FFB800"/>
<path d="M11.4576 11.526C11.518 11.4387 11.5352 11.3286 11.5043 11.227L8.67796 1.92259C8.57819 1.59414 8.11351 1.59317 8.01237 1.92121L5.14353 11.2263C5.1121 11.3283 5.12917 11.439 5.18984 11.5268L6.23439 13.0376C6.27962 13.1031 6.38219 13.0712 6.38235 12.9916C6.38269 12.8154 6.47602 12.6526 6.62741 12.5642L7.34014 12.1479L8.05445 11.7345C8.13732 11.6865 8.2317 11.6647 8.32402 11.6691C8.41635 11.6647 8.50962 11.6865 8.59251 11.7345L9.30682 12.1479L10.0195 12.5642C10.1709 12.6526 10.2643 12.8154 10.2646 12.9916C10.2648 13.0712 10.3673 13.1031 10.4125 13.0376L11.4576 11.526Z" fill="#FFB800"/>
<path fill-rule="evenodd" clip-rule="evenodd" d="M8.53399 15.3988C8.41848 15.4651 8.27638 15.4651 8.16087 15.3988L7.61708 15.0862L7.07452 14.7715C6.95925 14.7047 6.8882 14.5816 6.88794 14.4484L6.88672 13.8212L6.88794 13.194C6.8882 13.0608 6.95925 12.9377 7.07452 12.8709L7.61708 12.5562L8.16087 12.2437C8.27638 12.1772 8.41848 12.1772 8.53399 12.2437L9.07779 12.5562L9.62035 12.8709C9.7356 12.9377 9.80665 13.0608 9.80691 13.194L9.80815 13.8212L9.80691 14.4484C9.80665 14.5816 9.7356 14.7047 9.62035 14.7715L9.07779 15.0862L8.53399 15.3988ZM8.95577 13.6076C8.95577 13.4154 8.79995 13.2596 8.60774 13.2596H8.13381C7.9416 13.2596 7.78578 13.4154 7.78578 13.6076V14.0816C7.78578 14.2738 7.9416 14.4296 8.13381 14.4296H8.60774C8.79995 14.4296 8.95577 14.2738 8.95577 14.0816V13.6076Z" fill="#FFB800"/>
</svg>
