<svg width="62" height="38" viewBox="0 0 62 38" fill="none" xmlns="http://www.w3.org/2000/svg">
<path d="M56.4813 0.609375H4.25564C2.03691 0.609375 0.238281 2.4079 0.238281 4.6265V32.7464C0.238281 34.965 2.03691 36.7635 4.25564 36.7635H56.4813C58.7 36.7635 60.4986 34.965 60.4986 32.7464V4.6265C60.4986 2.4079 58.7 0.609375 56.4813 0.609375Z" fill="#101529"/>
<path opacity="0.2" d="M45.6475 24.9023V24.5759H45.7873V24.5091H45.4609V24.5759H45.6007V24.9023H45.6475ZM46.3003 24.9023V24.5063H46.2074L46.091 24.7625L45.9746 24.5063H45.8816V24.9023H45.9485V24.5993L46.0649 24.8555H46.1317L46.2481 24.5993V24.9023H46.3003Z" fill="white"/>
<path opacity="0.35" d="M24.3403 28.7307C29.8871 28.7307 34.3837 24.2343 34.3837 18.6878C34.3837 13.1414 29.8871 8.64502 24.3403 8.64502C18.7935 8.64502 14.2969 13.1414 14.2969 18.6878C14.2969 24.2343 18.7935 28.7307 24.3403 28.7307Z" fill="url(#paint0_linear_1_60976)"/>
<path opacity="0.25" d="M36.3911 28.7307C41.9379 28.7307 46.4344 24.2343 46.4344 18.6878C46.4344 13.1414 41.9379 8.64502 36.3911 8.64502C30.8443 8.64502 26.3477 13.1414 26.3477 18.6878C26.3477 24.2343 30.8443 28.7307 36.3911 28.7307Z" fill="url(#paint1_linear_1_60976)"/>
<defs>
<linearGradient id="paint0_linear_1_60976" x1="24.3403" y1="8.64502" x2="24.3403" y2="28.7307" gradientUnits="userSpaceOnUse">
<stop stop-color="white"/>
</linearGradient>
<linearGradient id="paint1_linear_1_60976" x1="36.3911" y1="8.64502" x2="36.3911" y2="28.7307" gradientUnits="userSpaceOnUse">
<stop stop-color="white"/>
</linearGradient>
</defs>
</svg>
