<svg width="69" height="38" viewBox="0 0 69 38" fill="none" xmlns="http://www.w3.org/2000/svg">
<path d="M64.4155 0.375H4.62826C2.38064 0.375 0.558594 2.1971 0.558594 4.44477V32.9331C0.558594 35.1808 2.38064 37.0029 4.62826 37.0029H64.4155C66.6631 37.0029 68.4851 35.1808 68.4851 32.9331V4.44477C68.4851 2.1971 66.6631 0.375 64.4155 0.375Z" fill="#101529"/>
<path d="M54.2351 22.3932H52.281V18.5544H50.3994V22.3932H48.4453V16.9204H54.2351V22.3932Z" fill="url(#paint0_linear_1_60991)" fill-opacity="0.5"/>
<path fill-rule="evenodd" clip-rule="evenodd" d="M44.4359 22.5896C46.1852 22.5896 47.4843 21.517 47.4843 19.891C47.4843 18.3173 46.5258 17.2955 44.9241 17.2955C44.1849 17.2955 43.5749 17.5556 43.1155 18.0046C43.2252 17.0766 44.0099 16.3992 44.8739 16.3992C45.0733 16.3992 46.5745 16.3959 46.5745 16.3959L47.4234 14.7715C47.4234 14.7715 45.5387 14.8144 44.6626 14.8144C42.6607 14.8492 41.3086 16.6689 41.3086 18.8789C41.3086 21.4536 42.6273 22.5896 44.4359 22.5896ZM44.4466 18.7343C45.096 18.7343 45.5463 19.1611 45.5463 19.8908C45.5463 20.5476 45.1463 21.0888 44.4466 21.0902C43.7773 21.0902 43.327 20.5888 43.327 19.902C43.327 19.1721 43.7773 18.7343 44.4466 18.7343Z" fill="url(#paint1_linear_1_60991)" fill-opacity="0.5"/>
<path d="M39.7204 20.5595C39.7204 20.5595 39.2589 20.8255 38.5697 20.8758C37.7773 20.8993 37.0713 20.399 37.0713 19.5097C37.0713 18.6423 37.6943 18.1452 38.5497 18.1452C39.0742 18.1452 39.7681 18.5087 39.7681 18.5087C39.7681 18.5087 40.2758 17.5771 40.5389 17.1111C40.0573 16.746 39.4158 16.5459 38.6697 16.5459C36.7866 16.5459 35.3281 17.7736 35.3281 19.4987C35.3281 21.2458 36.6989 22.4449 38.6697 22.4088C39.2204 22.3883 39.9804 22.1948 40.4436 21.8973L39.7204 20.5595Z" fill="url(#paint2_linear_1_60991)" fill-opacity="0.5"/>
<path d="M14.793 12.3682L17.5036 17.2133V20.1687L14.7961 25.0043L14.7946 18.6862L14.793 12.3682Z" fill="#666976"/>
<path d="M25.207 15.4489L27.747 13.8921L32.9453 13.8872L25.207 18.6278V15.4489Z" fill="#676A77"/>
<path d="M25.1988 12.3407L25.2132 18.7555L22.4961 17.0861V7.49707L25.1988 12.3407Z" fill="#717480"/>
<path d="M32.9514 13.8897L27.7531 13.8945L25.1988 12.3407L22.4961 7.49707L32.9514 13.8897Z" fill="#717480"/>
<path d="M25.2132 25.0293V21.9171L22.4961 20.2793L22.4976 29.8778L25.2132 25.0293Z" fill="#727581"/>
<path d="M27.7345 23.4886L17.5036 17.2133L14.793 12.3682L32.9281 23.4822L27.7345 23.4886Z" fill="#6B6E7A"/>
<path d="M22.4961 29.8794L25.2116 25.0309L27.7453 23.4883L32.9388 23.4819L22.4961 29.8794Z" fill="#646875"/>
<path d="M14.793 25.0047L22.5029 20.2818L19.9109 18.6914L17.5005 20.1691L14.793 25.0047Z" fill="#696C79"/>
<defs>
<linearGradient id="paint0_linear_1_60991" x1="34.5151" y1="7.49615" x2="34.5151" y2="29.8799" gradientUnits="userSpaceOnUse">
<stop stop-color="white"/>
<stop offset="1" stop-color="white" stop-opacity="0.5"/>
</linearGradient>
<linearGradient id="paint1_linear_1_60991" x1="34.5189" y1="7.49678" x2="34.5189" y2="29.8805" gradientUnits="userSpaceOnUse">
<stop stop-color="white"/>
<stop offset="1" stop-color="white" stop-opacity="0.5"/>
</linearGradient>
<linearGradient id="paint2_linear_1_60991" x1="34.5213" y1="7.49453" x2="34.5213" y2="29.8783" gradientUnits="userSpaceOnUse">
<stop stop-color="white"/>
<stop offset="1" stop-color="white" stop-opacity="0.5"/>
</linearGradient>
</defs>
</svg>
