<svg width="128" height="129" viewBox="0 0 128 129" fill="none" xmlns="http://www.w3.org/2000/svg">
<path d="M32.6025 28.4092C33.45 28.4257 34.2854 28.6128 35.0586 28.96C35.8319 29.3072 36.5271 29.8073 37.1025 30.4297L37.1201 30.4473L63.5537 56.874L64.0039 57.3242L64.4531 56.874L90.8691 30.458C92.0642 29.3549 93.6396 28.7573 95.2656 28.79C96.8917 28.8228 98.4421 29.4834 99.5918 30.6338C100.741 31.7842 101.402 33.3349 101.434 34.9609C101.465 36.5819 100.87 38.1528 99.7725 39.3457L73.3457 65.7666L72.8955 66.2158L99.7686 93.0889C100.868 94.2823 101.465 95.8547 101.434 97.4775C101.402 99.1037 100.741 100.654 99.5918 101.805C98.4421 102.955 96.8918 103.617 95.2656 103.649C93.7413 103.68 92.2614 103.156 91.0977 102.182L90.8691 101.98L64.4531 75.5645L64.0039 75.1143L37.1025 102.016C36.5271 102.638 35.8319 103.138 35.0586 103.485C34.2853 103.833 33.45 104.021 32.6025 104.037C31.7551 104.054 30.9131 103.898 30.127 103.581C29.3407 103.264 28.6265 102.792 28.0273 102.192C27.4282 101.593 26.956 100.878 26.6396 100.092C26.3234 99.3055 26.1695 98.4635 26.1865 97.6162C26.2036 96.7687 26.3915 95.9332 26.7393 95.1602C27.087 94.3871 27.5872 93.6922 28.21 93.1172L28.2197 93.1084L55.1123 66.2158L54.6621 65.7656L28.2285 39.3457L28.2188 39.3369L28.21 39.3281L27.9824 39.1074C27.4646 38.5786 27.0436 37.9617 26.7393 37.2852C26.3916 36.5123 26.2036 35.6773 26.1865 34.8301C26.1695 33.9826 26.3233 33.1399 26.6396 32.3535C26.956 31.5671 27.4282 30.8525 28.0273 30.2529C28.6265 29.6534 29.3408 29.1811 30.127 28.8643C30.9131 28.5474 31.7551 28.3927 32.6025 28.4092Z" fill="#FF6363" stroke="#FAE7E7" stroke-width="1.27225"/>
</svg>
