<svg width="23" height="22" viewBox="0 0 23 22" fill="none" xmlns="http://www.w3.org/2000/svg">
<path d="M4.61766 9.41085C4.6249 9.4763 4.63225 9.54248 4.63968 9.6093L4.75485 10.6459C4.83569 11.3738 4.9058 12.0051 5.02812 12.5089C5.15971 13.0508 5.37664 13.5614 5.829 13.9663C6.28138 14.3712 6.81277 14.5304 7.36595 14.6013C7.88016 14.6673 8.51533 14.6672 9.24777 14.6672H14.1551C14.6572 14.6672 15.1004 14.6672 15.4705 14.6296C15.8715 14.5889 16.2611 14.4987 16.6358 14.2731C17.0104 14.0475 17.2725 13.7454 17.4961 13.4101C17.7025 13.1006 17.9098 12.7089 18.1447 12.2653L20.4267 7.95476C21.2364 6.42533 20.1277 4.58384 18.3971 4.58384H9.13774C8.23684 4.5838 7.46611 4.58375 6.85605 4.66899C6.54729 4.71214 6.24474 4.78121 5.96096 4.89897L5.82909 3.71222C5.71028 2.64287 4.80641 1.83386 3.73047 1.83386H3.27214C2.76588 1.83386 2.35547 2.24426 2.35547 2.75053C2.35547 3.25679 2.76588 3.6672 3.27214 3.6672H3.73047C3.87223 3.6672 3.99132 3.77379 4.00697 3.91468L4.61766 9.41085Z" fill="#5D6F93"/>
<path fill-rule="evenodd" clip-rule="evenodd" d="M13.3594 17.8753C13.3594 16.6096 14.3854 15.5836 15.651 15.5836C16.9167 15.5836 17.9427 16.6096 17.9427 17.8753C17.9427 19.1409 16.9167 20.167 15.651 20.167C14.3854 20.167 13.3594 19.1409 13.3594 17.8753Z" fill="#5D6F93"/>
<path fill-rule="evenodd" clip-rule="evenodd" d="M5.10742 17.8753C5.10742 16.6096 6.13344 15.5836 7.39909 15.5836C8.66474 15.5836 9.69075 16.6096 9.69075 17.8753C9.69075 19.1409 8.66474 20.167 7.39909 20.167C6.13344 20.167 5.10742 19.1409 5.10742 17.8753Z" fill="#5D6F93"/>
</svg>
